<?xml version="1.0" encoding="utf-8"?>
<!-- Generator: Adobe Illustrator 17.0.0, SVG Export Plug-In . SVG Version: 6.00 Build 0)  -->
<!DOCTYPE svg PUBLIC "-//W3C//DTD SVG 1.1//EN" "http://www.w3.org/Graphics/SVG/1.1/DTD/svg11.dtd">
<svg version="1.1" id="Layer_1" xmlns="http://www.w3.org/2000/svg" xmlns:xlink="http://www.w3.org/1999/xlink" x="0px" y="0px"
	 width="512px" height="512px" viewBox="0 0 512 512" enable-background="new 0 0 512 512" xml:space="preserve">
<g>
	<path fill="#EFEFEF" d="M256,60c51.28,0,93,41.72,93,93v206c0,51.28-41.72,93-93,93s-93-41.72-93-93V153
		C163,101.72,204.72,60,256,60 M256,25c-70.692,0-128,57.308-128,128v206c0,70.692,57.308,128,128,128s128-57.308,128-128V153
		C384,82.308,326.692,25,256,25L256,25z"/>
</g>
<circle fill="#EFEFEF" cx="256" cy="140" r="25">
<animateTransform  type="translate" fill="remove" attributeName="transform" restart="always" calcMode="linear" values="0,150;0,-20;0,150" attributeType="XML" additive="replace" id="upanddown" dur="1.5s" accumulate="none" repeatCount="indefinite">
	</animateTransform>
</circle>
</svg>
