<?xml version="1.0" standalone="no"?>
<!DOCTYPE svg PUBLIC "-//W3C//DTD SVG 1.1//EN" "http://www.w3.org/Graphics/SVG/1.1/DTD/svg11.dtd" >
<svg>
<metadata>
Created by FontForge 20120731 at Wed Jul 13 05:59:27 2016
 By ,,,
Copyright (C) 2001, 2008 Hoefler &#38; Frere-Jones. http://www.typography.com
</metadata>
<defs>
<font id="iCielGotham-Ultra" horiz-adv-x="800" >
  <font-face 
    font-family="iCiel Gotham Ultra"
    font-weight="500"
    font-stretch="normal"
    units-per-em="1000"
    panose-1="0 0 0 0 0 0 0 0 0 0"
    ascent="800"
    descent="-200"
    x-height="546"
    cap-height="700"
    bbox="-458 -331 1349 1148"
    underline-thickness="50"
    underline-position="-50"
    unicode-range="U+001D-2212"
  />
    <missing-glyph />
    <glyph glyph-name="ff" unicode="FF" horiz-adv-x="852" 
d="M88 371v-371h227v371h121v169h-126v4q0 44 53 44q36 0 73 -8v142q-53 15 -139 15q-108 0 -160 -52q-47 -47 -49 -139h-64v-175h64zM514 371v-371h227v371h121v169h-126v4q0 44 53 44q36 0 73 -8v142q-53 15 -139 15q-108 0 -160 -52q-49 -49 -49 -145h-64v-169h64z" />
    <glyph glyph-name="fi" unicode="FI" horiz-adv-x="725" 
d="M88 371v-371h227v371h121v169h-126v4q0 44 53 44q36 0 73 -8v142q-53 15 -139 15q-108 0 -160 -52q-47 -47 -49 -139h-64v-175h64zM474 546v-546h227v546h-227zM470 730v-145h235v145h-235z" />
    <glyph glyph-name="fl" unicode="FL" horiz-adv-x="725" 
d="M88 371v-371h227v371h121v169h-126v4q0 44 53 44q36 0 73 -8v142q-53 15 -139 15q-108 0 -160 -52q-47 -47 -49 -139h-64v-175h64zM474 730v-730h227v730h-227z" />
    <glyph glyph-name="ffi" unicode="FFI" horiz-adv-x="1151" 
d="M88 371v-371h227v371h121v169h-126v4q0 44 53 44q36 0 73 -8v142q-53 15 -139 15q-108 0 -160 -52q-47 -47 -49 -139h-64v-175h64zM514 371v-371h227v371h121v169h-126v4q0 44 53 44q36 0 73 -8v142q-53 15 -139 15q-108 0 -160 -52q-49 -49 -49 -145h-64v-169h64z
M900 546v-546h227v546h-227zM896 730v-145h235v145h-235z" />
    <glyph glyph-name="ffl" unicode="FFL" horiz-adv-x="1151" 
d="M88 371v-371h227v371h121v169h-126v4q0 44 53 44q36 0 73 -8v142q-53 15 -139 15q-108 0 -160 -52q-47 -47 -49 -139h-64v-175h64zM514 371v-371h227v371h121v169h-126v4q0 44 53 44q36 0 73 -8v142q-53 15 -139 15q-108 0 -160 -52q-49 -49 -49 -145h-64v-169h64z
M900 730v-730h227v730h-227z" />
    <glyph glyph-name="EX0Y-" horiz-adv-x="500" 
d="M0 800v-1000h500v1000h-500zM250 360l-179 390h358zM222 300l-172 -376v752zM278 300l172 376v-752zM71 -150l179 390l179 -390h-358z" />
    <glyph glyph-name=".null" horiz-adv-x="0" 
 />
    <glyph glyph-name="nonmarkingreturn" horiz-adv-x="333" 
 />
    <glyph glyph-name="space" unicode=" " horiz-adv-x="254" 
 />
    <glyph glyph-name="exclam" unicode="!" horiz-adv-x="324" 
d="M70 550l70 -332h114l70 332v150h-254v-150zM81 180v-180h232v180h-232z" />
    <glyph glyph-name="quotedbl" unicode="&#x22;" horiz-adv-x="554" 
d="M326 700l-27 -399h122l144 394v5h-239zM49 700l-27 -399h122l144 394v5h-239z" />
    <glyph glyph-name="numbersign" unicode="#" horiz-adv-x="711" 
d="M680 120v193h-97l14 78h114v193h-81l20 116h-157l-20 -116h-109l20 116h-157l-20 -116h-128v-193h95l-14 -78h-112v-193h79l-20 -120h157l20 120h109l-20 -120h157l20 120h130zM309 305l16 94h123l-16 -94h-123z" />
    <glyph glyph-name="dollar" unicode="$" horiz-adv-x="686" 
d="M563 465l96 152q-106 69 -235 81v60h-104v-57q-130 -7 -201 -69q-67 -58 -67 -155v-2q0 -93 69 -146q62 -47 201 -74v-84q-103 16 -208 84l-102 -151q126 -87 304 -104v-98h104v98q120 9 189 66q71 59 71 155v2q0 96 -68 149q-60 45 -194 72v82q81 -16 145 -61zM257 496
v2q0 36 67 37v-81q-67 12 -67 42zM480 205v-2q0 -35 -64 -38v81q64 -10 64 -41z" />
    <glyph glyph-name="percent" unicode="%" horiz-adv-x="937" 
d="M103 375q54 -58 138 -58t138 58q53 56 53 138v2q0 83 -52 138q-52 58 -139 58t-139 -58q-52 -55 -52 -138v-2q0 -82 53 -138zM204 566q15 18 37 18t37 -19q15 -20 15 -50v-2q0 -32 -16 -51q-15 -18 -36 -18t-36 19q-16 19 -16 50v2q0 31 15 51zM702 700l-259 -323
l-309 -377h151l253 315l315 385h-151zM608 47q54 -58 138 -58t138 58q53 56 53 138v2q0 83 -52 138q-52 58 -139 58t-139 -58q-52 -55 -52 -138v-2q0 -82 53 -138zM782 134q-15 -18 -36 -18t-36 19q-16 19 -16 50v2q0 31 15 51q15 18 37 18t37 -19q15 -20 15 -50v-2
q0 -32 -16 -51z" />
    <glyph glyph-name="ampersand" unicode="&#x26;" horiz-adv-x="700" 
d="M493 50l63 -64l149 109l-86 83q43 56 93 147l-143 67q-44 -76 -64 -103l-63 61q126 64 126 181v2q0 79 -59 130q-59 52 -160 52t-165 -57q-61 -55 -61 -137v-2q0 -69 43 -130q-148 -64 -148 -198v-2q0 -95 75 -150q71 -52 189 -52t211 63zM395 521q0 -51 -55 -79
q-31 41 -31 73v2q0 53 44 53q42 0 42 -47v-2zM382 166q-38 -20 -66 -20q-66 0 -66 56v2q0 35 35 61z" />
    <glyph glyph-name="quotesingle" unicode="'" horiz-adv-x="282" 
d="M49 700l-27 -399h127l144 394v5h-244z" />
    <glyph glyph-name="parenleft" unicode="(" horiz-adv-x="445" 
d="M366 -141l90 134q-176 122 -176 294t176 294l-90 134q-153 -78 -224 -170q-82 -106 -82 -258q0 -153 82 -257q70 -93 224 -171z" />
    <glyph glyph-name="parenright" unicode=")" horiz-adv-x="445" 
d="M38 -7l90 -134q154 78 224 171q82 104 82 257q0 152 -82 258q-71 92 -224 170l-90 -134q176 -122 176 -294t-176 -294z" />
    <glyph glyph-name="asterisk" unicode="*" horiz-adv-x="420" 
d="M185 450l-34 -144h128l-34 144l108 -102l67 113l-143 43l143 43l-67 113l-108 -102l34 144h-128l34 -144l-108 102l-67 -113l143 -43l-143 -43l67 -113z" />
    <glyph glyph-name="plus" unicode="+" horiz-adv-x="640" 
d="M263 253v-169h206v169h171v198h-171v168h-206v-168h-171v-198h171z" />
    <glyph glyph-name="comma" unicode="," horiz-adv-x="282" 
d="M28 -85l18 -83q225 10 225 219v183h-232v-230h91q0 -76 -102 -89z" />
    <glyph glyph-name="hyphen" unicode="-" horiz-adv-x="408" 
d="M60 408v-186h348v186h-348z" />
    <glyph glyph-name="period" unicode="." horiz-adv-x="282" 
d="M50 230v-230h232v230h-232z" />
    <glyph glyph-name="slash" unicode="/" horiz-adv-x="540" 
d="M347 798l-443 -926h179l443 926h-179z" />
    <glyph glyph-name="zero" unicode="0" horiz-adv-x="730" 
d="M145 94q94 -109 247 -109t249 110q89 104 89 255v2q0 151 -88 254q-94 109 -248 109q-153 0 -248 -110q-90 -103 -90 -255v-2q0 -150 89 -254zM470 232q-29 -44 -76 -44t-77 45q-29 46 -29 117v2q0 73 28 116q29 44 76 44t77 -45q29 -46 29 -117v-2q0 -73 -28 -116z" />
    <glyph glyph-name="one" unicode="1" horiz-adv-x="422" 
d="M140 500v-500h230v705h-177l-209 -57l42 -173z" />
    <glyph glyph-name="two" unicode="2" horiz-adv-x="625" 
d="M33 170v-170h590v183h-273l125 80q141 91 141 219v2q0 99 -77 164q-79 65 -198 65q-185 0 -309 -154l154 -131q81 87 135 87q63 0 63 -52q0 -42 -61 -85z" />
    <glyph glyph-name="three" unicode="3" horiz-adv-x="621" 
d="M-4 111q123 -126 323 -126q123 0 202 61q85 64 85 174v2q0 152 -173 199l157 118v161h-538v-182h260l-154 -122l31 -104h99q92 0 92 -56v-2q0 -56 -80 -56q-85 0 -165 76z" />
    <glyph glyph-name="four" unicode="4" horiz-adv-x="689" 
d="M367 121v-121h227v121h84v165h-84v419h-260l-342 -420l38 -164h337zM367 283h-149l149 186v-186z" />
    <glyph glyph-name="five" unicode="5" horiz-adv-x="630" 
d="M-8 100q127 -115 305 -115q137 0 222 66q89 69 89 188v2q0 105 -73 166q-67 55 -161 55q-71 0 -133 -38l5 91h331v185h-505l-20 -364l141 -70q56 44 107 44q36 0 59 -18t23 -49v-2q0 -28 -23 -48q-23 -19 -65 -19q-79 0 -173 76z" />
    <glyph glyph-name="six" unicode="6" horiz-adv-x="662" 
d="M145 69q84 -84 225 -84q123 0 203 67q87 71 87 193v2q0 95 -68 157q-62 56 -148 56q-82 0 -158 -62q11 137 123 137q65 0 136 -50l101 154q-106 76 -247 76q-165 0 -257 -110q-86 -104 -86 -275v-2q0 -170 89 -259zM416 176q-21 -23 -55 -23q-33 0 -56 23q-21 22 -21 56
v2q0 31 20 54q21 23 55 23q33 0 56 -23q21 -22 21 -55v-2q0 -32 -20 -55z" />
    <glyph glyph-name="seven" unicode="7" horiz-adv-x="609" 
d="M367 507l-303 -507h254l304 524v176h-574v-193h319z" />
    <glyph glyph-name="eight" unicode="8" horiz-adv-x="630" 
d="M105 45q85 -58 220 -58q136 0 220 57q85 57 85 149v2q0 117 -126 168q102 53 102 152v2q0 85 -78 141q-79 55 -203 55t-203 -55q-78 -56 -78 -141v-2q0 -99 102 -152q-126 -51 -126 -168v-2q0 -91 85 -148zM378 437q-20 -19 -53 -19t-53 19q-20 20 -20 49v2q0 26 20 46
q22 20 53 20t53 -20q20 -20 20 -46v-2q0 -29 -20 -49zM386 171q-22 -22 -61 -22t-61 22q-20 20 -20 48v2q0 29 22 48q23 20 59 20t59 -20q22 -19 22 -48v-2q0 -28 -20 -48z" />
    <glyph glyph-name="nine" unicode="9" horiz-adv-x="662" 
d="M435 298q-13 -133 -123 -133q-76 0 -147 53l-101 -151q112 -82 259 -82q161 0 253 107q88 103 88 280v2q0 170 -85 255q-86 86 -228 86q-126 0 -206 -69q-85 -72 -85 -194v-2q0 -96 65 -158q64 -59 155 -59q88 0 155 65zM416 406q-21 -23 -55 -23q-33 0 -56 23
q-22 22 -22 56v2q0 35 21 59t55 24t56 -25q22 -23 22 -59v-2q0 -32 -21 -55z" />
    <glyph glyph-name="colon" unicode=":" horiz-adv-x="292" 
d="M60 546v-230h232v230h-232zM60 230v-230h232v230h-232z" />
    <glyph glyph-name="semicolon" unicode=";" horiz-adv-x="292" 
d="M49 546v-230h232v230h-232zM38 -89l18 -83q225 10 225 219v183h-232v-230h91q0 -75 -102 -89z" />
    <glyph glyph-name="less" unicode="&#x3c;" horiz-adv-x="640" 
d="M116 244l510 -184v211l-316 80l316 80v211l-510 -184v-214z" />
    <glyph glyph-name="equal" unicode="=" horiz-adv-x="640" 
d="M106 584v-191h534v191h-534zM106 311v-191h534v191h-534z" />
    <glyph glyph-name="greater" unicode="&#x3e;" horiz-adv-x="640" 
d="M144 271v-211l510 184v214l-510 184v-211l316 -80z" />
    <glyph glyph-name="question" unicode="?" horiz-adv-x="537" 
d="M158 391l28 -173h139l12 67q193 55 193 213v2q0 96 -73 154q-70 58 -184 58q-160 0 -273 -101l108 -162q81 63 142 63q59 0 59 -39v-1q0 -51 -139 -69zM136 180v-180h232v180h-232z" />
    <glyph glyph-name="at" unicode="@" horiz-adv-x="950" 
d="M201 -35q127 -127 321 -127q142 0 265 75l-20 32q-113 -67 -245 -67q-180 0 -292 114q-112 112 -112 283q0 169 113 284q116 116 293 116q168 0 278 -102q106 -97 106 -240q0 -95 -33 -150q-30 -51 -78 -51q-56 0 -56 55q0 21 5 56l45 247l-191 29l-13 -68
q-46 79 -130 79q-90 0 -155 -80q-64 -79 -64 -188q0 -93 52 -151q51 -57 131 -57q81 0 146 86q40 -91 156 -91q89 0 154 69q73 79 73 215q0 157 -119 268q-123 114 -307 114q-193 0 -321 -128q-127 -127 -127 -312t125 -310zM534 239q-20 -20 -48 -20q-53 0 -53 59
q0 41 26 67q20 20 48 20q53 0 53 -59q0 -41 -26 -67z" />
    <glyph glyph-name="glyph36" unicode="A" 
d="M273 705l-295 -705h250l36 94h245l37 -94h254l-295 705h-232zM451 260h-128l64 170z" />
    <glyph glyph-name="glyph37" unicode="B" horiz-adv-x="708" 
d="M80 700v-700h388q130 0 201 55q68 53 68 139v2q0 127 -148 170q125 44 125 160v2q0 66 -43 109q-63 63 -199 63h-392zM484 475v-2q0 -48 -74 -48h-102v98h101q75 0 75 -48zM502 230v-2q0 -51 -77 -51h-117v104h118q76 0 76 -51z" />
    <glyph glyph-name="glyph38" unicode="C" horiz-adv-x="723" 
d="M157 85q103 -100 254 -100q225 0 331 189l-193 109q-49 -88 -132 -88q-58 0 -94 43q-37 43 -37 112v2q0 64 36 108q38 45 95 45q84 0 127 -85l193 113q-101 182 -317 182q-157 0 -264 -104q-108 -105 -108 -261v-2q0 -160 109 -263z" />
    <glyph glyph-name="glyph39" unicode="D" horiz-adv-x="749" 
d="M80 700v-700h260q206 0 319 99q106 94 106 255v2q0 158 -104 250q-109 94 -313 94h-268zM314 496h39q176 0 176 -145v-2q0 -145 -176 -145h-39v292z" />
    <glyph glyph-name="glyph40" unicode="E" horiz-adv-x="665" 
d="M80 700v-700h602v192h-372v76h342v169h-342v71h367v192h-597z" />
    <glyph glyph-name="glyph41" unicode="F" horiz-adv-x="641" 
d="M80 700v-700h234v229h327v182h-327v89h352v200h-586z" />
    <glyph glyph-name="glyph42" unicode="G" horiz-adv-x="754" 
d="M163 85q110 -100 278 -100q180 0 309 105v324h-339v-150h120v-70q-28 -16 -80 -16q-74 0 -120 46q-47 47 -47 121v2q0 71 44 118q45 47 113 47q84 0 155 -61l131 158q-121 106 -293 106q-166 0 -276 -104t-110 -261v-2q0 -160 115 -263z" />
    <glyph glyph-name="glyph43" unicode="H" horiz-adv-x="762" 
d="M80 700v-700h234v251h214v-251h234v700h-234v-247h-214v247h-234z" />
    <glyph glyph-name="glyph44" unicode="I" horiz-adv-x="318" 
d="M84 700v-700h234v700h-234z" />
    <glyph glyph-name="glyph45" unicode="J" horiz-adv-x="564" 
d="M-12 116q87 -130 262 -130q126 0 202 76q73 73 73 207v431h-228v-435q0 -37 -18 -59t-47 -22q-48 0 -91 61z" />
    <glyph glyph-name="glyph46" unicode="K" horiz-adv-x="730" 
d="M80 700v-700h234v149l60 73l137 -222h279l-249 396l244 304h-272l-199 -262v262h-234z" />
    <glyph glyph-name="glyph47" unicode="L" horiz-adv-x="614" 
d="M80 700v-700h563v200h-329v500h-234z" />
    <glyph glyph-name="glyph48" unicode="M" horiz-adv-x="868" 
d="M80 700v-700h229v347l161 -249h4l161 249v-347h233v700h-244l-150 -246l-150 246h-244z" />
    <glyph glyph-name="glyph49" unicode="N" horiz-adv-x="780" 
d="M80 700v-700h232v323l260 -323h208v700h-232v-309l-249 309h-219z" />
    <glyph glyph-name="glyph50" unicode="O" horiz-adv-x="812" 
d="M158 90q110 -105 271 -105t273 106q110 107 110 259v2q0 153 -109 258q-111 105 -272 105q-162 0 -272 -106q-111 -107 -111 -259v-2q0 -153 110 -258zM537 239q-41 -47 -106 -47t-107 48q-40 44 -40 110v2q0 64 39 109q41 47 106 47t107 -48q40 -44 40 -110v-2
q0 -64 -39 -109z" />
    <glyph glyph-name="glyph51" unicode="P" horiz-adv-x="678" 
d="M80 700v-700h234v190h76q144 0 230 66q88 69 88 193v2q0 121 -87 187q-83 62 -226 62h-315zM377 357h-63v156h64q99 0 99 -77v-2q0 -77 -100 -77z" />
    <glyph glyph-name="glyph52" unicode="Q" horiz-adv-x="812" 
d="M724 -21l98 109l-72 61q62 92 62 201v2q0 153 -109 258q-111 105 -272 105q-162 0 -272 -106q-111 -107 -111 -259v-2q0 -153 110 -258t271 -105q121 0 218 63zM479 193q-26 -8 -48 -8q-66 0 -108 49q-39 46 -39 112v2q0 64 39 111q42 49 106 49q66 0 109 -49
q40 -46 40 -112v-2q0 -17 -5 -42l-75 68l-98 -110z" />
    <glyph glyph-name="glyph53" unicode="R" horiz-adv-x="715" 
d="M80 700v-700h234v200h50l132 -200h267l-163 238q138 68 138 214v2q0 102 -64 166q-80 80 -252 80h-342zM415 367h-101v137h102q89 0 89 -67v-2q0 -68 -90 -68z" />
    <glyph glyph-name="glyph54" unicode="S" horiz-adv-x="664" 
d="M-36 105q134 -118 359 -118q143 0 225 63q84 64 84 174v2q0 99 -82 154q-67 45 -217 72q-93 18 -93 45v2q0 29 51 29q115 0 210 -69l114 158q-122 96 -316 96q-139 0 -221 -68q-76 -64 -76 -168v-2q0 -100 89 -156q65 -41 206 -69q97 -19 97 -46v-2q0 -30 -60 -30
q-139 0 -245 82z" />
    <glyph glyph-name="glyph55" unicode="T" horiz-adv-x="672" 
d="M232 502v-502h234v502h206v198h-646v-198h206z" />
    <glyph glyph-name="glyph56" unicode="U" horiz-adv-x="760" 
d="M68 314q0 -328 344 -328q348 0 348 333v381h-238v-388q0 -119 -108 -119t-108 124v383h-238v-386z" />
    <glyph glyph-name="glyph57" unicode="V" horiz-adv-x="770" 
d="M-22 700l284 -705h224l284 705h-258l-136 -393l-136 393h-262z" />
    <glyph glyph-name="glyph58" unicode="W" horiz-adv-x="1112" 
d="M0 700l229 -705h204l123 348l123 -348h204l229 705h-241l-99 -336l-113 338h-202l-113 -338l-99 336h-245z" />
    <glyph glyph-name="glyph59" unicode="X" horiz-adv-x="732" 
d="M722 700h-261l-102 -167l-101 167h-266l227 -344l-237 -356h261l112 182l111 -182h266l-237 359z" />
    <glyph glyph-name="glyph60" unicode="Y" horiz-adv-x="730" 
d="M232 248v-248h234v251l264 449h-259l-121 -230l-120 230h-262z" />
    <glyph glyph-name="glyph61" unicode="Z" horiz-adv-x="688" 
d="M36 164v-164h653v192h-317l317 344v164h-641v-192h305z" />
    <glyph glyph-name="bracketleft" unicode="[" horiz-adv-x="450" 
d="M100 700v-830h368v139h-175v552h175v139h-368z" />
    <glyph glyph-name="backslash" unicode="\" horiz-adv-x="540" 
d="M-68 798l443 -926h179l-443 926h-179z" />
    <glyph glyph-name="bracketright" unicode="]" horiz-adv-x="450" 
d="M64 9v-139h368v830h-368v-139h175v-552h-175z" />
    <glyph glyph-name="asciicircum" unicode="^" horiz-adv-x="500" 
d="M208 698l-140 -205h154l61 77l61 -77h156l-140 205h-152z" />
    <glyph glyph-name="underscore" unicode="_" horiz-adv-x="600" 
d="M-4 -44v-116h604v116h-604z" />
    <glyph glyph-name="grave" unicode="`" horiz-adv-x="500" 
d="M134 715l165 -135h152l-96 192z" />
    <glyph glyph-name="A" unicode="a" horiz-adv-x="606" 
d="M76 31q49 -44 129 -44q94 0 157 68v-55h227v311q0 116 -57 173q-71 71 -231 71q-126 0 -230 -40l40 -151q77 31 151 31q101 0 101 -79v-9q-49 20 -129 20q-96 0 -152 -44q-56 -45 -56 -126v-2q0 -79 50 -124zM345 141q-20 -23 -50 -23q-22 0 -37 15q-15 13 -15 38v2
q0 61 70 61q29 0 52 -9v-23q0 -38 -20 -61z" />
    <glyph glyph-name="B" unicode="b" horiz-adv-x="676" 
d="M295 62q67 -75 164 -75q99 0 165 79q68 83 68 209v2q0 124 -68 204q-68 78 -167 78q-88 0 -162 -80v251h-227v-730h227v62zM446 202q-25 -28 -65 -28q-39 0 -65 29t-26 69v2q0 41 26 70q25 28 65 28t65 -28q26 -29 26 -70v-2q0 -41 -26 -70z" />
    <glyph glyph-name="C" unicode="c" horiz-adv-x="567" 
d="M115 71q82 -85 206 -85q182 0 262 149l-165 94q-34 -55 -85 -55q-35 0 -57 28q-24 29 -24 70v2q0 41 24 68q24 28 60 28q50 0 80 -55l163 92q-70 151 -247 151q-130 0 -216 -86q-82 -82 -82 -200v-2q0 -116 81 -199z" />
    <glyph glyph-name="D" unicode="d" horiz-adv-x="676" 
d="M104 65q68 -78 167 -78q88 0 162 80v-67h227v730h-227v-246q-67 75 -164 75q-99 0 -165 -79q-68 -83 -68 -209v-2q0 -124 68 -204zM412 202q-25 -28 -65 -28t-65 28q-26 29 -26 70v2q0 41 26 70q25 28 65 28q39 0 65 -29t26 -69v-2q0 -41 -26 -70z" />
    <glyph glyph-name="E" unicode="e" horiz-adv-x="598" 
d="M117 65q83 -78 217 -78q157 0 249 119l-122 97q-54 -56 -111 -56q-79 0 -103 73h351q1 8 1 38q0 132 -69 213q-76 88 -215 88q-123 0 -202 -82t-79 -205v-2q0 -127 83 -205zM392 320h-148q10 82 72 82q69 0 76 -82z" />
    <glyph glyph-name="F" unicode="f" horiz-adv-x="426" 
d="M88 371v-371h227v371h121v169h-126v4q0 44 53 44q36 0 73 -8v142q-53 15 -139 15q-108 0 -160 -52q-47 -47 -49 -139h-64v-175h64z" />
    <glyph glyph-name="G" unicode="g" horiz-adv-x="676" 
d="M40 -94q138 -68 303 -68q166 0 246 80q71 71 71 220v408h-227v-58q-69 71 -167 71t-162 -70q-68 -73 -68 -184v-2q0 -111 69 -182q67 -69 174 -69q92 0 158 75v-16q0 -120 -130 -120q-99 0 -197 52zM414 243q-25 -25 -67 -25q-41 0 -66 24t-25 60v2q0 37 25 62t66 25
t66 -25q25 -24 25 -60v-2q0 -37 -24 -61z" />
    <glyph glyph-name="H" unicode="h" horiz-adv-x="645" 
d="M68 730v-730h227v287q0 33 20 55q18 19 45 19q26 0 44 -19q18 -21 18 -55v-287h227v360q0 91 -50 146q-51 53 -137 53q-99 0 -167 -86v257h-227z" />
    <glyph glyph-name="I" unicode="i" horiz-adv-x="299" 
d="M64 730v-145h235v145h-235zM68 546v-546h227v546h-227z" />
    <glyph glyph-name="J" unicode="j" horiz-adv-x="302" 
d="M-80 -155q69 -8 90 -8q107 0 156 43q57 46 57 159v507h-227v-503q0 -35 -14 -51q-14 -14 -45 -14h-17v-133zM-8 730v-145h235v145h-235z" />
    <glyph glyph-name="K" unicode="k" horiz-adv-x="614" 
d="M68 730v-730h227v92l45 58l79 -150h243l-174 324l171 222h-247l-117 -168v352h-227z" />
    <glyph glyph-name="L" unicode="l" horiz-adv-x="299" 
d="M72 730v-730h227v730h-227z" />
    <glyph glyph-name="M" unicode="m" horiz-adv-x="991" 
d="M68 546v-546h227v289q0 34 19 53q18 19 44 19t42 -19q18 -20 18 -53v-289h227v289q0 34 19 53q18 19 44 19t42 -19q18 -19 18 -53v-289h227v360q0 92 -51 146q-50 53 -138 53q-106 0 -185 -90q-47 90 -161 90q-97 0 -165 -86v73h-227z" />
    <glyph glyph-name="N" unicode="n" horiz-adv-x="645" 
d="M68 546v-546h227v287q0 33 20 55q18 19 45 19q26 0 44 -19q18 -21 18 -55v-287h227v360q0 91 -50 146q-51 53 -137 53q-98 0 -167 -89v76h-227z" />
    <glyph glyph-name="O" unicode="o" horiz-adv-x="648" 
d="M120 71q88 -84 220 -84q134 0 222 85q86 83 86 201v2q0 117 -86 200q-89 84 -220 84q-133 0 -221 -85q-87 -82 -87 -201v-2q0 -117 86 -200zM405 204q-25 -28 -63 -28q-39 0 -64 28q-26 29 -26 69v2q0 41 25 67q25 28 63 28q39 0 64 -28q26 -29 26 -69v-2q0 -41 -25 -67z
" />
    <glyph glyph-name="P" unicode="p" horiz-adv-x="676" 
d="M68 546v-706h227v222q67 -75 164 -75q99 0 165 79q68 83 68 209v2q0 124 -68 204q-68 78 -167 78q-88 0 -162 -80v67h-227zM446 202q-25 -28 -65 -28q-39 0 -65 29t-26 69v2q0 41 26 70q25 28 65 28t65 -28q26 -29 26 -70v-2q0 -41 -26 -70z" />
    <glyph glyph-name="Q" unicode="q" horiz-adv-x="676" 
d="M433 67v-227h227v706h-227v-62q-67 75 -164 75q-99 0 -165 -79q-68 -83 -68 -209v-2q0 -124 68 -204q68 -78 167 -78q88 0 162 80zM412 202q-25 -28 -65 -28t-65 28q-26 29 -26 70v2q0 41 26 70q25 28 65 28q39 0 65 -29t26 -69v-2q0 -41 -26 -70z" />
    <glyph glyph-name="R" unicode="r" horiz-adv-x="437" 
d="M68 546v-546h227v139q0 174 147 174h24v241q-119 5 -171 -118v110h-227z" />
    <glyph glyph-name="S" unicode="s" horiz-adv-x="525" 
d="M-10 66q118 -79 280 -79q112 0 174 49q63 50 63 139v2q0 77 -59 121q-46 34 -162 63q-67 16 -67 32v2q0 17 32 17q83 0 174 -51l72 135q-103 63 -245 63q-108 0 -172 -48q-66 -51 -66 -139v-2q0 -78 60 -122q47 -33 163 -62q65 -17 65 -32v-2q0 -18 -33 -18
q-105 0 -202 61z" />
    <glyph glyph-name="T" unicode="t" horiz-adv-x="446" 
d="M88 183q0 -195 206 -195q87 0 145 31v175q-39 -17 -69 -17q-55 0 -55 56v138h126v175h-126v137h-227v-137h-64v-175h64v-188z" />
    <glyph glyph-name="U" unicode="u" horiz-adv-x="645" 
d="M110 40q51 -53 137 -53q99 0 167 86v-73h227v546h-227v-287q0 -33 -20 -55q-18 -19 -45 -19q-26 0 -44 19q-18 21 -18 55v287h-227v-360q0 -91 50 -146z" />
    <glyph glyph-name="V" unicode="v" horiz-adv-x="650" 
d="M0 546l221 -550h208l221 550h-235l-89 -274l-88 274h-238z" />
    <glyph glyph-name="W" unicode="w" horiz-adv-x="861" 
d="M2 546l165 -550h189l75 234l73 -234h190l167 550h-214l-58 -222l-67 224h-181l-66 -222l-56 220h-217z" />
    <glyph glyph-name="X" unicode="x" horiz-adv-x="594" 
d="M291 436l-60 110h-245l176 -273l-176 -273h241l61 110l61 -110h245l-176 273l175 273h-241z" />
    <glyph glyph-name="Y" unicode="y" horiz-adv-x="652" 
d="M423 546l-87 -288l-95 288h-235l214 -525q-18 -8 -37 -8q-35 0 -100 36l-66 -155q102 -57 211 -57q91 0 146 47q50 44 91 154l189 508h-231z" />
    <glyph glyph-name="Z" unicode="z" horiz-adv-x="563" 
d="M30 142v-142h536v178h-223l223 226v142h-527v-178h213z" />
    <glyph glyph-name="braceleft" unicode="{" horiz-adv-x="490" 
d="M460 -141l32 121q-79 14 -104 36q-23 21 -23 70l3 67q0 105 -119 134q119 29 119 134l-3 67q0 49 23 70q25 22 104 36l-32 121q-161 -14 -227 -56q-65 -44 -65 -132l3 -79q0 -52 -34 -74q-29 -19 -93 -19h-6v-136h6q64 0 93 -19q34 -22 34 -74l-3 -79q0 -89 65 -131
q68 -44 227 -57z" />
    <glyph glyph-name="bar" unicode="|" horiz-adv-x="360" 
d="M190 798v-926h170v926h-170z" />
    <glyph glyph-name="braceright" unicode="}" horiz-adv-x="490" 
d="M34 -20l32 -121q159 13 227 57q65 42 65 131l-3 79q0 52 34 74q29 19 93 19h6v136h-6q-64 0 -93 19q-34 22 -34 74l3 79q0 88 -65 132q-66 42 -227 56l-32 -121q79 -14 104 -36q23 -21 23 -70l-3 -67q0 -105 119 -134q-119 -29 -119 -134l3 -67q0 -49 -23 -70
q-25 -22 -104 -36z" />
    <glyph glyph-name="asciitilde" unicode="~" horiz-adv-x="500" 
d="M280 242q62 -21 96 -21q96 0 124 159l-101 25q-17 -44 -45 -44q-12 0 -66 18q-62 21 -96 21q-96 0 -124 -159l101 -25q17 44 45 44q12 0 66 -18z" />
    <glyph glyph-name="nbspace" unicode="&#xa0;" horiz-adv-x="254" 
 />
    <glyph glyph-name="exclamdown" unicode="&#xa1;" horiz-adv-x="324" 
d="M81 700v-180h232v180h-232zM70 150v-150h254v150l-70 332h-114z" />
    <glyph glyph-name="cent" unicode="&#xa2;" horiz-adv-x="569" 
d="M438 621l14 85h-127l-11 -68q-129 -8 -204 -86q-76 -77 -76 -196v-2q0 -92 53 -163q53 -73 140 -101l-15 -96h127l13 79q162 7 234 138l-145 82q-29 -47 -79 -58l35 226q24 -13 44 -42l143 80q-40 84 -146 122zM218 356v2q0 43 22 77q25 36 63 43l-36 -230
q-49 30 -49 108z" />
    <glyph glyph-name="sterling" unicode="&#xa3;" horiz-adv-x="633" 
d="M56 130v-130h586v174h-282v85h204v146h-204v23q0 39 21 60q19 22 57 22q53 0 98 -47l118 164q-94 87 -240 87q-133 0 -207 -74q-77 -77 -77 -215v-20h-74v-146h74v-97z" />
    <glyph glyph-name="yen" unicode="&#xa5;" horiz-adv-x="730" 
d="M58 395v-131h184v-39h-184v-131h184v-94h234v94h184v131h-184v39h184v131h-134l204 305h-259l-111 -202l-110 202h-262l201 -305h-131z" />
    <glyph glyph-name="section" unicode="&#xa7;" horiz-adv-x="620" 
d="M580 154q0 66 -52 106q92 32 92 102v2q0 62 -82 99q-37 17 -152 44q-84 19 -84 37v2q0 23 43 23q89 0 181 -51l72 135q-101 62 -241 62q-125 0 -196 -51q-61 -46 -61 -115v-2q0 -67 52 -107q-92 -32 -92 -102v-2q0 -62 82 -99q37 -17 152 -44q84 -19 84 -36v-2
q0 -24 -43 -24q-89 0 -181 51l-72 -135q101 -62 241 -62q126 0 196 52q61 46 61 115v2zM463 331q0 -26 -47 -26q-22 0 -98 17q-101 23 -101 45v2q0 26 47 26q22 0 98 -17q101 -23 101 -45v-2z" />
    <glyph glyph-name="dieresis" unicode="&#xa8;" horiz-adv-x="500" 
d="M323 730v-150h177v150h-177zM112 730v-150h177v150h-177z" />
    <glyph glyph-name="copyright" unicode="&#xa9;" horiz-adv-x="830" 
d="M210 93q106 -108 257 -108q152 0 258 109q105 106 105 256v2q0 148 -104 255q-106 108 -257 108q-152 0 -258 -109q-105 -106 -105 -256v-2q0 -148 104 -255zM696 121q-93 -96 -229 -96q-135 0 -228 95q-91 94 -91 228v2q0 134 92 229q93 96 229 96q135 0 228 -95
q91 -94 91 -228v-2q0 -134 -92 -229zM327 213q59 -57 147 -57q117 0 177 103l-106 60q-27 -48 -73 -48q-32 0 -52 23t-20 60v2q0 34 20 59q20 24 52 24q47 0 70 -47l106 63q-54 99 -172 99q-90 0 -149 -59q-58 -57 -58 -140v-2q0 -85 58 -140z" />
    <glyph glyph-name="ordfeminine" unicode="&#xaa;" horiz-adv-x="390" 
d="M98 420q25 -24 71 -24q51 0 86 38v-32h125v169q0 66 -31 96q-40 39 -127 39q-70 0 -127 -22l22 -83q48 17 83 17q56 0 56 -44v-3q-30 11 -71 11q-115 0 -115 -92v-2q0 -44 28 -68zM68 351v-87h318v87h-318zM257 514q0 -45 -39 -45q-28 0 -28 27v2q0 33 38 33q11 0 29 -5
v-12z" />
    <glyph glyph-name="guillemotleft" unicode="&#xab;" horiz-adv-x="618" 
d="M282 262l202 -239l140 70l-115 175l115 175l-140 70l-202 -239v-12zM38 224l169 -201l140 70l-115 175l115 175l-140 70l-169 -201v-88z" />
    <glyph glyph-name="registered" unicode="&#xae;" horiz-adv-x="368" 
d="M70 411q51 -51 124 -51q72 0 123 52q51 51 51 123v1q0 71 -50 123q-51 51 -124 51q-72 0 -123 -52q-51 -51 -51 -123v-1q0 -71 50 -123zM304 425q-45 -46 -110 -46t-110 46q-44 46 -44 109v1q0 63 44 110q45 46 110 46t110 -46q44 -46 44 -109v-1q0 -63 -44 -110z
M113 631v-184h62v52h13l35 -52h70l-43 63q37 16 37 57q0 64 -84 64h-90zM201 544h-26v36h27q23 0 23 -18t-24 -18z" />
    <glyph glyph-name="macron" unicode="&#xaf;" horiz-adv-x="500" 
d="M110 712v-122h390v122h-390z" />
    <glyph glyph-name="degree" unicode="&#xb0;" horiz-adv-x="464" 
d="M138 390q56 -54 135 -54t135 54t56 131v2q0 77 -58 132q-55 54 -133 54q-79 0 -134 -54q-57 -55 -57 -132v-2q0 -77 56 -131zM327 467q-22 -22 -54 -22t-54 22t-22 54v2q0 32 23 55q22 22 53 22t53 -22q23 -23 23 -55v-2q0 -32 -22 -54z" />
    <glyph glyph-name="plusminus" unicode="&#xb1;" horiz-adv-x="640" 
d="M460 373l180 -1v170l-180 -1l1 159h-184l1 -159l-180 1v-170l180 1l-1 -159h184zM98 0h542v154h-542v-154z" />
    <glyph glyph-name="twosuperior" unicode="&#xb2;" horiz-adv-x="400" 
d="M71 512v-98h325v106h-151l64 45q83 59 83 130q0 53 -42 89q-44 36 -112 36q-105 0 -170 -83l81 -75q45 46 79 46t34 -29q0 -24 -31 -46z" />
    <glyph glyph-name="threesuperior" unicode="&#xb3;" horiz-adv-x="400" 
d="M38 467q68 -65 178 -65q69 0 115 35q49 37 49 99q0 90 -107 110l98 71v93h-303v-102h155l-96 -72l16 -59h47q62 0 62 -35q0 -36 -47 -36q-51 0 -98 41z" />
    <glyph glyph-name="acute" unicode="&#xb4;" horiz-adv-x="500" 
d="M328 772l-96 -192h152l165 135z" />
    <glyph glyph-name="paragraph" unicode="&#xb6;" horiz-adv-x="601" 
d="M337 210v-210h234v700h-243q-144 0 -224 -63q-84 -65 -84 -183v-2q0 -113 84 -179q80 -63 215 -63h18z" />
    <glyph glyph-name="periodcentered" unicode="&#xb7;" horiz-adv-x="282" 
d="M50 430v-230h232v230h-232z" />
    <glyph glyph-name="cedilla" unicode="&#xb8;" horiz-adv-x="500" 
d="M202 -98l174 -75l58 193h-137z" />
    <glyph glyph-name="onesuperior" unicode="&#xb9;" horiz-adv-x="325" 
d="M138 414h135v403h-98l-141 -40l28 -100l76 19v-282z" />
    <glyph glyph-name="ordmasculine" unicode="&#xba;" horiz-adv-x="390" 
d="M99 438q48 -45 121 -45t122 46q48 45 48 110v2q0 65 -47 109q-48 45 -121 45t-122 -46q-48 -45 -48 -110v-2q0 -65 47 -109zM77 351v-87h288v87h-288zM270 547q0 -50 -48 -50q-21 0 -35 14q-15 15 -15 38v2q0 50 48 50q20 0 36 -14q14 -16 14 -38v-2z" />
    <glyph glyph-name="guillemotright" unicode="&#xbb;" horiz-adv-x="618" 
d="M303 93l140 -70l169 201v88l-169 201l-140 -70l115 -175zM26 93l140 -70l202 239v12l-202 239l-140 -70l115 -175z" />
    <glyph glyph-name="onequarter" unicode="&#xbc;" horiz-adv-x="825" 
d="M772 -2v65h45v92h-45v245h-156l-158 -240l17 -97h168v-65h129zM128 304h135v403h-98l-141 -40l28 -100l76 19v-282zM390 365l-257 -365h83l218 335l257 365h-83zM647 280v-129h-81z" />
    <glyph glyph-name="onehalf" unicode="&#xbd;" horiz-adv-x="825" 
d="M128 304h135v403h-98l-141 -40l28 -100l76 19v-282zM484 98v-98h325v106h-151l64 45q83 59 83 130q0 53 -42 89q-43 36 -112 36q-105 0 -170 -83l81 -75q45 46 79 46t34 -29q0 -24 -31 -46zM380 365l-257 -365h83l218 335l257 365h-83z" />
    <glyph glyph-name="threequarters" unicode="&#xbe;" horiz-adv-x="900" 
d="M854 -2v65h45v92h-45v245h-156l-158 -240l17 -97h168v-65h129zM38 357q68 -65 178 -65q69 0 115 35q49 37 49 99q0 90 -107 110l98 71v93h-303v-102h155l-96 -72l16 -59h47q62 0 62 -35q0 -36 -47 -36q-51 0 -98 41zM467 365l-257 -365h83l218 335l257 365h-83zM729 280
v-129h-81z" />
    <glyph glyph-name="questiondown" unicode="&#xbf;" horiz-adv-x="537" 
d="M176 700v-180h232v180h-232zM87 46q70 -58 184 -58q160 0 273 101l-108 162q-81 -63 -142 -63q-59 0 -59 39v1q0 51 139 69l12 12l-28 173h-139l-12 -67q-193 -55 -193 -213v-2q0 -96 73 -154z" />
    <glyph glyph-name="glyph125" unicode="&#xc0;" 
d="M273 705l-295 -705h250l36 94h245l37 -94h254l-295 705h-232zM451 260h-128l64 170zM310 750h167l-96 167l-231 -52z" />
    <glyph glyph-name="glyph126" unicode="&#xc1;" 
d="M273 705l-295 -705h250l36 94h245l37 -94h254l-295 705h-232zM451 260h-128l64 170zM397 917l-96 -167h167l160 115z" />
    <glyph glyph-name="glyph127" unicode="&#xc2;" 
d="M273 705l-295 -705h250l36 94h245l37 -94h254l-295 705h-232zM451 260h-128l64 170zM292 902l-118 -152h135l79 51l79 -51h137l-118 152h-194z" />
    <glyph glyph-name="glyph128" unicode="&#xc3;" 
d="M273 705l-295 -705h250l36 94h245l37 -94h254l-295 705h-232zM451 260h-128l64 170zM383 772q70 -22 106 -22q97 0 126 159l-101 25q-17 -44 -47 -44q-9 0 -68 17q-70 22 -106 22q-97 0 -126 -159l101 -25q17 44 47 44q9 0 68 -17z" />
    <glyph glyph-name="glyph129" unicode="&#xc4;" 
d="M273 705l-295 -705h250l36 94h245l37 -94h254l-295 705h-232zM451 260h-128l64 170zM409 900v-150h184v150h-184zM185 900v-150h184v150h-184z" />
    <glyph glyph-name="glyph130" unicode="&#xc5;" 
d="M255 663l-277 -663h250l36 94h245l37 -94h254l-277 663q24 35 24 76q0 61 -46 101q-44 40 -112 40t-112 -40q-46 -40 -46 -101q0 -41 24 -76zM448 686q-22 -21 -59 -21q-35 0 -58 21t-23 53t23 53t58 21q37 0 59 -21t22 -53t-22 -53zM451 260h-128l64 170z" />
    <glyph glyph-name="glyph131" unicode="&#xc6;" horiz-adv-x="1080" 
d="M325 700l-363 -700h235l47 94h217v-94h577v192h-352v76h322v169h-322v71h347v192h-708zM461 260h-134l128 255h6v-255z" />
    <glyph glyph-name="glyph132" unicode="&#xc7;" horiz-adv-x="723" 
d="M238 -98l174 -75l48 161q188 18 282 186l-193 109q-49 -88 -132 -88q-58 0 -94 43q-37 43 -37 112v2q0 64 36 108q38 45 95 45q84 0 127 -85l193 113q-101 182 -317 182q-157 0 -264 -104q-108 -105 -108 -261v-2q0 -130 77 -228q74 -92 189 -122z" />
    <glyph glyph-name="glyph133" unicode="&#xc8;" horiz-adv-x="665" 
d="M80 700v-700h602v192h-372v76h342v169h-342v71h367v192h-597zM302 740h167l-96 167l-231 -52z" />
    <glyph glyph-name="glyph134" unicode="&#xc9;" horiz-adv-x="665" 
d="M80 700v-700h602v192h-372v76h342v169h-342v71h367v192h-597zM389 907l-96 -167h167l160 115z" />
    <glyph glyph-name="glyph135" unicode="&#xca;" horiz-adv-x="665" 
d="M80 700v-700h602v192h-372v76h342v169h-342v71h367v192h-597zM284 892l-118 -152h135l79 51l79 -51h137l-118 152h-194z" />
    <glyph glyph-name="glyph136" unicode="&#xcb;" horiz-adv-x="665" 
d="M80 700v-700h602v192h-372v76h342v169h-342v71h367v192h-597zM401 890v-150h184v150h-184zM177 890v-150h184v150h-184z" />
    <glyph glyph-name="glyph137" unicode="&#xcc;" horiz-adv-x="318" 
d="M-38 700v-700h234v700h-234zM0 740h167l-96 167l-231 -52z" />
    <glyph glyph-name="glyph138" unicode="&#xcd;" horiz-adv-x="318" 
d="M84 700v-700h234v700h-234zM209 907l-96 -167h167l160 115z" />
    <glyph glyph-name="glyph139" unicode="&#xce;" horiz-adv-x="318" 
d="M-14 700v-700h234v700h-234zM6 892l-118 -152h135l79 51l79 -51h137l-118 152h-194z" />
    <glyph glyph-name="glyph140" unicode="&#xcf;" horiz-adv-x="318" 
d="M-3 700v-700h234v700h-234zM134 890v-150h184v150h-184zM-90 890v-150h184v150h-184z" />
    <glyph glyph-name="glyph141" unicode="&#xd0;" horiz-adv-x="817" 
d="M131 268v-268h260q207 0 319 99q106 94 106 255v2q0 158 -104 250q-109 94 -313 94h-268v-263h-85v-169h85zM355 272h86v161h-86v73h49q176 0 176 -155v-2q0 -155 -176 -155h-49v78z" />
    <glyph glyph-name="glyph142" unicode="&#xd1;" horiz-adv-x="780" 
d="M80 700v-700h232v323l260 -323h208v700h-232v-309l-249 309h-219zM424 762q70 -22 106 -22q98 0 126 159l-101 25q-17 -44 -47 -44q-9 0 -68 17q-70 22 -106 22q-98 0 -126 -159l101 -25q17 44 47 44q9 0 68 -17z" />
    <glyph glyph-name="glyph143" unicode="&#xd2;" horiz-adv-x="812" 
d="M158 90q110 -105 271 -105t273 106q110 107 110 259v2q0 153 -109 258q-111 105 -272 105q-162 0 -272 -106q-111 -107 -111 -259v-2q0 -153 110 -258zM537 239q-41 -47 -106 -47t-107 48q-40 44 -40 110v2q0 64 39 109q41 47 106 47t107 -48q40 -44 40 -110v-2
q0 -64 -39 -109zM351 750h167l-96 167l-231 -52z" />
    <glyph glyph-name="glyph144" unicode="&#xd3;" horiz-adv-x="812" 
d="M158 90q110 -105 271 -105t273 106q110 107 110 259v2q0 153 -109 258q-111 105 -272 105q-162 0 -272 -106q-111 -107 -111 -259v-2q0 -153 110 -258zM537 239q-41 -47 -106 -47t-107 48q-40 44 -40 110v2q0 64 39 109q41 47 106 47t107 -48q40 -44 40 -110v-2
q0 -64 -39 -109zM438 917l-96 -167h167l160 115z" />
    <glyph glyph-name="glyph145" unicode="&#xd4;" horiz-adv-x="812" 
d="M158 90q110 -105 271 -105t273 106q110 107 110 259v2q0 153 -109 258q-111 105 -272 105q-162 0 -272 -106q-111 -107 -111 -259v-2q0 -153 110 -258zM537 239q-41 -47 -106 -47t-107 48q-40 44 -40 110v2q0 64 39 109q41 47 106 47t107 -48q40 -44 40 -110v-2
q0 -64 -39 -109zM333 902l-118 -152h135l79 51l79 -51h137l-118 152h-194z" />
    <glyph glyph-name="glyph146" unicode="&#xd5;" horiz-adv-x="812" 
d="M158 90q110 -105 271 -105t273 106q110 107 110 259v2q0 153 -109 258q-111 105 -272 105q-162 0 -272 -106q-111 -107 -111 -259v-2q0 -153 110 -258zM537 239q-41 -47 -106 -47t-107 48q-40 44 -40 110v2q0 64 39 109q41 47 106 47t107 -48q40 -44 40 -110v-2
q0 -64 -39 -109zM424 772q70 -22 106 -22q98 0 126 159l-101 25q-17 -44 -47 -44q-9 0 -68 17q-70 22 -106 22q-98 0 -126 -159l101 -25q17 44 47 44q9 0 68 -17z" />
    <glyph glyph-name="glyph147" unicode="&#xd6;" horiz-adv-x="812" 
d="M158 90q110 -105 271 -105t273 106q110 107 110 259v2q0 153 -109 258q-111 105 -272 105q-162 0 -272 -106q-111 -107 -111 -259v-2q0 -153 110 -258zM537 239q-41 -47 -106 -47t-107 48q-40 44 -40 110v2q0 64 39 109q41 47 106 47t107 -48q40 -44 40 -110v-2
q0 -64 -39 -109zM450 900v-150h184v150h-184zM226 900v-150h184v150h-184z" />
    <glyph glyph-name="multiply" unicode="&#xd7;" horiz-adv-x="640" 
d="M359 221l143 -147l137 137l-147 143l147 143l-133 133l-143 -147l-144 147l-137 -137l148 -143l-147 -143l133 -133z" />
    <glyph glyph-name="glyph149" unicode="&#xd8;" horiz-adv-x="812" 
d="M812 705h-147l-40 -44q-91 54 -202 54q-162 0 -272 -106q-111 -107 -111 -259v-2q0 -138 93 -241l-101 -112h147l39 43q91 -53 203 -53q161 0 273 106q110 107 110 259v2q0 140 -93 240zM272 350v2q0 66 40 112q42 49 109 49q33 0 63 -14l-198 -221q-14 36 -14 72z
M532 236q-42 -49 -109 -49q-38 0 -64 13l198 221q15 -33 15 -71v-2q0 -66 -40 -112z" />
    <glyph glyph-name="glyph150" unicode="&#xd9;" horiz-adv-x="760" 
d="M68 314q0 -328 344 -328q348 0 348 333v381h-238v-388q0 -119 -108 -119t-108 124v383h-238v-386zM335 740h167l-96 167l-231 -52z" />
    <glyph glyph-name="glyph151" unicode="&#xda;" horiz-adv-x="760" 
d="M68 314q0 -328 344 -328q348 0 348 333v381h-238v-388q0 -119 -108 -119t-108 124v383h-238v-386zM422 907l-96 -167h167l160 115z" />
    <glyph glyph-name="glyph152" unicode="&#xdb;" horiz-adv-x="760" 
d="M68 314q0 -328 344 -328q348 0 348 333v381h-238v-388q0 -119 -108 -119t-108 124v383h-238v-386zM317 892l-118 -152h135l79 51l79 -51h137l-118 152h-194z" />
    <glyph glyph-name="glyph153" unicode="&#xdc;" horiz-adv-x="760" 
d="M68 314q0 -328 344 -328q348 0 348 333v381h-238v-388q0 -119 -108 -119t-108 124v383h-238v-386zM434 890v-150h184v150h-184zM210 890v-150h184v150h-184z" />
    <glyph glyph-name="glyph154" unicode="&#xdd;" horiz-adv-x="730" 
d="M232 248v-248h234v251l264 449h-259l-121 -230l-120 230h-262zM357 907l-96 -167h167l160 115z" />
    <glyph glyph-name="glyph155" unicode="&#xde;" horiz-adv-x="690" 
d="M80 700v-700h234v102h76q147 0 230 64q88 66 88 190v2q0 121 -87 184q-81 60 -226 60h-81v98h-234zM377 274h-63v156h64q99 0 99 -77v-2q0 -77 -100 -77z" />
    <glyph glyph-name="germandbls" unicode="&#xdf;" horiz-adv-x="650" 
d="M348 153v-156q138 -10 230 40q94 52 94 149v2q0 67 -48 112q-40 38 -99 51q53 20 83 62q35 47 35 103v2q0 94 -75 157q-80 65 -202 65q-147 0 -225 -81q-73 -74 -73 -204v-455h227v458q0 94 71 94q24 0 41 -18q18 -20 18 -48v-2q0 -62 -77 -91v-102q99 -3 99 -65v-2
q0 -63 -99 -71z" />
    <glyph glyph-name="Agrave" unicode="&#xe0;" horiz-adv-x="606" 
d="M76 31q49 -44 129 -44q94 0 157 68v-55h227v311q0 116 -57 173q-71 71 -231 71q-126 0 -230 -40l40 -151q77 31 151 31q101 0 101 -79v-9q-49 20 -129 20q-96 0 -152 -44q-56 -45 -56 -126v-2q0 -79 50 -124zM345 141q-20 -23 -50 -23q-22 0 -37 15q-15 13 -15 38v2
q0 61 70 61q29 0 52 -9v-23q0 -38 -20 -61zM90 723l165 -135h152l-96 192z" />
    <glyph glyph-name="Aacute" unicode="&#xe1;" horiz-adv-x="606" 
d="M76 31q49 -44 129 -44q94 0 157 68v-55h227v311q0 116 -57 173q-71 71 -231 71q-126 0 -230 -40l40 -151q77 31 151 31q101 0 101 -79v-9q-49 20 -129 20q-96 0 -152 -44q-56 -45 -56 -126v-2q0 -79 50 -124zM345 141q-20 -23 -50 -23q-22 0 -37 15q-15 13 -15 38v2
q0 61 70 61q29 0 52 -9v-23q0 -38 -20 -61zM333 780l-96 -192h152l165 135z" />
    <glyph glyph-name="Acircumflex" unicode="&#xe2;" horiz-adv-x="606" 
d="M76 31q49 -44 129 -44q94 0 157 68v-55h227v311q0 116 -57 173q-71 71 -231 71q-126 0 -230 -40l40 -151q77 31 151 31q101 0 101 -79v-9q-49 20 -129 20q-96 0 -152 -44q-56 -45 -56 -126v-2q0 -79 50 -124zM345 141q-20 -23 -50 -23q-22 0 -37 15q-15 13 -15 38v2
q0 61 70 61q29 0 52 -9v-23q0 -38 -20 -61zM240 760l-133 -172h125l89 56l89 -56h127l-133 172h-164z" />
    <glyph glyph-name="Atilde" unicode="&#xe3;" horiz-adv-x="606" 
d="M76 31q49 -44 129 -44q94 0 157 68v-55h227v311q0 116 -57 173q-71 71 -231 71q-126 0 -230 -40l40 -151q77 31 151 31q101 0 101 -79v-9q-49 20 -129 20q-96 0 -152 -44q-56 -45 -56 -126v-2q0 -79 50 -124zM345 141q-20 -23 -50 -23q-22 0 -37 15q-15 13 -15 38v2
q0 61 70 61q29 0 52 -9v-23q0 -38 -20 -61zM320 609q62 -21 96 -21q96 0 124 159l-101 25q-17 -44 -45 -44q-12 0 -66 18q-62 21 -96 21q-96 0 -124 -159l101 -25q17 44 45 44q12 0 66 -18z" />
    <glyph glyph-name="Adieresis" unicode="&#xe4;" horiz-adv-x="606" 
d="M76 31q49 -44 129 -44q94 0 157 68v-55h227v311q0 116 -57 173q-71 71 -231 71q-126 0 -230 -40l40 -151q77 31 151 31q101 0 101 -79v-9q-49 20 -129 20q-96 0 -152 -44q-56 -45 -56 -126v-2q0 -79 50 -124zM345 141q-20 -23 -50 -23q-22 0 -37 15q-15 13 -15 38v2
q0 61 70 61q29 0 52 -9v-23q0 -38 -20 -61zM339 738v-150h177v150h-177zM128 738v-150h177v150h-177z" />
    <glyph glyph-name="Aring" unicode="&#xe5;" horiz-adv-x="606" 
d="M76 31q49 -44 129 -44q94 0 157 68v-55h227v311q0 116 -57 173q-71 71 -231 71q-126 0 -230 -40l40 -151q77 31 151 31q101 0 101 -79v-9q-49 20 -129 20q-96 0 -152 -44q-56 -45 -56 -126v-2q0 -79 50 -124zM345 141q-20 -23 -50 -23q-22 0 -37 15q-15 13 -15 38v2
q0 61 70 61q29 0 52 -9v-23q0 -38 -20 -61zM220 633q41 -40 102 -40t102 40q42 39 42 97t-42 97q-41 40 -102 40t-102 -40q-42 -39 -42 -97t42 -97zM373 678q-21 -21 -51 -21t-50 21q-21 21 -21 52t21 52q20 21 50 21t51 -21q20 -22 20 -52t-20 -52z" />
    <glyph glyph-name="AE" unicode="&#xe6;" horiz-adv-x="929" 
d="M86 28q55 -41 139 -41q113 0 216 81q81 -81 220 -81q157 0 249 119l-122 97q-54 -56 -111 -56q-79 0 -103 73h351q1 8 1 38q0 130 -69 213q-75 88 -210 88q-95 0 -162 -57q-65 53 -184 53q-126 0 -230 -40l40 -151q77 31 151 31q101 0 101 -79v-9q-49 20 -129 20
q-96 0 -152 -44q-56 -45 -56 -126v-2q0 -82 60 -127zM719 320h-148q10 82 72 82q69 0 76 -82zM382 157q-43 -37 -82 -37q-57 0 -57 51v2q0 61 70 61q29 0 51 -9q4 -36 18 -68z" />
    <glyph glyph-name="Ccedilla" unicode="&#xe7;" horiz-adv-x="567" 
d="M146 -98l174 -75l48 162q146 17 215 146l-165 94q-34 -55 -85 -55q-35 0 -57 28q-24 29 -24 70v2q0 41 24 68q24 28 60 28q50 0 80 -55l163 92q-70 151 -247 151q-130 0 -216 -86q-82 -82 -82 -200v-2q0 -92 53 -166t139 -103z" />
    <glyph glyph-name="Egrave" unicode="&#xe8;" horiz-adv-x="598" 
d="M117 65q83 -78 217 -78q157 0 249 119l-122 97q-54 -56 -111 -56q-79 0 -103 73h351q1 8 1 38q0 132 -69 213q-76 88 -215 88q-123 0 -202 -82t-79 -205v-2q0 -127 83 -205zM392 320h-148q10 82 72 82q69 0 76 -82zM89 723l165 -135h152l-96 192z" />
    <glyph glyph-name="Eacute" unicode="&#xe9;" horiz-adv-x="598" 
d="M117 65q83 -78 217 -78q157 0 249 119l-122 97q-54 -56 -111 -56q-79 0 -103 73h351q1 8 1 38q0 132 -69 213q-76 88 -215 88q-123 0 -202 -82t-79 -205v-2q0 -127 83 -205zM392 320h-148q10 82 72 82q69 0 76 -82zM332 780l-96 -192h152l165 135z" />
    <glyph glyph-name="Ecircumflex" unicode="&#xea;" horiz-adv-x="598" 
d="M117 65q83 -78 217 -78q157 0 249 119l-122 97q-54 -56 -111 -56q-79 0 -103 73h351q1 8 1 38q0 132 -69 213q-76 88 -215 88q-123 0 -202 -82t-79 -205v-2q0 -127 83 -205zM392 320h-148q10 82 72 82q69 0 76 -82zM239 760l-133 -172h125l89 56l89 -56h127l-133 172
h-164z" />
    <glyph glyph-name="Edieresis" unicode="&#xeb;" horiz-adv-x="598" 
d="M117 65q83 -78 217 -78q157 0 249 119l-122 97q-54 -56 -111 -56q-79 0 -103 73h351q1 8 1 38q0 132 -69 213q-76 88 -215 88q-123 0 -202 -82t-79 -205v-2q0 -127 83 -205zM392 320h-148q10 82 72 82q69 0 76 -82zM338 738v-150h177v150h-177zM127 738v-150h177v150
h-177z" />
    <glyph glyph-name="Igrave" unicode="&#xec;" horiz-adv-x="299" 
d="M-47 546v-546h227v546h-227zM-166 715l165 -135h152l-96 192z" />
    <glyph glyph-name="Iacute" unicode="&#xed;" horiz-adv-x="299" 
d="M72 546v-546h227v546h-227zM196 772l-96 -192h152l165 135z" />
    <glyph glyph-name="Icircumflex" unicode="&#xee;" horiz-adv-x="299" 
d="M-30 546v-546h227v546h-227zM1 752l-133 -172h125l89 56l89 -56h127l-133 172h-164z" />
    <glyph glyph-name="Idieresis" unicode="&#xef;" horiz-adv-x="299" 
d="M-9 546v-546h227v546h-227zM121 730v-150h177v150h-177zM-90 730v-150h177v150h-177z" />
    <glyph glyph-name="Eth" unicode="&#xf0;" horiz-adv-x="648" 
d="M527 635l54 11l-31 86l-104 -22q-24 19 -26 20h-278q45 -27 92 -64l-64 -13l31 -86l116 24q41 -41 68 -85q-59 39 -129 39q-99 0 -160 -70q-62 -71 -62 -188v-2q0 -134 85 -216q83 -82 221 -82t223 90q85 91 85 240v2q0 177 -121 316zM405 204q-25 -28 -63 -28
q-39 0 -64 28q-26 29 -26 69v2q0 41 25 67q25 28 63 28q39 0 64 -28q26 -29 26 -69v-2q0 -41 -25 -67z" />
    <glyph glyph-name="Ntilde" unicode="&#xf1;" horiz-adv-x="645" 
d="M68 546v-546h227v287q0 33 20 55q18 19 45 19q26 0 44 -19q18 -21 18 -55v-287h227v360q0 91 -50 146q-51 53 -137 53q-98 0 -167 -89v76h-227zM356 609q62 -21 96 -21q96 0 124 159l-101 25q-17 -44 -45 -44q-12 0 -66 18q-62 21 -96 21q-96 0 -124 -159l101 -25
q17 44 45 44q12 0 66 -18z" />
    <glyph glyph-name="Ograve" unicode="&#xf2;" horiz-adv-x="648" 
d="M120 71q88 -84 220 -84q134 0 222 85q86 83 86 201v2q0 117 -86 200q-89 84 -220 84q-133 0 -221 -85q-87 -82 -87 -201v-2q0 -117 86 -200zM405 204q-25 -28 -63 -28q-39 0 -64 28q-26 29 -26 69v2q0 41 25 67q25 28 63 28q39 0 64 -28q26 -29 26 -69v-2q0 -41 -25 -67z
M109 723l165 -135h152l-96 192z" />
    <glyph glyph-name="Oacute" unicode="&#xf3;" horiz-adv-x="648" 
d="M120 71q88 -84 220 -84q134 0 222 85q86 83 86 201v2q0 117 -86 200q-89 84 -220 84q-133 0 -221 -85q-87 -82 -87 -201v-2q0 -117 86 -200zM405 204q-25 -28 -63 -28q-39 0 -64 28q-26 29 -26 69v2q0 41 25 67q25 28 63 28q39 0 64 -28q26 -29 26 -69v-2q0 -41 -25 -67z
M352 780l-96 -192h152l165 135z" />
    <glyph glyph-name="Ocircumflex" unicode="&#xf4;" horiz-adv-x="648" 
d="M120 71q88 -84 220 -84q134 0 222 85q86 83 86 201v2q0 117 -86 200q-89 84 -220 84q-133 0 -221 -85q-87 -82 -87 -201v-2q0 -117 86 -200zM405 204q-25 -28 -63 -28q-39 0 -64 28q-26 29 -26 69v2q0 41 25 67q25 28 63 28q39 0 64 -28q26 -29 26 -69v-2q0 -41 -25 -67z
M259 760l-133 -172h125l89 56l89 -56h127l-133 172h-164z" />
    <glyph glyph-name="Otilde" unicode="&#xf5;" horiz-adv-x="648" 
d="M120 71q88 -84 220 -84q134 0 222 85q86 83 86 201v2q0 117 -86 200q-89 84 -220 84q-133 0 -221 -85q-87 -82 -87 -201v-2q0 -117 86 -200zM405 204q-25 -28 -63 -28q-39 0 -64 28q-26 29 -26 69v2q0 41 25 67q25 28 63 28q39 0 64 -28q26 -29 26 -69v-2q0 -41 -25 -67z
M339 609q61 -21 96 -21q95 0 124 159l-101 25q-17 -44 -45 -44q-12 0 -66 18q-61 21 -96 21q-95 0 -124 -159l101 -25q17 44 45 44q12 0 66 -18z" />
    <glyph glyph-name="Odieresis" unicode="&#xf6;" horiz-adv-x="648" 
d="M120 71q88 -84 220 -84q134 0 222 85q86 83 86 201v2q0 117 -86 200q-89 84 -220 84q-133 0 -221 -85q-87 -82 -87 -201v-2q0 -117 86 -200zM405 204q-25 -28 -63 -28q-39 0 -64 28q-26 29 -26 69v2q0 41 25 67q25 28 63 28q39 0 64 -28q26 -29 26 -69v-2q0 -41 -25 -67z
M358 738v-150h177v150h-177zM147 738v-150h177v150h-177z" />
    <glyph glyph-name="divide" unicode="&#xf7;" horiz-adv-x="640" 
d="M266 667v-178h200v178h-200zM92 264h548v176h-548v-176zM266 215v-178h200v178h-200z" />
    <glyph glyph-name="Oslash" unicode="&#xf8;" horiz-adv-x="648" 
d="M648 551h-133l-29 -32q-73 40 -159 40q-133 0 -221 -85q-87 -82 -87 -201v-2q0 -104 71 -184l-86 -92h133l29 31q70 -39 159 -39q134 0 222 85q86 83 86 201v2q0 103 -71 183zM226 273v2q0 44 28 75t71 31q14 0 34 -5l-129 -139q-4 13 -4 36zM398 196q-28 -31 -71 -31
q-20 0 -32 4l127 138q4 -20 4 -34v-2q0 -44 -28 -75z" />
    <glyph glyph-name="Ugrave" unicode="&#xf9;" horiz-adv-x="645" 
d="M110 40q51 -53 137 -53q99 0 167 86v-73h227v546h-227v-287q0 -33 -20 -55q-18 -19 -45 -19q-26 0 -44 19q-18 21 -18 55v287h-227v-360q0 -91 50 -146zM118 715l165 -135h152l-96 192z" />
    <glyph glyph-name="Uacute" unicode="&#xfa;" horiz-adv-x="645" 
d="M110 40q51 -53 137 -53q99 0 167 86v-73h227v546h-227v-287q0 -33 -20 -55q-18 -19 -45 -19q-26 0 -44 19q-18 21 -18 55v287h-227v-360q0 -91 50 -146zM361 772l-96 -192h152l165 135z" />
    <glyph glyph-name="Ucircumflex" unicode="&#xfb;" horiz-adv-x="645" 
d="M110 40q51 -53 137 -53q99 0 167 86v-73h227v546h-227v-287q0 -33 -20 -55q-18 -19 -45 -19q-26 0 -44 19q-18 21 -18 55v287h-227v-360q0 -91 50 -146zM268 752l-133 -172h125l89 56l89 -56h127l-133 172h-164z" />
    <glyph glyph-name="Udieresis" unicode="&#xfc;" horiz-adv-x="645" 
d="M110 40q51 -53 137 -53q99 0 167 86v-73h227v546h-227v-287q0 -33 -20 -55q-18 -19 -45 -19q-26 0 -44 19q-18 21 -18 55v287h-227v-360q0 -91 50 -146zM367 730v-150h177v150h-177zM156 730v-150h177v150h-177z" />
    <glyph glyph-name="Yacute" unicode="&#xfd;" horiz-adv-x="652" 
d="M423 546l-87 -288l-95 288h-235l214 -525q-18 -8 -37 -8q-35 0 -100 36l-66 -155q102 -57 211 -57q91 0 146 47q50 44 91 154l189 508h-231zM347 772l-96 -192h152l165 135z" />
    <glyph glyph-name="Thorn" unicode="&#xfe;" horiz-adv-x="676" 
d="M68 730v-890h227v222q67 -75 164 -75q99 0 165 79q68 83 68 209v2q0 124 -68 204q-68 78 -167 78q-88 0 -162 -80v251h-227zM446 202q-25 -28 -65 -28q-39 0 -65 29t-26 69v2q0 41 26 70q25 28 65 28t65 -28q26 -29 26 -70v-2q0 -41 -26 -70z" />
    <glyph glyph-name="ydieresis" unicode="&#xff;" horiz-adv-x="652" 
d="M423 546l-87 -288l-95 288h-235l214 -525q-18 -8 -37 -8q-35 0 -100 36l-66 -155q102 -57 211 -57q91 0 146 47q50 44 91 154l189 508h-231zM353 730v-150h177v150h-177zM142 730v-150h177v150h-177z" />
    <glyph glyph-name="glyph189" unicode="&#x100;" 
d="M273 705l-295 -705h250l36 94h245l37 -94h254l-295 705h-232zM451 260h-128l64 170zM181 887v-127h416v127h-416z" />
    <glyph glyph-name="Amacron" unicode="&#x101;" horiz-adv-x="606" 
d="M76 31q49 -44 129 -44q94 0 157 68v-55h227v311q0 116 -57 173q-71 71 -231 71q-126 0 -230 -40l40 -151q77 31 151 31q101 0 101 -79v-9q-49 20 -129 20q-96 0 -152 -44q-56 -45 -56 -126v-2q0 -79 50 -124zM345 141q-20 -23 -50 -23q-22 0 -37 15q-15 13 -15 38v2
q0 61 70 61q29 0 52 -9v-23q0 -38 -20 -61zM127 720v-122h390v122h-390z" />
    <glyph glyph-name="glyph191" unicode="&#x102;" 
d="M273 705l-295 -705h250l36 94h245l37 -94h254l-295 705h-232zM451 260h-128l64 170zM186 902q25 -154 204 -154t203 154h-124q-19 -42 -79 -42t-79 42h-125z" />
    <glyph glyph-name="Abreve" unicode="&#x103;" horiz-adv-x="606" 
d="M76 31q49 -44 129 -44q94 0 157 68v-55h227v311q0 116 -57 173q-71 71 -231 71q-126 0 -230 -40l40 -151q77 31 151 31q101 0 101 -79v-9q-49 20 -129 20q-96 0 -152 -44q-56 -45 -56 -126v-2q0 -79 50 -124zM345 141q-20 -23 -50 -23q-22 0 -37 15q-15 13 -15 38v2
q0 61 70 61q29 0 52 -9v-23q0 -38 -20 -61zM179 631q55 -45 143 -45t143 45q55 47 63 129h-120q-20 -56 -86 -56t-86 56h-120q8 -82 63 -129z" />
    <glyph glyph-name="glyph193" unicode="&#x104;" 
d="M807 -164v96q-74 -3 -74 30q0 18 18 38h49l-295 705h-232l-295 -705h250l36 94h245l37 -94h63q-45 -39 -45 -82q0 -41 46 -63q46 -24 124 -24q25 0 73 5zM451 260h-128l64 170z" />
    <glyph glyph-name="Aogonek" unicode="&#x105;" horiz-adv-x="606" 
d="M597 -164v96q-74 -3 -74 30q0 18 18 38h48v311q0 116 -57 173q-71 71 -231 71q-126 0 -230 -40l40 -151q77 31 151 31q101 0 101 -79v-9q-49 20 -129 20q-96 0 -152 -44q-56 -45 -56 -126v-2q0 -79 50 -124q49 -44 129 -44q94 0 157 68v-55h37q-45 -39 -45 -82
q0 -41 46 -63q46 -24 124 -24q25 0 73 5zM345 141q-20 -23 -50 -23q-22 0 -37 15q-15 13 -15 38v2q0 61 70 61q29 0 52 -9v-23q0 -38 -20 -61z" />
    <glyph glyph-name="glyph195" unicode="&#x106;" horiz-adv-x="723" 
d="M157 85q103 -100 254 -100q225 0 331 189l-193 109q-49 -88 -132 -88q-58 0 -94 43q-37 43 -37 112v2q0 64 36 108q38 45 95 45q84 0 127 -85l193 113q-101 182 -317 182q-157 0 -264 -104q-108 -105 -108 -261v-2q0 -160 109 -263zM425 917l-96 -167h167l160 115z" />
    <glyph glyph-name="Cacute" unicode="&#x107;" horiz-adv-x="567" 
d="M115 71q82 -85 206 -85q182 0 262 149l-165 94q-34 -55 -85 -55q-35 0 -57 28q-24 29 -24 70v2q0 41 24 68q24 28 60 28q50 0 80 -55l163 92q-70 151 -247 151q-130 0 -216 -86q-82 -82 -82 -200v-2q0 -116 81 -199zM343 780l-96 -192h152l165 135z" />
    <glyph glyph-name="glyph197" unicode="&#x10a;" horiz-adv-x="723" 
d="M157 85q103 -100 254 -100q225 0 331 189l-193 109q-49 -88 -132 -88q-58 0 -94 43q-37 43 -37 112v2q0 64 36 108q38 45 95 45q84 0 127 -85l193 113q-101 182 -317 182q-157 0 -264 -104q-108 -105 -108 -261v-2q0 -160 109 -263zM322 900v-150h190v150h-190z" />
    <glyph glyph-name="Cdotaccent" unicode="&#x10b;" horiz-adv-x="567" 
d="M115 71q82 -85 206 -85q182 0 262 149l-165 94q-34 -55 -85 -55q-35 0 -57 28q-24 29 -24 70v2q0 41 24 68q24 28 60 28q50 0 80 -55l163 92q-70 151 -247 151q-130 0 -216 -86q-82 -82 -82 -200v-2q0 -116 81 -199zM240 738v-150h184v150h-184z" />
    <glyph glyph-name="glyph199" unicode="&#x10c;" horiz-adv-x="723" 
d="M157 85q103 -100 254 -100q225 0 331 189l-193 109q-49 -88 -132 -88q-58 0 -94 43q-37 43 -37 112v2q0 64 36 108q38 45 95 45q84 0 127 -85l193 113q-101 182 -317 182q-157 0 -264 -104q-108 -105 -108 -261v-2q0 -160 109 -263zM514 750l118 152h-135l-79 -51l-79 51
h-137l118 -152h194z" />
    <glyph glyph-name="Ccaron" unicode="&#x10d;" horiz-adv-x="567" 
d="M115 71q82 -85 206 -85q182 0 262 149l-165 94q-34 -55 -85 -55q-35 0 -57 28q-24 29 -24 70v2q0 41 24 68q24 28 60 28q50 0 80 -55l163 92q-70 151 -247 151q-130 0 -216 -86q-82 -82 -82 -200v-2q0 -116 81 -199zM414 588l133 172h-125l-89 -56l-89 56h-127l133 -172
h164z" />
    <glyph glyph-name="glyph201" unicode="&#x10e;" horiz-adv-x="749" 
d="M80 700v-700h260q206 0 319 99q106 94 106 255v2q0 158 -104 250q-109 94 -313 94h-268zM314 496h39q176 0 176 -145v-2q0 -145 -176 -145h-39v292zM499 740l118 152h-135l-79 -51l-79 51h-137l118 -152h194z" />
    <glyph glyph-name="Dcaron" unicode="&#x10f;" horiz-adv-x="676" 
d="M104 65q68 -78 167 -78q88 0 162 80v-67h227v730h-227v-246q-67 75 -164 75q-99 0 -165 -79q-68 -83 -68 -209v-2q0 -124 68 -204zM412 202q-25 -28 -65 -28t-65 28q-26 29 -26 70v2q0 41 26 70q25 28 65 28q39 0 65 -29t26 -69v-2q0 -41 -26 -70zM715 800l-12 -222h93
l72 218v4h-153z" />
    <glyph glyph-name="glyph203" unicode="&#x110;" horiz-adv-x="817" 
d="M131 268v-268h260q207 0 319 99q106 94 106 255v2q0 158 -104 250q-109 94 -313 94h-268v-263h-85v-169h85zM355 272h86v161h-86v73h49q176 0 176 -155v-2q0 -155 -176 -155h-49v78z" />
    <glyph glyph-name="Dcroat" unicode="&#x111;" horiz-adv-x="676" 
d="M288 690v-95h145v-111q-67 75 -164 75q-99 0 -165 -79q-68 -83 -68 -209v-2q0 -124 68 -204q68 -78 167 -78q88 0 162 80v-67h227v595h58v95h-58v40h-227v-40h-145zM412 202q-25 -28 -65 -28t-65 28q-26 29 -26 70v2q0 41 26 70q25 28 65 28q39 0 65 -29t26 -69v-2
q0 -41 -26 -70z" />
    <glyph glyph-name="glyph205" unicode="&#x112;" horiz-adv-x="665" 
d="M80 700v-700h602v192h-372v76h342v169h-342v71h367v192h-597zM173 877v-127h416v127h-416z" />
    <glyph glyph-name="Emacron" unicode="&#x113;" horiz-adv-x="598" 
d="M117 65q83 -78 217 -78q157 0 249 119l-122 97q-54 -56 -111 -56q-79 0 -103 73h351q1 8 1 38q0 132 -69 213q-76 88 -215 88q-123 0 -202 -82t-79 -205v-2q0 -127 83 -205zM392 320h-148q10 82 72 82q69 0 76 -82zM126 720v-122h390v122h-390z" />
    <glyph glyph-name="glyph207" unicode="&#x114;" horiz-adv-x="665" 
d="M80 700v-700h602v192h-372v76h342v169h-342v71h367v192h-597zM178 892q25 -154 204 -154t203 154h-124q-19 -42 -79 -42t-79 42h-125z" />
    <glyph glyph-name="Ebreve" unicode="&#x115;" horiz-adv-x="598" 
d="M117 65q83 -78 217 -78q157 0 249 119l-122 97q-54 -56 -111 -56q-79 0 -103 73h351q1 8 1 38q0 132 -69 213q-76 88 -215 88q-123 0 -202 -82t-79 -205v-2q0 -127 83 -205zM392 320h-148q10 82 72 82q69 0 76 -82zM178 631q56 -45 143 -45t143 45q56 47 63 129h-120
q-20 -56 -86 -56t-86 56h-120q7 -82 63 -129z" />
    <glyph glyph-name="glyph209" unicode="&#x116;" horiz-adv-x="665" 
d="M80 700v-700h602v192h-372v76h342v169h-342v71h367v192h-597zM286 890v-150h190v150h-190z" />
    <glyph glyph-name="Edotaccent" unicode="&#x117;" horiz-adv-x="598" 
d="M117 65q83 -78 217 -78q157 0 249 119l-122 97q-54 -56 -111 -56q-79 0 -103 73h351q1 8 1 38q0 132 -69 213q-76 88 -215 88q-123 0 -202 -82t-79 -205v-2q0 -127 83 -205zM392 320h-148q10 82 72 82q69 0 76 -82zM229 738v-150h184v150h-184z" />
    <glyph glyph-name="glyph211" unicode="&#x118;" horiz-adv-x="665" 
d="M80 700v-700h403q-45 -39 -45 -82q0 -41 46 -63q46 -24 124 -24q25 0 73 5v96q-74 -3 -74 30q0 18 18 38h57v192h-372v76h342v169h-342v71h367v192h-597z" />
    <glyph glyph-name="Eogonek" unicode="&#x119;" horiz-adv-x="598" 
d="M583 106l-122 97q-54 -56 -111 -56q-79 0 -103 73h351q1 8 1 38q0 132 -69 213q-76 88 -215 88q-123 0 -202 -82t-79 -205v-2q0 -127 83 -205t217 -78h5q-38 -32 -38 -69q0 -40 47 -64q48 -23 122 -23q27 0 74 5v96q-75 -3 -75 33q0 24 48 71q41 38 66 70zM392 320h-148
q10 82 72 82q69 0 76 -82z" />
    <glyph glyph-name="glyph213" unicode="&#x11a;" horiz-adv-x="665" 
d="M80 700v-700h602v192h-372v76h342v169h-342v71h367v192h-597zM478 740l118 152h-135l-79 -51l-79 51h-137l118 -152h194z" />
    <glyph glyph-name="Ecaron" unicode="&#x11b;" horiz-adv-x="598" 
d="M117 65q83 -78 217 -78q157 0 249 119l-122 97q-54 -56 -111 -56q-79 0 -103 73h351q1 8 1 38q0 132 -69 213q-76 88 -215 88q-123 0 -202 -82t-79 -205v-2q0 -127 83 -205zM392 320h-148q10 82 72 82q69 0 76 -82zM403 588l133 172h-125l-89 -56l-89 56h-127l133 -172
h164z" />
    <glyph glyph-name="glyph215" unicode="&#x11e;" horiz-adv-x="754" 
d="M163 85q110 -100 278 -100q180 0 309 105v324h-339v-150h120v-70q-28 -16 -80 -16q-74 0 -120 46q-47 47 -47 121v2q0 71 44 118q45 47 113 47q84 0 155 -61l131 158q-121 106 -293 106q-166 0 -276 -104t-110 -261v-2q0 -160 115 -263zM224 902q25 -154 204 -154
t203 154h-124q-20 -42 -79 -42q-60 0 -79 42h-125z" />
    <glyph glyph-name="Gbreve" unicode="&#x11f;" horiz-adv-x="676" 
d="M40 -94q138 -68 303 -68q166 0 246 80q71 71 71 220v408h-227v-58q-69 71 -167 71t-162 -70q-68 -73 -68 -184v-2q0 -111 69 -182q67 -69 174 -69q92 0 158 75v-16q0 -120 -130 -120q-99 0 -197 52zM414 243q-25 -25 -67 -25q-41 0 -66 24t-25 60v2q0 37 25 62t66 25
t66 -25q25 -24 25 -60v-2q0 -37 -24 -61zM225 631q55 -45 143 -45t143 45q55 47 63 129h-120q-20 -56 -86 -56t-86 56h-120q8 -82 63 -129z" />
    <glyph glyph-name="glyph217" unicode="&#x120;" horiz-adv-x="754" 
d="M163 85q110 -100 278 -100q180 0 309 105v324h-339v-150h120v-70q-28 -16 -80 -16q-74 0 -120 46q-47 47 -47 121v2q0 71 44 118q45 47 113 47q84 0 155 -61l131 158q-121 106 -293 106q-166 0 -276 -104t-110 -261v-2q0 -160 115 -263zM332 900v-150h190v150h-190z" />
    <glyph glyph-name="Gdotaccent" unicode="&#x121;" horiz-adv-x="676" 
d="M40 -94q138 -68 303 -68q166 0 246 80q71 71 71 220v408h-227v-58q-69 71 -167 71t-162 -70q-68 -73 -68 -184v-2q0 -111 69 -182q67 -69 174 -69q92 0 158 75v-16q0 -120 -130 -120q-99 0 -197 52zM414 243q-25 -25 -67 -25q-41 0 -66 24t-25 60v2q0 37 25 62t66 25
t66 -25q25 -24 25 -60v-2q0 -37 -24 -61zM276 738v-150h184v150h-184z" />
    <glyph glyph-name="glyph219" unicode="&#x122;" horiz-adv-x="754" 
d="M163 85q110 -100 278 -100q180 0 309 105v324h-339v-150h120v-70q-28 -16 -80 -16q-74 0 -120 46q-47 47 -47 121v2q0 71 44 118q45 47 113 47q84 0 155 -61l131 158q-121 106 -293 106q-166 0 -276 -104t-110 -261v-2q0 -160 115 -263zM330 -264l8 -67q90 4 134 38
q49 37 49 119v125h-185v-156h72q3 -51 -78 -59z" />
    <glyph glyph-name="Gcommaaccent" unicode="&#x123;" horiz-adv-x="676" 
d="M40 -94q138 -68 303 -68q166 0 246 80q71 71 71 220v408h-227v-58q-69 71 -167 71t-162 -70q-68 -73 -68 -184v-2q0 -111 69 -182q67 -69 174 -69q92 0 158 75v-16q0 -120 -130 -120q-99 0 -197 52zM414 243q-25 -25 -67 -25q-41 0 -66 24t-25 60v2q0 37 25 62t66 25
t66 -25q25 -24 25 -60v-2q0 -37 -24 -61zM464 803l-8 67q-90 -4 -134 -38q-49 -37 -49 -119v-125h185v156h-72q-3 51 78 59z" />
    <glyph glyph-name="glyph221" unicode="&#x126;" horiz-adv-x="762" 
d="M-20 627v-105h50v-522h234v251h214v-251h234v522h50v105h-50v73h-234v-73h-214v73h-234v-73h-50zM478 453h-214v71h214v-71z" />
    <glyph glyph-name="Hbar" unicode="&#x127;" horiz-adv-x="645" 
d="M237 595h145v95h-145v40h-227v-40h-58v-95h58v-595h227v287q0 33 20 55q18 19 45 19q26 0 44 -19q18 -21 18 -55v-287h227v360q0 91 -50 146q-51 53 -137 53q-99 0 -167 -86v122z" />
    <glyph glyph-name="glyph223" unicode="&#x128;" horiz-adv-x="318" 
d="M84 700v-700h234v700h-234zM197 755q61 -21 96 -21q95 0 124 159l-101 25q-17 -44 -45 -44q-12 0 -66 18q-61 21 -96 21q-96 0 -124 -159l101 -25q17 44 45 44q12 0 66 -18z" />
    <glyph glyph-name="Itilde" unicode="&#x129;" horiz-adv-x="299" 
d="M72 546v-546h227v546h-227zM182 601q62 -21 96 -21q95 0 124 159l-101 25q-17 -44 -45 -44q-12 0 -66 18q-62 21 -96 21q-96 0 -124 -159l101 -25q17 44 45 44q12 0 66 -18z" />
    <glyph glyph-name="glyph225" unicode="&#x12a;" horiz-adv-x="318" 
d="M-7 700v-700h234v700h-234zM-98 877v-127h416v127h-416z" />
    <glyph glyph-name="Imacron" unicode="&#x12b;" horiz-adv-x="299" 
d="M-10 546v-546h227v546h-227zM-92 712v-122h390v122h-390z" />
    <glyph glyph-name="glyph227" unicode="&#x12c;" horiz-adv-x="318" 
d="M-2 700v-700h234v700h-234zM-88 892q25 -154 204 -154t203 154h-124q-19 -42 -79 -42t-79 42h-125z" />
    <glyph glyph-name="Ibreve" unicode="&#x12d;" horiz-adv-x="299" 
d="M-21 546v-546h227v546h-227zM-51 623q55 -45 143 -45t143 45q55 47 63 129h-120q-20 -56 -86 -56t-86 56h-120q8 -82 63 -129z" />
    <glyph glyph-name="glyph229" unicode="&#x12e;" horiz-adv-x="318" 
d="M84 700v-700h48q-45 -39 -45 -82q0 -41 46 -63q47 -24 124 -24q25 0 73 5v96q-74 -3 -74 30q0 18 18 38h44v700h-234z" />
    <glyph glyph-name="Iogonek" unicode="&#x12f;" horiz-adv-x="299" 
d="M67 546v-546h40q-45 -39 -45 -82q0 -41 46 -63q46 -24 124 -24q25 0 73 5v96q-74 -3 -74 30q0 18 18 38h45v546h-227zM63 730v-145h235v145h-235z" />
    <glyph glyph-name="Idotaccent" unicode="&#x130;" horiz-adv-x="318" 
d="M84 700v-700h234v700h-234zM106 890v-150h190v150h-190z" />
    <glyph glyph-name="dotlessi" unicode="&#x131;" horiz-adv-x="299" 
d="M72 546v-546h227v546h-227z" />
    <glyph glyph-name="glyph233" unicode="&#x136;" horiz-adv-x="730" 
d="M80 700v-700h234v149l60 73l137 -222h279l-249 396l244 304h-272l-199 -262v262h-234zM309 -254l8 -67q90 4 134 38q49 37 49 119v125h-185v-156h72q3 -51 -78 -59z" />
    <glyph glyph-name="Kcommaaccent" unicode="&#x137;" horiz-adv-x="614" 
d="M68 730v-730h227v92l45 58l79 -150h243l-174 324l171 222h-247l-117 -168v352h-227zM254 -254l8 -67q90 4 134 38q49 37 49 119v125h-185v-156h72q3 -51 -78 -59z" />
    <glyph glyph-name="glyph235" unicode="&#x139;" horiz-adv-x="614" 
d="M80 700v-700h563v200h-329v500h-234zM224 907l-96 -167h167l160 115z" />
    <glyph glyph-name="Lacute" unicode="&#x13a;" horiz-adv-x="299" 
d="M72 730v-730h227v730h-227zM191 932l-96 -167h167l160 115z" />
    <glyph glyph-name="glyph237" unicode="&#x13b;" horiz-adv-x="614" 
d="M80 700v-700h563v200h-329v500h-234zM264 -254l8 -67q90 4 134 38q49 37 49 119v125h-185v-156h72q3 -51 -78 -59z" />
    <glyph glyph-name="Lcommaaccent" unicode="&#x13c;" horiz-adv-x="299" 
d="M72 730v-730h227v730h-227zM88 -254l8 -67q90 4 134 38q49 37 49 119v125h-185v-156h72q3 -51 -78 -59z" />
    <glyph glyph-name="glyph239" unicode="&#x13d;" horiz-adv-x="614" 
d="M80 700v-700h563v200h-329v500h-234zM374 700l-12 -222h93l72 218v4h-153z" />
    <glyph glyph-name="Lcaron" unicode="&#x13e;" horiz-adv-x="299" 
d="M72 730v-730h227v730h-227zM354 800l-12 -222h93l72 218v4h-153z" />
    <glyph glyph-name="glyph241" unicode="&#x13f;" horiz-adv-x="614" 
d="M420 513v-175h174v175h-174zM80 700v-700h563v200h-329v500h-234z" />
    <glyph glyph-name="Ldot" unicode="&#x140;" horiz-adv-x="445" 
d="M334 468v-180h148v180h-148zM72 730v-730h227v730h-227z" />
    <glyph glyph-name="glyph243" unicode="&#x141;" horiz-adv-x="674" 
d="M357 306l146 61v203l-146 -61v191h-234v-289l-77 -32v-203l77 32v-208h563v200h-329v106z" />
    <glyph glyph-name="Lslash" unicode="&#x142;" horiz-adv-x="439" 
d="M351 316l88 38v198l-88 -38v216h-227v-314l-88 -37v-197l88 37v-219h227v316z" />
    <glyph glyph-name="glyph245" unicode="&#x143;" horiz-adv-x="780" 
d="M80 700v-700h232v323l260 -323h208v700h-232v-309l-249 309h-219zM438 907l-96 -167h167l160 115z" />
    <glyph glyph-name="Nacute" unicode="&#x144;" horiz-adv-x="645" 
d="M68 546v-546h227v287q0 33 20 55q18 19 45 19q26 0 44 -19q18 -21 18 -55v-287h227v360q0 91 -50 146q-51 53 -137 53q-98 0 -167 -89v76h-227zM369 780l-96 -192h152l165 135z" />
    <glyph glyph-name="glyph247" unicode="&#x145;" horiz-adv-x="780" 
d="M80 700v-700h232v323l260 -323h208v700h-232v-309l-249 309h-219zM333 -254l8 -67q90 4 134 38q49 37 49 119v125h-185v-156h72q3 -51 -78 -59z" />
    <glyph glyph-name="Ncommaaccent" unicode="&#x146;" horiz-adv-x="645" 
d="M68 546v-546h227v287q0 33 20 55q18 19 45 19q26 0 44 -19q18 -21 18 -55v-287h227v360q0 91 -50 146q-51 53 -137 53q-98 0 -167 -89v76h-227zM261 -254l8 -67q90 4 134 38q49 37 49 119v125h-185v-156h72q3 -51 -78 -59z" />
    <glyph glyph-name="glyph249" unicode="&#x147;" horiz-adv-x="780" 
d="M80 700v-700h232v323l260 -323h208v700h-232v-309l-249 309h-219zM527 740l118 152h-135l-79 -51l-79 51h-137l118 -152h194z" />
    <glyph glyph-name="Ncaron" unicode="&#x148;" horiz-adv-x="645" 
d="M68 546v-546h227v287q0 33 20 55q18 19 45 19q26 0 44 -19q18 -21 18 -55v-287h227v360q0 91 -50 146q-51 53 -137 53q-98 0 -167 -89v76h-227zM440 588l133 172h-125l-89 -56l-89 56h-127l133 -172h164z" />
    <glyph glyph-name="glyph251" unicode="&#x14c;" horiz-adv-x="812" 
d="M158 90q110 -105 271 -105t273 106q110 107 110 259v2q0 153 -109 258q-111 105 -272 105q-162 0 -272 -106q-111 -107 -111 -259v-2q0 -153 110 -258zM537 239q-41 -47 -106 -47t-107 48q-40 44 -40 110v2q0 64 39 109q41 47 106 47t107 -48q40 -44 40 -110v-2
q0 -64 -39 -109zM222 887v-127h416v127h-416z" />
    <glyph glyph-name="Omacron" unicode="&#x14d;" horiz-adv-x="648" 
d="M120 71q88 -84 220 -84q134 0 222 85q86 83 86 201v2q0 117 -86 200q-89 84 -220 84q-133 0 -221 -85q-87 -82 -87 -201v-2q0 -117 86 -200zM405 204q-25 -28 -63 -28q-39 0 -64 28q-26 29 -26 69v2q0 41 25 67q25 28 63 28q39 0 64 -28q26 -29 26 -69v-2q0 -41 -25 -67z
M146 720v-122h390v122h-390z" />
    <glyph glyph-name="glyph253" unicode="&#x14e;" horiz-adv-x="812" 
d="M158 90q110 -105 271 -105t273 106q110 107 110 259v2q0 153 -109 258q-111 105 -272 105q-162 0 -272 -106q-111 -107 -111 -259v-2q0 -153 110 -258zM537 239q-41 -47 -106 -47t-107 48q-40 44 -40 110v2q0 64 39 109q41 47 106 47t107 -48q40 -44 40 -110v-2
q0 -64 -39 -109zM227 902q25 -154 204 -154t203 154h-124q-20 -42 -79 -42t-79 42h-125z" />
    <glyph glyph-name="Obreve" unicode="&#x14f;" horiz-adv-x="648" 
d="M120 71q88 -84 220 -84q134 0 222 85q86 83 86 201v2q0 117 -86 200q-89 84 -220 84q-133 0 -221 -85q-87 -82 -87 -201v-2q0 -117 86 -200zM405 204q-25 -28 -63 -28q-39 0 -64 28q-26 29 -26 69v2q0 41 25 67q25 28 63 28q39 0 64 -28q26 -29 26 -69v-2q0 -41 -25 -67z
M198 631q55 -45 143 -45q87 0 143 45q56 47 63 129h-120q-20 -56 -86 -56t-86 56h-120q7 -82 63 -129z" />
    <glyph glyph-name="glyph255" unicode="&#x150;" horiz-adv-x="812" 
d="M158 90q110 -105 271 -105t273 106q110 107 110 259v2q0 153 -109 258q-111 105 -272 105q-162 0 -272 -106q-111 -107 -111 -259v-2q0 -153 110 -258zM537 239q-41 -47 -106 -47t-107 48q-40 44 -40 110v2q0 64 39 109q41 47 106 47t107 -48q40 -44 40 -110v-2
q0 -64 -39 -109zM483 823l-38 -73h146l150 115l-210 52l-23 -45l-181 45l-86 -167h146z" />
    <glyph glyph-name="Ohungarumlaut" unicode="&#x151;" horiz-adv-x="648" 
d="M120 71q88 -84 220 -84q134 0 222 85q86 83 86 201v2q0 117 -86 200q-89 84 -220 84q-133 0 -221 -85q-87 -82 -87 -201v-2q0 -117 86 -200zM242 780l-86 -192h136l103 90l-40 -90h136l155 135l-205 57l-22 -49zM405 204q-25 -28 -63 -28q-39 0 -64 28q-26 29 -26 69v2
q0 41 25 67q25 28 63 28q39 0 64 -28q26 -29 26 -69v-2q0 -41 -25 -67z" />
    <glyph glyph-name="glyph257" unicode="&#x152;" horiz-adv-x="1080" 
d="M465 0h616v192h-352v76h322v169h-322v71h347v192h-603q-207 0 -319 -99q-106 -94 -106 -255v-2q0 -158 104 -250q109 -94 313 -94zM499 198h-44q-77 0 -124 38q-47 41 -47 113v2q0 73 47 114q44 37 124 37h44v-304z" />
    <glyph glyph-name="OE" unicode="&#x153;" horiz-adv-x="994" 
d="M119 71q87 -84 216 -84q118 0 198 71q74 -71 202 -71q152 0 244 119l-122 97q-54 -56 -111 -56q-79 0 -103 73h351q1 8 1 38q0 130 -69 213q-75 88 -210 88q-110 0 -180 -73q-77 73 -199 73q-129 0 -217 -85q-86 -84 -86 -201v-2q0 -118 85 -200zM788 320h-148
q10 82 72 82q69 0 76 -82zM405 204q-25 -28 -63 -28q-39 0 -64 28q-26 29 -26 69v2q0 41 25 67q25 28 63 28q39 0 64 -28q26 -29 26 -69v-2q0 -41 -25 -67z" />
    <glyph glyph-name="glyph259" unicode="&#x154;" horiz-adv-x="715" 
d="M80 700v-700h234v200h50l132 -200h267l-163 238q138 68 138 214v2q0 102 -64 166q-80 80 -252 80h-342zM397 907l-96 -167h167l160 115zM415 367h-101v137h102q89 0 89 -67v-2q0 -68 -90 -68z" />
    <glyph glyph-name="Racute" unicode="&#x155;" horiz-adv-x="437" 
d="M68 546v-546h227v139q0 174 147 174h24v241q-119 5 -171 -118v110h-227zM273 772l-96 -192h152l165 135z" />
    <glyph glyph-name="glyph261" unicode="&#x156;" horiz-adv-x="715" 
d="M80 700v-700h234v200h50l132 -200h267l-163 238q138 68 138 214v2q0 102 -64 166q-80 80 -252 80h-342zM297 -254l8 -67q90 4 134 38q49 37 49 119v125h-185v-156h72q3 -51 -78 -59zM415 367h-101v137h102q89 0 89 -67v-2q0 -68 -90 -68z" />
    <glyph glyph-name="Rcommaaccent" unicode="&#x157;" horiz-adv-x="437" 
d="M68 546v-546h227v139q0 174 147 174h24v241q-119 5 -171 -118v110h-227zM89 -254l8 -67q90 4 134 38q49 37 49 119v125h-185v-156h72q3 -51 -78 -59z" />
    <glyph glyph-name="glyph263" unicode="&#x158;" horiz-adv-x="715" 
d="M80 700v-700h234v200h50l132 -200h267l-163 238q138 68 138 214v2q0 102 -64 166q-80 80 -252 80h-342zM486 740l118 152h-135l-79 -51l-79 51h-137l118 -152h194zM415 367h-101v137h102q89 0 89 -67v-2q0 -68 -90 -68z" />
    <glyph glyph-name="Rcaron" unicode="&#x159;" horiz-adv-x="437" 
d="M47 546v-546h227v139q0 174 147 174h24v241q-119 5 -171 -118v110h-227zM323 580l133 172h-125l-89 -56l-89 56h-127l133 -172h164z" />
    <glyph glyph-name="glyph265" unicode="&#x15a;" horiz-adv-x="664" 
d="M-36 105q134 -118 359 -118q143 0 225 63q84 64 84 174v2q0 99 -82 154q-67 45 -217 72q-93 18 -93 45v2q0 29 51 29q115 0 210 -69l114 158q-122 96 -316 96q-139 0 -221 -68q-76 -64 -76 -168v-2q0 -100 89 -156q65 -41 206 -69q97 -19 97 -46v-2q0 -30 -60 -30
q-139 0 -245 82zM322 917l-96 -167h167l160 115z" />
    <glyph glyph-name="Sacute" unicode="&#x15b;" horiz-adv-x="525" 
d="M-10 66q118 -79 280 -79q112 0 174 49q63 50 63 139v2q0 77 -59 121q-46 34 -162 63q-67 16 -67 32v2q0 17 32 17q83 0 174 -51l72 135q-103 63 -245 63q-108 0 -172 -48q-66 -51 -66 -139v-2q0 -78 60 -122q47 -33 163 -62q65 -17 65 -32v-2q0 -18 -33 -18
q-105 0 -202 61zM273 780l-96 -192h152l165 135z" />
    <glyph glyph-name="glyph267" unicode="&#x15e;" horiz-adv-x="664" 
d="M146 -98l174 -75l48 162q123 11 193 72q71 62 71 163v2q0 99 -82 154q-67 45 -217 72q-93 18 -93 45v2q0 29 51 29q115 0 210 -69l114 158q-122 96 -316 96q-139 0 -221 -68q-76 -64 -76 -168v-2q0 -100 89 -156q65 -41 206 -69q97 -19 97 -46v-2q0 -30 -60 -30
q-139 0 -245 82l-125 -149q99 -87 256 -110z" />
    <glyph glyph-name="Scedilla" unicode="&#x15f;" horiz-adv-x="525" 
d="M89 -98l174 -75l48 162q93 9 144 57q52 49 52 129v2q0 77 -59 121q-46 34 -162 63q-67 16 -67 32v2q0 17 32 17q83 0 174 -51l72 135q-103 63 -245 63q-108 0 -172 -48q-66 -51 -66 -139v-2q0 -78 60 -122q47 -33 163 -62q65 -17 65 -32v-2q0 -18 -33 -18q-105 0 -202 61
l-77 -129q80 -53 175 -69z" />
    <glyph glyph-name="glyph269" unicode="&#x160;" horiz-adv-x="664" 
d="M-36 105q134 -118 359 -118q143 0 225 63q84 64 84 174v2q0 99 -82 154q-67 45 -217 72q-93 18 -93 45v2q0 29 51 29q115 0 210 -69l114 158q-122 96 -316 96q-139 0 -221 -68q-76 -64 -76 -168v-2q0 -100 89 -156q65 -41 206 -69q97 -19 97 -46v-2q0 -30 -60 -30
q-139 0 -245 82zM411 750l118 152h-135l-79 -51l-79 51h-137l118 -152h194z" />
    <glyph glyph-name="Scaron" unicode="&#x161;" horiz-adv-x="525" 
d="M-10 66q118 -79 280 -79q112 0 174 49q63 50 63 139v2q0 77 -59 121q-46 34 -162 63q-67 16 -67 32v2q0 17 32 17q83 0 174 -51l72 135q-103 63 -245 63q-108 0 -172 -48q-66 -51 -66 -139v-2q0 -78 60 -122q47 -33 163 -62q65 -17 65 -32v-2q0 -18 -33 -18
q-105 0 -202 61zM344 588l133 172h-125l-89 -56l-89 56h-127l133 -172h164z" />
    <glyph glyph-name="Tcommaaccent" unicode="&#x162;" horiz-adv-x="672" 
d="M232 502v-502h234v502h206v198h-646v-198h206zM252 -254l8 -67q90 4 134 38q49 37 49 119v125h-185v-156h72q3 -51 -78 -59z" />
    <glyph glyph-name="Tcedilla" unicode="&#x163;" horiz-adv-x="446" 
d="M88 183q0 -195 206 -195q87 0 145 31v175q-39 -17 -69 -17q-55 0 -55 56v138h126v175h-126v137h-227v-137h-64v-175h64v-188zM155 -262l8 -67q90 4 134 38q49 37 49 119v125h-185v-156h72q3 -51 -78 -59z" />
    <glyph glyph-name="glyph273" unicode="&#x164;" horiz-adv-x="672" 
d="M232 502v-502h234v502h206v198h-646v-198h206zM446 740l118 152h-135l-79 -51l-79 51h-137l118 -152h194z" />
    <glyph glyph-name="Tcaron" unicode="&#x165;" horiz-adv-x="446" 
d="M88 183q0 -195 206 -195q87 0 145 31v175q-39 -17 -69 -17q-55 0 -55 56v138h126v175h-126v137h-227v-137h-64v-175h64v-188zM362 800l-12 -222h93l72 218v4h-153z" />
    <glyph glyph-name="glyph275" unicode="&#x168;" horiz-adv-x="760" 
d="M68 314q0 -328 344 -328q348 0 348 333v381h-238v-388q0 -119 -108 -119t-108 124v383h-238v-386zM410 755q62 -21 96 -21q96 0 124 159l-101 25q-17 -44 -45 -44q-12 0 -66 18q-62 21 -96 21q-96 0 -124 -159l101 -25q17 44 45 44q12 0 66 -18z" />
    <glyph glyph-name="Utilde" unicode="&#x169;" horiz-adv-x="645" 
d="M110 40q51 -53 137 -53q99 0 167 86v-73h227v546h-227v-287q0 -33 -20 -55q-18 -19 -45 -19q-26 0 -44 19q-18 21 -18 55v287h-227v-360q0 -91 50 -146zM347 601q61 -21 96 -21q95 0 124 159l-101 25q-17 -44 -45 -44q-12 0 -66 18q-61 21 -96 21q-95 0 -124 -159
l101 -25q17 44 45 44q12 0 66 -18z" />
    <glyph glyph-name="glyph277" unicode="&#x16a;" horiz-adv-x="760" 
d="M68 314q0 -328 344 -328q348 0 348 333v381h-238v-388q0 -119 -108 -119t-108 124v383h-238v-386zM206 877v-127h416v127h-416z" />
    <glyph glyph-name="Umacron" unicode="&#x16b;" horiz-adv-x="645" 
d="M110 40q51 -53 137 -53q99 0 167 86v-73h227v546h-227v-287q0 -33 -20 -55q-18 -19 -45 -19q-26 0 -44 19q-18 21 -18 55v287h-227v-360q0 -91 50 -146zM155 712v-122h390v122h-390z" />
    <glyph glyph-name="glyph279" unicode="&#x16c;" horiz-adv-x="760" 
d="M68 314q0 -328 344 -328q348 0 348 333v381h-238v-388q0 -119 -108 -119t-108 124v383h-238v-386zM211 884q25 -154 204 -154t203 154h-124q-20 -42 -79 -42t-79 42h-125z" />
    <glyph glyph-name="Ubreve" unicode="&#x16d;" horiz-adv-x="645" 
d="M110 40q51 -53 137 -53q99 0 167 86v-73h227v546h-227v-287q0 -33 -20 -55q-18 -19 -45 -19q-26 0 -44 19q-18 21 -18 55v287h-227v-360q0 -91 50 -146zM207 623q55 -45 143 -45t143 45q55 47 63 129h-120q-20 -56 -86 -56t-86 56h-120q8 -82 63 -129z" />
    <glyph glyph-name="glyph281" unicode="&#x16e;" horiz-adv-x="760" 
d="M68 314q0 -328 344 -328q348 0 348 333v381h-238v-388q0 -119 -108 -119t-108 124v383h-238v-386zM302 766q46 -41 112 -41t112 41q46 40 46 100q0 61 -46 101q-44 40 -112 40t-112 -40q-46 -40 -46 -101q0 -60 46 -100zM473 813q-23 -21 -59 -21t-58 21q-23 21 -23 53
t23 53q22 21 58 21t59 -21q22 -21 22 -53t-22 -53z" />
    <glyph glyph-name="Uring" unicode="&#x16f;" horiz-adv-x="645" 
d="M110 40q51 -53 137 -53q99 0 167 86v-73h227v546h-227v-287q0 -33 -20 -55q-18 -19 -45 -19q-26 0 -44 19q-18 21 -18 55v287h-227v-360q0 -91 50 -146zM248 617q41 -40 102 -40t102 40q42 39 42 97t-42 97q-41 40 -102 40t-102 -40q-42 -39 -42 -97t42 -97zM401 662
q-21 -21 -51 -21t-50 21q-21 21 -21 52t21 52q20 21 50 21t51 -21q20 -22 20 -52t-20 -52z" />
    <glyph glyph-name="glyph283" unicode="&#x170;" horiz-adv-x="760" 
d="M68 314q0 -328 344 -328q348 0 348 333v381h-238v-388q0 -119 -108 -119t-108 124v383h-238v-386zM457 813l-38 -73h146l150 115l-210 52l-23 -45l-181 45l-86 -167h146z" />
    <glyph glyph-name="Uhungarumlaut" unicode="&#x171;" horiz-adv-x="645" 
d="M110 40q51 -53 137 -53q99 0 167 86v-73h227v546h-227v-287q0 -33 -20 -55q-18 -19 -45 -19q-26 0 -44 19q-18 21 -18 55v287h-227v-360q0 -91 50 -146zM246 772l-86 -192h136l103 90l-40 -90h136l155 135l-205 57l-22 -49z" />
    <glyph glyph-name="glyph285" unicode="&#x172;" horiz-adv-x="760" 
d="M536 -164v96q-74 -3 -74 30q0 14 9 27q289 28 289 330v381h-238v-388q0 -119 -108 -119t-108 124v383h-238v-386q0 -284 261 -322q-36 -36 -36 -74q0 -41 46 -63q47 -24 124 -24q25 0 73 5z" />
    <glyph glyph-name="Uogonek" unicode="&#x173;" horiz-adv-x="645" 
d="M649 -164v96q-74 -3 -74 30q0 18 18 38h48v546h-227v-287q0 -33 -20 -55q-18 -19 -45 -19q-26 0 -44 19q-18 21 -18 55v287h-227v-360q0 -91 50 -146q51 -53 137 -53q99 0 167 86v-73h37q-45 -39 -45 -82q0 -41 46 -63q46 -24 124 -24q25 0 73 5z" />
    <glyph glyph-name="glyph287" unicode="&#x174;" horiz-adv-x="1112" 
d="M0 700l229 -705h204l123 348l123 -348h204l229 705h-241l-99 -336l-113 338h-202l-113 -338l-99 336h-245zM459 892l-118 -152h135l79 51l79 -51h137l-118 152h-194z" />
    <glyph glyph-name="Wcircumflex" unicode="&#x175;" horiz-adv-x="861" 
d="M2 546l165 -550h189l75 234l73 -234h190l167 550h-214l-58 -222l-67 224h-181l-66 -222l-56 220h-217zM349 752l-133 -172h125l89 56l89 -56h127l-133 172h-164z" />
    <glyph glyph-name="glyph289" unicode="&#x176;" horiz-adv-x="730" 
d="M232 248v-248h234v251l264 449h-259l-121 -230l-120 230h-262zM252 892l-118 -152h135l79 51l79 -51h137l-118 152h-194z" />
    <glyph glyph-name="Ycircumflex" unicode="&#x177;" horiz-adv-x="652" 
d="M423 546l-87 -288l-95 288h-235l214 -525q-18 -8 -37 -8q-35 0 -100 36l-66 -155q102 -57 211 -57q91 0 146 47q50 44 91 154l189 508h-231zM254 752l-133 -172h125l89 56l89 -56h127l-133 172h-164z" />
    <glyph glyph-name="Ydieresis" unicode="&#x178;" horiz-adv-x="730" 
d="M232 248v-248h234v251l264 449h-259l-121 -230l-120 230h-262zM369 890v-150h184v150h-184zM145 890v-150h184v150h-184z" />
    <glyph glyph-name="glyph292" unicode="&#x179;" horiz-adv-x="688" 
d="M36 164v-164h653v192h-317l317 344v164h-641v-192h305zM380 907l-96 -167h167l160 115z" />
    <glyph glyph-name="Zacute" unicode="&#x17a;" horiz-adv-x="563" 
d="M30 142v-142h536v178h-223l223 226v142h-527v-178h213zM320 772l-96 -192h152l165 135z" />
    <glyph glyph-name="glyph294" unicode="&#x17b;" horiz-adv-x="688" 
d="M36 164v-164h653v192h-317l317 344v164h-641v-192h305zM277 890v-150h190v150h-190z" />
    <glyph glyph-name="Zdotaccent" unicode="&#x17c;" horiz-adv-x="563" 
d="M30 142v-142h536v178h-223l223 226v142h-527v-178h213zM217 730v-150h184v150h-184z" />
    <glyph glyph-name="glyph296" unicode="&#x17d;" horiz-adv-x="688" 
d="M36 164v-164h653v192h-317l317 344v164h-641v-192h305zM469 740l118 152h-135l-79 -51l-79 51h-137l118 -152h194z" />
    <glyph glyph-name="Zcaron" unicode="&#x17e;" horiz-adv-x="563" 
d="M30 142v-142h536v178h-223l223 226v142h-527v-178h213zM391 580l133 172h-125l-89 -56l-89 56h-127l133 -172h164z" />
    <glyph glyph-name="florin" unicode="&#x192;" horiz-adv-x="569" 
d="M20 0q64 -15 112 -15q110 0 162 45q53 46 73 156l23 129h143v161h-114l4 21q11 59 81 59q25 0 65 -8v152q-53 15 -120 15q-216 0 -247 -181l-11 -58h-84v-161h55l-18 -102q-8 -39 -21 -54t-46 -15q-23 0 -57 8v-152z" />
    <glyph glyph-name="glyph299" unicode="&#x1a0;" horiz-adv-x="856" 
d="M537 239q-41 -47 -106 -47t-107 48q-40 44 -40 110v2q0 64 39 109q41 47 106 47t107 -48q40 -44 40 -110v-2q0 -64 -39 -109zM774 516q17 7 35 19q53 41 53 164h-124q3 -68 -27 -97l-8 8q-111 105 -272 105q-162 0 -272 -106q-111 -107 -111 -259v-2q0 -153 110 -258
t271 -105t273 106q110 107 110 259v2q0 90 -38 164z" />
    <glyph glyph-name="Ohorn" unicode="&#x1a1;" horiz-adv-x="726" 
d="M405 204q-25 -28 -63 -28q-39 0 -64 28q-26 29 -26 69v2q0 41 25 67q25 28 63 28q39 0 64 -28q26 -29 26 -69v-2q0 -41 -25 -67zM635 362q23 7 40 21q53 41 53 164h-118q-2 -65 -28 -93q-6 7 -20 21q-89 84 -220 84q-133 0 -221 -85q-87 -82 -87 -201v-2q0 -117 86 -200
q88 -84 220 -84q134 0 222 85q86 83 86 201v2q0 48 -13 87z" />
    <glyph glyph-name="glyph301" unicode="&#x1af;" horiz-adv-x="902" 
d="M760 498q74 7 113 37q53 41 53 164h-124q5 -84 -42 -107v108h-238v-388q0 -119 -108 -119t-108 124v383h-238v-386q0 -328 344 -328q348 0 348 333v179z" />
    <glyph glyph-name="Uhorn" unicode="&#x1b0;" horiz-adv-x="784" 
d="M641 347q71 9 107 36q53 41 53 164h-118q-2 -79 -42 -104v103h-227v-287q0 -33 -20 -55q-18 -19 -45 -19q-26 0 -44 19q-18 21 -18 55v287h-227v-360q0 -91 50 -146q51 -53 137 -53q99 0 167 86v-73h227v347z" />
    <glyph glyph-name="glyph303" unicode="&#x1fa;" 
d="M255 663l-277 -663h250l36 94h245l37 -94h254l-277 663q24 35 24 76q0 61 -46 101q-44 40 -112 40t-112 -40q-46 -40 -46 -101q0 -41 24 -76zM407 1068l-106 -167h152l175 110zM448 686q-22 -21 -59 -21q-35 0 -58 21t-23 53t23 53t58 21q37 0 59 -21t22 -53t-22 -53z
M451 260h-128l64 170z" />
    <glyph glyph-name="Aringacute" unicode="&#x1fb;" horiz-adv-x="606" 
d="M341 1071l-106 -172h152l167 117zM76 31q49 -44 129 -44q94 0 157 68v-55h227v311q0 116 -57 173q-71 71 -231 71q-126 0 -230 -40l40 -151q77 31 151 31q101 0 101 -79v-9q-49 20 -129 20q-96 0 -152 -44q-56 -45 -56 -126v-2q0 -79 50 -124zM345 141q-20 -23 -50 -23
q-22 0 -37 15q-15 13 -15 38v2q0 61 70 61q29 0 52 -9v-23q0 -38 -20 -61zM220 633q41 -40 102 -40t102 40q42 39 42 97t-42 97q-41 40 -102 40t-102 -40q-42 -39 -42 -97t42 -97zM373 678q-21 -21 -51 -21t-50 21q-21 21 -21 52t21 52q20 21 50 21t51 -21q20 -22 20 -52
t-20 -52z" />
    <glyph glyph-name="glyph305" unicode="&#x1fc;" horiz-adv-x="1080" 
d="M325 700l-363 -700h235l47 94h217v-94h577v192h-352v76h322v169h-322v71h347v192h-708zM461 260h-134l128 255h6v-255zM606 907l-96 -167h167l160 115z" />
    <glyph glyph-name="AEacute" unicode="&#x1fd;" horiz-adv-x="929" 
d="M86 28q55 -41 139 -41q113 0 216 81q81 -81 220 -81q157 0 249 119l-122 97q-54 -56 -111 -56q-79 0 -103 73h351q1 8 1 38q0 130 -69 213q-75 88 -210 88q-95 0 -162 -57q-65 53 -184 53q-126 0 -230 -40l40 -151q77 31 151 31q101 0 101 -79v-9q-49 20 -129 20
q-96 0 -152 -44q-56 -45 -56 -126v-2q0 -82 60 -127zM719 320h-148q10 82 72 82q69 0 76 -82zM382 157q-43 -37 -82 -37q-57 0 -57 51v2q0 61 70 61q29 0 51 -9q4 -36 18 -68zM487 772l-96 -192h152l165 135z" />
    <glyph glyph-name="glyph307" unicode="&#x1fe;" horiz-adv-x="812" 
d="M812 705h-147l-40 -44q-91 54 -202 54q-162 0 -272 -106q-111 -107 -111 -259v-2q0 -138 93 -241l-101 -112h147l39 43q91 -53 203 -53q161 0 273 106q110 107 110 259v2q0 140 -93 240zM430 917l-96 -167h167l160 115zM272 350v2q0 66 40 112q42 49 109 49q33 0 63 -14
l-198 -221q-14 36 -14 72zM532 236q-42 -49 -109 -49q-38 0 -64 13l198 221q15 -33 15 -71v-2q0 -66 -40 -112z" />
    <glyph glyph-name="Oslashacute" unicode="&#x1ff;" horiz-adv-x="648" 
d="M648 551h-133l-29 -32q-73 40 -159 40q-133 0 -221 -85q-87 -82 -87 -201v-2q0 -104 71 -184l-86 -92h133l29 31q70 -39 159 -39q134 0 222 85q86 83 86 201v2q0 103 -71 183zM337 780l-96 -192h152l165 135zM226 273v2q0 44 28 75t71 31q14 0 34 -5l-129 -139
q-4 13 -4 36zM398 196q-28 -31 -71 -31q-20 0 -32 4l127 138q4 -20 4 -34v-2q0 -44 -28 -75z" />
    <glyph glyph-name="glyph309" unicode="&#x218;" horiz-adv-x="664" 
d="M-36 105q134 -118 359 -118q143 0 225 63q84 64 84 174v2q0 99 -82 154q-67 45 -217 72q-93 18 -93 45v2q0 29 51 29q115 0 210 -69l114 158q-122 96 -316 96q-139 0 -221 -68q-76 -64 -76 -168v-2q0 -100 89 -156q65 -41 206 -69q97 -19 97 -46v-2q0 -30 -60 -30
q-139 0 -245 82zM217 -264l8 -67q90 4 134 38q49 37 49 119v125h-185v-156h72q3 -51 -78 -59z" />
    <glyph glyph-name="Scommaaccent" unicode="&#x219;" horiz-adv-x="525" 
d="M-10 66q118 -79 280 -79q112 0 174 49q63 50 63 139v2q0 77 -59 121q-46 34 -162 63q-67 16 -67 32v2q0 17 32 17q83 0 174 -51l72 135q-103 63 -245 63q-108 0 -172 -48q-66 -51 -66 -139v-2q0 -78 60 -122q47 -33 163 -62q65 -17 65 -32v-2q0 -18 -33 -18
q-105 0 -202 61zM165 -262l8 -67q90 4 134 38q49 37 49 119v125h-185v-156h72q3 -51 -78 -59z" />
    <glyph glyph-name="circumflex" unicode="&#x2c6;" horiz-adv-x="500" 
d="M203 752l-133 -172h125l89 56l89 -56h127l-133 172h-164z" />
    <glyph glyph-name="ring" unicode="&#x2da;" horiz-adv-x="500" 
d="M254 625q41 -40 102 -40t102 40q42 39 42 97t-42 97q-41 40 -102 40t-102 -40q-42 -39 -42 -97t42 -97zM407 670q-21 -21 -51 -21t-50 21q-21 21 -21 52t21 52q20 21 50 21t51 -21q20 -22 20 -52t-20 -52z" />
    <glyph glyph-name="tilde" unicode="&#x2dc;" horiz-adv-x="500" 
d="M280 601q62 -21 96 -21q96 0 124 159l-101 25q-17 -44 -45 -44q-12 0 -66 18q-62 21 -96 21q-96 0 -124 -159l101 -25q17 44 45 44q12 0 66 -18z" />
    <glyph glyph-name="glyph314" unicode="&#x1e80;" horiz-adv-x="1112" 
d="M0 700l229 -705h204l123 348l123 -348h204l229 705h-241l-99 -336l-113 338h-202l-113 -338l-99 336h-245zM477 740h167l-96 167l-231 -52z" />
    <glyph glyph-name="Wgrave" unicode="&#x1e81;" horiz-adv-x="861" 
d="M2 546l165 -550h189l75 234l73 -234h190l167 550h-214l-58 -222l-67 224h-181l-66 -222l-56 220h-217zM199 715l165 -135h152l-96 192z" />
    <glyph glyph-name="glyph316" unicode="&#x1e82;" horiz-adv-x="1112" 
d="M0 700l229 -705h204l123 348l123 -348h204l229 705h-241l-99 -336l-113 338h-202l-113 -338l-99 336h-245zM564 907l-96 -167h167l160 115z" />
    <glyph glyph-name="Wacute" unicode="&#x1e83;" horiz-adv-x="861" 
d="M2 546l165 -550h189l75 234l73 -234h190l167 550h-214l-58 -222l-67 224h-181l-66 -222l-56 220h-217zM442 772l-96 -192h152l165 135z" />
    <glyph glyph-name="glyph318" unicode="&#x1e84;" horiz-adv-x="1112" 
d="M0 700l229 -705h204l123 348l123 -348h204l229 705h-241l-99 -336l-113 338h-202l-113 -338l-99 336h-245zM576 890v-150h184v150h-184zM352 890v-150h184v150h-184z" />
    <glyph glyph-name="Wdieresis" unicode="&#x1e85;" horiz-adv-x="861" 
d="M2 546l165 -550h189l75 234l73 -234h190l167 550h-214l-58 -222l-67 224h-181l-66 -222l-56 220h-217zM448 730v-150h177v150h-177zM237 730v-150h177v150h-177z" />
    <glyph glyph-name="uni1EA0" unicode="&#x1ea0;" 
d="M273 705l-295 -705h250l36 94h245l37 -94h254l-295 705h-232zM451 260h-128l64 170zM296 -65v-184h186v184h-186z" />
    <glyph glyph-name="A.dotbl" unicode="&#x1ea1;" horiz-adv-x="606" 
d="M76 31q49 -44 129 -44q94 0 157 68v-55h227v311q0 116 -57 173q-71 71 -231 71q-126 0 -230 -40l40 -151q77 31 151 31q101 0 101 -79v-9q-49 20 -129 20q-96 0 -152 -44q-56 -45 -56 -126v-2q0 -79 50 -124zM345 141q-20 -23 -50 -23q-22 0 -37 15q-15 13 -15 38v2
q0 61 70 61q29 0 52 -9v-23q0 -38 -20 -61zM215 -65v-184h186v184h-186z" />
    <glyph glyph-name="uni1EA2" unicode="&#x1ea2;" 
d="M273 705l-295 -705h250l36 94h245l37 -94h254l-295 705h-232zM451 260h-128l64 170zM268 937v-96q74 3 74 -30q0 -22 -29 -48h140q58 43 58 92q0 41 -46 63q-47 24 -124 24q-25 0 -73 -5z" />
    <glyph glyph-name="A.hook" unicode="&#x1ea3;" horiz-adv-x="606" 
d="M76 31q49 -44 129 -44q94 0 157 68v-55h227v311q0 116 -57 173q-71 71 -231 71q-126 0 -230 -40l40 -151q77 31 151 31q101 0 101 -79v-9q-49 20 -129 20q-96 0 -152 -44q-56 -45 -56 -126v-2q0 -79 50 -124zM345 141q-20 -23 -50 -23q-22 0 -37 15q-15 13 -15 38v2
q0 61 70 61q29 0 52 -9v-23q0 -38 -20 -61zM179 783v-96q74 3 74 -30q0 -22 -29 -48h140q58 43 58 92q0 41 -46 63q-46 24 -124 24q-25 0 -73 -5z" />
    <glyph glyph-name="uni1EA4" unicode="&#x1ea4;" 
d="M273 705l-295 -705h250l36 94h245l37 -94h254l-295 705h-232zM451 260h-128l64 170zM307 921l-133 -172h125l89 56l89 -56h127l-133 172h-164zM627 1092l-96 -192h152l165 135z" />
    <glyph glyph-name="Acir.acute" unicode="&#x1ea5;" horiz-adv-x="606" 
d="M76 31q49 -44 129 -44q94 0 157 68v-55h227v311q0 116 -57 173q-71 71 -231 71q-126 0 -230 -40l40 -151q77 31 151 31q101 0 101 -79v-9q-49 20 -129 20q-96 0 -152 -44q-56 -45 -56 -126v-2q0 -79 50 -124zM345 141q-20 -23 -50 -23q-22 0 -37 15q-15 13 -15 38v2
q0 61 70 61q29 0 52 -9v-23q0 -38 -20 -61zM226 752l-133 -172h125l89 56l89 -56h127l-133 172h-164zM559 922l-96 -192h152l165 135z" />
    <glyph glyph-name="uni1EA6" unicode="&#x1ea6;" 
d="M273 705l-295 -705h250l36 94h245l37 -94h254l-295 705h-232zM451 260h-128l64 170zM307 922l-133 -172h125l89 56l89 -56h127l-133 172h-164zM404 1035l165 -135h152l-96 192z" />
    <glyph glyph-name="Acir.grave" unicode="&#x1ea7;" horiz-adv-x="606" 
d="M76 31q49 -44 129 -44q94 0 157 68v-55h227v311q0 116 -57 173q-71 71 -231 71q-126 0 -230 -40l40 -151q77 31 151 31q101 0 101 -79v-9q-49 20 -129 20q-96 0 -152 -44q-56 -45 -56 -126v-2q0 -79 50 -124zM345 141q-20 -23 -50 -23q-22 0 -37 15q-15 13 -15 38v2
q0 61 70 61q29 0 52 -9v-23q0 -38 -20 -61zM226 752l-133 -172h125l89 56l89 -56h127l-133 172h-164zM303 867l165 -135h152l-96 192z" />
    <glyph glyph-name="uni1EA8" unicode="&#x1ea8;" 
d="M273 705l-295 -705h250l36 94h245l37 -94h254l-295 705h-232zM451 260h-128l64 170zM307 922l-133 -172h125l89 56l89 -56h127l-133 172h-164zM481 1071v-96q74 3 74 -30q0 -22 -29 -48h140q58 43 58 92q0 41 -46 63q-46 24 -124 24q-25 0 -73 -5z" />
    <glyph glyph-name="Acir.hook" unicode="&#x1ea9;" horiz-adv-x="606" 
d="M76 31q49 -44 129 -44q94 0 157 68v-55h227v311q0 116 -57 173q-71 71 -231 71q-126 0 -230 -40l40 -151q77 31 151 31q101 0 101 -79v-9q-49 20 -129 20q-96 0 -152 -44q-56 -45 -56 -126v-2q0 -79 50 -124zM345 141q-20 -23 -50 -23q-22 0 -37 15q-15 13 -15 38v2
q0 61 70 61q29 0 52 -9v-23q0 -38 -20 -61zM226 752l-133 -172h125l89 56l89 -56h127l-133 172h-164zM394 906v-96q74 3 74 -30q0 -22 -29 -48h140q58 43 58 92q0 41 -46 63q-47 24 -124 24q-25 0 -73 -5z" />
    <glyph glyph-name="uni1EAA" unicode="&#x1eaa;" 
d="M273 705l-295 -705h250l36 94h245l37 -94h254l-295 705h-232zM451 260h-128l64 170zM307 921l-133 -172h125l89 56l89 -56h127l-133 172h-164zM396 964q62 -21 96 -21q96 0 124 159l-101 25q-17 -44 -45 -44q-12 0 -66 18q-62 21 -96 21q-96 0 -124 -159l101 -25
q17 44 45 44q12 0 66 -18z" />
    <glyph glyph-name="Acir.tilde" unicode="&#x1eab;" horiz-adv-x="606" 
d="M76 31q49 -44 129 -44q94 0 157 68v-55h227v311q0 116 -57 173q-71 71 -231 71q-126 0 -230 -40l40 -151q77 31 151 31q101 0 101 -79v-9q-49 20 -129 20q-96 0 -152 -44q-56 -45 -56 -126v-2q0 -79 50 -124zM345 141q-20 -23 -50 -23q-22 0 -37 15q-15 13 -15 38v2
q0 61 70 61q29 0 52 -9v-23q0 -38 -20 -61zM226 752l-133 -172h125l89 56l89 -56h127l-133 172h-164zM304 825q62 -21 96 -21q95 0 124 159l-101 25q-17 -44 -45 -44q-12 0 -66 18q-62 21 -96 21q-96 0 -124 -159l101 -25q17 44 45 44q12 0 66 -18z" />
    <glyph glyph-name="uni1EAC" unicode="&#x1eac;" 
d="M273 705l-295 -705h250l36 94h245l37 -94h254l-295 705h-232zM451 260h-128l64 170zM307 906l-133 -172h125l89 56l89 -56h127l-133 172h-164zM296 -65v-184h186v184h-186z" />
    <glyph glyph-name="Acir.dotbl" unicode="&#x1ead;" horiz-adv-x="606" 
d="M76 31q49 -44 129 -44q94 0 157 68v-55h227v311q0 116 -57 173q-71 71 -231 71q-126 0 -230 -40l40 -151q77 31 151 31q101 0 101 -79v-9q-49 20 -129 20q-96 0 -152 -44q-56 -45 -56 -126v-2q0 -79 50 -124zM345 141q-20 -23 -50 -23q-22 0 -37 15q-15 13 -15 38v2
q0 61 70 61q29 0 52 -9v-23q0 -38 -20 -61zM226 752l-133 -172h125l89 56l89 -56h127l-133 172h-164zM215 -65v-184h186v184h-186z" />
    <glyph glyph-name="uni1EAE" unicode="&#x1eae;" 
d="M273 705l-295 -705h250l36 94h245l37 -94h254l-295 705h-232zM451 260h-128l64 170zM246 795q56 -45 143 -45t143 45q56 47 63 129h-120q-20 -56 -86 -56t-86 56h-120q7 -82 63 -129zM419 1148l-96 -192h152l165 135z" />
    <glyph glyph-name="Abrv.acute" unicode="&#x1eaf;" horiz-adv-x="606" 
d="M76 31q49 -44 129 -44q94 0 157 68v-55h227v311q0 116 -57 173q-71 71 -231 71q-126 0 -230 -40l40 -151q77 31 151 31q101 0 101 -79v-9q-49 20 -129 20q-96 0 -152 -44q-56 -45 -56 -126v-2q0 -79 50 -124zM345 141q-20 -23 -50 -23q-22 0 -37 15q-15 13 -15 38v2
q0 61 70 61q29 0 52 -9v-23q0 -38 -20 -61zM165 623q56 -45 143 -45t143 45q55 47 63 129h-120q-20 -56 -86 -56t-86 56h-120q8 -82 63 -129zM299 992l-96 -192h152l165 135z" />
    <glyph glyph-name="uni1EB0" unicode="&#x1eb0;" 
d="M273 705l-295 -705h250l36 94h245l37 -94h254l-295 705h-232zM451 260h-128l64 170zM246 795q56 -45 143 -45t143 45q56 47 63 129h-120q-20 -56 -86 -56t-86 56h-120q7 -82 63 -129zM163 1083l165 -135h152l-96 192z" />
    <glyph glyph-name="Abrv.grave" unicode="&#x1eb1;" horiz-adv-x="606" 
d="M76 31q49 -44 129 -44q94 0 157 68v-55h227v311q0 116 -57 173q-71 71 -231 71q-126 0 -230 -40l40 -151q77 31 151 31q101 0 101 -79v-9q-49 20 -129 20q-96 0 -152 -44q-56 -45 -56 -126v-2q0 -79 50 -124zM345 141q-20 -23 -50 -23q-22 0 -37 15q-15 13 -15 38v2
q0 61 70 61q29 0 52 -9v-23q0 -38 -20 -61zM165 623q56 -45 143 -45t143 45q55 47 63 129h-120q-20 -56 -86 -56t-86 56h-120q8 -82 63 -129zM95 935l165 -135h152l-96 192z" />
    <glyph glyph-name="uni1EB2" unicode="&#x1eb2;" 
d="M273 705l-295 -705h250l36 94h245l37 -94h254l-295 705h-232zM451 260h-128l64 170zM246 795q56 -45 143 -45t143 45q56 47 63 129h-120q-20 -56 -86 -56t-86 56h-120q7 -82 63 -129zM267 1079v-72q74 3 74 -22q0 -16 -29 -36h140q58 31 58 69q0 31 -46 47
q-46 18 -124 18q-34 0 -73 -4z" />
    <glyph glyph-name="Abrv.hook" unicode="&#x1eb3;" horiz-adv-x="606" 
d="M76 31q49 -44 129 -44q94 0 157 68v-55h227v311q0 116 -57 173q-71 71 -231 71q-126 0 -230 -40l40 -151q77 31 151 31q101 0 101 -79v-9q-49 20 -129 20q-96 0 -152 -44q-56 -45 -56 -126v-2q0 -79 50 -124zM345 141q-20 -23 -50 -23q-22 0 -37 15q-15 13 -15 38v2
q0 61 70 61q29 0 52 -9v-23q0 -38 -20 -61zM165 623q56 -45 143 -45t143 45q55 47 63 129h-120q-20 -56 -86 -56t-86 56h-120q8 -82 63 -129zM186 971v-96q74 3 74 -30q0 -22 -29 -48h140q58 43 58 92q0 41 -46 63q-47 24 -124 24q-25 0 -73 -5z" />
    <glyph glyph-name="uni1EB4" unicode="&#x1eb4;" 
d="M273 705l-295 -705h250l36 94h245l37 -94h254l-295 705h-232zM451 260h-128l64 170zM246 795q56 -45 143 -45t143 45q56 47 63 129h-120q-20 -56 -86 -56t-86 56h-120q7 -82 63 -129zM387 985q61 -21 96 -21q95 0 124 159l-101 25q-17 -44 -45 -44q-12 0 -66 18
q-61 21 -96 21q-95 0 -124 -159l101 -25q17 44 45 44q12 0 66 -18z" />
    <glyph glyph-name="Abrv.tilde" unicode="&#x1eb5;" horiz-adv-x="606" 
d="M76 31q49 -44 129 -44q94 0 157 68v-55h227v311q0 116 -57 173q-71 71 -231 71q-126 0 -230 -40l40 -151q77 31 151 31q101 0 101 -79v-9q-49 20 -129 20q-96 0 -152 -44q-56 -45 -56 -126v-2q0 -79 50 -124zM345 141q-20 -23 -50 -23q-22 0 -37 15q-15 13 -15 38v2
q0 61 70 61q29 0 52 -9v-23q0 -38 -20 -61zM165 623q56 -45 143 -45t143 45q55 47 63 129h-120q-20 -56 -86 -56t-86 56h-120q8 -82 63 -129zM304 825q62 -21 96 -21q95 0 124 159l-101 25q-17 -44 -45 -44q-12 0 -66 18q-62 21 -96 21q-96 0 -124 -159l101 -25q17 44 45 44
q12 0 66 -18z" />
    <glyph glyph-name="uni1EB6" unicode="&#x1eb6;" 
d="M273 705l-295 -705h250l36 94h245l37 -94h254l-295 705h-232zM451 260h-128l64 170zM246 777q56 -45 143 -45t143 45q56 47 63 129h-120q-20 -56 -86 -56t-86 56h-120q7 -82 63 -129zM296 -65v-184h186v184h-186z" />
    <glyph glyph-name="Abrv.dotbl" unicode="&#x1eb7;" horiz-adv-x="606" 
d="M76 31q49 -44 129 -44q94 0 157 68v-55h227v311q0 116 -57 173q-71 71 -231 71q-126 0 -230 -40l40 -151q77 31 151 31q101 0 101 -79v-9q-49 20 -129 20q-96 0 -152 -44q-56 -45 -56 -126v-2q0 -79 50 -124zM345 141q-20 -23 -50 -23q-22 0 -37 15q-15 13 -15 38v2
q0 61 70 61q29 0 52 -9v-23q0 -38 -20 -61zM165 623q56 -45 143 -45t143 45q55 47 63 129h-120q-20 -56 -86 -56t-86 56h-120q8 -82 63 -129zM215 -65v-184h186v184h-186z" />
    <glyph glyph-name="uni1EB8" unicode="&#x1eb8;" horiz-adv-x="665" 
d="M80 700v-700h602v192h-372v76h342v169h-342v71h367v192h-597zM288 -65v-184h186v184h-186z" />
    <glyph glyph-name="E.dotbl" unicode="&#x1eb9;" horiz-adv-x="598" 
d="M117 65q83 -78 217 -78q157 0 249 119l-122 97q-54 -56 -111 -56q-79 0 -103 73h351q1 8 1 38q0 132 -69 213q-76 88 -215 88q-123 0 -202 -82t-79 -205v-2q0 -127 83 -205zM392 320h-148q10 82 72 82q69 0 76 -82zM224 -65v-184h186v184h-186z" />
    <glyph glyph-name="uni1EBA" unicode="&#x1eba;" horiz-adv-x="665" 
d="M80 700v-700h602v192h-372v76h342v169h-342v71h367v192h-597zM260 937v-96q74 3 74 -30q0 -22 -29 -48h140q58 43 58 92q0 41 -46 63q-46 24 -124 24q-25 0 -73 -5z" />
    <glyph glyph-name="E.hook" unicode="&#x1ebb;" horiz-adv-x="598" 
d="M117 65q83 -78 217 -78q157 0 249 119l-122 97q-54 -56 -111 -56q-79 0 -103 73h351q1 8 1 38q0 132 -69 213q-76 88 -215 88q-123 0 -202 -82t-79 -205v-2q0 -127 83 -205zM392 320h-148q10 82 72 82q69 0 76 -82zM195 783v-96q74 3 74 -30q0 -22 -29 -48h140
q58 43 58 92q0 41 -46 63q-46 24 -124 24q-25 0 -73 -5z" />
    <glyph glyph-name="uni1EBC" unicode="&#x1ebc;" horiz-adv-x="665" 
d="M80 700v-700h602v192h-372v76h342v169h-342v71h367v192h-597zM377 755q61 -21 96 -21q95 0 124 159l-101 25q-17 -44 -45 -44q-12 0 -66 18q-61 21 -96 21q-95 0 -124 -159l101 -25q17 44 45 44q12 0 66 -18z" />
    <glyph glyph-name="E.tilde" unicode="&#x1ebd;" horiz-adv-x="598" 
d="M117 65q83 -78 217 -78q157 0 249 119l-122 97q-54 -56 -111 -56q-79 0 -103 73h351q1 8 1 38q0 132 -69 213q-76 88 -215 88q-123 0 -202 -82t-79 -205v-2q0 -127 83 -205zM392 320h-148q10 82 72 82q69 0 76 -82zM313 601q61 -21 96 -21q95 0 124 159l-101 25
q-17 -44 -45 -44q-12 0 -66 18q-61 21 -96 21q-95 0 -124 -159l101 -25q17 44 45 44q12 0 66 -18z" />
    <glyph glyph-name="uni1EBE" unicode="&#x1ebe;" horiz-adv-x="665" 
d="M80 700v-700h602v192h-372v76h342v169h-342v71h367v192h-597zM299 921l-133 -172h125l89 56l89 -56h127l-133 172h-164zM619 1092l-96 -192h152l165 135z" />
    <glyph glyph-name="Ecir.acute" unicode="&#x1ebf;" horiz-adv-x="598" 
d="M117 65q83 -78 217 -78q157 0 249 119l-122 97q-54 -56 -111 -56q-79 0 -103 73h351q1 8 1 38q0 132 -69 213q-76 88 -215 88q-123 0 -202 -82t-79 -205v-2q0 -127 83 -205zM392 320h-148q10 82 72 82q69 0 76 -82zM235 752l-133 -172h125l89 56l89 -56h127l-133 172
h-164zM562 924l-96 -192h152l165 135z" />
    <glyph glyph-name="uni1EC0" unicode="&#x1ec0;" horiz-adv-x="665" 
d="M80 700v-700h602v192h-372v76h342v169h-342v71h367v192h-597zM299 922l-133 -172h125l89 56l89 -56h127l-133 172h-164zM396 1035l165 -135h152l-96 192z" />
    <glyph glyph-name="Ecir.grave" unicode="&#x1ec1;" horiz-adv-x="598" 
d="M117 65q83 -78 217 -78q157 0 249 119l-122 97q-54 -56 -111 -56q-79 0 -103 73h351q1 8 1 38q0 132 -69 213q-76 88 -215 88q-123 0 -202 -82t-79 -205v-2q0 -127 83 -205zM392 320h-148q10 82 72 82q69 0 76 -82zM235 752l-133 -172h125l89 56l89 -56h127l-133 172
h-164zM324 867l165 -135h152l-96 192z" />
    <glyph glyph-name="uni1EC2" unicode="&#x1ec2;" horiz-adv-x="665" 
d="M80 700v-700h602v192h-372v76h342v169h-342v71h367v192h-597zM299 922l-133 -172h125l89 56l89 -56h127l-133 172h-164zM473 1071v-96q74 3 74 -30q0 -22 -29 -48h140q58 43 58 92q0 41 -46 63q-47 24 -124 24q-25 0 -73 -5z" />
    <glyph glyph-name="Ecir.hook" unicode="&#x1ec3;" horiz-adv-x="598" 
d="M117 65q83 -78 217 -78q157 0 249 119l-122 97q-54 -56 -111 -56q-79 0 -103 73h351q1 8 1 38q0 132 -69 213q-76 88 -215 88q-123 0 -202 -82t-79 -205v-2q0 -127 83 -205zM392 320h-148q10 82 72 82q69 0 76 -82zM235 752l-133 -172h125l89 56l89 -56h127l-133 172
h-164zM404 906v-96q74 3 74 -30q0 -22 -29 -48h140q58 43 58 92q0 41 -46 63q-46 24 -124 24q-25 0 -73 -5z" />
    <glyph glyph-name="uni1EC4" unicode="&#x1ec4;" horiz-adv-x="665" 
d="M80 700v-700h602v192h-372v76h342v169h-342v71h367v192h-597zM299 921l-133 -172h125l89 56l89 -56h127l-133 172h-164zM388 964q62 -21 96 -21q96 0 124 159l-101 25q-17 -44 -45 -44q-12 0 -66 18q-62 21 -96 21q-96 0 -124 -159l101 -25q17 44 45 44q12 0 66 -18z" />
    <glyph glyph-name="Ecir.tilde" unicode="&#x1ec5;" horiz-adv-x="598" 
d="M117 65q83 -78 217 -78q157 0 249 119l-122 97q-54 -56 -111 -56q-79 0 -103 73h351q1 8 1 38q0 132 -69 213q-76 88 -215 88q-123 0 -202 -82t-79 -205v-2q0 -127 83 -205zM392 320h-148q10 82 72 82q69 0 76 -82zM235 752l-133 -172h125l89 56l89 -56h127l-133 172
h-164zM313 825q61 -21 96 -21q95 0 124 159l-101 25q-17 -44 -45 -44q-12 0 -66 18q-61 21 -96 21q-95 0 -124 -159l101 -25q17 44 45 44q12 0 66 -18z" />
    <glyph glyph-name="uni1EC6" unicode="&#x1ec6;" horiz-adv-x="665" 
d="M80 700v-700h602v192h-372v76h342v169h-342v71h367v192h-597zM299 906l-133 -172h125l89 56l89 -56h127l-133 172h-164zM288 -65v-184h186v184h-186z" />
    <glyph glyph-name="Ecir.dotbl" unicode="&#x1ec7;" horiz-adv-x="598" 
d="M117 65q83 -78 217 -78q157 0 249 119l-122 97q-54 -56 -111 -56q-79 0 -103 73h351q1 8 1 38q0 132 -69 213q-76 88 -215 88q-123 0 -202 -82t-79 -205v-2q0 -127 83 -205zM392 320h-148q10 82 72 82q69 0 76 -82zM235 752l-133 -172h125l89 56l89 -56h127l-133 172
h-164zM224 -65v-184h186v184h-186z" />
    <glyph glyph-name="uni1EC8" unicode="&#x1ec8;" horiz-adv-x="318" 
d="M84 700v-700h234v700h-234zM80 937v-96q74 3 74 -30q0 -22 -29 -48h140q58 43 58 92q0 41 -46 63q-46 24 -124 24q-25 0 -73 -5z" />
    <glyph glyph-name="I.hook" unicode="&#x1ec9;" horiz-adv-x="299" 
d="M72 546v-546h227v546h-227zM64 783v-96q74 3 74 -30q0 -22 -29 -48h140q58 43 58 92q0 41 -46 63q-47 24 -124 24q-25 0 -73 -5z" />
    <glyph glyph-name="uni1ECA" unicode="&#x1eca;" horiz-adv-x="318" 
d="M84 700v-700h234v700h-234zM108 -65v-184h186v184h-186z" />
    <glyph glyph-name="I.dotbl" unicode="&#x1ecb;" horiz-adv-x="299" 
d="M64 730v-145h235v145h-235zM68 546v-546h227v546h-227zM89 -65v-184h186v184h-186z" />
    <glyph glyph-name="uni1ECC" unicode="&#x1ecc;" horiz-adv-x="812" 
d="M158 90q110 -105 271 -105t273 106q110 107 110 259v2q0 153 -109 258q-111 105 -272 105q-162 0 -272 -106q-111 -107 -111 -259v-2q0 -153 110 -258zM537 239q-41 -47 -106 -47t-107 48q-40 44 -40 110v2q0 64 39 109q41 47 106 47t107 -48q40 -44 40 -110v-2
q0 -64 -39 -109zM337 -65v-184h186v184h-186z" />
    <glyph glyph-name="O.dotbl" unicode="&#x1ecd;" horiz-adv-x="648" 
d="M120 71q88 -84 220 -84q134 0 222 85q86 83 86 201v2q0 117 -86 200q-89 84 -220 84q-133 0 -221 -85q-87 -82 -87 -201v-2q0 -117 86 -200zM405 204q-25 -28 -63 -28q-39 0 -64 28q-26 29 -26 69v2q0 41 25 67q25 28 63 28q39 0 64 -28q26 -29 26 -69v-2q0 -41 -25 -67z
M248 -65v-184h186v184h-186z" />
    <glyph glyph-name="uni1ECE" unicode="&#x1ece;" horiz-adv-x="812" 
d="M158 90q110 -105 271 -105t273 106q110 107 110 259v2q0 153 -109 258q-111 105 -272 105q-162 0 -272 -106q-111 -107 -111 -259v-2q0 -153 110 -258zM537 239q-41 -47 -106 -47t-107 48q-40 44 -40 110v2q0 64 39 109q41 47 106 47t107 -48q40 -44 40 -110v-2
q0 -64 -39 -109zM309 937v-96q74 3 74 -30q0 -22 -29 -48h140q58 43 58 92q0 41 -46 63q-47 24 -124 24q-25 0 -73 -5z" />
    <glyph glyph-name="O.hook" unicode="&#x1ecf;" horiz-adv-x="648" 
d="M120 71q88 -84 220 -84q134 0 222 85q86 83 86 201v2q0 117 -86 200q-89 84 -220 84q-133 0 -221 -85q-87 -82 -87 -201v-2q0 -117 86 -200zM405 204q-25 -28 -63 -28q-39 0 -64 28q-26 29 -26 69v2q0 41 25 67q25 28 63 28q39 0 64 -28q26 -29 26 -69v-2q0 -41 -25 -67z
M220 783v-96q74 3 74 -30q0 -22 -29 -48h140q58 43 58 92q0 41 -46 63q-46 24 -124 24q-25 0 -73 -5z" />
    <glyph glyph-name="uni1ED0" unicode="&#x1ed0;" horiz-adv-x="812" 
d="M158 90q110 -105 271 -105t273 106q110 107 110 259v2q0 153 -109 258q-111 105 -272 105q-162 0 -272 -106q-111 -107 -111 -259v-2q0 -153 110 -258zM537 239q-41 -47 -106 -47t-107 48q-40 44 -40 110v2q0 64 39 109q41 47 106 47t107 -48q40 -44 40 -110v-2
q0 -64 -39 -109zM348 921l-133 -172h125l89 56l89 -56h127l-133 172h-164zM668 1092l-96 -192h152l165 135z" />
    <glyph glyph-name="Ocir.acute" unicode="&#x1ed1;" horiz-adv-x="648" 
d="M120 71q88 -84 220 -84q134 0 222 85q86 83 86 201v2q0 117 -86 200q-89 84 -220 84q-133 0 -221 -85q-87 -82 -87 -201v-2q0 -117 86 -200zM405 204q-25 -28 -63 -28q-39 0 -64 28q-26 29 -26 69v2q0 41 25 67q25 28 63 28q39 0 64 -28q26 -29 26 -69v-2q0 -41 -25 -67z
M259 752l-133 -172h125l89 56l89 -56h127l-133 172h-164zM578 924l-96 -192h152l165 135z" />
    <glyph glyph-name="uni1ED2" unicode="&#x1ed2;" horiz-adv-x="812" 
d="M158 90q110 -105 271 -105t273 106q110 107 110 259v2q0 153 -109 258q-111 105 -272 105q-162 0 -272 -106q-111 -107 -111 -259v-2q0 -153 110 -258zM537 239q-41 -47 -106 -47t-107 48q-40 44 -40 110v2q0 64 39 109q41 47 106 47t107 -48q40 -44 40 -110v-2
q0 -64 -39 -109zM348 922l-133 -172h125l89 56l89 -56h127l-133 172h-164zM445 1035l165 -135h152l-96 192z" />
    <glyph glyph-name="Ocir.grave" unicode="&#x1ed3;" horiz-adv-x="648" 
d="M120 71q88 -84 220 -84q134 0 222 85q86 83 86 201v2q0 117 -86 200q-89 84 -220 84q-133 0 -221 -85q-87 -82 -87 -201v-2q0 -117 86 -200zM405 204q-25 -28 -63 -28q-39 0 -64 28q-26 29 -26 69v2q0 41 25 67q25 28 63 28q39 0 64 -28q26 -29 26 -69v-2q0 -41 -25 -67z
M259 752l-133 -172h125l89 56l89 -56h127l-133 172h-164zM340 867l165 -135h152l-96 192z" />
    <glyph glyph-name="uni1ED4" unicode="&#x1ed4;" horiz-adv-x="812" 
d="M158 90q110 -105 271 -105t273 106q110 107 110 259v2q0 153 -109 258q-111 105 -272 105q-162 0 -272 -106q-111 -107 -111 -259v-2q0 -153 110 -258zM537 239q-41 -47 -106 -47t-107 48q-40 44 -40 110v2q0 64 39 109q41 47 106 47t107 -48q40 -44 40 -110v-2
q0 -64 -39 -109zM348 922l-133 -172h125l89 56l89 -56h127l-133 172h-164zM522 1071v-96q74 3 74 -30q0 -22 -29 -48h140q58 43 58 92q0 41 -46 63q-46 24 -124 24q-25 0 -73 -5z" />
    <glyph glyph-name="Ocir.hook" unicode="&#x1ed5;" horiz-adv-x="648" 
d="M120 71q88 -84 220 -84q134 0 222 85q86 83 86 201v2q0 117 -86 200q-89 84 -220 84q-133 0 -221 -85q-87 -82 -87 -201v-2q0 -117 86 -200zM405 204q-25 -28 -63 -28q-39 0 -64 28q-26 29 -26 69v2q0 41 25 67q25 28 63 28q39 0 64 -28q26 -29 26 -69v-2q0 -41 -25 -67z
M259 752l-133 -172h125l89 56l89 -56h127l-133 172h-164zM420 906v-96q74 3 74 -30q0 -22 -29 -48h140q58 43 58 92q0 41 -46 63q-46 24 -124 24q-25 0 -73 -5z" />
    <glyph glyph-name="uni1ED6" unicode="&#x1ed6;" horiz-adv-x="812" 
d="M158 90q110 -105 271 -105t273 106q110 107 110 259v2q0 153 -109 258q-111 105 -272 105q-162 0 -272 -106q-111 -107 -111 -259v-2q0 -153 110 -258zM537 239q-41 -47 -106 -47t-107 48q-40 44 -40 110v2q0 64 39 109q41 47 106 47t107 -48q40 -44 40 -110v-2
q0 -64 -39 -109zM348 921l-133 -172h125l89 56l89 -56h127l-133 172h-164zM437 964q61 -21 96 -21q95 0 124 159l-101 25q-17 -44 -45 -44q-12 0 -66 18q-61 21 -96 21q-95 0 -124 -159l101 -25q17 44 45 44q12 0 66 -18z" />
    <glyph glyph-name="Ocir.tilde" unicode="&#x1ed7;" horiz-adv-x="648" 
d="M120 71q88 -84 220 -84q134 0 222 85q86 83 86 201v2q0 117 -86 200q-89 84 -220 84q-133 0 -221 -85q-87 -82 -87 -201v-2q0 -117 86 -200zM405 204q-25 -28 -63 -28q-39 0 -64 28q-26 29 -26 69v2q0 41 25 67q25 28 63 28q39 0 64 -28q26 -29 26 -69v-2q0 -41 -25 -67z
M259 752l-133 -172h125l89 56l89 -56h127l-133 172h-164zM337 825q61 -21 96 -21q95 0 124 159l-101 25q-17 -44 -45 -44q-12 0 -66 18q-61 21 -96 21q-95 0 -124 -159l101 -25q17 44 45 44q12 0 66 -18z" />
    <glyph glyph-name="uni1ED8" unicode="&#x1ed8;" horiz-adv-x="812" 
d="M158 90q110 -105 271 -105t273 106q110 107 110 259v2q0 153 -109 258q-111 105 -272 105q-162 0 -272 -106q-111 -107 -111 -259v-2q0 -153 110 -258zM537 239q-41 -47 -106 -47t-107 48q-40 44 -40 110v2q0 64 39 109q41 47 106 47t107 -48q40 -44 40 -110v-2
q0 -64 -39 -109zM348 906l-133 -172h125l89 56l89 -56h127l-133 172h-164zM337 -65v-184h186v184h-186z" />
    <glyph glyph-name="Ocir.dotbl" unicode="&#x1ed9;" horiz-adv-x="648" 
d="M120 71q88 -84 220 -84q134 0 222 85q86 83 86 201v2q0 117 -86 200q-89 84 -220 84q-133 0 -221 -85q-87 -82 -87 -201v-2q0 -117 86 -200zM405 204q-25 -28 -63 -28q-39 0 -64 28q-26 29 -26 69v2q0 41 25 67q25 28 63 28q39 0 64 -28q26 -29 26 -69v-2q0 -41 -25 -67z
M259 752l-133 -172h125l89 56l89 -56h127l-133 172h-164zM248 -65v-184h186v184h-186z" />
    <glyph glyph-name="uni1EDA" unicode="&#x1eda;" horiz-adv-x="856" 
d="M537 239q-41 -47 -106 -47t-107 48q-40 44 -40 110v2q0 64 39 109q41 47 106 47t107 -48q40 -44 40 -110v-2q0 -64 -39 -109zM774 516q17 7 35 19q53 41 53 164h-124q3 -68 -27 -97l-8 8q-111 105 -272 105q-162 0 -272 -106q-111 -107 -111 -259v-2q0 -153 110 -258
t271 -105t273 106q110 107 110 259v2q0 90 -38 164zM445 926l-96 -192h152l165 135z" />
    <glyph glyph-name="ohorn.acute" unicode="&#x1edb;" horiz-adv-x="726" 
d="M405 204q-25 -28 -63 -28q-39 0 -64 28q-26 29 -26 69v2q0 41 25 67q25 28 63 28q39 0 64 -28q26 -29 26 -69v-2q0 -41 -25 -67zM635 362q23 7 40 21q53 41 53 164h-118q-2 -65 -28 -93q-6 7 -20 21q-89 84 -220 84q-133 0 -221 -85q-87 -82 -87 -201v-2q0 -117 86 -200
q88 -84 220 -84q134 0 222 85q86 83 86 201v2q0 48 -13 87zM320 772l-96 -192h152l165 135z" />
    <glyph glyph-name="uni1EDC" unicode="&#x1edc;" horiz-adv-x="856" 
d="M537 239q-41 -47 -106 -47t-107 48q-40 44 -40 110v2q0 64 39 109q41 47 106 47t107 -48q40 -44 40 -110v-2q0 -64 -39 -109zM774 516q17 7 35 19q53 41 53 164h-124q3 -68 -27 -97l-8 8q-111 105 -272 105q-162 0 -272 -106q-111 -107 -111 -259v-2q0 -153 110 -258
t271 -105t273 106q110 107 110 259v2q0 90 -38 164zM244 869l165 -135h152l-96 192z" />
    <glyph glyph-name="Ohorn.grave" unicode="&#x1edd;" horiz-adv-x="726" 
d="M405 204q-25 -28 -63 -28q-39 0 -64 28q-26 29 -26 69v2q0 41 25 67q25 28 63 28q39 0 64 -28q26 -29 26 -69v-2q0 -41 -25 -67zM635 362q23 7 40 21q53 41 53 164h-118q-2 -65 -28 -93q-6 7 -20 21q-89 84 -220 84q-133 0 -221 -85q-87 -82 -87 -201v-2q0 -117 86 -200
q88 -84 220 -84q134 0 222 85q86 83 86 201v2q0 48 -13 87zM150 715l165 -135h152l-96 192z" />
    <glyph glyph-name="uni1EDE" unicode="&#x1ede;" horiz-adv-x="856" 
d="M537 239q-41 -47 -106 -47t-107 48q-40 44 -40 110v2q0 64 39 109q41 47 106 47t107 -48q40 -44 40 -110v-2q0 -64 -39 -109zM774 516q17 7 35 19q53 41 53 164h-124q3 -68 -27 -97l-8 8q-111 105 -272 105q-162 0 -272 -106q-111 -107 -111 -259v-2q0 -153 110 -258
t271 -105t273 106q110 107 110 259v2q0 90 -38 164zM334 937v-96q74 3 74 -30q0 -22 -29 -48h140q58 43 58 92q0 41 -46 63q-47 24 -124 24q-25 0 -73 -5z" />
    <glyph glyph-name="Ohorn.hook" unicode="&#x1edf;" horiz-adv-x="726" 
d="M405 204q-25 -28 -63 -28q-39 0 -64 28q-26 29 -26 69v2q0 41 25 67q25 28 63 28q39 0 64 -28q26 -29 26 -69v-2q0 -41 -25 -67zM635 362q23 7 40 21q53 41 53 164h-118q-2 -65 -28 -93q-6 7 -20 21q-89 84 -220 84q-133 0 -221 -85q-87 -82 -87 -201v-2q0 -117 86 -200
q88 -84 220 -84q134 0 222 85q86 83 86 201v2q0 48 -13 87zM243 783v-96q74 3 74 -30q0 -22 -29 -48h140q58 43 58 92q0 41 -46 63q-46 24 -124 24q-25 0 -73 -5z" />
    <glyph glyph-name="uni1EE0" unicode="&#x1ee0;" horiz-adv-x="856" 
d="M537 239q-41 -47 -106 -47t-107 48q-40 44 -40 110v2q0 64 39 109q41 47 106 47t107 -48q40 -44 40 -110v-2q0 -64 -39 -109zM774 516q17 7 35 19q53 41 53 164h-124q3 -68 -27 -97l-8 8q-111 105 -272 105q-162 0 -272 -106q-111 -107 -111 -259v-2q0 -153 110 -258
t271 -105t273 106q110 107 110 259v2q0 90 -38 164zM451 755q61 -21 96 -21q95 0 124 159l-101 25q-17 -44 -45 -44q-12 0 -66 18q-61 21 -96 21q-95 0 -124 -159l101 -25q17 44 45 44q12 0 66 -18z" />
    <glyph glyph-name="Ohorn.tilde" unicode="&#x1ee1;" horiz-adv-x="726" 
d="M405 204q-25 -28 -63 -28q-39 0 -64 28q-26 29 -26 69v2q0 41 25 67q25 28 63 28q39 0 64 -28q26 -29 26 -69v-2q0 -41 -25 -67zM635 362q23 7 40 21q53 41 53 164h-118q-2 -65 -28 -93q-6 7 -20 21q-89 84 -220 84q-133 0 -221 -85q-87 -82 -87 -201v-2q0 -117 86 -200
q88 -84 220 -84q134 0 222 85q86 83 86 201v2q0 48 -13 87zM340 601q62 -21 96 -21q96 0 124 159l-101 25q-17 -44 -45 -44q-12 0 -66 18q-62 21 -96 21q-96 0 -124 -159l101 -25q17 44 45 44q12 0 66 -18z" />
    <glyph glyph-name="uni1EE2" unicode="&#x1ee2;" horiz-adv-x="856" 
d="M537 239q-41 -47 -106 -47t-107 48q-40 44 -40 110v2q0 64 39 109q41 47 106 47t107 -48q40 -44 40 -110v-2q0 -64 -39 -109zM774 516q17 7 35 19q53 41 53 164h-124q3 -68 -27 -97l-8 8q-111 105 -272 105q-162 0 -272 -106q-111 -107 -111 -259v-2q0 -153 110 -258
t271 -105t273 106q110 107 110 259v2q0 90 -38 164zM362 -65v-184h186v184h-186z" />
    <glyph glyph-name="Ohorn.dotbl" unicode="&#x1ee3;" horiz-adv-x="726" 
d="M405 204q-25 -28 -63 -28q-39 0 -64 28q-26 29 -26 69v2q0 41 25 67q25 28 63 28q39 0 64 -28q26 -29 26 -69v-2q0 -41 -25 -67zM635 362q23 7 40 21q53 41 53 164h-118q-2 -65 -28 -93q-6 7 -20 21q-89 84 -220 84q-133 0 -221 -85q-87 -82 -87 -201v-2q0 -117 86 -200
q88 -84 220 -84q134 0 222 85q86 83 86 201v2q0 48 -13 87zM251 -65v-184h186v184h-186z" />
    <glyph glyph-name="uni1EE4" unicode="&#x1ee4;" horiz-adv-x="760" 
d="M68 314q0 -328 344 -328q348 0 348 333v381h-238v-388q0 -119 -108 -119t-108 124v383h-238v-386zM321 -65v-184h186v184h-186z" />
    <glyph glyph-name="U.dotbl" unicode="&#x1ee5;" horiz-adv-x="645" 
d="M110 40q51 -53 137 -53q99 0 167 86v-73h227v546h-227v-287q0 -33 -20 -55q-18 -19 -45 -19q-26 0 -44 19q-18 21 -18 55v287h-227v-360q0 -91 50 -146zM258 -65v-184h186v184h-186z" />
    <glyph glyph-name="uni1EE6" unicode="&#x1ee6;" horiz-adv-x="760" 
d="M68 314q0 -328 344 -328q348 0 348 333v381h-238v-388q0 -119 -108 -119t-108 124v383h-238v-386zM293 937v-96q74 3 74 -30q0 -22 -29 -48h140q58 43 58 92q0 41 -46 63q-47 24 -124 24q-25 0 -73 -5z" />
    <glyph glyph-name="U.hook" unicode="&#x1ee7;" horiz-adv-x="645" 
d="M110 40q51 -53 137 -53q99 0 167 86v-73h227v546h-227v-287q0 -33 -20 -55q-18 -19 -45 -19q-26 0 -44 19q-18 21 -18 55v287h-227v-360q0 -91 50 -146zM229 783v-96q74 3 74 -30q0 -22 -29 -48h140q58 43 58 92q0 41 -46 63q-46 24 -124 24q-25 0 -73 -5z" />
    <glyph glyph-name="uni1EE8" unicode="&#x1ee8;" horiz-adv-x="902" 
d="M760 498q74 7 113 37q53 41 53 164h-124q5 -84 -42 -107v108h-238v-388q0 -119 -108 -119t-108 124v383h-238v-386q0 -328 344 -328q348 0 348 333v179zM439 924l-96 -192h152l165 135z" />
    <glyph glyph-name="Uhorn.acute" unicode="&#x1ee9;" horiz-adv-x="784" 
d="M641 347q71 9 107 36q53 41 53 164h-118q-2 -79 -42 -104v103h-227v-287q0 -33 -20 -55q-18 -19 -45 -19q-26 0 -44 19q-18 21 -18 55v287h-227v-360q0 -91 50 -146q51 -53 137 -53q99 0 167 86v-73h227v347zM364 777l-96 -192h152l165 135z" />
    <glyph glyph-name="uni1EEA" unicode="&#x1eea;" horiz-adv-x="902" 
d="M760 498q74 7 113 37q53 41 53 164h-124q5 -84 -42 -107v108h-238v-388q0 -119 -108 -119t-108 124v383h-238v-386q0 -328 344 -328q348 0 348 333v179zM190 867l165 -135h152l-96 192z" />
    <glyph glyph-name="Uhorn.grave" unicode="&#x1eeb;" horiz-adv-x="784" 
d="M641 347q71 9 107 36q53 41 53 164h-118q-2 -79 -42 -104v103h-227v-287q0 -33 -20 -55q-18 -19 -45 -19q-26 0 -44 19q-18 21 -18 55v287h-227v-360q0 -91 50 -146q51 -53 137 -53q99 0 167 86v-73h227v347zM130 714l165 -135h152l-96 192z" />
    <glyph glyph-name="uni1EEC" unicode="&#x1eec;" horiz-adv-x="902" 
d="M760 498q74 7 113 37q53 41 53 164h-124q5 -84 -42 -107v108h-238v-388q0 -119 -108 -119t-108 124v383h-238v-386q0 -328 344 -328q348 0 348 333v179zM308 932v-96q74 3 74 -30q0 -22 -29 -48h140q58 43 58 92q0 41 -46 63q-47 24 -124 24q-25 0 -73 -5z" />
    <glyph glyph-name="Uhorn.hook" unicode="&#x1eed;" horiz-adv-x="784" 
d="M641 347q71 9 107 36q53 41 53 164h-118q-2 -79 -42 -104v103h-227v-287q0 -33 -20 -55q-18 -19 -45 -19q-26 0 -44 19q-18 21 -18 55v287h-227v-360q0 -91 50 -146q51 -53 137 -53q99 0 167 86v-73h227v347zM237 783v-96q74 3 74 -30q0 -22 -29 -48h140q58 43 58 92
q0 41 -46 63q-46 24 -124 24q-25 0 -73 -5z" />
    <glyph glyph-name="uni1EEE" unicode="&#x1eee;" horiz-adv-x="902" 
d="M760 498q74 7 113 37q53 41 53 164h-124q5 -84 -42 -107v108h-238v-388q0 -119 -108 -119t-108 124v383h-238v-386q0 -328 344 -328q348 0 348 333v179zM410 755q62 -21 96 -21q96 0 124 159l-101 25q-17 -44 -45 -44q-12 0 -66 18q-62 21 -96 21q-96 0 -124 -159
l101 -25q17 44 45 44q12 0 66 -18z" />
    <glyph glyph-name="Uhorn.tilde" unicode="&#x1eef;" horiz-adv-x="784" 
d="M641 347q71 9 107 36q53 41 53 164h-118q-2 -79 -42 -104v103h-227v-287q0 -33 -20 -55q-18 -19 -45 -19q-26 0 -44 19q-18 21 -18 55v287h-227v-360q0 -91 50 -146q51 -53 137 -53q99 0 167 86v-73h227v347zM347 601q61 -21 96 -21q95 0 124 159l-101 25
q-17 -44 -45 -44q-12 0 -66 18q-61 21 -96 21q-95 0 -124 -159l101 -25q17 44 45 44q12 0 66 -18z" />
    <glyph glyph-name="uni1EF0" unicode="&#x1ef0;" horiz-adv-x="902" 
d="M760 498q74 7 113 37q53 41 53 164h-124q5 -84 -42 -107v108h-238v-388q0 -119 -108 -119t-108 124v383h-238v-386q0 -328 344 -328q348 0 348 333v179zM315 -65v-184h186v184h-186z" />
    <glyph glyph-name="Uhorn.dotbl" unicode="&#x1ef1;" horiz-adv-x="784" 
d="M641 347q71 9 107 36q53 41 53 164h-118q-2 -79 -42 -104v103h-227v-287q0 -33 -20 -55q-18 -19 -45 -19q-26 0 -44 19q-18 21 -18 55v287h-227v-360q0 -91 50 -146q51 -53 137 -53q99 0 167 86v-73h227v347zM243 -65v-184h186v184h-186z" />
    <glyph glyph-name="glyph402" unicode="&#x1ef2;" horiz-adv-x="730" 
d="M232 248v-248h234v251l264 449h-259l-121 -230l-120 230h-262zM270 740h167l-96 167l-231 -52z" />
    <glyph glyph-name="Ygrave" unicode="&#x1ef3;" horiz-adv-x="652" 
d="M423 546l-87 -288l-95 288h-235l214 -525q-18 -8 -37 -8q-35 0 -100 36l-66 -155q102 -57 211 -57q91 0 146 47q50 44 91 154l189 508h-231zM104 715l165 -135h152l-96 192z" />
    <glyph glyph-name="uni1EF4" unicode="&#x1ef4;" horiz-adv-x="730" 
d="M232 248v-248h234v251l264 449h-259l-121 -230l-120 230h-262zM256 -65v-184h186v184h-186z" />
    <glyph glyph-name="Y.dotbl" unicode="&#x1ef5;" horiz-adv-x="652" 
d="M423 546l-87 -288l-95 288h-235l214 -525q-18 -8 -37 -8q-35 0 -100 36l-66 -155q102 -57 211 -57q91 0 146 47q50 44 91 154l189 508h-231zM435 -65v-184h186v184h-186z" />
    <glyph glyph-name="uni1EF6" unicode="&#x1ef6;" horiz-adv-x="730" 
d="M232 248v-248h234v251l264 449h-259l-121 -230l-120 230h-262zM252 921v-96q74 3 74 -30q0 -22 -29 -48h140q58 43 58 92q0 41 -46 63q-46 24 -124 24q-25 0 -73 -5z" />
    <glyph glyph-name="Y.hook" unicode="&#x1ef7;" horiz-adv-x="652" 
d="M423 546l-87 -288l-95 288h-235l214 -525q-18 -8 -37 -8q-35 0 -100 36l-66 -155q102 -57 211 -57q91 0 146 47q50 44 91 154l189 508h-231zM209 783v-96q74 3 74 -30q0 -22 -29 -48h140q58 43 58 92q0 41 -46 63q-46 24 -124 24q-25 0 -73 -5z" />
    <glyph glyph-name="uni1EF8" unicode="&#x1ef8;" horiz-adv-x="730" 
d="M232 248v-248h234v251l264 449h-259l-121 -230l-120 230h-262zM345 755q61 -21 96 -21q95 0 124 159l-101 25q-17 -44 -45 -44q-12 0 -66 18q-61 21 -96 21q-95 0 -124 -159l101 -25q17 44 45 44q12 0 66 -18z" />
    <glyph glyph-name="Ytilde" unicode="&#x1ef9;" horiz-adv-x="652" 
d="M423 546l-87 -288l-95 288h-235l214 -525q-18 -8 -37 -8q-35 0 -100 36l-66 -155q102 -57 211 -57q91 0 146 47q50 44 91 154l189 508h-231zM326 601q62 -21 96 -21q96 0 124 159l-101 25q-17 -44 -45 -44q-12 0 -66 18q-62 21 -96 21q-96 0 -124 -159l101 -25
q17 44 45 44q12 0 66 -18z" />
    <glyph glyph-name="uni2002" unicode="&#x2002;" horiz-adv-x="500" 
 />
    <glyph glyph-name="uni2003" unicode="&#x2003;" horiz-adv-x="1000" 
 />
    <glyph glyph-name="uni2004" unicode="&#x2004;" horiz-adv-x="333" 
 />
    <glyph glyph-name="uni2005" unicode="&#x2005;" horiz-adv-x="250" 
 />
    <glyph glyph-name="uni2007" unicode="&#x2007;" horiz-adv-x="600" 
 />
    <glyph glyph-name="uni2009" unicode="&#x2009;" horiz-adv-x="133" 
 />
    <glyph glyph-name="uni200A" unicode="&#x200a;" horiz-adv-x="75" 
 />
    <glyph glyph-name="endash" unicode="&#x2013;" horiz-adv-x="528" 
d="M60 406v-182h468v182h-468z" />
    <glyph glyph-name="emdash" unicode="&#x2014;" horiz-adv-x="898" 
d="M60 406v-182h838v182h-838z" />
    <glyph glyph-name="quoteleft" unicode="&#x2018;" horiz-adv-x="282" 
d="M46 486v-183h232v230h-91q0 76 102 89l-18 83q-225 -11 -225 -219z" />
    <glyph glyph-name="quoteright" unicode="&#x2019;" horiz-adv-x="282" 
d="M32 381l18 -83q225 10 225 219v183h-232v-230h91q0 -76 -102 -89z" />
    <glyph glyph-name="quotesinglbase" unicode="&#x201a;" horiz-adv-x="282" 
d="M28 -89l18 -83q225 10 225 219v183h-232v-230h91q0 -75 -102 -89z" />
    <glyph glyph-name="quotedblleft" unicode="&#x201c;" horiz-adv-x="554" 
d="M323 486v-183h227v230h-86q0 77 97 89l-18 83q-220 -10 -220 -219zM46 486v-183h227v230h-86q0 77 97 89l-18 83q-220 -10 -220 -219z" />
    <glyph glyph-name="quotedblright" unicode="&#x201d;" horiz-adv-x="554" 
d="M309 381l18 -83q220 10 220 219v183h-227v-230h86q0 -77 -97 -89zM32 381l18 -83q220 10 220 219v183h-227v-230h86q0 -77 -97 -89z" />
    <glyph glyph-name="quotedblbase" unicode="&#x201e;" horiz-adv-x="552" 
d="M305 -89l18 -83q220 10 220 219v183h-227v-230h86q0 -77 -97 -89zM28 -89l18 -83q220 10 220 219v183h-227v-230h86q0 -77 -97 -89z" />
    <glyph glyph-name="dagger" unicode="&#x2020;" horiz-adv-x="410" 
d="M186 478l-10 -270h114l-10 270l130 -15v123l-129 -15l18 129h-132l18 -129l-129 15v-123z" />
    <glyph glyph-name="daggerdbl" unicode="&#x2021;" horiz-adv-x="430" 
d="M205 129l-18 -129h132l-18 129l129 -15v123l-132 -15l17 128l-17 128l132 -15v123l-129 -15l18 129h-132l18 -129l-129 15v-123l132 15l-17 -128l17 -128l-132 15v-123z" />
    <glyph glyph-name="bullet" unicode="&#x2022;" horiz-adv-x="500" 
d="M178 218q55 -55 133 -55q79 0 134 55t55 133v2q0 78 -55 133t-134 55q-78 0 -133 -55q-56 -56 -56 -133v-2q0 -77 56 -133z" />
    <glyph glyph-name="ellipsis" unicode="&#x2026;" horiz-adv-x="840" 
d="M612 228v-228h228v228h-228zM331 228v-228h228v228h-228zM50 228v-228h228v228h-228z" />
    <glyph glyph-name="perthousand" unicode="&#x2030;" horiz-adv-x="1349" 
d="M277 462q-15 -18 -36 -18t-36 19q-16 19 -16 50v2q0 31 15 51q15 18 37 18t37 -19q15 -20 15 -50v-2q0 -32 -16 -51zM103 375q54 -58 138 -58t138 58q53 56 53 138v2q0 83 -52 138q-52 58 -139 58t-139 -58q-52 -55 -52 -138v-2q0 -82 53 -138zM538 315l315 385h-151
l-259 -323l-309 -377h151zM782 134q-15 -18 -36 -18t-36 19q-16 19 -16 50v2q0 31 15 51q15 18 37 18t37 -19q15 -20 15 -50v-2q0 -32 -16 -51zM608 47q54 -58 138 -58t138 58q53 56 53 138v2q0 83 -52 138q-52 58 -139 58t-139 -58q-52 -55 -52 -138v-2q0 -82 53 -138z
M1194 134q-15 -18 -36 -18t-36 19q-16 19 -16 50v2q0 31 15 51q15 18 37 18t37 -19t15 -50v-2q0 -32 -16 -51zM1020 47q54 -58 138 -58t138 58q53 56 53 138v2q0 83 -52 138q-52 58 -139 58t-139 -58q-52 -55 -52 -138v-2q0 -82 53 -138z" />
    <glyph glyph-name="guilsinglleft" unicode="&#x2039;" horiz-adv-x="341" 
d="M38 224l169 -200l140 70l-115 174l115 175l-140 70l-169 -201v-88z" />
    <glyph glyph-name="guilsinglright" unicode="&#x203a;" horiz-adv-x="341" 
d="M26 93l140 -70l169 201v88l-169 200l-140 -70l115 -174z" />
    <glyph glyph-name="fraction" unicode="&#x2044;" horiz-adv-x="100" 
d="M-201 365l-257 -365h83l218 335l257 365h-83z" />
    <glyph glyph-name="uni2074" unicode="&#x2074;" horiz-adv-x="400" 
d="M356 412v65h45v92h-45v245h-156l-158 -240l17 -97h168v-65h129zM231 694v-129h-81z" />
    <glyph glyph-name="colonmonetary" unicode="&#x20a1;" horiz-adv-x="640" 
d="M549 780h-79l-11 -83q-23 5 -48 6l10 77h-79l-10 -80q-131 -17 -212 -111q-86 -98 -86 -247v-6q0 -117 61 -202q57 -79 153 -115l-16 -129h79l13 110q38 -4 49 -4l-13 -106h79l14 112q126 23 202 121l-112 130q-41 -44 -75 -62l36 294q21 -15 45 -46l100 155
q-52 57 -113 82zM339 181l42 343l12 1q25 0 52 -8l-42 -342h-8q-37 0 -56 6zM236 337v6q0 120 80 164l-36 -296q-44 41 -44 126z" />
    <glyph glyph-name="uni20A6" unicode="&#x20a6;" horiz-adv-x="900" 
d="M801 178h99v102h-99v144h99v102h-99v174h-202v-174h-122l-98 174h-254v-174h-99v-102h99v-144h-99v-102h99v-178h202v178h128l103 -178h243v178zM323 270v145h7l80 -145h-87zM603 301h-7l-74 133h81v-133z" />
    <glyph glyph-name="uni20A8" unicode="&#x20a8;" horiz-adv-x="1075" 
d="M64 700v-700h210v204h31l104 -204h236l-134 251q115 63 115 203v6q0 114 -77 177q-76 63 -215 63h-270zM640 51q109 -64 239 -64q99 0 158 52q59 51 59 131v2q0 72 -51 113q-36 31 -141 67q-63 22 -63 37v2q0 19 31 19q74 0 159 -48l51 146q-91 51 -208 51
q-100 0 -158 -48q-61 -49 -61 -134v-2q0 -71 54 -114q44 -34 140 -67q59 -20 59 -37v-2q0 -19 -31 -19q-77 0 -174 57zM324 362h-50v159h51q88 0 88 -77v-3q0 -79 -89 -79z" />
    <glyph glyph-name="uni20A9" unicode="&#x20a9;" horiz-adv-x="1140" 
d="M1067 516l45 184h-241l-31 -184h-97l-39 186h-242l-40 -186h-96l-31 184h-245l45 -184h-73v-107h100l29 -119h-119v-107h146l46 -188h254l45 193h116l45 -193h254l46 188h146v107h-119l29 119h100v107h-73zM540 280l38 167h6l37 -167h-81zM372 257h-6l-29 167h71z
M800 257h-6l-36 167h71z" />
    <glyph glyph-name="sheqel" unicode="&#x20aa;" horiz-adv-x="650" 
d="M248 322l14 -166q14 -156 168 -156h220v546h-133v-393h-76q-85 0 -94 77l-10 92h-89zM386 315v-91h90v178q0 68 -38 106t-106 38h-250v-546h133v393h93q78 0 78 -78z" />
    <glyph glyph-name="Euro" unicode="&#x20ac;" horiz-adv-x="644" 
d="M540 476l131 142q-84 97 -234 97q-123 0 -209 -71q-80 -66 -102 -169h-74v-106h60v-34h-60v-106h70q23 -113 101 -176q83 -68 208 -68q158 0 243 100l-129 143q-40 -49 -101 -49q-71 0 -96 55h131v102h-150v32h150v102h-130q27 51 92 51q61 0 99 -45z" />
    <glyph glyph-name="uni20B1" unicode="&#x20b1;" horiz-adv-x="795" 
d="M125 370v-370h231v150h39q130 0 213 56q85 58 101 164h92v101h-90q-11 112 -95 171q-82 58 -216 58h-275v-229h-99v-101h99zM387 304h-33v76h139q-12 -76 -106 -76zM354 461v75h34q94 0 104 -75h-138z" />
    <glyph glyph-name="minus" unicode="&#x2212;" horiz-adv-x="640" 
d="M92 254h548v196h-548v-196z" />
    <glyph glyph-name="_441" horiz-adv-x="299" 
d="M64 730v-145h235v145h-235zM68 546v-546h227v546h-227z" />
    </font>
</defs>
</svg>
