<?xml version="1.0" standalone="no"?>
<!DOCTYPE svg PUBLIC "-//W3C//DTD SVG 1.1//EN" "http://www.w3.org/Graphics/SVG/1.1/DTD/svg11.dtd" >
<svg>
<metadata>
Created by FontForge 20120731 at Wed Jun 15 23:29:24 2016
 By ,,,
Copyright (c) OurType, 2002. All rights reserved.
</metadata>
<defs>
<font id="Arnhem-BlackItalic" horiz-adv-x="528" >
  <font-face 
    font-family="Arnhem Blk"
    font-weight="900"
    font-style="italic"
    font-stretch="normal"
    units-per-em="1000"
    panose-1="2 0 6 3 8 0 0 9 0 4"
    ascent="800"
    descent="-200"
    x-height="480"
    cap-height="620"
    bbox="-417 -272 1035 875"
    underline-thickness="20"
    underline-position="-113"
    slope="-12"
    unicode-range="U+0020-FB02"
  />
<missing-glyph horiz-adv-x="500" 
 />
    <glyph glyph-name="fi" unicode="fi" horiz-adv-x="660" 
d="M608 567q-63 0 -63 59q0 43 27.5 67t67.5 24q66 0 66 -59q0 -43 -25 -67t-73 -24zM-32 -248q-29 0 -50 2t-50 8.5t-45 24.5t-16 45q0 23 15.5 40t44.5 17q24 0 37.5 -13.5t25.5 -38.5l20 -44q32 0 53 34.5t38 124.5l91 456h-91v39l104 24l1 7q16 112 85.5 175.5
t172.5 63.5q121 0 121 -70q0 -24 -12.5 -37t-32.5 -13q-47 0 -66 48l-12 30q-56 0 -92 -176l-3 -12l-5 -24h142l97 18h108l-32 -96l-61 -231q-14 -50 -14 -78q0 -8 2 -22q9 1 16.5 4t15 7.5t12 7.5t11 10t9 9.5t9.5 11.5t8 10l13 -34q-22 -38 -66 -64t-95 -26q-56 0 -77 42
t-4 99l70 239q5 23 1.5 28t-24.5 10h-152l-75 -360q-60 -296 -248 -296z" />
    <glyph glyph-name="fl" unicode="fl" horiz-adv-x="669" 
d="M-32 -248q-29 0 -50 2t-50 8.5t-45 24.5t-16 45q0 23 15.5 40t44.5 17q24 0 37.5 -13.5t25.5 -38.5l20 -44q32 0 52.5 34.5t38.5 124.5l91 456h-91v39l104 24l1 7q24 118 101.5 173.5t192.5 55.5q69 0 104 -17l54 17h111q-5 -11 -19 -48t-18 -54l-123 -469
q-10 -38 -10 -60v0q0 -8 2 -22q9 1 16.5 4t15 7.5t12 7.5t11 10t9 9.5t9.5 11.5t8 10l13 -34q-22 -38 -66 -64t-95 -26q-55 0 -77 41.5t-5 99.5l137 486q-25 46 -91 46q-95 0 -131 -176l-5 -24h106v-55h-117l-75 -360q-61 -296 -248 -296z" />
    <glyph glyph-name=".notdef" horiz-adv-x="500" 
 />
    <glyph glyph-name=".null" horiz-adv-x="0" 
 />
    <glyph glyph-name="nonmarkingreturn" horiz-adv-x="333" 
 />
    <glyph glyph-name="space" unicode=" " horiz-adv-x="184" 
 />
    <glyph glyph-name="space" unicode="&#xa0;" horiz-adv-x="184" 
 />
    <glyph glyph-name="exclam" unicode="!" horiz-adv-x="296" 
d="M100 180q4 21 9.5 87.5t13.5 165.5t17 178q39 24 88 24q25 0 46 -6t29 -12l8 -6q-15 -37 -60.5 -142.5t-76 -181t-37.5 -107.5h-37zM88 -14q-28 0 -43 17t-15 44q0 38 24.5 66.5t62.5 28.5q28 0 42.5 -17.5t14.5 -45.5q0 -37 -24.5 -65t-61.5 -28z" />
    <glyph glyph-name="quotedbl" unicode="&#x22;" horiz-adv-x="394" 
d="M286 445q5 26 4 76t-8 85q36 24 80 24q17 0 32 -6t22 -12l7 -6q-25 -27 -56 -78.5t-44 -82.5h-37zM122 445q5 26 4 76t-8 85q36 24 80 24q17 0 32 -6t22 -12l7 -6q-25 -27 -56 -78.5t-44 -82.5h-37z" />
    <glyph glyph-name="numbersign" unicode="#" horiz-adv-x="745" 
d="M174 -122l-83 14l74 219h-122l20 61h122l53 156h-139l21 61h139l73 220l81 -15l-67 -205h116l72 219l81 -15l-68 -204h132l-21 -61h-132l-52 -156h156l-20 -61h-156l-79 -233l-81 14l74 219h-116zM272 172h116l52 156h-114z" />
    <glyph glyph-name="dollar" unicode="$" 
d="M119 -91l25 83q-66 7 -100 33l-29 -36h-23q5 16 53 228h30q-6 -32 -6 -85q0 -38 22.5 -68t62.5 -39l71 233l-50 41q-44 35 -68.5 69t-24.5 83q0 88 71.5 136.5t187.5 50.5l18 57h48l-18 -59q66 -10 98 -37l27 34h21l-43 -194h-27q1 11 1 34q0 45 -24.5 83t-62.5 48
l-61 -201l68 -51q41 -31 65 -68t24 -99q0 -90 -78 -143t-206 -53l-24 -80h-48zM279 434l52 170h-1q-84 -12 -84 -101q0 -36 33 -69zM202 23q46 6 73 38.5t27 73.5q0 34 -8.5 53.5t-29.5 38.5z" />
    <glyph glyph-name="percent" unicode="%" horiz-adv-x="721" 
d="M168 307q-58 0 -90.5 32.5t-32.5 91.5q0 79 63 139t147 60q59 0 91.5 -35t32.5 -86q0 -83 -63 -142.5t-148 -59.5zM110 -17l-44 29l558 623l39 -33zM465 -9q-58 0 -90.5 32.5t-32.5 91.5q0 79 63 139t147 60q59 0 91.5 -35t32.5 -86q0 -83 -63 -142.5t-148 -59.5z
M181 352q53 0 85.5 46.5t32.5 106.5q0 78 -57 78q-51 0 -85.5 -46t-34.5 -105q0 -80 59 -80zM478 36q53 0 85.5 46.5t32.5 106.5q0 78 -57 78q-51 0 -85.5 -46t-34.5 -105q0 -80 59 -80z" />
    <glyph glyph-name="ampersand" unicode="&#x26;" horiz-adv-x="768" 
d="M223 -11q-102 0 -153.5 43.5t-51.5 122.5q0 22 6 42t14.5 34.5t24 28t26.5 21.5t31 17.5t29.5 13t29 10l22.5 7.5q-17 31 -28.5 76t-11.5 83q0 61 53.5 103.5t156.5 42.5q85 0 122.5 -29t37.5 -86q0 -31 -17 -58t-48.5 -47t-59.5 -33t-66 -27q9 -18 47 -81q32 -49 73 -97
q15 22 33 64.5t30.5 73t40 55t66.5 24.5q30 0 50 -16t20 -44q0 -32 -20 -52t-50 -20q-32 0 -49 25q-16 -8 -28.5 -26.5t-30 -52t-36.5 -59.5q62 -76 120 -76q42 0 63.5 26.5t29.5 76.5h31q-19 -186 -185 -186q-48 0 -83 15t-71 51q-60 -66 -168 -66zM325 385q48 34 67 64
t19 85q0 66 -46 66q-29 0 -47.5 -27t-18.5 -74q0 -55 26 -114zM265 55q56 0 96 27q-49 57 -84 112q-34 53 -58 102q-60 -40 -60 -127q0 -50 32.5 -82t73.5 -32z" />
    <glyph glyph-name="quotesingle" unicode="'" horiz-adv-x="231" 
d="M113 445q5 26 4 76t-8 85q36 24 80 24q17 0 32 -6t22 -12l7 -6q-25 -27 -56 -78.5t-44 -82.5h-37z" />
    <glyph glyph-name="parenleft" unicode="(" horiz-adv-x="310" 
d="M173 -152q-100 0 -144 111t-2 285l17 70q42 171 139.5 272.5t199.5 101.5l-9 -33q-58 0 -123.5 -96t-104.5 -255l-15 -61q-39 -165 -22.5 -263.5t73.5 -98.5z" />
    <glyph glyph-name="parenright" unicode=")" horiz-adv-x="310" 
d="M-74 -152l8 33q58 0 125.5 101t105.5 260l15 62q38 165 21.5 258t-74.5 93l8 33q102 0 148.5 -101.5t3.5 -272.5l-18 -72q-44 -174 -143.5 -284t-199.5 -110z" />
    <glyph glyph-name="asterisk" unicode="*" horiz-adv-x="469" 
d="M353 283l-72 107l-106 -76l-13 11l57 116l-119 54l3 17l131 9l-15 129l17 7l73 -108l104 76l14 -11l-57 -119l119 -50l-4 -18l-130 -9l15 -129z" />
    <glyph glyph-name="plus" unicode="+" 
d="M220 -48v247h-184v82h184v212h88v-212h184v-82h-184v-247h-88z" />
    <glyph glyph-name="comma" unicode="," horiz-adv-x="265" 
d="M-7 -172q33 18 72 65.5t39 94.5q-28 4 -42 17.5t-14 48.5t24.5 62.5t54.5 27.5q71 0 71 -80q0 -45 -17 -88.5t-42 -73t-46 -48t-35 -26.5h-65z" />
    <glyph glyph-name="hyphen" unicode="-" horiz-adv-x="284" 
d="M28 237l26 97h202l-29 -97h-199z" />
    <glyph glyph-name="hyphen" unicode="&#xad;" horiz-adv-x="284" 
d="M28 237l26 97h202l-29 -97h-199z" />
    <glyph glyph-name="period" unicode="." horiz-adv-x="323" 
d="M128 -14q-28 0 -43 17t-15 44q0 38 24.5 66.5t62.5 28.5q28 0 42.5 -17.5t14.5 -45.5q0 -37 -24.5 -65t-61.5 -28z" />
    <glyph glyph-name="slash" unicode="/" horiz-adv-x="308" 
d="M-28 -75l319 764h65l-319 -764h-65z" />
    <glyph glyph-name="zero" unicode="0" 
d="M189 -12q-85 0 -127.5 51.5t-42.5 146.5q0 111 39.5 212.5t114 166.5t165.5 65q84 0 127.5 -49.5t43.5 -140.5q0 -113 -38.5 -215.5t-113.5 -169.5t-168 -67zM197 22q44 0 85.5 95.5t64 209.5t22.5 189q0 38 -8.5 57t-31.5 19q-49 0 -90 -100t-59.5 -211.5t-18.5 -184.5
q0 -37 7.5 -55.5t28.5 -18.5z" />
    <glyph glyph-name="one" unicode="1" 
d="M31 0v35l102 12q21 1 26 22l108 432h-12l-146 -37v40q227 81 287 125h56l-140 -560q-4 -20 14 -22l81 -12v-35h-376z" />
    <glyph glyph-name="two" unicode="2" 
d="M-43 0l7 29l159 131q96 78 142 150.5t46 165.5q0 73 -70 73q-24 0 -46 -7.5t-48 -36.5t-38 -77q0 -2 -2 -9.5t-3 -11.5h-27q2 29 5 41q22 92 73.5 138t149.5 46q76 0 121.5 -40t45.5 -113q0 -51 -22 -97t-66 -88.5t-89 -75t-112 -73.5l-80 -47h217q22 0 35 12l74 87h32
q-9 -16 -24.5 -53.5t-32.5 -83t-23 -60.5h-424z" />
    <glyph glyph-name="three" unicode="3" 
d="M171 -13q-78 0 -125.5 24.5t-47.5 77.5q0 25 17.5 41.5t38.5 16.5q28 0 43 -13.5t24 -45.5l15 -53q18 -11 43 -11q37 0 75 43.5t38 120.5q0 53 -18.5 77t-63.5 23q-24 0 -57 -11l11 46q82 9 136.5 53.5t53.5 116.5q-2 72 -76 72q-47 0 -86 -27t-52 -87h-32q13 86 74 132
t150 46q82 0 120 -32t38 -87q0 -59 -45.5 -108t-105.5 -66q52 -13 84 -47.5t32 -83.5q0 -71 -44 -122t-106.5 -73.5t-133.5 -22.5z" />
    <glyph glyph-name="four" unicode="4" 
d="M112 0v32l74 12q11 1 17 6t10 21l21 84h-242l6 26l341 412q24 0 76.5 14t63.5 23h26l-104 -416h64l-14 -59h-64l-21 -84q-7 -27 11 -28l44 -9v-34h-309zM81 214h167l76 302z" />
    <glyph glyph-name="five" unicode="5" 
d="M173 -13q-47 0 -84 8t-65 31.5t-28 61.5q0 28 15.5 43t35.5 15q29 0 41 -10.5t22 -35.5l25 -66q17 -15 47 -15q61 0 98 59.5t37 134.5q0 124 -90 124q-64 0 -109 -30h-23l99 312h324l-42 -110h-273l-46 -147q50 30 101 30q99 0 154 -40t55 -122q0 -79 -43 -135.5
t-108 -82t-143 -25.5z" />
    <glyph glyph-name="six" unicode="6" 
d="M230 -13q-40 0 -73.5 9t-63.5 30t-47 60.5t-17 94.5q0 83 25 160.5t73.5 143t131.5 105.5t188 40q38 0 74.5 -15.5t48.5 -32.5l-15 -46q-36 41 -105 41q-45 0 -85 -19t-70.5 -52.5t-53 -70.5t-39.5 -81q48 40 114 40q80 0 129.5 -40.5t49.5 -130.5q0 -110 -74 -173
t-191 -63zM236 22q41 0 73 51.5t32 144.5q0 124 -80 124q-33 0 -73 -33q-21 -84 -21 -144q0 -65 18 -104t51 -39z" />
    <glyph glyph-name="seven" unicode="7" 
d="M26 0l406 509h-334l41 111h410l-4 -16l-408 -604h-111z" />
    <glyph glyph-name="eight" unicode="8" 
d="M186 -13q-185 0 -185 137q0 70 49 115.5t123 64.5q-40 29 -60 62.5t-20 81.5q0 87 78 135.5t181 48.5q86 0 134 -35t48 -89q0 -58 -53.5 -107.5t-115.5 -65.5q103 -55 103 -143q0 -105 -79.5 -155t-202.5 -50zM333 353q80 59 80 149q0 89 -66 89q-39 0 -73.5 -25.5
t-34.5 -75.5q0 -18 4.5 -34.5t8 -26t17.5 -23.5l17.5 -17.5t24 -18.5t22.5 -17zM200 22q41 0 78.5 34t37.5 91q0 71 -114 138q-84 -61 -84 -158q0 -105 82 -105z" />
    <glyph glyph-name="nine" unicode="9" 
d="M122 -15q-39 0 -80.5 16t-52.5 32l15 46q36 -41 105 -41q49 0 87 19t63 55t39.5 69.5t28.5 79.5q-48 -40 -114 -40q-78 0 -128.5 45t-50.5 136q0 95 69.5 160.5t190.5 65.5q84 0 145.5 -57.5t61.5 -169.5q0 -85 -21.5 -158t-65.5 -132t-118.5 -92.5t-173.5 -33.5z
M268 273q30 0 70 33v2q14 56 14 142q0 77 -19.5 110t-57.5 33q-34 0 -60.5 -54t-26.5 -132q0 -134 80 -134z" />
    <glyph glyph-name="colon" unicode=":" horiz-adv-x="265" 
d="M172 274q-28 0 -43 17t-15 44q0 38 24.5 66.5t62.5 28.5q28 0 42.5 -17.5t14.5 -45.5q0 -37 -24.5 -65t-61.5 -28zM93 -14q-28 0 -43 17t-15 44q0 38 24.5 66.5t62.5 28.5q28 0 42.5 -17.5t14.5 -45.5q0 -37 -24.5 -65t-61.5 -28z" />
    <glyph glyph-name="semicolon" unicode=";" horiz-adv-x="265" 
d="M172 274q-28 0 -43 17t-15 44q0 38 24.5 66.5t62.5 28.5q28 0 42.5 -17.5t14.5 -45.5q0 -37 -24.5 -65t-61.5 -28zM-27 -172q33 18 72 65.5t39 94.5q-28 4 -42 17.5t-14 48.5t24.5 62.5t54.5 27.5q71 0 71 -80q0 -45 -17 -88.5t-42 -73t-46 -48t-35 -26.5h-65z" />
    <glyph glyph-name="semicolon" unicode="&#x37e;" horiz-adv-x="265" 
d="M172 274q-28 0 -43 17t-15 44q0 38 24.5 66.5t62.5 28.5q28 0 42.5 -17.5t14.5 -45.5q0 -37 -24.5 -65t-61.5 -28zM-27 -172q33 18 72 65.5t39 94.5q-28 4 -42 17.5t-14 48.5t24.5 62.5t54.5 27.5q71 0 71 -80q0 -45 -17 -88.5t-42 -73t-46 -48t-35 -26.5h-65z" />
    <glyph glyph-name="less" unicode="&#x3c;" 
d="M467 28l-453 213l454 214l31 -71l-260 -123l-59 -22l58 -21l260 -123z" />
    <glyph glyph-name="equal" unicode="=" 
d="M35 297v84h456v-84h-456zM35 101v84h456v-84h-456z" />
    <glyph glyph-name="greater" unicode="&#x3e;" 
d="M53 28l-31 67l259 123l59 21l-59 22l-260 123l31 71l454 -214z" />
    <glyph glyph-name="question" unicode="?" horiz-adv-x="426" 
d="M127 201q4 42 23 73t43.5 51t48 41.5t39.5 56.5t16 83q0 45 -19.5 71t-49.5 26q-28 0 -46 -8q23 -27 23 -56q0 -27 -16 -44t-44 -17q-25 0 -42.5 15.5t-17.5 38.5q0 50 49.5 77t126.5 27q86 0 136 -33t50 -87q0 -55 -27.5 -95t-68 -63t-81.5 -43t-72.5 -48t-36.5 -66h-34
zM108 -14q-28 0 -43 17t-15 44q0 38 24.5 66.5t62.5 28.5q28 0 42.5 -17.5t14.5 -45.5q0 -37 -24.5 -65t-61.5 -28z" />
    <glyph glyph-name="at" unicode="@" horiz-adv-x="971" 
d="M436 -184q-180 0 -286 98t-106 262q0 199 139 329.5t352 130.5q177 0 284.5 -98.5t107.5 -263.5q0 -129 -82.5 -221.5t-209.5 -92.5q-69 0 -109.5 32t-40.5 88q0 26 11 61q-27 -68 -73 -110t-103 -42q-97 0 -97 128q0 159 82 261.5t225 102.5q48 0 76 -30l51 30h91
q-25 -58 -34 -93l-59 -215q-22 -82 -22 -106q0 -60 45 -60q51 0 88.5 43t54 102t16.5 122q0 323 -306 323q-178 0 -286 -121t-108 -296q0 -151 74.5 -238.5t228.5 -87.5q114 0 194 40l11 -22q-102 -56 -209 -56zM395 71q22 0 57.5 40.5t62.5 94.5l63 217q-13 8 -30 8
q-67 0 -122 -94t-55 -206q0 -60 24 -60z" />
    <glyph glyph-name="A" unicode="A" horiz-adv-x="586" 
d="M-79 0v36l38 9q26 6 43 33l341 558h70l59 -566q2 -18 24 -24l35 -10v-36h-296v36l36 10q21 6 27.5 10.5t5.5 15.5l-9 92h-177l-41 -70q-25 -42 2 -49l38 -9v-36h-196zM147 214h143l-20 212z" />
    <glyph glyph-name="B" unicode="B" horiz-adv-x="631" 
d="M-45 0v36l54 12q18 4 24 10.5t10 21.5l116 461q4 15 0.5 21.5t-18.5 10.5l-40 11v36h319q95 0 145.5 -26t50.5 -93q0 -76 -51.5 -120t-126.5 -57q62 -8 96.5 -38.5t34.5 -80.5q0 -44 -15.5 -79.5t-41 -58.5t-59 -38.5t-68.5 -22t-71 -6.5h-359zM271 340h33q54 0 90.5 28
t49.5 64.5t13 77.5q0 40 -20 57.5t-61 17.5q-26 0 -45 -7zM238 35h9q75 0 115.5 54.5t40.5 122.5q0 88 -121 88h-21l-65 -258q24 -7 42 -7z" />
    <glyph glyph-name="C" unicode="C" horiz-adv-x="652" 
d="M294 -12q-130 0 -196 61.5t-66 170.5q0 183 127 301.5t309 118.5q66 0 144 -39l25 26h21l-55 -216h-27q0 105 -16 143l-8.5 8.5t-10.5 10t-10.5 9t-13 9.5t-14 6.5t-18 5t-20.5 1.5q-73 0 -136 -65t-97 -159.5t-34 -188.5q0 -80 32 -123.5t85 -43.5q10 0 19 1t18 3
t15.5 3.5t14.5 5t12.5 5.5t12 7t10 6.5t10.5 6.5t9 6q11 9 25.5 28.5t24 35t26 43.5t21.5 36h28l-65 -189q-82 -34 -202 -34z" />
    <glyph glyph-name="D" unicode="D" horiz-adv-x="714" 
d="M-45 0v36l54 12q18 4 24 10.5t10 21.5l116 461q4 15 0.5 21.5t-18.5 10.5l-40 11v36h312q280 0 280 -226q0 -173 -105.5 -283.5t-276.5 -110.5h-356zM262 33h6q103 0 182 101t79 254q0 84 -30.5 142.5t-97.5 58.5h-12q-33 0 -58 -12l-135 -535q22 -9 66 -9z" />
    <glyph glyph-name="E" unicode="E" horiz-adv-x="594" 
d="M-45 0v36l54 12q18 4 24 10.5t10 21.5l116 461q4 15 0.5 21.5t-18.5 10.5l-40 11v36h408q36 0 72 8l-32 -195h-27q0 56 -27 112q-22 30 -90 30h-19q-26 0 -58 -9l-56 -220h65q23 13 49 41.5t35 51.5h23l-58 -239h-23q0 53 -47 98h-56l-61 -244q32 -10 68 -10h18
q67 0 112 28q22 20 50.5 55.5t45.5 66.5h27l-69 -194h-496z" />
    <glyph glyph-name="F" unicode="F" horiz-adv-x="537" 
d="M-45 0v36l54 12q18 4 24 10.5t10 21.5l116 461q4 15 0.5 21.5t-18.5 10.5l-40 11v36h399q36 0 72 8l-32 -195h-27q0 56 -27 112q-22 30 -81 30h-19q-26 0 -58 -9l-58 -232h70q23 13 49 41.5t35 51.5h23l-58 -239h-23q0 53 -47 98h-61l-53 -210q-3 -12 4 -18t24 -9l65 -13
v-36h-343z" />
    <glyph glyph-name="G" unicode="G" horiz-adv-x="705" 
d="M298 -12q-266 0 -266 240q0 126 62 221t162.5 143t221.5 48q97 0 162 -36l26 26h21l-45 -216h-27q-11 119 -29 147q-38 43 -109 43q-67 0 -131 -55.5t-103.5 -146.5t-39.5 -188q0 -190 122 -190q57 0 90 34l45 178q5 22 -16 27l-53 11v38h290v-38l-36 -5q-16 -2 -23 -27
l-46 -180v-19q-42 -25 -119 -40t-159 -15z" />
    <glyph glyph-name="H" unicode="H" horiz-adv-x="776" 
d="M-45 0v36l54 12q18 4 24 10.5t10 21.5l116 461q4 15 0.5 21.5t-18.5 10.5l-40 11v36h301v-36l-44 -11q-19 -5 -25 -9t-9 -14l-51 -202h243l49 193q4 15 0.5 21.5t-18.5 10.5l-40 11v36h301v-36l-44 -11q-19 -5 -25 -9t-9 -14l-120 -474q-3 -13 1.5 -18t20.5 -10l39 -12
v-36h-310v36l54 12q18 4 24 10.5t10 21.5l54 214h-244l-55 -218q-3 -13 1.5 -18t20.5 -10l39 -12v-36h-310z" />
    <glyph glyph-name="I" unicode="I" horiz-adv-x="357" 
d="M-45 0v36l54 12q18 4 24 10.5t10 21.5l116 461q4 15 0.5 21.5t-18.5 10.5l-40 11v36h301v-36l-44 -11q-19 -5 -25 -9t-9 -14l-120 -474q-3 -13 1.5 -18t20.5 -10l39 -12v-36h-310z" />
    <glyph glyph-name="J" unicode="J" horiz-adv-x="383" 
d="M-66 -202q-38 0 -70.5 17.5t-32.5 48.5q0 24 17 40.5t40 16.5q22 0 34.5 -13t14.5 -34q3 -20 -7 -45q44 0 73.5 44.5t45.5 110.5l136 557q4 15 0.5 21.5t-18.5 10.5l-40 11v36h301v-36l-44 -11q-19 -5 -25.5 -9t-8.5 -14l-134 -539q-29 -115 -106.5 -164t-175.5 -49z" />
    <glyph glyph-name="K" unicode="K" horiz-adv-x="692" 
d="M442 0q-38 32 -77 120l-83 181q-6 13 -16 16l3 11q15 7 50 36l215 186q26 22 -3 27l-52 8v35h254v-38l-55 -9q-32 -6 -65 -33l-193 -154l97 -206q53 -113 80 -134l48 -11v-35h-203zM-45 0v36l54 12q18 4 24 10.5t10 21.5l116 461q4 15 0.5 21.5t-18.5 10.5l-40 11v36h301
v-36l-44 -11q-19 -5 -25 -9t-9 -14l-120 -474q-3 -13 1.5 -18t20.5 -10l39 -12v-36h-310z" />
    <glyph glyph-name="L" unicode="L" horiz-adv-x="530" 
d="M-45 0v36l54 12q18 4 24 10.5t10 21.5l116 461q4 15 0.5 21.5t-18.5 10.5l-40 11v36h311v-36l-54 -11q-18 -4 -25 -8.5t-9 -14.5l-125 -498q21 -8 58 -8h13q62 0 106 29q30 28 59 69t44 72h33l-82 -214h-475z" />
    <glyph glyph-name="M" unicode="M" horiz-adv-x="887" 
d="M-38 0v34l73 15q2 0 8 1.5t7.5 2t5 1.5t5 3t3.5 4.5t3 6.5q18 45 32 104l93 372q3 12 -1 15.5t-19 7.5l-45 14v39h239l86 -394l275 394h205v-39l-52 -14q-17 -5 -20 -17l-120 -474q-3 -13 1.5 -18t20.5 -10l39 -12v-36h-313v36l55 12q3 1 7.5 1.5t6 1l4.5 1.5t4 1.5
l3 1.5t2.5 2t1.5 2.5t1.5 3.5t1.5 5l97 382l-314 -449h-23l-100 459l-72 -287q-7 -27 -20 -101q-2 -13 2 -17t17 -6l61 -10v-39h-261z" />
    <glyph glyph-name="N" unicode="N" horiz-adv-x="726" 
d="M474 -12l-251 500l-74 -307q-11 -48 -17 -104q-2 -14 1 -19.5t17 -7.5l68 -11v-39h-255v38l69 11q13 2 17 6t10 19q18 42 33 106l88 356q7 27 -14 33l-52 13v38h224l202 -402l51 205q9 35 20 122q1 15 -3 19t-21 7l-62 11v38h246v-38l-58 -11q-23 -5 -34 -31
q-9 -29 -27 -98l-113 -454h-65z" />
    <glyph glyph-name="O" unicode="O" horiz-adv-x="712" 
d="M278 -13q-120 0 -184 62.5t-64 187.5q0 171 109 286.5t292 115.5q251 0 251 -240q0 -175 -108 -293.5t-296 -118.5zM292 24q100 0 157 124.5t57 305.5q0 149 -91 149q-67 0 -115.5 -60t-71 -155.5t-22.5 -214.5q0 -75 24 -112t62 -37z" />
    <glyph glyph-name="P" unicode="P" horiz-adv-x="609" 
d="M-45 0v36l54 12q18 4 24 10.5t10 21.5l116 461q4 15 0.5 21.5t-18.5 10.5l-40 11v36h318q90 0 142.5 -37t52.5 -111q0 -89 -83 -159t-199 -70q-45 0 -83 7l-45 -174q-3 -13 1.5 -18t20.5 -10l39 -12v-36h-310zM255 277h21q80 0 128 59t48 136q0 55 -17 84t-64 29h-4
q-11 0 -37 -7z" />
    <glyph glyph-name="Q" unicode="Q" horiz-adv-x="712" 
d="M372 -202q-30 28 -67 81.5t-57 108.5q-218 16 -218 249q0 171 109 286.5t292 115.5q251 0 251 -240q0 -149 -80.5 -260.5t-225.5 -141.5q19 -38 52.5 -79.5t64.5 -65.5q6 -4 21 -8.5t28 -7.5l12 -2v-36h-182zM292 24q100 0 157 124.5t57 305.5q0 149 -91 149
q-67 0 -115.5 -60t-71 -155.5t-22.5 -214.5q0 -75 24 -112t62 -37z" />
    <glyph glyph-name="R" unicode="R" horiz-adv-x="665" 
d="M-45 0v36l54 12q4 1 9 2t6.5 1.5t4.5 1t4 1.5t2.5 2t2.5 3t1.5 4t1.5 5l120 479q2 10 -2 15.5t-18 9.5l-40 12v36h330q89 0 140 -35t51 -98q0 -92 -59 -139.5t-143 -62.5q31 -21 60 -87l39 -89q15 -35 39 -59l52 -16v-34h-204q-35 35 -65 110l-63 154h-25l-47 -189
q-4 -14 -1.5 -18.5t15.5 -7.5l42 -10v-39h-307zM263 307h22q84 0 132.5 46.5t48.5 119.5q0 56 -19.5 84t-64.5 28h-4q-23 0 -48 -10z" />
    <glyph glyph-name="S" unicode="S" horiz-adv-x="533" 
d="M-5 -11q5 16 53 228h30q-6 -32 -6 -85q0 -45 31 -77.5t85 -32.5q53 0 85 33.5t32 79.5q0 42 -13.5 63t-52.5 52l-61 49q-44 35 -68.5 69t-24.5 83q0 91 75 139t196 48q88 0 134 -39l27 34h21l-43 -194h-27q1 11 1 34q0 52 -31 92.5t-77 40.5q-60 0 -86 -29.5t-26 -73.5
q0 -46 55 -87l85 -64q41 -31 65 -68t24 -99q0 -89 -78.5 -142.5t-204.5 -53.5q-100 0 -148 36l-29 -36h-23z" />
    <glyph glyph-name="T" unicode="T" horiz-adv-x="602" 
d="M77 0v36l54 12q18 4 24 10.5t10 21.5l127 505h-12q-81 0 -125 -24q-38 -41 -80 -127h-27l57 199q29 -13 89 -13h387q56 0 85 12l-43 -199h-28q3 74 -16 127q-36 25 -103 25h-22l-128 -509q-3 -13 1.5 -18t20.5 -10l39 -12v-36h-310z" />
    <glyph glyph-name="U" unicode="U" horiz-adv-x="680" 
d="M279 -13q-100 0 -154.5 42t-54.5 125q0 37 10 78l77 309q4 15 0.5 21.5t-18.5 10.5l-40 11v36h301v-36l-44 -11q-19 -5 -25.5 -9t-8.5 -14l-80 -318q-13 -51 -13 -90q0 -51 22 -75t72 -24q79 0 125 52t71 146l76 295q6 30 -22 36l-54 12v36h215v-36l-42 -11
q-17 -5 -23.5 -10.5t-9.5 -19.5l-75 -302q-32 -128 -103.5 -191t-201.5 -63z" />
    <glyph glyph-name="V" unicode="V" horiz-adv-x="621" 
d="M188 -11l-70 561q-2 17 -28 26l-24 8v36h304v-36l-54 -10q-15 -3 -22 -8.5t-6 -19.5l43 -366l221 360q7 13 3.5 22.5t-17.5 12.5l-40 9v36h199v-36l-36 -9q-23 -6 -35 -25l-356 -561h-82z" />
    <glyph glyph-name="W" unicode="W" horiz-adv-x="953" 
d="M175 -11l-55 561q-2 17 -28 26l-24 8v36h294v-36l-44 -10q-10 -3 -15.5 -5t-10 -8t-3.5 -15l28 -362l172 277l-11 89q-2 20 -28 27l-24 7v36h304v-36l-54 -10q-15 -3 -22.5 -8.5t-6.5 -19.5l32 -362l208 356q17 28 -14 35l-40 9v36h199v-36l-36 -9q-23 -6 -35 -25
l-346 -561h-84l-34 381l-244 -381h-78z" />
    <glyph glyph-name="X" unicode="X" horiz-adv-x="615" 
d="M-55 0v36l43 10q24 6 41 24l208 221l-113 259q-8 19 -28 26l-24 8v36h304v-36l-54 -10q-7 -1 -9 -2t-9 -3t-7.5 -4.5t-3.5 -7.5t2 -10l65 -150l136 152q17 20 -16 27l-34 8v36h206v-36l-46 -10q-14 -3 -35 -24l-191 -198l123 -282q8 -19 28 -26l34 -8v-36h-314v36l54 10
q7 1 9 2t9 3t7.5 4.5t3.5 7.5t-2 10l-75 173l-156 -175q-18 -20 16 -27l38 -8v-36h-210z" />
    <glyph glyph-name="Y" unicode="Y" horiz-adv-x="616" 
d="M69 0v36l74 13q18 4 24 9.5t10 21.5l45 181l-106 289q-7 18 -28 26l-24 8v36h311v-36l-54 -10q-36 -7 -28 -28l79 -214l168 208q9 12 4.5 22t-18.5 13l-40 9v36h199v-36l-36 -9q-23 -6 -39 -25l-218 -263l-54 -211q-3 -12 1.5 -17t20.5 -9l59 -14v-36h-350z" />
    <glyph glyph-name="Z" unicode="Z" horiz-adv-x="551" 
d="M-33 0v28l433 552h-69q-104 0 -139 -12q-41 -44 -78 -122h-28l46 181q31 -7 74 -7h379v-27l-431 -551h95q96 0 135 16q57 53 97 127h28l-67 -185h-475z" />
    <glyph glyph-name="bracketleft" unicode="[" horiz-adv-x="321" 
d="M-45 -168l214 856h226l-17 -66l-129 12l-186 -747l136 13l-17 -68h-227z" />
    <glyph glyph-name="backslash" unicode="\" horiz-adv-x="308" 
d="M150 -75l-53 764h62l52 -764h-61z" />
    <glyph glyph-name="bracketright" unicode="]" horiz-adv-x="321" 
d="M-74 -168l17 68l130 -13l186 747l-135 -12l17 66h226l-214 -856h-227z" />
    <glyph glyph-name="asciicircum" unicode="^" horiz-adv-x="488" 
d="M135 544l189 175h56l81 -175h-42l-90 79h-2l-150 -79h-42z" />
    <glyph glyph-name="underscore" unicode="_" horiz-adv-x="500" 
d="M0 -139v60h500v-60h-500z" />
    <glyph glyph-name="grave" unicode="`" 
d="M306 544l-101 90q-27 23 -27 56q0 19 14.5 32t33.5 13q18 0 33.5 -12.5t21.5 -30.5l54 -148h-29z" />
    <glyph glyph-name="a" unicode="a" horiz-adv-x="568" 
d="M129 -11q-97 0 -97 128q0 159 82 261.5t225 102.5q48 0 76 -30l51 30h91q-25 -58 -34 -93l-60 -219q-18 -67 -18 -93q0 -8 2 -22q9 1 16.5 4t15 7.5t12 7.5t11 10t9 9.5t9.5 11.5t8 10l13 -34q-22 -37 -66.5 -63.5t-95.5 -26.5q-55 0 -74.5 42.5t-1.5 100.5
q-66 -144 -174 -144zM204 71q22 0 57 40t62 93l64 219q-13 8 -30 8q-67 0 -122 -94t-55 -206q0 -60 24 -60z" />
    <glyph glyph-name="b" unicode="b" horiz-adv-x="560" 
d="M222 -11q-53 0 -80 35l-59 -34h-73l45 164l122 442q6 25 1.5 31.5t-29.5 11.5l-48 9v31l151 28h111q-29 -71 -37 -102l-74 -276q74 152 180 152q99 0 99 -128v0v0v0v0v0v0v0v0v0v0v0v0v0v0v0v0v0v0v0v0v0v0v0v0v0v0v0v0v0v0v0v0v0v0v0v0v0v0v0v0v0v0v0v0v0v0v0v0
q0 -159 -83 -261.5t-226 -102.5zM204 39q67 0 122 94t55 206q0 60 -24 60q-22 0 -58.5 -41t-63.5 -94l-59 -218q12 -7 28 -7z" />
    <glyph glyph-name="c" unicode="c" horiz-adv-x="454" 
d="M192 -10q-78 0 -119 33t-41 121q0 148 87 242.5t229 94.5q44 0 73 -20.5t29 -50.5q0 -61 -64 -61q-53 0 -66 71q0 4 -1 10t-2 10h-5q-47 0 -83 -92t-36 -200q0 -76 43 -90q51 0 82 20.5t67 72.5l21 -22q-78 -139 -214 -139z" />
    <glyph glyph-name="d" unicode="d" horiz-adv-x="576" 
d="M129 -11q-97 0 -97 128q0 159 82 261.5t225 102.5q34 0 57 -15l37 130q6 24 1 31t-29 12l-48 9v31l151 28h111q-5 -11 -19 -48t-18 -54l-118 -451q-15 -54 -15 -78q0 -8 2 -22q9 1 16.5 4t15 7.5t12 7.5t11 10t9 9.5t9.5 11.5t8 10l13 -34q-22 -38 -66 -64t-95 -26
q-57 0 -78 39t-3 104q-66 -144 -174 -144zM204 71q21 0 56 39t62 91l63 224q-12 6 -28 6q-67 0 -122 -94t-55 -206q0 -60 24 -60z" />
    <glyph glyph-name="e" unicode="e" horiz-adv-x="486" 
d="M192 -10q-78 0 -119 33t-41 121q0 147 86.5 242t222.5 95q135 0 135 -86q0 -136 -219 -164l-57 -7q-7 -35 -7 -76q0 -76 43 -90q61 0 100 21t72 72l21 -22q-33 -60 -96.5 -99.5t-140.5 -39.5zM207 255l32 12q43 16 71 53t28 80q0 40 -24 40q-38 0 -65 -55.5t-42 -129.5z
" />
    <glyph glyph-name="f" unicode="f" horiz-adv-x="362" 
d="M-32 -248q-29 0 -50 2t-50 8.5t-45 24.5t-16 45q0 23 15.5 40t44.5 17q24 0 37.5 -13.5t25.5 -38.5l20 -44q32 0 52.5 34.5t38.5 124.5l91 456h-91v39l104 24l2 11q21 117 90 176t173 59q141 0 141 -70q0 -24 -17 -37t-38 -13q-43 0 -71 48l-17 30q-18 0 -33 -12.5
t-24 -28t-18.5 -45t-14 -48.5t-11.5 -54l-5 -24h106v-55h-117l-75 -360q-61 -296 -248 -296z" />
    <glyph glyph-name="g" unicode="g" horiz-adv-x="514" 
d="M119 -239q-37 0 -65.5 3.5t-56 13.5t-42.5 31.5t-15 52.5q0 64 102 98l65 22q-49 20 -49 62q0 56 93 98q-106 16 -106 121q0 102 67.5 159.5t177.5 57.5q102 0 146 -68q12 49 33 76.5t48 27.5q46 0 46 -44q0 -26 -16 -44.5t-34 -18.5q-30 0 -47 21q-17 -36 -27 -98
q-12 -72 -53.5 -117.5t-92 -61.5t-110.5 -14q-16 -18 -16 -32q0 -24 33 -28l116 -13q49 -5 83 -28t34 -68v0q0 -86 -101 -147.5t-213 -61.5zM225 178q32 0 58 57.5t26 135.5q0 66 -48 66q-30 0 -55 -55.5t-25 -131.5q0 -41 9.5 -56.5t34.5 -15.5zM140 -180q74 0 109 28.5
t35 68.5q0 21 -15 29t-41 11l-95 12q-62 -39 -62 -85q0 -33 20 -48.5t49 -15.5z" />
    <glyph glyph-name="h" unicode="h" horiz-adv-x="576" 
d="M373 -10q-53 0 -71.5 34t2.5 104l62 197q10 33 10 48q0 17 -11 17q-41 0 -129 -144l-64 -246h-156l164 596q6 25 1.5 31.5t-29.5 11.5l-48 9v31l151 28h111q-29 -71 -37 -102l-79 -306q49 99 94.5 140.5t106.5 41.5q41 0 62.5 -20.5t21.5 -57.5q0 -28 -16 -81l-60 -192
q-10 -31 -10 -56q0 -12 3 -20q39 9 69 54l18 -28q-17 -36 -64 -63t-102 -27z" />
    <glyph glyph-name="i" unicode="i" horiz-adv-x="317" 
d="M246 567q-33 0 -50 17t-17 42q0 45 28.5 68t70.5 23q36 0 53 -16.5t17 -42.5q0 -44 -26.5 -67.5t-75.5 -23.5zM132 -10q-56 0 -77 42t-4 99l72 239q6 24 1 31t-29 12l-48 10v30l151 28h108l-32 -96l-63 -231q-14 -50 -14 -78q0 -8 2 -22q9 1 16.5 4t15 7.5t12 7.5t11 10
t9 9.5t9.5 11.5t8 10l13 -34q-22 -38 -66 -64t-95 -26z" />
    <glyph glyph-name="j" unicode="j" horiz-adv-x="310" 
d="M247 567q-33 0 -50 17t-17 42q0 45 28.5 68t70.5 23q36 0 53 -16.5t17 -42.5q0 -44 -26.5 -67.5t-75.5 -23.5zM-88 -248q-54 0 -92.5 19t-38.5 55q0 26 17.5 42t47.5 16q48 0 58 -44l10 -47h5q32 0 51.5 33.5t43.5 123.5l110 420q6 25 1.5 31.5t-29.5 11.5l-48 9v31
l151 28h100l-135 -528q-27 -105 -84.5 -153t-167.5 -48z" />
    <glyph glyph-name="k" unicode="k" horiz-adv-x="578" 
d="M20 0l164 596q6 25 1.5 31.5t-29.5 11.5l-48 9v31l151 28h111q-29 -71 -37 -102l-157 -605h-156zM413 -10q-95 0 -118 76l-33 109q-12 37 -24 49l122 143q9 10 31 38t33 40t31.5 24t42.5 12q60 0 60 -50q0 -29 -18 -47.5t-47 -18.5q-31 0 -57 15l-97 -91q49 -19 79 -116
l23 -76q8 -27 18 -35t25 -8q19 0 36.5 17.5t24.5 40.5l20 -21q-45 -101 -152 -101z" />
    <glyph glyph-name="l" unicode="l" horiz-adv-x="320" 
d="M125 -10q-55 0 -77 41.5t-5 99.5l131 465q6 24 1 31t-29 12l-48 9v31l151 28h111q-5 -11 -19 -48t-18 -54l-123 -469q-10 -38 -10 -60q0 -8 2 -22q9 1 16.5 4t15 7.5t12 7.5t11 10t9 9.5t9.5 11.5t8 10l13 -34q-22 -38 -66 -64t-95 -26z" />
    <glyph glyph-name="m" unicode="m" horiz-adv-x="824" 
d="M623 -10q-53 0 -71.5 34t2.5 104l62 197q10 33 10 48q0 17 -11 17q-36 0 -124 -144l-67 -246h-162l96 325q10 33 10 48q0 17 -11 17q-36 0 -124 -144l-63 -246h-154l106 369q6 22 1 30t-29 14l-38 9v31l162 28q29 0 48 -17.5t9 -57.5l-28 -107q50 100 92.5 141t103.5 41
q41 0 62.5 -20.5t21.5 -57.5q0 -21 -16 -81l-6 -23q51 102 90.5 142t99.5 40q41 0 65.5 -21t24.5 -57q0 -28 -16 -81l-60 -192q-10 -31 -10 -56q0 -12 3 -20q39 9 69 54l18 -28q-17 -36 -64 -63t-102 -27z" />
    <glyph glyph-name="n" unicode="n" horiz-adv-x="576" 
d="M373 -10q-53 0 -71.5 34t2.5 104l62 197q10 33 10 48q0 17 -11 17q-21 0 -56 -38.5t-76 -105.5l-63 -246h-154l106 369q6 22 1 30t-29 14l-38 9v31l162 28q29 0 48 -17.5t9 -57.5l-28 -107q50 100 93.5 141t104.5 41q41 0 65.5 -21t24.5 -57q0 -28 -16 -81l-60 -192
q-10 -31 -10 -56q0 -12 3 -20q39 9 69 54l18 -28q-17 -36 -64 -63t-102 -27z" />
    <glyph glyph-name="o" unicode="o" 
d="M205 -10q-94 0 -137.5 37.5t-43.5 123.5q0 64 18 121.5t53 105t94 75t135 27.5q180 0 180 -155q0 -65 -16.5 -122.5t-50 -106.5t-93.5 -77.5t-139 -28.5zM231 39q44 0 79.5 90t35.5 202q0 56 -8.5 79.5t-39.5 23.5q-44 0 -80 -90t-36 -200q0 -53 9.5 -79t39.5 -26z" />
    <glyph glyph-name="p" unicode="p" horiz-adv-x="568" 
d="M-100 -238v36l60 17q16 4 22 29l151 525q6 22 1 30t-29 14l-38 9v31l162 28q29 0 48 -17.5t9 -57.5l-20 -78q32 70 78.5 111.5t102.5 41.5q51 0 75 -31t24 -97q0 -159 -83 -261.5t-226 -102.5q-34 0 -57 15l-43 -160q-4 -17 0.5 -24t22.5 -10l64 -12v-36h-324zM219 39
q67 0 122 94t55 206q0 60 -24 60q-22 0 -59 -41t-64 -94l-58 -219q12 -6 28 -6z" />
    <glyph glyph-name="q" unicode="q" horiz-adv-x="544" 
d="M125 -238v36l80 17q16 3 22 29l79 297q-28 -69 -74 -110.5t-103 -41.5q-97 0 -97 128q0 159 82 261.5t225 102.5q53 0 77 -32l47 32h79l-29 -93l-131 -544q-4 -17 0.5 -23t22.5 -11l44 -12v-36h-324zM204 71q22 0 57 39.5t62 92.5l59 223q-12 5 -25 5q-67 0 -122 -94
t-55 -206q0 -60 24 -60z" />
    <glyph glyph-name="r" unicode="r" horiz-adv-x="432" 
d="M16 0l106 369q6 22 1 30t-29 14l-38 9v31l162 28q29 0 48 -17.5t9 -57.5l-19 -74l13 19q7 10 21 33.5t23.5 36.5t23.5 29t29.5 23.5t33.5 7.5q27 0 45.5 -14t18.5 -39q0 -32 -19 -54t-54 -22q-33 0 -49 22q-32 0 -102 -103l-70 -271h-154z" />
    <glyph glyph-name="s" unicode="s" horiz-adv-x="456" 
d="M179 -10q-72 0 -117.5 31.5t-45.5 81.5q0 27 18 45.5t40 18.5q26 0 43.5 -14t17.5 -45q0 -29 -23 -54q6 -10 28 -17.5t33 -7.5q31 0 54.5 18t23.5 50q0 8 -1.5 15.5t-4.5 14t-5 11t-7 9.5l-7 7l-6.5 6.5t-5.5 4.5l-63 59q-30 28 -45 53t-15 63q0 68 54 104.5t146 36.5
q62 0 106 -21t44 -51q0 -59 -53 -59q-59 0 -71 88q-11 3 -29 3q-24 0 -41 -16.5t-17 -42.5q0 -19 10 -32.5t33 -33.5l44 -39l23 -19q24 -20 31.5 -29t18 -31.5t10.5 -48.5q0 -82 -62.5 -120.5t-158.5 -38.5z" />
    <glyph glyph-name="t" unicode="t" horiz-adv-x="400" 
d="M161 -9q-55 0 -80.5 21t-25.5 68q0 42 21 112l62 211h-98v39l117 28l88 132h100l-41 -144h103v-55h-118l-48 -170q-22 -80 -22 -113q0 -37 12 -56q64 0 104 85l30 -24q-64 -134 -204 -134z" />
    <glyph glyph-name="u" unicode="u" horiz-adv-x="584" 
d="M127 -10q-41 0 -65.5 21t-24.5 57q0 28 16 81l60 192q10 32 14 76q-47 -11 -76 -54l-18 28q17 36 64 63t102 27q52 0 70.5 -34.5t-1.5 -103.5l-62 -197q-10 -33 -10 -48q0 -17 11 -17q21 0 56.5 38.5t75.5 104.5l61 212l75 45h90q-25 -58 -34 -93l-60 -219
q-18 -67 -18 -93q0 -8 2 -22q9 1 16.5 4t15 7.5t12 7.5t11 10t9 9.5t9.5 11.5t8 10l13 -34q-22 -38 -66 -64t-95 -26q-55 0 -73.5 41t-1.5 100l11 39q-49 -98 -92.5 -139t-104.5 -41z" />
    <glyph glyph-name="v" unicode="v" horiz-adv-x="480" 
d="M90 -11q19 122 19 251q0 133 -30 180q-20 0 -54 -44l-14 31q59 74 138 74q70 0 91 -42.5t21 -174.5q0 -97 -23 -199q64 54 98.5 122t34.5 132q-4 8 -16.5 28.5t-18.5 36t-6 33.5q0 28 19 45.5t52 17.5q36 0 54 -21t18 -52q0 -129 -90 -248.5t-199 -158.5z" />
    <glyph glyph-name="w" unicode="w" horiz-adv-x="728" 
d="M85 -11q19 122 19 251q0 133 -30 180q-20 0 -54 -44l-14 31q59 74 138 74q70 0 91 -42.5t21 -174.5q0 -97 -23 -199q48 40 80 96.5t45 114.5q-3 98 -16 180l64 25h88q14 -70 14 -217q0 -110 -20 -199q64 54 98.5 122t34.5 132q-4 8 -16.5 28.5t-18.5 36t-6 33.5
q0 28 19 45.5t52 17.5q36 0 54 -21t18 -52q0 -129 -90 -248.5t-199 -158.5l-94 -11q12 81 16 151q-82 -106 -177 -140z" />
    <glyph glyph-name="x" unicode="x" horiz-adv-x="506" 
d="M66 -8q-30 0 -47 17t-17 45q0 31 18 48t44 17q21 0 63 -32l75 112l-42 154q-11 39 -17.5 51t-14.5 12q-24 0 -60 -50l-20 29q16 23 28 37t45 31.5t73 17.5q47 0 70 -14.5t32 -59.5l14 -69l23 43q16 29 29 48t37.5 35.5t53.5 16.5q31 0 47.5 -18t16.5 -45t-19 -46t-43 -19
q-17 0 -30 5.5t-18.5 10.5t-14.5 16l-70 -99l46 -164q12 -42 20 -54.5t21 -12.5q10 0 25 16t26 34l18 -28q-14 -23 -26.5 -37.5t-46 -31t-77.5 -16.5q-42 0 -63 17t-33 66l-17 71l-26 -52q-52 -102 -123 -102z" />
    <glyph glyph-name="y" unicode="y" horiz-adv-x="496" 
d="M0 -245q-46 0 -71.5 19.5t-25.5 54.5q0 26 18.5 43t43.5 17q23 0 48 -15l60 -46q54 31 82 71q1 138 -20 301t-56 220q-4 0 -8 -2t-9 -5.5t-8.5 -7t-8.5 -9.5t-7 -9t-7 -9.5t-5 -7.5l-15 27q54 84 143 84q65 0 89 -34t34 -129q10 -103 12 -272q92 146 92 266
q-1 1 -13.5 22t-16 28.5t-9 24t-5.5 30.5q0 28 19 45.5t52 17.5q36 0 54 -21t18 -52q0 -70 -23 -141v0v0v0v0v0v0v0v0v0v0v0v0v0v0v0v0v0v0v0v0v0v0v0v0v0v0v0v0v0v0v0q-63 -204 -269 -410q-101 -101 -188 -101z" />
    <glyph glyph-name="z" unicode="z" horiz-adv-x="440" 
d="M272 -32q-46 0 -100.5 27.5t-108.5 29.5l-38 -43l-37 28l317 360q-23 -3 -46 -3q-59 0 -94 69l-8 -53q-8 -51 -63 -51q-24 0 -41.5 15.5t-17.5 41.5q0 33 34 62.5t85 29.5q104 0 222 -30l33 37l34 -31l-300 -341q22 9 54 9q25 0 48 -13t37.5 -28t33.5 -28t36 -13
q10 4 14 7t11 14t5.5 28.5t-2.5 51.5l44 -18q0 -73 -43 -115.5t-109 -42.5z" />
    <glyph glyph-name="braceleft" unicode="{" horiz-adv-x="500" 
d="M296 -250q-117 0 -165.5 38t-24.5 135l50 202q29 117 -97 117l10 43q128 0 160 132l40 161q23 92 88 132.5t178 40.5l-8 -32q-53 0 -73.5 -27.5t-40.5 -105.5l-39 -157q-14 -57 -74.5 -103.5t-127.5 -54.5q68 -10 105 -47t21 -101l-51 -205q-20 -73 -8.5 -103t66.5 -30z
" />
    <glyph glyph-name="bar" unicode="|" horiz-adv-x="366" 
d="M128 -251v1001h109v-1001h-109z" />
    <glyph glyph-name="braceright" unicode="}" horiz-adv-x="511" 
d="M-50 -250l9 35q54 0 79 28.5t44 104.5l51 205q16 64 71.5 100.5t129.5 47.5q-63 7 -101 54t-24 104l39 157q21 72 13.5 102.5t-60.5 30.5l8 32q113 0 158 -40.5t22 -132.5l-40 -161q-32 -132 94 -132l-10 -43q-128 0 -157 -117l-50 -202q-24 -97 -91.5 -135t-184.5 -38z
" />
    <glyph glyph-name="asciitilde" unicode="~" horiz-adv-x="609" 
d="M415 525q-39 0 -82 32l-6 5q-6 5 -7 5.5t-6.5 4.5t-7.5 4.5t-7 3t-8.5 3t-9 1.5t-10.5 1q-48 0 -62 -51h-24q11 49 41 83.5t78 34.5q11 0 21 -2t15.5 -3.5t14.5 -7t10.5 -7t10.5 -9.5l10 -8q26 -21 57 -21q26 0 42 15.5t21 37.5h22q-26 -122 -113 -122z" />
    <glyph glyph-name="exclamdown" unicode="&#xa1;" horiz-adv-x="296" 
d="M179 479q-28 0 -42.5 17.5t-14.5 45.5q0 37 24.5 65t61.5 28q28 0 43 -17t15 -44q0 -38 -24.5 -66.5t-62.5 -28.5zM68 -14q-25 0 -46 6t-29 12l-8 6q15 37 60.5 142.5t76 181t37.5 107.5h37q-4 -21 -9.5 -87.5t-13.5 -165.5t-17 -178q-39 -24 -88 -24z" />
    <glyph glyph-name="cent" unicode="&#xa2;" 
d="M174 -91l22 73q-181 19 -181 201q0 72 40 143t121 123.5t183 60.5l19 63h48l-19 -61q52 -2 105 -30l25 22h19l-45 -171h-33q0 84 -13 109q-27 32 -69 35l-36 -115l-70 -232l-36 -115h8q20 0 36.5 4t23.5 7.5t19.5 11.5t15.5 10q12 10 26.5 29.5t35.5 52t25 38.5h31
l-62 -152q-21 -12 -70.5 -24.5t-94.5 -12.5h-5l-21 -70h-48zM211 29l136 444q-54 -14 -96.5 -71.5t-62.5 -121t-20 -116.5q0 -104 43 -135z" />
    <glyph glyph-name="sterling" unicode="&#xa3;" 
d="M331 -32q-44 0 -128 16t-157 16q-32 0 -46 -6v18l44 74q59 0 68 103l9 103h-82l31 60h56l7 70q9 92 76 150.5t160 58.5q57 0 97.5 -26t40.5 -58q0 -30 -16 -46.5t-44 -16.5q-38 0 -51 36t15 61q-14 18 -43 18q-35 0 -53 -19t-22.5 -41.5t-9.5 -75.5q-1 -14 -2 -21l-7 -90
h136v-60h-141l-4 -40q-4 -41 -21 -73t-42 -50.5t-45.5 -28.5t-40.5 -15q69 0 146 -13t100 -13q52 0 72.5 20.5t20.5 68.5h30q0 -84 -37 -132t-117 -48z" />
    <glyph glyph-name="yen" unicode="&#xa5;" 
d="M25 0v36l74 13q18 4 24 9.5t10 21.5l8 34v0v0h-1v0h-1h-1h-1h-1h-1h-1h-1h-1h-1h-1h-1h-1h-1h-1h-1h-1h-1h-1h-1h-1h-1h-1h-1h-1h-1h-1h-2h-1h-1h-1h-1h-1h-1h-2h-1h-1h-1h-2h-1h-1h-2h-1h-1h-2h-1h-1h-2h-1h-1h-2h-1h-2h-1h-2h-1h-2h-1h-2h-1h-2h-1h-2h-1h-2h-1h-2h-2
h-1h-2h-1h-2h-2h-1h-2h-2h-1h-2h-2h-1h-2h-2h-2h-1h-2h-2h-2h-1h-2h-2h-2h-2h-1h-9v47h147l20 82v0v0h-1v0h-1h-1h-1h-1h-1h-1h-1h-1h-1h-1h-1h-1h-1h-1h-1h-1h-1h-1h-1h-1h-1h-1h-1h-1h-2h-1h-1h-1h-1h-1h-1h-2h-1h-1h-1h-2h-1h-1h-1h-2h-1h-1h-2h-1h-1h-2h-1h-2h-1h-1h-2
h-1h-2h-1h-2h-1h-2h-1h-2h-1h-2h-1h-2h-2h-1h-2h-1h-2h-2h-1h-2h-2h-1h-2h-2h-1h-2h-2h-1h-2h-2h-2h-1h-2h-2h-2h-1h-2h-2h-2h-9v47h128l-86 260q-7 18 -28 26l-24 8v36h311v-36l-54 -10q-36 -7 -28 -28l69 -214l158 208q9 12 4.5 22t-18.5 13l-40 9v36h199v-36l-36 -9
q-23 -6 -39 -25l-206 -260h136v-47h-149l-21 -82h134v-47h-146l-10 -38q-3 -12 1.5 -17t20.5 -9l59 -14v-36h-350z" />
    <glyph glyph-name="brokenbar" unicode="&#xa6;" horiz-adv-x="366" 
d="M128 398v350h110v-350h-110zM128 -252v391h110v-391h-110z" />
    <glyph glyph-name="section" unicode="&#xa7;" horiz-adv-x="544" 
d="M160 -242q-64 0 -111 32.5t-47 73.5q0 27 17 45t44 18q29 0 46.5 -15t17.5 -38q0 -26 -29 -50q25 -33 69 -33q27 0 51 22.5t24 61.5q0 38 -59 91l-76 69q-26 24 -39 38t-25.5 44.5t-12.5 69.5q0 65 55 110.5t132 57.5q-31 29 -46.5 53.5t-15.5 59.5q0 70 59.5 115.5
t163.5 45.5q77 0 127.5 -28t50.5 -78q0 -27 -17 -45t-44 -18q-29 0 -46.5 15t-17.5 38q0 26 29 50q-20 33 -79 33q-27 0 -51 -22.5t-24 -61.5q0 -18 11 -36.5t18.5 -26.5t29.5 -28l76 -69q21 -19 30 -28.5t22.5 -29t19 -42t5.5 -52.5q0 -65 -53.5 -109t-131.5 -56
q21 -22 31.5 -35t19.5 -35t9 -46q0 -71 -58.5 -116t-174.5 -45zM317 47l12 14q44 51 44 104q0 47 -54 96l-77 70q-1 2 -4.5 5t-5.5 4l-13 -14q-44 -53 -44 -104q0 -47 54 -96l77 -70z" />
    <glyph glyph-name="dieresis" unicode="&#xa8;" 
d="M215 544q-22 0 -36 14.5t-14 35.5q0 28 20.5 49t48.5 21q22 0 36.5 -14t14.5 -37q0 -27 -21 -48t-49 -21zM418 543q-22 0 -36 14.5t-14 35.5q0 28 20.5 49t48.5 21q23 0 37 -14.5t14 -36.5q0 -27 -21 -48t-49 -21z" />
    <glyph glyph-name="copyright" unicode="&#xa9;" horiz-adv-x="728" 
d="M364 -17q-136 0 -233 96t-97 232t97 232.5t233 96.5t233 -96.5t97 -232.5t-97 -232t-233 -96zM364 34q116 0 193 81.5t77 195.5q0 115 -77 196.5t-193 81.5t-193 -81.5t-77 -196.5t77 -196t193 -81zM377 133q-92 0 -144.5 52t-52.5 126q0 83 58.5 131t151.5 48
q44 0 92 -20l12 15h11l6 -119h-19q-21 56 -36 75q-34 25 -68 25q-107 0 -107 -151q0 -76 28.5 -116t73.5 -40q40 0 69 21q21 21 40 72h19l-17 -100q-46 -19 -117 -19z" />
    <glyph glyph-name="ordfeminine" unicode="&#xaa;" horiz-adv-x="543" 
d="M164 263q-39 0 -62 27t-23 81q0 108 61.5 184.5t171.5 76.5q42 0 66 -28l46 28q38 1 58 1q-2 -3 -5.5 -10t-4.5 -11q-17 -33 -25 -64l-42 -141q-14 -50 -14 -66q0 -5 1 -13l2 -7q30 10 56 46l17 -28q-17 -32 -49 -53.5t-67 -21.5q-65 0 -54 97q-22 -42 -58.5 -70
t-74.5 -28zM68 149v64h358v-64h-358zM206 338q23 0 54.5 26.5t49.5 62.5l47 142q-16 13 -39 13q-51 0 -93 -60.5t-42 -135.5q0 -26 5 -37t18 -11z" />
    <glyph glyph-name="guillemotleft" unicode="&#xab;" horiz-adv-x="389" 
d="M306 102l-128 149l12 46l202 149l-11 -42l-102 -129v-2l38 -129zM132 102l-128 149l12 46l202 149l-11 -42l-102 -129v-2l38 -129z" />
    <glyph glyph-name="logicalnot" unicode="&#xac;" 
d="M405 42v158h-366v87h452v-245h-86z" />
    <glyph glyph-name="registered" unicode="&#xae;" horiz-adv-x="728" 
d="M364 -17q-136 0 -233 96t-97 232t97 232.5t233 96.5t233 -96.5t97 -232.5t-97 -232t-233 -96zM364 34q116 0 193 81.5t77 195.5q0 115 -77 196.5t-193 81.5t-193 -81.5t-77 -196.5t77 -196t193 -81zM191 140v25l25 7q15 8 16 11v255q0 7 -12 10q-3 1 -4 1l-25 6v27h198
q63 0 102 -22.5t39 -67.5q0 -38 -29 -61.5t-71 -30.5q21 -12 54 -63l23 -38q8 -14 31 -29l23 -5v-25h-114q-15 10 -46 61l-52 81h-20v-95q0 -13 12 -15l26 -5v-27h-176zM329 313h17q91 0 91 78q0 29 -20 48t-51 19h-7q-9 0 -30 -6v-139z" />
    <glyph glyph-name="macron" unicode="&#xaf;" 
d="M202 544l16 62h228l-16 -62h-228z" />
    <glyph glyph-name="macron" unicode="&#x2c9;" 
d="M202 544l16 62h228l-16 -62h-228z" />
    <glyph glyph-name="degree" unicode="&#xb0;" horiz-adv-x="433" 
d="M266 343q-76 0 -124.5 51t-48.5 123t49.5 122t123.5 50q72 0 122.5 -50t50.5 -122q0 -74 -50.5 -124t-122.5 -50zM266 392q39 0 64 33t25 90t-25 90.5t-64 33.5t-64.5 -33.5t-25.5 -90.5t25.5 -90t64.5 -33z" />
    <glyph glyph-name="plusminus" unicode="&#xb1;" 
d="M219 -15v215h-184v83h184v210h88v-210h184v-83h-184v-215h-88zM35 -145v83h456v-83h-456z" />
    <glyph glyph-name="twosuperior" unicode="&#xb2;" horiz-adv-x="418" 
d="M60 271l6 24l150 116q53 40 99 89q44 47 44 101q0 64 -66 64q-52 0 -76 -27.5t-35 -80.5h-34q6 74 52 117t129 43q64 0 106.5 -30t42.5 -75q0 -67 -65 -124q-64 -53 -136 -93l-87 -50h154q13 0 31 13t28 23.5t30 33.5h33q-12 -19 -37.5 -73.5t-28.5 -70.5h-340z" />
    <glyph glyph-name="threesuperior" unicode="&#xb3;" horiz-adv-x="418" 
d="M214 266q-27 0 -57.5 6t-57.5 23.5t-27 42.5q0 19 10.5 31t28.5 12q41 0 53 -35l13 -38q17 -11 44 -11q54 0 80.5 31.5t26.5 79.5q0 37 -20.5 54.5t-64.5 17.5q-19 0 -46 -8l12 44q64 6 105 35.5t41 75.5q0 24 -16 37.5t-42 13.5q-81 0 -99 -77h-35q11 60 55 91.5
t113 31.5q61 0 97.5 -24t36.5 -63q0 -41 -36.5 -73t-86.5 -43q44 -9 75 -37.5t31 -63.5q0 -50 -35.5 -86t-87.5 -52t-111 -16z" />
    <glyph glyph-name="acute" unicode="&#xb4;" 
d="M309 544l54 148q6 17 21.5 30t33.5 13q19 0 33.5 -13t14.5 -32q0 -33 -27 -56l-101 -90h-29z" />
    <glyph glyph-name="mu" unicode="&#xb5;" horiz-adv-x="578" 
d="M-118 -238v34l39 16q30 12 37 37l175 595l106 38h65q-28 -58 -54 -141l-45 -147q-20 -69 -20 -76q0 -34 26 -34q27 0 57.5 31.5t77.5 109.5l64 220l91 36h63q-11 -26 -30 -93l-59 -217q-19 -73 -19 -96q0 -14 5 -31q22 3 45 21t35 40l12 -25q-18 -38 -56.5 -64t-93.5 -26
q-43 0 -63 23.5t-18.5 57t4.5 68.5l2 15q-24 -65 -64.5 -114.5t-84.5 -49.5q-26 0 -34 23l-41 -158q-8 -31 -29 -51t-55.5 -28.5t-63.5 -11t-74 -2.5z" />
    <glyph glyph-name="mu" unicode="&#x3bc;" horiz-adv-x="578" 
d="M-118 -238v34l39 16q30 12 37 37l175 595l106 38h65q-28 -58 -54 -141l-45 -147q-20 -69 -20 -76q0 -34 26 -34q27 0 57.5 31.5t77.5 109.5l64 220l91 36h63q-11 -26 -30 -93l-59 -217q-19 -73 -19 -96q0 -14 5 -31q22 3 45 21t35 40l12 -25q-18 -38 -56.5 -64t-93.5 -26
q-43 0 -63 23.5t-18.5 57t4.5 68.5l2 15q-24 -65 -64.5 -114.5t-84.5 -49.5q-26 0 -34 23l-41 -158q-8 -31 -29 -51t-55.5 -28.5t-63.5 -11t-74 -2.5z" />
    <glyph glyph-name="paragraph" unicode="&#xb6;" horiz-adv-x="540" 
d="M130 -272l118 474h-16q-37 0 -72.5 11t-67.5 36.5t-42.5 67.5t1.5 103q15 60 49.5 102t81 62t89.5 28t90 8h266l-21 -84h-40l-134 -536h-86l134 536h-61l-202 -808h-87z" />
    <glyph glyph-name="periodcentered" unicode="&#xb7;" horiz-adv-x="323" 
d="M158 224q-28 0 -43 17t-15 44q0 38 24.5 66.5t62.5 28.5q28 0 42.5 -17.5t14.5 -45.5q0 -37 -24.5 -65t-61.5 -28z" />
    <glyph glyph-name="periodcentered" unicode="&#x2219;" horiz-adv-x="323" 
d="M158 224q-28 0 -43 17t-15 44q0 38 24.5 66.5t62.5 28.5q28 0 42.5 -17.5t14.5 -45.5q0 -37 -24.5 -65t-61.5 -28z" />
    <glyph glyph-name="cedilla" unicode="&#xb8;" horiz-adv-x="232" 
d="M84 -252q-48 0 -84 24l32 44q18 -44 50 -44q58 0 58 56q0 16 -14 37.5t-14 38.5q0 26 21.5 45t46.5 19l8 -4q-20 -13 -20 -32q0 -10 10 -21t22 -19.5t22 -24.5t10 -35q0 -84 -148 -84z" />
    <glyph glyph-name="onesuperior" unicode="&#xb9;" horiz-adv-x="418" 
d="M80 271l8 30l83 9q12 2 15 12l91 297h-4l-104 -26l6 36q161 58 209 88h43l-117 -395q-3 -10 9 -12l65 -9l-8 -30h-296z" />
    <glyph glyph-name="ordmasculine" unicode="&#xba;" horiz-adv-x="482" 
d="M232 264q-136 0 -136 118q0 101 64 175t162 74q61 0 97.5 -27t36.5 -85q0 -101 -64 -178t-160 -77zM59 149v64h358v-64h-358zM253 314q38 0 66.5 61t28.5 145q0 18 -1 27t-5.5 19t-14.5 14t-27 4q-38 0 -67 -60t-29 -144q0 -24 2 -35.5t13 -21t34 -9.5z" />
    <glyph glyph-name="guillemotright" unicode="&#xbb;" horiz-adv-x="389" 
d="M171 102l11 42l102 129v2l-38 129l11 42l128 -149l-12 -46zM-3 102l11 42l102 129v2l-38 129l11 42l128 -149l-12 -46z" />
    <glyph glyph-name="onequarter" unicode="&#xbc;" horiz-adv-x="856" 
d="M80 271l8 30l83 9q12 2 15 12l91 297h-4l-104 -26l6 36q161 58 209 88h43l-117 -395q-3 -10 9 -12l65 -9l-8 -30h-296zM30 -146l765 724h67l-765 -724h-67zM490 -237l9 30l55 7q11 1 16 16l18 56h-207l9 25l302 286q18 -1 54 9.5t45 17.5h25l-89 -291h59l-13 -47h-61
l-17 -56q-4 -16 6 -17l38 -7l-8 -29h-241zM465 -81h138l58 183z" />
    <glyph glyph-name="onehalf" unicode="&#xbd;" horiz-adv-x="856" 
d="M80 271l8 30l83 9q12 2 15 12l91 297h-4l-104 -26l6 36q161 58 209 88h43l-117 -395q-3 -10 9 -12l65 -9l-8 -30h-296zM30 -146l765 724h67l-765 -724h-67zM389 -237l6 24l150 116q53 40 99 89q44 47 44 101q0 64 -66 64q-52 0 -76 -27.5t-35 -80.5h-34q6 74 52 117
t129 43q64 0 106.5 -30t42.5 -75q0 -67 -65 -124q-64 -53 -136 -93l-87 -50h154q13 0 31 13t28 23.5t30 33.5h33q-12 -19 -37.5 -73.5t-28.5 -70.5h-340z" />
    <glyph glyph-name="threequarters" unicode="&#xbe;" horiz-adv-x="856" 
d="M214 266q-27 0 -57.5 6t-57.5 23.5t-27 42.5q0 19 10.5 31t28.5 12q41 0 53 -35l13 -38q17 -11 44 -11q54 0 80.5 31.5t26.5 79.5q0 37 -20.5 54.5t-64.5 17.5q-19 0 -46 -8l12 44q64 6 105 35.5t41 75.5q0 24 -16 37.5t-42 13.5q-81 0 -99 -77h-35q11 60 55 91.5
t113 31.5q61 0 97.5 -24t36.5 -63q0 -41 -36.5 -73t-86.5 -43q44 -9 75 -37.5t31 -63.5q0 -50 -35.5 -86t-87.5 -52t-111 -16zM30 -146l765 724h67l-765 -724h-67zM490 -237l9 30l55 7q11 1 16 16l18 56h-207l9 25l302 286q18 -1 54 9.5t45 17.5h25l-89 -291h59l-13 -47h-61
l-17 -56q-4 -16 6 -17l38 -7l-8 -29h-241zM465 -81h138l58 183z" />
    <glyph glyph-name="questiondown" unicode="&#xbf;" horiz-adv-x="426" 
d="M289 480q-28 0 -42.5 17.5t-14.5 45.5q0 37 24.5 65t61.5 28q28 0 43 -17t15 -44q0 -38 -24.5 -66.5t-62.5 -28.5zM165 -14q-86 0 -136 33t-50 87q0 55 27.5 95t68 63t81.5 43t72.5 48t36.5 66h34q-4 -42 -23 -73t-43.5 -51t-48 -41.5t-39.5 -56.5t-16 -83
q0 -45 19.5 -71t49.5 -26q28 0 46 8q-23 27 -23 56q0 27 16 44t44 17q25 0 42.5 -15.5t17.5 -38.5q0 -50 -49.5 -77t-126.5 -27z" />
    <glyph glyph-name="Agrave" unicode="&#xc0;" horiz-adv-x="586" 
d="M-79 0v36l38 9q26 6 43 33l341 558h70l59 -566q2 -18 24 -24l35 -10v-36h-296v36l36 10q21 6 27.5 10.5t5.5 15.5l-9 92h-177l-41 -70q-25 -42 2 -49l38 -9v-36h-196zM147 214h143l-20 212zM355 684l-101 90q-27 23 -27 56q0 19 14.5 32t33.5 13q18 0 33.5 -12.5
t21.5 -30.5l54 -148h-29z" />
    <glyph glyph-name="Aacute" unicode="&#xc1;" horiz-adv-x="586" 
d="M-79 0v36l38 9q26 6 43 33l341 558h70l59 -566q2 -18 24 -24l35 -10v-36h-296v36l36 10q21 6 27.5 10.5t5.5 15.5l-9 92h-177l-41 -70q-25 -42 2 -49l38 -9v-36h-196zM147 214h143l-20 212zM368 684l54 148q6 17 21.5 30t33.5 13q19 0 33.5 -13t14.5 -32q0 -33 -27 -56
l-101 -90h-29z" />
    <glyph glyph-name="Acircumflex" unicode="&#xc2;" horiz-adv-x="586" 
d="M-79 0v36l38 9q26 6 43 33l341 558h70l59 -566q2 -18 24 -24l35 -10v-36h-296v36l36 10q21 6 27.5 10.5t5.5 15.5l-9 92h-177l-41 -70q-25 -42 2 -49l38 -9v-36h-196zM147 214h143l-20 212zM204 684l189 175h56l81 -175h-42l-90 79h-2l-150 -79h-42z" />
    <glyph glyph-name="Atilde" unicode="&#xc3;" horiz-adv-x="586" 
d="M-79 0v36l38 9q26 6 43 33l341 558h70l59 -566q2 -18 24 -24l35 -10v-36h-296v36l36 10q21 6 27.5 10.5t5.5 15.5l-9 92h-177l-41 -70q-25 -42 2 -49l38 -9v-36h-196zM147 214h143l-20 212zM454 675q-39 0 -82 32l-6 5q-6 5 -7 5.5t-6.5 4.5t-7.5 4.5t-7 3t-8.5 3t-9 1.5
t-10.5 1q-48 0 -62 -51h-24q11 49 41 83.5t78 34.5q11 0 21 -2t15.5 -3.5t14.5 -7t10.5 -7t11.5 -9.5l9 -8q26 -21 57 -21q26 0 42 15.5t21 37.5h22q-26 -122 -113 -122z" />
    <glyph glyph-name="Adieresis" unicode="&#xc4;" horiz-adv-x="586" 
d="M-79 0v36l38 9q26 6 43 33l341 558h70l59 -566q2 -18 24 -24l35 -10v-36h-296v36l36 10q21 6 27.5 10.5t5.5 15.5l-9 92h-177l-41 -70q-25 -42 2 -49l38 -9v-36h-196zM147 214h143l-20 212zM279 684q-22 0 -36 14.5t-14 35.5q0 28 20.5 49t48.5 21q22 0 36.5 -14
t14.5 -37q0 -27 -21 -48t-49 -21zM482 683q-22 0 -36 14.5t-14 35.5q0 28 20.5 49t48.5 21q23 0 37 -14.5t14 -36.5q0 -27 -21 -48t-49 -21z" />
    <glyph glyph-name="Aring" unicode="&#xc5;" horiz-adv-x="586" 
d="M-79 0v36l38 9q26 6 43 33l341 558h70l59 -566q2 -18 24 -24l35 -10v-36h-296v36l36 10q21 6 27.5 10.5t5.5 15.5l-9 92h-177l-41 -70q-25 -42 2 -49l38 -9v-36h-196zM147 214h143l-20 212zM386 684q-37 0 -61 17t-24 53q0 49 37.5 78.5t82.5 29.5q39 0 62 -17.5
t23 -52.5q0 -51 -36.5 -79.5t-83.5 -28.5zM390 704q31 0 46.5 24.5t15.5 60.5q0 52 -35 52q-30 0 -46 -23.5t-16 -59.5q0 -54 35 -54z" />
    <glyph glyph-name="AE" unicode="&#xc6;" horiz-adv-x="885" 
d="M-69 0v36l38 9q16 4 23 9.5t20 23.5l333 463q17 23 -12 32l-40 11v36h507q36 0 72 8l-32 -195h-27q0 56 -27 112q-22 30 -90 30h-19q-27 0 -58 -9l-56 -220h65q23 13 49 41.5t35 51.5h23l-58 -239h-23q0 53 -47 98h-56l-61 -244q32 -10 68 -10h18q67 0 112 28
q22 20 50.5 55.5t45.5 66.5h27l-69 -194h-496v36l54 12q18 4 24 10.5t10 21.5l30 119h-204l-73 -105q-28 -41 2 -49l38 -9v-36h-196zM195 249h181l80 320h-38z" />
    <glyph glyph-name="Ccedilla" unicode="&#xc7;" horiz-adv-x="652" 
d="M294 -12q-130 0 -196 61.5t-66 170.5q0 183 127 301.5t309 118.5q66 0 144 -39l25 26h21l-55 -216h-27q0 105 -16 143l-8.5 8.5t-10.5 10t-10.5 9t-13 9.5t-14 6.5t-18 5t-20.5 1.5q-73 0 -136 -65t-97 -159.5t-34 -188.5q0 -80 32 -123.5t85 -43.5q10 0 19 1t18 3
t15.5 3.5t14.5 5t12.5 5.5t12 7t10 6.5t10.5 6.5t9 6q11 9 25.5 28.5t24 35t26 43.5t21.5 36h28l-65 -189q-82 -34 -202 -34zM194 -252q-48 0 -84 24l32 44q18 -44 50 -44q58 0 58 56q0 16 -14 37.5t-14 38.5q0 26 21.5 45t46.5 19l8 -4q-20 -13 -20 -32q0 -10 10 -21
t22 -19.5t22 -24.5t10 -35q0 -84 -148 -84z" />
    <glyph glyph-name="Egrave" unicode="&#xc8;" horiz-adv-x="594" 
d="M-45 0v36l54 12q18 4 24 10.5t10 21.5l116 461q4 15 0.5 21.5t-18.5 10.5l-40 11v36h408q36 0 72 8l-32 -195h-27q0 56 -27 112q-22 30 -90 30h-19q-26 0 -58 -9l-56 -220h65q23 13 49 41.5t35 51.5h23l-58 -239h-23q0 53 -47 98h-56l-61 -244q32 -10 68 -10h18
q67 0 112 28q22 20 50.5 55.5t45.5 66.5h27l-69 -194h-496zM339 684l-101 90q-27 23 -27 56q0 19 14.5 32t33.5 13q18 0 33.5 -12.5t21.5 -30.5l54 -148h-29z" />
    <glyph glyph-name="Eacute" unicode="&#xc9;" horiz-adv-x="594" 
d="M-45 0v36l54 12q18 4 24 10.5t10 21.5l116 461q4 15 0.5 21.5t-18.5 10.5l-40 11v36h408q36 0 72 8l-32 -195h-27q0 56 -27 112q-22 30 -90 30h-19q-26 0 -58 -9l-56 -220h65q23 13 49 41.5t35 51.5h23l-58 -239h-23q0 53 -47 98h-56l-61 -244q32 -10 68 -10h18
q67 0 112 28q22 20 50.5 55.5t45.5 66.5h27l-69 -194h-496zM362 684l54 148q6 17 21.5 30t33.5 13q19 0 33.5 -13t14.5 -32q0 -33 -27 -56l-101 -90h-29z" />
    <glyph glyph-name="Ecircumflex" unicode="&#xca;" horiz-adv-x="594" 
d="M-45 0v36l54 12q18 4 24 10.5t10 21.5l116 461q4 15 0.5 21.5t-18.5 10.5l-40 11v36h408q36 0 72 8l-32 -195h-27q0 56 -27 112q-22 30 -90 30h-19q-26 0 -58 -9l-56 -220h65q23 13 49 41.5t35 51.5h23l-58 -239h-23q0 53 -47 98h-56l-61 -244q32 -10 68 -10h18
q67 0 112 28q22 20 50.5 55.5t45.5 66.5h27l-69 -194h-496zM208 684l189 175h56l81 -175h-42l-90 79h-2l-150 -79h-42z" />
    <glyph glyph-name="Edieresis" unicode="&#xcb;" horiz-adv-x="594" 
d="M-45 0v36l54 12q18 4 24 10.5t10 21.5l116 461q4 15 0.5 21.5t-18.5 10.5l-40 11v36h408q36 0 72 8l-32 -195h-27q0 56 -27 112q-22 30 -90 30h-19q-26 0 -58 -9l-56 -220h65q23 13 49 41.5t35 51.5h23l-58 -239h-23q0 53 -47 98h-56l-61 -244q32 -10 68 -10h18
q67 0 112 28q22 20 50.5 55.5t45.5 66.5h27l-69 -194h-496zM278 684q-22 0 -36 14.5t-14 35.5q0 28 20.5 49t48.5 21q23 0 37 -14t14 -37q0 -27 -21 -48t-49 -21zM481 683q-22 0 -36 14.5t-14 35.5q0 28 20.5 49t48.5 21q22 0 36.5 -14.5t14.5 -36.5q0 -27 -21 -48t-49 -21z
" />
    <glyph glyph-name="Igrave" unicode="&#xcc;" horiz-adv-x="357" 
d="M-45 0v36l54 12q18 4 24 10.5t10 21.5l116 461q4 15 0.5 21.5t-18.5 10.5l-40 11v36h301v-36l-44 -11q-19 -5 -25 -9t-9 -14l-120 -474q-3 -13 1.5 -18t20.5 -10l39 -12v-36h-310zM220 684l-101 90q-27 23 -27 56q0 19 14.5 32t33.5 13q18 0 33.5 -12.5t21.5 -30.5
l54 -148h-29z" />
    <glyph glyph-name="Iacute" unicode="&#xcd;" horiz-adv-x="357" 
d="M-45 0v36l54 12q18 4 24 10.5t10 21.5l116 461q4 15 0.5 21.5t-18.5 10.5l-40 11v36h301v-36l-44 -11q-19 -5 -25 -9t-9 -14l-120 -474q-3 -13 1.5 -18t20.5 -10l39 -12v-36h-310zM243 684l54 148q6 17 21.5 30t33.5 13q19 0 33.5 -13t14.5 -32q0 -33 -27 -56l-101 -90
h-29z" />
    <glyph glyph-name="Icircumflex" unicode="&#xce;" horiz-adv-x="357" 
d="M-45 0v36l54 12q18 4 24 10.5t10 21.5l116 461q4 15 0.5 21.5t-18.5 10.5l-40 11v36h301v-36l-44 -11q-19 -5 -25 -9t-9 -14l-120 -474q-3 -13 1.5 -18t20.5 -10l39 -12v-36h-310zM99 684l189 175h56l81 -175h-42l-90 79h-2l-150 -79h-42z" />
    <glyph glyph-name="Idieresis" unicode="&#xcf;" horiz-adv-x="357" 
d="M-45 0v36l54 12q18 4 24 10.5t10 21.5l116 461q4 15 0.5 21.5t-18.5 10.5l-40 11v36h301v-36l-44 -11q-19 -5 -25 -9t-9 -14l-120 -474q-3 -13 1.5 -18t20.5 -10l39 -12v-36h-310zM169 684q-22 0 -36 14.5t-14 35.5q0 28 20.5 49t48.5 21q22 0 36.5 -14t14.5 -37
q0 -27 -21 -48t-49 -21zM372 683q-22 0 -36 14.5t-14 35.5q0 28 20.5 49t48.5 21q23 0 37 -14.5t14 -36.5q0 -27 -21 -48t-49 -21z" />
    <glyph glyph-name="Eth" unicode="&#xd0;" horiz-adv-x="714" 
d="M-45 0v36l54 12q18 4 24 10.5t10 21.5l54 214h-69l15 60h69l47 187q4 15 0.5 21.5t-18.5 10.5l-40 11v36h312q280 0 280 -226q0 -173 -105.5 -283.5t-276.5 -110.5h-356zM262 33h6q103 0 182 101t79 254q0 84 -30.5 142.5t-97.5 58.5h-12q-33 0 -58 -12l-56 -223h95
l-15 -60h-95l-64 -252q22 -9 66 -9z" />
    <glyph glyph-name="Ntilde" unicode="&#xd1;" horiz-adv-x="726" 
d="M474 -12l-251 500l-74 -307q-11 -48 -17 -104q-2 -14 1 -19.5t17 -7.5l68 -11v-39h-255v38l69 11q13 2 17 6t10 19q18 42 33 106l88 356q7 27 -14 33l-52 13v38h224l202 -402l51 205q9 35 20 122q1 15 -3 19t-21 7l-62 11v38h246v-38l-58 -11q-23 -5 -34 -31
q-9 -29 -27 -98l-113 -454h-65zM514 675q-39 0 -82 32l-6 5q-6 5 -7 5.5t-6.5 4.5t-7.5 4.5t-7 3t-8.5 3t-9 1.5t-10.5 1q-48 0 -62 -51h-24q11 49 41 83.5t78 34.5q11 0 21 -2t15.5 -3.5t14.5 -7t10.5 -7t11.5 -9.5l9 -8q26 -21 57 -21q26 0 42 15.5t21 37.5h22
q-26 -122 -113 -122z" />
    <glyph glyph-name="Ograve" unicode="&#xd2;" horiz-adv-x="712" 
d="M278 -13q-120 0 -184 62.5t-64 187.5q0 171 109 286.5t292 115.5q251 0 251 -240q0 -175 -108 -293.5t-296 -118.5zM292 24q100 0 157 124.5t57 305.5q0 149 -91 149q-67 0 -115.5 -60t-71 -155.5t-22.5 -214.5q0 -75 24 -112t62 -37zM398 684l-101 90q-27 23 -27 56
q0 19 14.5 32t33.5 13q18 0 33.5 -12.5t21.5 -30.5l54 -148h-29z" />
    <glyph glyph-name="Oacute" unicode="&#xd3;" horiz-adv-x="712" 
d="M278 -13q-120 0 -184 62.5t-64 187.5q0 171 109 286.5t292 115.5q251 0 251 -240q0 -175 -108 -293.5t-296 -118.5zM292 24q100 0 157 124.5t57 305.5q0 149 -91 149q-67 0 -115.5 -60t-71 -155.5t-22.5 -214.5q0 -75 24 -112t62 -37zM421 684l54 148q6 17 21.5 30
t33.5 13q19 0 33.5 -13t14.5 -32q0 -33 -27 -56l-101 -90h-29z" />
    <glyph glyph-name="Ocircumflex" unicode="&#xd4;" horiz-adv-x="712" 
d="M278 -13q-120 0 -184 62.5t-64 187.5q0 171 109 286.5t292 115.5q251 0 251 -240q0 -175 -108 -293.5t-296 -118.5zM292 24q100 0 157 124.5t57 305.5q0 149 -91 149q-67 0 -115.5 -60t-71 -155.5t-22.5 -214.5q0 -75 24 -112t62 -37zM267 684l189 175h56l81 -175h-42
l-90 79h-2l-150 -79h-42z" />
    <glyph glyph-name="Otilde" unicode="&#xd5;" horiz-adv-x="712" 
d="M278 -13q-120 0 -184 62.5t-64 187.5q0 171 109 286.5t292 115.5q251 0 251 -240q0 -175 -108 -293.5t-296 -118.5zM292 24q100 0 157 124.5t57 305.5q0 149 -91 149q-67 0 -115.5 -60t-71 -155.5t-22.5 -214.5q0 -75 24 -112t62 -37zM487 675q-39 0 -82 32l-6 5
q-6 5 -7 5.5t-6.5 4.5t-7.5 4.5t-7 3t-8.5 3t-9 1.5t-10.5 1q-48 0 -62 -51h-24q11 49 41 83.5t78 34.5q11 0 21 -2t15.5 -3.5t14.5 -7t10.5 -7t10.5 -9.5l10 -8q26 -21 57 -21q26 0 42 15.5t21 37.5h22q-26 -122 -113 -122z" />
    <glyph glyph-name="Odieresis" unicode="&#xd6;" horiz-adv-x="712" 
d="M278 -13q-120 0 -184 62.5t-64 187.5q0 171 109 286.5t292 115.5q251 0 251 -240q0 -175 -108 -293.5t-296 -118.5zM292 24q100 0 157 124.5t57 305.5q0 149 -91 149q-67 0 -115.5 -60t-71 -155.5t-22.5 -214.5q0 -75 24 -112t62 -37zM317 684q-22 0 -36 14.5t-14 35.5
q0 28 20.5 49t48.5 21q22 0 36.5 -14t14.5 -37q0 -27 -21 -48t-49 -21zM520 683q-22 0 -36 14.5t-14 35.5q0 28 20.5 49t48.5 21q23 0 37 -14.5t14 -36.5q0 -27 -21 -48t-49 -21z" />
    <glyph glyph-name="multiply" unicode="&#xd7;" 
d="M84 5l-57 55l172 183l-172 184l58 56l170 -181l170 180l58 -57l-172 -182l172 -183l-57 -55l-171 181z" />
    <glyph glyph-name="Oslash" unicode="&#xd8;" horiz-adv-x="712" 
d="M88 -75l55 90q-111 55 -111 220q0 172 106 286.5t291 114.5q52 0 91 -10l41 67h48q-24 -38 -49 -80q120 -52 120 -216q0 -175 -106 -292.5t-294 -117.5q-56 0 -98 13l-46 -75h-48zM214 129l266 433q-21 38 -67 38q-53 0 -94 -34t-64.5 -90t-35 -118t-11.5 -127
q0 -59 6 -102zM294 24q69 0 118.5 61t70.5 142.5t21 168.5q0 72 -7 114l-67 -109l-136 -218l-67 -109q21 -50 67 -50z" />
    <glyph glyph-name="Ugrave" unicode="&#xd9;" horiz-adv-x="680" 
d="M279 -13q-100 0 -154.5 42t-54.5 125q0 37 10 78l77 309q4 15 0.5 21.5t-18.5 10.5l-40 11v36h301v-36l-44 -11q-19 -5 -25.5 -9t-8.5 -14l-80 -318q-13 -51 -13 -90q0 -51 22 -75t72 -24q79 0 125 52t71 146l76 295q6 30 -22 36l-54 12v36h215v-36l-42 -11
q-17 -5 -23.5 -10.5t-9.5 -19.5l-75 -302q-32 -128 -103.5 -191t-201.5 -63zM432 684l-101 90q-27 23 -27 56q0 19 14.5 32t33.5 13q18 0 33.5 -12.5t21.5 -30.5l54 -148h-29z" />
    <glyph glyph-name="Uacute" unicode="&#xda;" horiz-adv-x="680" 
d="M279 -13q-100 0 -154.5 42t-54.5 125q0 37 10 78l77 309q4 15 0.5 21.5t-18.5 10.5l-40 11v36h301v-36l-44 -11q-19 -5 -25.5 -9t-8.5 -14l-80 -318q-13 -51 -13 -90q0 -51 22 -75t72 -24q79 0 125 52t71 146l76 295q6 30 -22 36l-54 12v36h215v-36l-42 -11
q-17 -5 -23.5 -10.5t-9.5 -19.5l-75 -302q-32 -128 -103.5 -191t-201.5 -63zM455 684l54 148q6 17 21.5 30t33.5 13q19 0 33.5 -13t14.5 -32q0 -33 -27 -56l-101 -90h-29z" />
    <glyph glyph-name="Ucircumflex" unicode="&#xdb;" horiz-adv-x="680" 
d="M279 -13q-100 0 -154.5 42t-54.5 125q0 37 10 78l77 309q4 15 0.5 21.5t-18.5 10.5l-40 11v36h301v-36l-44 -11q-19 -5 -25.5 -9t-8.5 -14l-80 -318q-13 -51 -13 -90q0 -51 22 -75t72 -24q79 0 125 52t71 146l76 295q6 30 -22 36l-54 12v36h215v-36l-42 -11
q-17 -5 -23.5 -10.5t-9.5 -19.5l-75 -302q-32 -128 -103.5 -191t-201.5 -63zM311 684l189 175h56l81 -175h-42l-90 79h-2l-150 -79h-42z" />
    <glyph glyph-name="Udieresis" unicode="&#xdc;" horiz-adv-x="680" 
d="M279 -13q-100 0 -154.5 42t-54.5 125q0 37 10 78l77 309q4 15 0.5 21.5t-18.5 10.5l-40 11v36h301v-36l-44 -11q-19 -5 -25.5 -9t-8.5 -14l-80 -318q-13 -51 -13 -90q0 -51 22 -75t72 -24q79 0 125 52t71 146l76 295q6 30 -22 36l-54 12v36h215v-36l-42 -11
q-17 -5 -23.5 -10.5t-9.5 -19.5l-75 -302q-32 -128 -103.5 -191t-201.5 -63zM371 684q-22 0 -36 14.5t-14 35.5q0 28 20.5 49t48.5 21q22 0 36.5 -14t14.5 -37q0 -27 -21 -48t-49 -21zM574 683q-22 0 -36 14.5t-14 35.5q0 28 20.5 49t48.5 21q23 0 37 -14.5t14 -36.5
q0 -27 -21 -48t-49 -21z" />
    <glyph glyph-name="Yacute" unicode="&#xdd;" horiz-adv-x="616" 
d="M69 0v36l74 13q18 4 24 9.5t10 21.5l45 181l-106 289q-7 18 -28 26l-24 8v36h311v-36l-54 -10q-36 -7 -28 -28l79 -214l168 208q9 12 4.5 22t-18.5 13l-40 9v36h199v-36l-36 -9q-23 -6 -39 -25l-218 -263l-54 -211q-3 -12 1.5 -17t20.5 -9l59 -14v-36h-350zM423 684
l54 148q6 17 21.5 30t33.5 13q19 0 33.5 -13t14.5 -32q0 -33 -27 -56l-101 -90h-29z" />
    <glyph glyph-name="Thorn" unicode="&#xde;" horiz-adv-x="609" 
d="M-45 0v36l54 12q18 4 24 10.5t10 21.5l116 461q4 16 0.5 21.5t-18.5 10.5l-40 11v36h301v-36l-44 -11q-19 -5 -25.5 -9t-8.5 -14l-12 -51h77q90 0 142.5 -37t52.5 -111q0 -89 -83 -159t-199 -70q-45 0 -83 7l-14 -53q-3 -13 1 -18t20 -10l39 -12v-36h-310zM225 156h21
q80 0 128 59t48 136q0 55 -17 84t-64 29h-4q-14 0 -37 -7z" />
    <glyph glyph-name="germandbls" unicode="&#xdf;" horiz-adv-x="592" 
d="M-89 -248q-55 0 -88 23.5t-33 55.5q0 22 15 40t38 18q49 0 68 -52l16 -44q31 0 48.5 33.5t35.5 125.5l105 526q23 118 98.5 178.5t187.5 60.5q77 0 128.5 -29.5t51.5 -78.5q0 -29 -11 -51.5t-21 -32t-33.5 -25.5t-30.5 -21q-40 -30 -40 -73q0 -30 6 -48.5t25 -42.5
l40 -50q59 -73 59 -123q0 -78 -57.5 -115t-153.5 -37q-61 0 -98 27.5t-37 70.5q0 72 59 72q55 0 55 -50q0 -33 -27 -62q13 -24 47 -24q30 0 45.5 22.5t15.5 53.5q0 46 -38 92l-41 53q-40 52 -40 97q0 39 20 65t59 50.5t48 32.5q22 21 28.5 43.5t6.5 66.5q0 32 -16.5 58
t-57.5 26q-53 0 -77 -55q-14 -31 -37 -142l-92 -439q-31 -149 -92.5 -222.5t-184.5 -73.5z" />
    <glyph glyph-name="agrave" unicode="&#xe0;" horiz-adv-x="568" 
d="M129 -11q-97 0 -97 128q0 159 82 261.5t225 102.5q48 0 76 -30l51 30h91q-25 -58 -34 -93l-60 -219q-18 -67 -18 -93q0 -8 2 -22q9 1 16.5 4t15 7.5t12 7.5t11 10t9 9.5t9.5 11.5t8 10l13 -34q-22 -37 -66.5 -63.5t-95.5 -26.5q-55 0 -74.5 42.5t-1.5 100.5
q-66 -144 -174 -144zM204 71q22 0 57 40t62 93l64 219q-13 8 -30 8q-67 0 -122 -94t-55 -206q0 -60 24 -60zM306 544l-101 90q-27 23 -27 56q0 19 14.5 32t33.5 13q18 0 33.5 -12.5t21.5 -30.5l54 -148h-29z" />
    <glyph glyph-name="aacute" unicode="&#xe1;" horiz-adv-x="568" 
d="M129 -11q-97 0 -97 128q0 159 82 261.5t225 102.5q48 0 76 -30l51 30h91q-25 -58 -34 -93l-60 -219q-18 -67 -18 -93q0 -8 2 -22q9 1 16.5 4t15 7.5t12 7.5t11 10t9 9.5t9.5 11.5t8 10l13 -34q-22 -37 -66.5 -63.5t-95.5 -26.5q-55 0 -74.5 42.5t-1.5 100.5
q-66 -144 -174 -144zM204 71q22 0 57 40t62 93l64 219q-13 8 -30 8q-67 0 -122 -94t-55 -206q0 -60 24 -60zM329 544l54 148q6 17 21.5 30t33.5 13q19 0 33.5 -13t14.5 -32q0 -33 -27 -56l-101 -90h-29z" />
    <glyph glyph-name="acircumflex" unicode="&#xe2;" horiz-adv-x="568" 
d="M129 -11q-97 0 -97 128q0 159 82 261.5t225 102.5q48 0 76 -30l51 30h91q-25 -58 -34 -93l-60 -219q-18 -67 -18 -93q0 -8 2 -22q9 1 16.5 4t15 7.5t12 7.5t11 10t9 9.5t9.5 11.5t8 10l13 -34q-22 -37 -66.5 -63.5t-95.5 -26.5q-55 0 -74.5 42.5t-1.5 100.5
q-66 -144 -174 -144zM204 71q22 0 57 40t62 93l64 219q-13 8 -30 8q-67 0 -122 -94t-55 -206q0 -60 24 -60zM195 544l189 175h56l81 -175h-42l-90 79h-2l-150 -79h-42z" />
    <glyph glyph-name="atilde" unicode="&#xe3;" horiz-adv-x="568" 
d="M129 -11q-97 0 -97 128q0 159 82 261.5t225 102.5q48 0 76 -30l51 30h91q-25 -58 -34 -93l-60 -219q-18 -67 -18 -93q0 -8 2 -22q9 1 16.5 4t15 7.5t12 7.5t11 10t9 9.5t9.5 11.5t8 10l13 -34q-22 -37 -66.5 -63.5t-95.5 -26.5q-55 0 -74.5 42.5t-1.5 100.5
q-66 -144 -174 -144zM204 71q22 0 57 40t62 93l64 219q-13 8 -30 8q-67 0 -122 -94t-55 -206q0 -60 24 -60zM435 535q-39 0 -82 32l-6 5q-6 5 -7 5.5t-6.5 4.5t-7.5 4.5t-7 3t-8.5 3t-9 1.5t-10.5 1q-48 0 -62 -51h-24q11 49 41 83.5t78 34.5q11 0 21 -2t15.5 -3.5t14.5 -7
t10.5 -7t10.5 -9.5l10 -8q26 -21 57 -21q26 0 42 15.5t21 37.5h22q-26 -122 -113 -122z" />
    <glyph glyph-name="adieresis" unicode="&#xe4;" horiz-adv-x="568" 
d="M129 -11q-97 0 -97 128q0 159 82 261.5t225 102.5q48 0 76 -30l51 30h91q-25 -58 -34 -93l-60 -219q-18 -67 -18 -93q0 -8 2 -22q9 1 16.5 4t15 7.5t12 7.5t11 10t9 9.5t9.5 11.5t8 10l13 -34q-22 -37 -66.5 -63.5t-95.5 -26.5q-55 0 -74.5 42.5t-1.5 100.5
q-66 -144 -174 -144zM204 71q22 0 57 40t62 93l64 219q-13 8 -30 8q-67 0 -122 -94t-55 -206q0 -60 24 -60zM255 544q-22 0 -36 14.5t-14 35.5q0 28 20.5 49t48.5 21q22 0 36.5 -14t14.5 -37q0 -27 -21 -48t-49 -21zM458 543q-22 0 -36 14.5t-14 35.5q0 28 20.5 49t48.5 21
q23 0 37 -14.5t14 -36.5q0 -27 -21 -48t-49 -21z" />
    <glyph glyph-name="aring" unicode="&#xe5;" horiz-adv-x="568" 
d="M129 -11q-97 0 -97 128q0 159 82 261.5t225 102.5q48 0 76 -30l51 30h91q-25 -58 -34 -93l-60 -219q-18 -67 -18 -93q0 -8 2 -22q9 1 16.5 4t15 7.5t12 7.5t11 10t9 9.5t9.5 11.5t8 10l13 -34q-22 -37 -66.5 -63.5t-95.5 -26.5q-55 0 -74.5 42.5t-1.5 100.5
q-66 -144 -174 -144zM204 71q22 0 57 40t62 93l64 219q-13 8 -30 8q-67 0 -122 -94t-55 -206q0 -60 24 -60zM377 544q-37 0 -61 17t-24 53q0 49 37.5 78.5t82.5 29.5q39 0 62 -17.5t23 -52.5q0 -51 -36.5 -79.5t-83.5 -28.5zM381 564q31 0 46.5 24.5t15.5 60.5q0 52 -35 52
q-30 0 -46 -23.5t-16 -59.5q0 -54 35 -54z" />
    <glyph glyph-name="ae" unicode="&#xe6;" horiz-adv-x="769" 
d="M129 -11q-97 0 -97 128q0 159 82 261.5t225 102.5q53 0 76 -31l51 31h51l-14 -34q50 34 119 34q135 0 135 -86q0 -136 -219 -164l-57 -7q-7 -35 -7 -76q0 -76 43 -90q61 0 100 21t72 72l21 -22q-33 -60 -96.5 -99.5t-140.5 -39.5t-118 32.5t-42 118.5q-37 -69 -84 -110.5
t-100 -41.5zM488 255l32 12q43 16 71 53t28 80q0 40 -24 40q-38 0 -65 -55.5t-42 -129.5zM204 71q22 0 57.5 40.5t62.5 94.5l63 217q-13 8 -30 8q-67 0 -122 -94t-55 -206q0 -60 24 -60z" />
    <glyph glyph-name="ccedilla" unicode="&#xe7;" horiz-adv-x="454" 
d="M192 -10q-78 0 -119 33t-41 121q0 148 87 242.5t229 94.5q44 0 73 -20.5t29 -50.5q0 -61 -64 -61q-53 0 -66 71q0 4 -1 10t-2 10h-5q-47 0 -83 -92t-36 -200q0 -76 43 -90q51 0 82 20.5t67 72.5l21 -22q-78 -139 -214 -139zM87 -252q-48 0 -84 24l32 44q18 -44 50 -44
q58 0 58 56q0 16 -14 37.5t-14 38.5q0 26 21.5 45t46.5 19l8 -4q-20 -13 -20 -32q0 -10 10 -21t22 -19.5t22 -24.5t10 -35q0 -84 -148 -84z" />
    <glyph glyph-name="egrave" unicode="&#xe8;" horiz-adv-x="486" 
d="M192 -10q-78 0 -119 33t-41 121q0 147 86.5 242t222.5 95q135 0 135 -86q0 -136 -219 -164l-57 -7q-7 -35 -7 -76q0 -76 43 -90q61 0 100 21t72 72l21 -22q-33 -60 -96.5 -99.5t-140.5 -39.5zM207 255l32 12q43 16 71 53t28 80q0 40 -24 40q-38 0 -65 -55.5t-42 -129.5z
M285 544l-101 90q-27 23 -27 56q0 19 14.5 32t33.5 13q18 0 33.5 -12.5t21.5 -30.5l54 -148h-29z" />
    <glyph glyph-name="eacute" unicode="&#xe9;" horiz-adv-x="486" 
d="M192 -10q-78 0 -119 33t-41 121q0 147 86.5 242t222.5 95q135 0 135 -86q0 -136 -219 -164l-57 -7q-7 -35 -7 -76q0 -76 43 -90q61 0 100 21t72 72l21 -22q-33 -60 -96.5 -99.5t-140.5 -39.5zM207 255l32 12q43 16 71 53t28 80q0 40 -24 40q-38 0 -65 -55.5t-42 -129.5z
M338 544l54 148q6 17 21.5 30t33.5 13q19 0 33.5 -13t14.5 -32q0 -33 -27 -56l-101 -90h-29z" />
    <glyph glyph-name="ecircumflex" unicode="&#xea;" horiz-adv-x="486" 
d="M192 -10q-78 0 -119 33t-41 121q0 147 86.5 242t222.5 95q135 0 135 -86q0 -136 -219 -164l-57 -7q-7 -35 -7 -76q0 -76 43 -90q61 0 100 21t72 72l21 -22q-33 -60 -96.5 -99.5t-140.5 -39.5zM207 255l32 12q43 16 71 53t28 80q0 40 -24 40q-38 0 -65 -55.5t-42 -129.5z
M154 544l189 175h56l81 -175h-42l-90 79h-2l-150 -79h-42z" />
    <glyph glyph-name="edieresis" unicode="&#xeb;" horiz-adv-x="486" 
d="M192 -10q-78 0 -119 33t-41 121q0 147 86.5 242t222.5 95q135 0 135 -86q0 -136 -219 -164l-57 -7q-7 -35 -7 -76q0 -76 43 -90q61 0 100 21t72 72l21 -22q-33 -60 -96.5 -99.5t-140.5 -39.5zM207 255l32 12q43 16 71 53t28 80q0 40 -24 40q-38 0 -65 -55.5t-42 -129.5z
M214 544q-22 0 -36 14.5t-14 35.5q0 28 20.5 49t48.5 21q23 0 37 -14t14 -37q0 -27 -21 -48t-49 -21zM417 543q-22 0 -36 14.5t-14 35.5q0 28 20.5 49t48.5 21q22 0 36.5 -14.5t14.5 -36.5q0 -27 -21 -48t-49 -21z" />
    <glyph glyph-name="igrave" unicode="&#xec;" horiz-adv-x="317" 
d="M132 -10q-56 0 -77 42t-4 99l72 239q6 24 1 31t-29 12l-48 10v30l151 28h108l-32 -96l-63 -231q-14 -50 -14 -78q0 -8 2 -22q9 1 16.5 4t15 7.5t12 7.5t11 10t9 9.5t9.5 11.5t8 10l13 -34q-22 -38 -66 -64t-95 -26zM200 544l-101 90q-27 23 -27 56q0 19 14.5 32t33.5 13
q18 0 33.5 -12.5t21.5 -30.5l54 -148h-29z" />
    <glyph glyph-name="iacute" unicode="&#xed;" horiz-adv-x="317" 
d="M132 -10q-56 0 -77 42t-4 99l72 239q6 24 1 31t-29 12l-48 10v30l151 28h108l-32 -96l-63 -231q-14 -50 -14 -78q0 -8 2 -22q9 1 16.5 4t15 7.5t12 7.5t11 10t9 9.5t9.5 11.5t8 10l13 -34q-22 -38 -66 -64t-95 -26zM203 544l54 148q6 17 21.5 30t33.5 13q19 0 33.5 -13
t14.5 -32q0 -33 -27 -56l-101 -90h-29z" />
    <glyph glyph-name="icircumflex" unicode="&#xee;" horiz-adv-x="317" 
d="M132 -10q-56 0 -77 42t-4 99l72 239q6 24 1 31t-29 12l-48 10v30l151 28h108l-32 -96l-63 -231q-14 -50 -14 -78q0 -8 2 -22q9 1 16.5 4t15 7.5t12 7.5t11 10t9 9.5t9.5 11.5t8 10l13 -34q-22 -38 -66 -64t-95 -26zM59 544l189 175h56l81 -175h-42l-90 79h-2l-150 -79
h-42z" />
    <glyph glyph-name="idieresis" unicode="&#xef;" horiz-adv-x="317" 
d="M132 -10q-56 0 -77 42t-4 99l72 239q6 24 1 31t-29 12l-48 10v30l151 28h108l-32 -96l-63 -231q-14 -50 -14 -78q0 -8 2 -22q9 1 16.5 4t15 7.5t12 7.5t11 10t9 9.5t9.5 11.5t8 10l13 -34q-22 -38 -66 -64t-95 -26zM135 544q-22 0 -36 14.5t-14 35.5q0 28 20.5 49
t48.5 21q22 0 36.5 -14t14.5 -37q0 -27 -21 -48t-49 -21zM338 543q-22 0 -36 14.5t-14 35.5q0 28 20.5 49t48.5 21q23 0 37 -14.5t14 -36.5q0 -27 -21 -48t-49 -21z" />
    <glyph glyph-name="eth" unicode="&#xf0;" horiz-adv-x="576" 
d="M129 -11q-97 0 -97 128q0 159 82 261.5t225 102.5q34 0 57 -15l22 78h-118l15 60h120q4 18 -2 24.5t-28 10.5l-48 9v31l151 28h111q-22 -44 -36 -98q-1 -5 -2 -5h61l-15 -60h-61l-102 -390q-15 -54 -15 -78q0 -8 2 -22q9 1 16.5 4t15 7.5t12 7.5t11 10t9 9.5t9.5 11.5
t8 10l13 -34q-22 -38 -66 -64t-95 -26q-57 0 -78 39t-3 104q-66 -144 -174 -144zM204 71q21 0 56 39t62 91l63 224q-12 6 -28 6q-67 0 -122 -94t-55 -206q0 -60 24 -60z" />
    <glyph glyph-name="ntilde" unicode="&#xf1;" horiz-adv-x="576" 
d="M373 -10q-53 0 -71.5 34t2.5 104l62 197q10 33 10 48q0 17 -11 17q-21 0 -56 -38.5t-76 -105.5l-63 -246h-154l106 369q6 22 1 30t-29 14l-38 9v31l162 28q29 0 48 -17.5t9 -57.5l-28 -107q50 100 93.5 141t104.5 41q41 0 65.5 -21t24.5 -57q0 -28 -16 -81l-60 -192
q-10 -31 -10 -56q0 -12 3 -20q39 9 69 54l18 -28q-17 -36 -64 -63t-102 -27zM419 535q-39 0 -82 32l-6 5q-6 5 -7 5.5t-6.5 4.5t-7.5 4.5t-7 3t-8.5 3t-9 1.5t-10.5 1q-48 0 -62 -51h-24q11 49 41 83.5t78 34.5q11 0 21 -2t15.5 -3.5t14.5 -7t10.5 -7t10.5 -9.5l10 -8
q26 -21 57 -21q26 0 42 15.5t21 37.5h22q-26 -122 -113 -122z" />
    <glyph glyph-name="ograve" unicode="&#xf2;" 
d="M205 -10q-94 0 -137.5 37.5t-43.5 123.5q0 64 18 121.5t53 105t94 75t135 27.5q180 0 180 -155q0 -65 -16.5 -122.5t-50 -106.5t-93.5 -77.5t-139 -28.5zM231 39q44 0 79.5 90t35.5 202q0 56 -8.5 79.5t-39.5 23.5q-44 0 -80 -90t-36 -200q0 -53 9.5 -79t39.5 -26z
M306 544l-101 90q-27 23 -27 56q0 19 14.5 32t33.5 13q18 0 33.5 -12.5t21.5 -30.5l54 -148h-29z" />
    <glyph glyph-name="oacute" unicode="&#xf3;" 
d="M205 -10q-94 0 -137.5 37.5t-43.5 123.5q0 64 18 121.5t53 105t94 75t135 27.5q180 0 180 -155q0 -65 -16.5 -122.5t-50 -106.5t-93.5 -77.5t-139 -28.5zM231 39q44 0 79.5 90t35.5 202q0 56 -8.5 79.5t-39.5 23.5q-44 0 -80 -90t-36 -200q0 -53 9.5 -79t39.5 -26z
M309 544l54 148q6 17 21.5 30t33.5 13q19 0 33.5 -13t14.5 -32q0 -33 -27 -56l-101 -90h-29z" />
    <glyph glyph-name="ocircumflex" unicode="&#xf4;" 
d="M205 -10q-94 0 -137.5 37.5t-43.5 123.5q0 64 18 121.5t53 105t94 75t135 27.5q180 0 180 -155q0 -65 -16.5 -122.5t-50 -106.5t-93.5 -77.5t-139 -28.5zM231 39q44 0 79.5 90t35.5 202q0 56 -8.5 79.5t-39.5 23.5q-44 0 -80 -90t-36 -200q0 -53 9.5 -79t39.5 -26z
M155 544l189 175h56l81 -175h-42l-90 79h-2l-150 -79h-42z" />
    <glyph glyph-name="otilde" unicode="&#xf5;" 
d="M205 -10q-94 0 -137.5 37.5t-43.5 123.5q0 64 18 121.5t53 105t94 75t135 27.5q180 0 180 -155q0 -65 -16.5 -122.5t-50 -106.5t-93.5 -77.5t-139 -28.5zM231 39q44 0 79.5 90t35.5 202q0 56 -8.5 79.5t-39.5 23.5q-44 0 -80 -90t-36 -200q0 -53 9.5 -79t39.5 -26z
M395 535q-39 0 -82 32l-6 5q-6 5 -7 5.5t-6.5 4.5t-7.5 4.5t-7 3t-8.5 3t-9 1.5t-10.5 1q-48 0 -62 -51h-24q11 49 41 83.5t78 34.5q11 0 21 -2t15.5 -3.5t14.5 -7t10.5 -7t10.5 -9.5l10 -8q26 -21 57 -21q26 0 42 15.5t21 37.5h22q-26 -122 -113 -122z" />
    <glyph glyph-name="odieresis" unicode="&#xf6;" 
d="M205 -10q-94 0 -137.5 37.5t-43.5 123.5q0 64 18 121.5t53 105t94 75t135 27.5q180 0 180 -155q0 -65 -16.5 -122.5t-50 -106.5t-93.5 -77.5t-139 -28.5zM231 39q44 0 79.5 90t35.5 202q0 56 -8.5 79.5t-39.5 23.5q-44 0 -80 -90t-36 -200q0 -53 9.5 -79t39.5 -26z
M215 544q-22 0 -36 14.5t-14 35.5q0 28 20.5 49t48.5 21q22 0 36.5 -14t14.5 -37q0 -27 -21 -48t-49 -21zM418 543q-22 0 -36 14.5t-14 35.5q0 28 20.5 49t48.5 21q23 0 37 -14.5t14 -36.5q0 -27 -21 -48t-49 -21z" />
    <glyph glyph-name="divide" unicode="&#xf7;" 
d="M265 343q-31 0 -52.5 20t-21.5 49t21.5 48.5t52.5 19.5q32 0 53 -19.5t21 -48.5t-21 -49t-53 -20zM36 201v84h456v-84h-456zM265 1q-32 0 -53 20t-21 50q0 28 21.5 48t52.5 20q32 0 53 -20t21 -48q0 -30 -21 -50t-53 -20z" />
    <glyph glyph-name="oslash" unicode="&#xf8;" 
d="M47 -75l51 83q-74 33 -74 143q0 64 18 121.5t53 105t94 75t135 27.5q34 0 63 -6l34 55h47q-41 -67 -42 -67q78 -33 78 -137q0 -65 -16.5 -122.5t-50 -106.5t-93.5 -77.5t-139 -28.5q-37 0 -67 6l-44 -71h-47zM182 143q5 7 12.5 19.5t28.5 46.5t39 63.5t37 60t31 48.5
l11 18q-9 35 -43 35q-44 0 -80 -90t-36 -200v-1zM231 39q44 0 79.5 90t35.5 202v1l-158 -255q10 -38 43 -38z" />
    <glyph glyph-name="ugrave" unicode="&#xf9;" horiz-adv-x="584" 
d="M127 -10q-41 0 -65.5 21t-24.5 57q0 28 16 81l60 192q10 32 14 76q-47 -11 -76 -54l-18 28q17 36 64 63t102 27q52 0 70.5 -34.5t-1.5 -103.5l-62 -197q-10 -33 -10 -48q0 -17 11 -17q21 0 56.5 38.5t75.5 104.5l61 212l75 45h90q-25 -58 -34 -93l-60 -219
q-18 -67 -18 -93q0 -8 2 -22q9 1 16.5 4t15 7.5t12 7.5t11 10t9 9.5t9.5 11.5t8 10l13 -34q-22 -38 -66 -64t-95 -26q-55 0 -73.5 41t-1.5 100l11 39q-49 -98 -92.5 -139t-104.5 -41zM334 544l-101 90q-27 23 -27 56q0 19 14.5 32t33.5 13q18 0 33.5 -12.5t21.5 -30.5
l54 -148h-29z" />
    <glyph glyph-name="uacute" unicode="&#xfa;" horiz-adv-x="584" 
d="M127 -10q-41 0 -65.5 21t-24.5 57q0 28 16 81l60 192q10 32 14 76q-47 -11 -76 -54l-18 28q17 36 64 63t102 27q52 0 70.5 -34.5t-1.5 -103.5l-62 -197q-10 -33 -10 -48q0 -17 11 -17q21 0 56.5 38.5t75.5 104.5l61 212l75 45h90q-25 -58 -34 -93l-60 -219
q-18 -67 -18 -93q0 -8 2 -22q9 1 16.5 4t15 7.5t12 7.5t11 10t9 9.5t9.5 11.5t8 10l13 -34q-22 -38 -66 -64t-95 -26q-55 0 -73.5 41t-1.5 100l11 39q-49 -98 -92.5 -139t-104.5 -41zM337 544l54 148q6 17 21.5 30t33.5 13q19 0 33.5 -13t14.5 -32q0 -33 -27 -56l-101 -90
h-29z" />
    <glyph glyph-name="ucircumflex" unicode="&#xfb;" horiz-adv-x="584" 
d="M127 -10q-41 0 -65.5 21t-24.5 57q0 28 16 81l60 192q10 32 14 76q-47 -11 -76 -54l-18 28q17 36 64 63t102 27q52 0 70.5 -34.5t-1.5 -103.5l-62 -197q-10 -33 -10 -48q0 -17 11 -17q21 0 56.5 38.5t75.5 104.5l61 212l75 45h90q-25 -58 -34 -93l-60 -219
q-18 -67 -18 -93q0 -8 2 -22q9 1 16.5 4t15 7.5t12 7.5t11 10t9 9.5t9.5 11.5t8 10l13 -34q-22 -38 -66 -64t-95 -26q-55 0 -73.5 41t-1.5 100l11 39q-49 -98 -92.5 -139t-104.5 -41zM183 544l189 175h56l81 -175h-42l-90 79h-2l-150 -79h-42z" />
    <glyph glyph-name="udieresis" unicode="&#xfc;" horiz-adv-x="584" 
d="M127 -10q-41 0 -65.5 21t-24.5 57q0 28 16 81l60 192q10 32 14 76q-47 -11 -76 -54l-18 28q17 36 64 63t102 27q52 0 70.5 -34.5t-1.5 -103.5l-62 -197q-10 -33 -10 -48q0 -17 11 -17q21 0 56.5 38.5t75.5 104.5l61 212l75 45h90q-25 -58 -34 -93l-60 -219
q-18 -67 -18 -93q0 -8 2 -22q9 1 16.5 4t15 7.5t12 7.5t11 10t9 9.5t9.5 11.5t8 10l13 -34q-22 -38 -66 -64t-95 -26q-55 0 -73.5 41t-1.5 100l11 39q-49 -98 -92.5 -139t-104.5 -41zM253 544q-22 0 -36 14.5t-14 35.5q0 28 20.5 49t48.5 21q22 0 36.5 -14t14.5 -37
q0 -27 -21 -48t-49 -21zM456 543q-22 0 -36 14.5t-14 35.5q0 28 20.5 49t48.5 21q23 0 37 -14.5t14 -36.5q0 -27 -21 -48t-49 -21z" />
    <glyph glyph-name="yacute" unicode="&#xfd;" horiz-adv-x="496" 
d="M0 -245q-46 0 -71.5 19.5t-25.5 54.5q0 26 18.5 43t43.5 17q23 0 48 -15l60 -46q54 31 82 71q1 138 -20 301t-56 220q-4 0 -8 -2t-9 -5.5t-8.5 -7t-8.5 -9.5t-7 -9t-7 -9.5t-5 -7.5l-15 27q54 84 143 84q65 0 89 -34t34 -129q10 -103 12 -272q92 146 92 266
q-1 1 -13.5 22t-16 28.5t-9 24t-5.5 30.5q0 28 19 45.5t52 17.5q36 0 54 -21t18 -52q0 -70 -23 -141v0v0v0v0v0v0v0v0v0v0v0v0v0v0v0v0v0v0v0v0v0v0v0v0v0v0v0v0v0v0v0q-63 -204 -269 -410q-101 -101 -188 -101zM313 544l54 148q6 17 21.5 30t33.5 13q19 0 33.5 -13
t14.5 -32q0 -33 -27 -56l-101 -90h-29z" />
    <glyph glyph-name="thorn" unicode="&#xfe;" horiz-adv-x="568" 
d="M-100 -238v36l60 17q16 4 22 29l215 752q6 24 1 31t-29 12l-48 9v31l151 28h102q-5 -11 -19 -48t-18 -54l-72 -276q32 68 79.5 110t102.5 42q51 0 75 -31t24 -97q0 -159 -83 -261.5t-226 -102.5q-35 0 -58 15l-42 -160q-4 -17 0.5 -24t22.5 -10l64 -12v-36h-324zM219 39
q67 0 122 94t55 206q0 60 -24 60q-22 0 -62 -44.5t-62 -90.5l-58 -218q14 -7 29 -7z" />
    <glyph glyph-name="ydieresis" unicode="&#xff;" horiz-adv-x="496" 
d="M0 -245q-46 0 -71.5 19.5t-25.5 54.5q0 26 18.5 43t43.5 17q23 0 48 -15l60 -46q54 31 82 71q1 138 -20 301t-56 220q-4 0 -8 -2t-9 -5.5t-8.5 -7t-8.5 -9.5t-7 -9t-7 -9.5t-5 -7.5l-15 27q54 84 143 84q65 0 89 -34t34 -129q10 -103 12 -272q92 146 92 266
q-1 1 -13.5 22t-16 28.5t-9 24t-5.5 30.5q0 28 19 45.5t52 17.5q36 0 54 -21t18 -52q0 -70 -23 -141v0v0v0v0v0v0v0v0v0v0v0v0v0v0v0v0v0v0v0v0v0v0v0v0v0v0v0v0v0v0v0q-63 -204 -269 -410q-101 -101 -188 -101zM219 544q-22 0 -36 14.5t-14 35.5q0 28 20.5 49t48.5 21
q22 0 36.5 -14t14.5 -37q0 -27 -21 -48t-49 -21zM422 543q-22 0 -36 14.5t-14 35.5q0 28 20.5 49t48.5 21q23 0 37 -14.5t14 -36.5q0 -27 -21 -48t-49 -21z" />
    <glyph glyph-name="dotlessi" unicode="&#x131;" horiz-adv-x="317" 
d="M132 -10q-56 0 -77 42t-4 99l72 239q6 24 1 31t-29 12l-48 10v30l151 28h108l-32 -96l-63 -231q-14 -50 -14 -78q0 -8 2 -22q9 1 16.5 4t15 7.5t12 7.5t11 10t9 9.5t9.5 11.5t8 10l13 -34q-22 -38 -66 -64t-95 -26z" />
    <glyph glyph-name="Lslash" unicode="&#x141;" horiz-adv-x="530" 
d="M-45 0v36l54 12q18 4 24 10.5t10 21.5l41 163l-83 -40l16 62l83 40l59 236q4 15 0.5 21.5t-18.5 10.5l-40 11v36h311v-36l-54 -11q-18 -4 -25 -8.5t-9 -14.5l-39 -156l102 49l-16 -63l-102 -49l-71 -282q23 -5 59 -5h13q62 0 106 29q30 28 59 69t44 72h33l-82 -214h-475z
" />
    <glyph glyph-name="lslash" unicode="&#x142;" horiz-adv-x="320" 
d="M125 -10q-55 0 -77 41.5t-5 99.5q2 8 5.5 21t11.5 40.5t13 45.5l5 18l-74 -35l16 64q1 1 3.5 2t8.5 4l12 6t14 6.5t14.5 6.5t12 6t8.5 4l3 2l78 274q6 24 1 31t-29 12l-48 9v31l151 28h111q-5 -11 -19 -48t-18 -54l-53 -200l93 44l-17 -65q-92 -44 -93 -44l-53 -204
q-10 -38 -10 -60q0 -8 2 -22q9 1 16.5 4t15 7.5t12 7.5t11 10t9 9.5t9.5 11.5t8 10l13 -34q-22 -38 -66 -64t-95 -26z" />
    <glyph glyph-name="OE" unicode="&#x152;" horiz-adv-x="997" 
d="M280 -13q-121 0 -184.5 61.5t-63.5 186.5q0 172 106 286.5t291 114.5q89 0 150 -45l8 29h325q36 0 72 8l-32 -195h-27q0 56 -27 112q-22 30 -90 30h-19q-27 0 -58 -9l-56 -220h65q23 13 49 41.5t35 51.5h23l-58 -239h-23q0 53 -47 98h-56l-61 -244q32 -10 68 -10h18
q67 0 112 28q22 20 50.5 55.5t45.5 66.5h27l-69 -194h-423l7 29q-64 -42 -158 -42zM294 24q69 0 118.5 61t70.5 142.5t21 168.5q0 107 -19 155.5t-72 48.5t-94 -34t-64.5 -90t-35 -118t-11.5 -127q0 -105 19 -156t67 -51z" />
    <glyph glyph-name="oe" unicode="&#x153;" horiz-adv-x="786" 
d="M205 -10q-94 0 -137.5 37.5t-43.5 123.5q0 64 18 121.5t53 105t94 75t135 27.5q101 0 146 -48q74 49 169 49q135 0 135 -86q0 -136 -219 -164l-57 -7q-7 -35 -7 -76q0 -76 43 -90q61 0 100 21t72 72l21 -22q-33 -60 -96.5 -99.5t-140.5 -39.5q-88 0 -126 39
q-68 -39 -159 -39zM505 255l32 12q43 16 71 53t28 80q0 40 -24 40q-38 0 -65 -55.5t-42 -129.5zM231 39q44 0 79.5 90t35.5 202q0 56 -8.5 79.5t-39.5 23.5q-44 0 -80 -90t-36 -200q0 -53 9.5 -79t39.5 -26z" />
    <glyph glyph-name="Scaron" unicode="&#x160;" horiz-adv-x="533" 
d="M-5 -11q5 16 53 228h30q-6 -32 -6 -85q0 -45 31 -77.5t85 -32.5q53 0 85 33.5t32 79.5q0 42 -13.5 63t-52.5 52l-61 49q-44 35 -68.5 69t-24.5 83q0 91 75 139t196 48q88 0 134 -39l27 34h21l-43 -194h-27q1 11 1 34q0 52 -31 92.5t-77 40.5q-60 0 -86 -29.5t-26 -73.5
q0 -46 55 -87l85 -64q41 -31 65 -68t24 -99q0 -89 -78.5 -142.5t-204.5 -53.5q-100 0 -148 36l-29 -36h-23zM315 684l-81 175h42l90 -80h2l150 80h42l-189 -175h-56z" />
    <glyph glyph-name="scaron" unicode="&#x161;" horiz-adv-x="456" 
d="M179 -10q-72 0 -117.5 31.5t-45.5 81.5q0 27 18 45.5t40 18.5q26 0 43.5 -14t17.5 -45q0 -29 -23 -54q6 -10 28 -17.5t33 -7.5q31 0 54.5 18t23.5 50q0 8 -1.5 15.5t-4.5 14t-5 11t-7 9.5l-7 7l-6.5 6.5t-5.5 4.5l-63 59q-30 28 -45 53t-15 63q0 68 54 104.5t146 36.5
q62 0 106 -21t44 -51q0 -59 -53 -59q-59 0 -71 88q-11 3 -29 3q-24 0 -41 -16.5t-17 -42.5q0 -19 10 -32.5t33 -33.5l44 -39l23 -19q24 -20 31.5 -29t18 -31.5t10.5 -48.5q0 -82 -62.5 -120.5t-158.5 -38.5zM277 544l-81 175h42l90 -80h2l150 80h42l-189 -175h-56z" />
    <glyph glyph-name="Ydieresis" unicode="&#x178;" horiz-adv-x="616" 
d="M69 0v36l74 13q18 4 24 9.5t10 21.5l45 181l-106 289q-7 18 -28 26l-24 8v36h311v-36l-54 -10q-36 -7 -28 -28l79 -214l168 208q9 12 4.5 22t-18.5 13l-40 9v36h199v-36l-36 -9q-23 -6 -39 -25l-218 -263l-54 -211q-3 -12 1.5 -17t20.5 -9l59 -14v-36h-350zM299 684
q-22 0 -36 14.5t-14 35.5q0 28 20.5 49t48.5 21q22 0 36.5 -14t14.5 -37q0 -27 -21 -48t-49 -21zM502 683q-22 0 -36 14.5t-14 35.5q0 28 20.5 49t48.5 21q23 0 37 -14.5t14 -36.5q0 -27 -21 -48t-49 -21z" />
    <glyph glyph-name="Zcaron" unicode="&#x17d;" horiz-adv-x="551" 
d="M-33 0v28l433 552h-69q-104 0 -139 -12q-41 -44 -78 -122h-28l46 181q31 -7 74 -7h379v-27l-431 -551h95q96 0 135 16q57 53 97 127h28l-67 -185h-475zM354 684l-81 175h42l90 -80h2l150 80h42l-189 -175h-56z" />
    <glyph glyph-name="zcaron" unicode="&#x17e;" horiz-adv-x="440" 
d="M272 -32q-46 0 -100.5 27.5t-108.5 29.5l-38 -43l-37 28l317 360q-23 -3 -46 -3q-59 0 -94 69l-8 -53q-8 -51 -63 -51q-24 0 -41.5 15.5t-17.5 41.5q0 33 34 62.5t85 29.5q104 0 222 -30l33 37l34 -31l-300 -341q22 9 54 9q25 0 48 -13t37.5 -28t33.5 -28t36 -13
q10 4 14 7t11 14t5.5 28.5t-2.5 51.5l44 -18q0 -73 -43 -115.5t-109 -42.5zM269 544l-81 175h42l90 -80h2l150 80h42l-189 -175h-56z" />
    <glyph glyph-name="florin" unicode="&#x192;" 
d="M50 -238q-38 0 -69 17.5t-31 51.5q0 31 18.5 46t46.5 15q31 0 46 -25t-1 -74q60 0 79 45t32 179l29 285h-113l33 64h86l11 105q7 65 34 113.5t65.5 74t78 37.5t80.5 12q39 0 73 -18t34 -53q0 -30 -18 -45t-45 -15q-26 0 -44.5 27t-2.5 72q-45 0 -68.5 -34t-31.5 -109
l-17 -167h133v-64h-139l-26 -265q-14 -136 -89 -205.5t-184 -69.5z" />
    <glyph glyph-name="circumflex" unicode="&#x2c6;" 
d="M155 544l189 175h56l81 -175h-42l-90 79h-2l-150 -79h-42z" />
    <glyph glyph-name="caron" unicode="&#x2c7;" 
d="M313 544l-81 175h42l90 -80h2l150 80h42l-189 -175h-56z" />
    <glyph glyph-name="breve" unicode="&#x2d8;" 
d="M322 544q-76 0 -104.5 45.5t-14.5 100.5h34q-9 -35 16 -51t88 -16q64 0 96.5 16t41.5 51h34q-14 -56 -64.5 -101t-126.5 -45z" />
    <glyph glyph-name="dotaccent" unicode="&#x2d9;" 
d="M334 544q-27 0 -43.5 17.5t-16.5 43.5q0 32 24 56.5t55 24.5q27 0 44 -17.5t17 -44.5q0 -31 -24.5 -55.5t-55.5 -24.5z" />
    <glyph glyph-name="ring" unicode="&#x2da;" 
d="M337 544q-37 0 -61 17t-24 53q0 49 37.5 78.5t82.5 29.5q39 0 62 -17.5t23 -52.5q0 -51 -36.5 -79.5t-83.5 -28.5zM341 564q31 0 46.5 24.5t15.5 60.5q0 52 -35 52q-30 0 -46 -23.5t-16 -59.5q0 -54 35 -54z" />
    <glyph glyph-name="ogonek" unicode="&#x2db;" horiz-adv-x="208" 
d="M128 -252q-128 0 -128 76q0 31 18 57.5t46 43.5t49.5 27t42.5 16h28q-96 -58 -96 -140q0 -32 17.5 -44t38.5 -12q24 0 64 24l-12 -36q-20 -12 -68 -12z" />
    <glyph glyph-name="tilde" unicode="&#x2dc;" 
d="M395 535q-39 0 -82 32l-6 5q-6 5 -7 5.5t-6.5 4.5t-7.5 4.5t-7 3t-8.5 3t-9 1.5t-10.5 1q-48 0 -62 -51h-24q11 49 41 83.5t78 34.5q11 0 21 -2t15.5 -3.5t14.5 -7t10.5 -7t10.5 -9.5l10 -8q26 -21 57 -21q26 0 42 15.5t21 37.5h22q-26 -122 -113 -122z" />
    <glyph glyph-name="hungarumlaut" unicode="&#x2dd;" 
d="M399 544l116 148q1 1 5.5 7l6 8t6 7t7 7t6.5 5.5t7.5 5t8 2.5t9.5 1q20 0 34.5 -13t14.5 -33t-33 -43l-160 -102h-28zM228 544l116 148q2 2 6.5 8t6.5 9t6.5 8t8 7.5t8 5.5t9.5 4t10 1q20 0 34.5 -13t14.5 -33t-33 -43l-159 -102h-28z" />
    <glyph glyph-name="Delta" unicode="&#x394;" horiz-adv-x="612" 
d="M20 0l297 688l275 -688h-572zM80 35h371l-179 452z" />
    <glyph glyph-name="Delta" unicode="&#x2206;" horiz-adv-x="612" 
d="M20 0l297 688l275 -688h-572zM80 35h371l-179 452z" />
    <glyph glyph-name="Omega" unicode="&#x3a9;" horiz-adv-x="722" 
d="M49 0l-31 135h32q11 -33 25 -46.5t47 -13.5h150v47q-99 8 -166 77.5t-67 169.5q0 84 47.5 146.5t119 91.5t154.5 29q84 0 156 -29t119.5 -91.5t47.5 -148.5q0 -100 -67.5 -168.5t-166.5 -76.5v-47h141q33 0 46.5 13t26.5 47h31l-31 -135h-246v148q22 4 39 14.5t28 22
t19 32t11.5 34.5t5.5 39.5t2 36v35.5v14q0 97 -43.5 159t-121.5 62t-117.5 -62t-39.5 -161v-10q0 -26 0.5 -41t3 -43t9.5 -46t18 -38t30 -32t45 -16v-148h-257z" />
    <glyph glyph-name="Omega" unicode="&#x2126;" horiz-adv-x="722" 
d="M49 0l-31 135h32q11 -33 25 -46.5t47 -13.5h150v47q-99 8 -166 77.5t-67 169.5q0 84 47.5 146.5t119 91.5t154.5 29q84 0 156 -29t119.5 -91.5t47.5 -148.5q0 -100 -67.5 -168.5t-166.5 -76.5v-47h141q33 0 46.5 13t26.5 47h31l-31 -135h-246v148q22 4 39 14.5t28 22
t19 32t11.5 34.5t5.5 39.5t2 36v35.5v14q0 97 -43.5 159t-121.5 62t-117.5 -62t-39.5 -161v-10q0 -26 0.5 -41t3 -43t9.5 -46t18 -38t30 -32t45 -16v-148h-257z" />
    <glyph glyph-name="pi" unicode="&#x3c0;" horiz-adv-x="604" 
d="M32 0v32l23 10q5 2 11.5 4t8.5 3t4 3.5t2 6.5v335q0 3 -0.5 5t-1 3t-2.5 2l-4 2t-6 2.5t-8 2.5l-24 10v35h552v-35l-24 -10q-4 -1 -9.5 -3t-7 -2.5t-3.5 -2t-2.5 -3.5t-0.5 -6v-335q0 -3 0.5 -5t1 -3t2.5 -2l4 -2t6 -2.5t8 -2.5l27 -10v-32h-253v32l29 10q4 1 8.5 2.5
t6.5 2.5l4 2t2.5 2t1 3t0.5 5v346h-151v-346q0 -8 2.5 -10t19.5 -7l28 -10v-32h-255z" />
    <glyph glyph-name="endash" unicode="&#x2013;" horiz-adv-x="488" 
d="M28 255v68h431v-68h-431z" />
    <glyph glyph-name="emdash" unicode="&#x2014;" horiz-adv-x="977" 
d="M28 255v68h922v-68h-922z" />
    <glyph glyph-name="quoteleft" unicode="&#x2018;" horiz-adv-x="265" 
d="M144 310q-71 0 -71 80q0 45 18.5 88.5t46 73t49 48t36.5 26.5h65q-35 -19 -78 -66t-43 -94q28 -4 42 -17.5t14 -48.5t-24.5 -62.5t-54.5 -27.5z" />
    <glyph glyph-name="quoteright" unicode="&#x2019;" horiz-adv-x="265" 
d="M61 313q35 19 78 66t43 94q-28 4 -42 17.5t-14 48.5t24.5 62.5t54.5 27.5q71 0 71 -80q0 -45 -18.5 -88.5t-46 -73t-49 -48t-36.5 -26.5h-65z" />
    <glyph glyph-name="quotesinglbase" unicode="&#x201a;" horiz-adv-x="265" 
d="M-7 -172q33 18 72 65.5t39 94.5q-28 4 -42 17.5t-14 48.5t24.5 62.5t54.5 27.5q71 0 71 -80q0 -45 -17 -88.5t-42 -73t-46 -48t-35 -26.5h-65z" />
    <glyph glyph-name="quotedblleft" unicode="&#x201c;" horiz-adv-x="470" 
d="M353 310q-71 0 -71 80q0 45 18.5 88.5t46 73t49 48t36.5 26.5h65q-35 -19 -78 -66t-43 -94q28 -4 42 -17.5t14 -48.5t-24.5 -62.5t-54.5 -27.5zM148 310q-71 0 -71 80q0 45 18.5 88.5t46 73t49 48t36.5 26.5h65q-35 -19 -78 -66t-43 -94q28 -4 42 -17.5t14 -48.5
t-24.5 -62.5t-54.5 -27.5z" />
    <glyph glyph-name="quotedblright" unicode="&#x201d;" horiz-adv-x="470" 
d="M266 313q35 19 78 66t43 94q-28 4 -42 17.5t-14 48.5t24.5 62.5t54.5 27.5q71 0 71 -80q0 -45 -18.5 -88.5t-46 -73t-49 -48t-36.5 -26.5h-65zM61 313q35 19 78 66t43 94q-28 4 -42 17.5t-14 48.5t24.5 62.5t54.5 27.5q71 0 71 -80q0 -45 -18.5 -88.5t-46 -73t-49 -48
t-36.5 -26.5h-65z" />
    <glyph glyph-name="quotedblbase" unicode="&#x201e;" horiz-adv-x="470" 
d="M188 -172q33 18 72 65.5t39 94.5q-28 4 -42 17.5t-14 48.5t24.5 62.5t54.5 27.5q71 0 71 -80q0 -45 -17 -88.5t-42 -73t-46 -48t-35 -26.5h-65zM-17 -172q33 18 72 65.5t39 94.5q-28 4 -42 17.5t-14 48.5t24.5 62.5t54.5 27.5q71 0 71 -80q0 -45 -17 -88.5t-42 -73
t-46 -48t-35 -26.5h-65z" />
    <glyph glyph-name="dagger" unicode="&#x2020;" horiz-adv-x="448" 
d="M10 -232l175 704h-150l23 91h150l46 185h98l-46 -185h150l-23 -91h-150l-175 -704h-98z" />
    <glyph glyph-name="daggerdbl" unicode="&#x2021;" horiz-adv-x="448" 
d="M38 -232l83 332h-150l23 91h150l70 281h-150l23 91h150l46 185h98l-46 -185h150l-23 -91h-150l-70 -281h150l-23 -91h-150l-83 -332h-98z" />
    <glyph glyph-name="bullet" unicode="&#x2022;" horiz-adv-x="393" 
d="M197 200q-49 0 -83 34t-34 82q0 49 34 83t83 34q48 0 82 -34t34 -83q0 -48 -34 -82t-82 -34z" />
    <glyph glyph-name="ellipsis" unicode="&#x2026;" horiz-adv-x="825" 
d="M630 -14q-28 0 -43 17t-15 44q0 38 24.5 66.5t62.5 28.5q28 0 42.5 -17.5t14.5 -45.5q0 -37 -24.5 -65t-61.5 -28zM379 -14q-28 0 -43 17t-15 44q0 38 24.5 66.5t62.5 28.5q28 0 42.5 -17.5t14.5 -45.5q0 -37 -24.5 -65t-61.5 -28zM128 -14q-28 0 -43 17t-15 44
q0 38 24.5 66.5t62.5 28.5q28 0 42.5 -17.5t14.5 -45.5q0 -37 -24.5 -65t-61.5 -28z" />
    <glyph glyph-name="perthousand" unicode="&#x2030;" horiz-adv-x="1080" 
d="M168 307q-58 0 -90.5 32.5t-32.5 91.5q0 79 63 139t147 60q59 0 91.5 -35t32.5 -86q0 -83 -63 -142.5t-148 -59.5zM110 -17l-44 29l558 623l39 -33zM824 -9q-58 0 -90.5 32.5t-32.5 91.5q0 79 63 139t147 60q59 0 91.5 -35t32.5 -86q0 -83 -63 -142.5t-148 -59.5zM465 -9
q-58 0 -90.5 32.5t-32.5 91.5q0 79 63 139t147 60q59 0 91.5 -35t32.5 -86q0 -83 -63 -142.5t-148 -59.5zM181 352q53 0 85.5 46.5t32.5 106.5q0 78 -57 78q-51 0 -85.5 -46t-34.5 -105q0 -80 59 -80zM837 36q53 0 85.5 46.5t32.5 106.5q0 78 -57 78q-51 0 -85.5 -46
t-34.5 -105q0 -80 59 -80zM478 36q53 0 85.5 46.5t32.5 106.5q0 78 -57 78q-51 0 -85.5 -46t-34.5 -105q0 -80 59 -80z" />
    <glyph glyph-name="guilsinglleft" unicode="&#x2039;" horiz-adv-x="215" 
d="M132 102l-128 149l12 46l202 149l-11 -42l-102 -129v-2l38 -129z" />
    <glyph glyph-name="guilsinglright" unicode="&#x203a;" horiz-adv-x="215" 
d="M-3 102l11 42l102 129v2l-38 129l11 42l128 -149l-12 -46z" />
    <glyph glyph-name="fraction" unicode="&#x2044;" horiz-adv-x="10" 
d="M-417 -146l765 724h67l-765 -724h-67z" />
    <glyph glyph-name="fraction" unicode="&#x2215;" horiz-adv-x="10" 
d="M-417 -146l765 724h67l-765 -724h-67z" />
    <glyph glyph-name="Euro" unicode="&#x20ac;" 
d="M276 -11q-230 0 -230 227v18h-57l22 46h40q7 45 23 89h-58l21 47h58q52 99 145 159.5t198 60.5q76 0 99.5 -46.5t1.5 -124.5h-36q5 30 7.5 60t-17 52.5t-58.5 22.5q-51 0 -95 -51t-77 -133h173l-24 -47h-166q-15 -44 -24 -89h159l-24 -46h-143q-4 -25 -4 -52
q0 -75 21.5 -115t75.5 -40q86 0 138 125h38q-5 -19 -16.5 -41t-35 -52.5t-64 -50t-91.5 -19.5z" />
    <glyph glyph-name="trademark" unicode="&#x2122;" horiz-adv-x="1064" 
d="M156 260v27l32 8q13 4 15.5 5.5t2.5 7.5v286h-7q-53 0 -79 -14q-16 -21 -27 -68h-20l5 116q21 -8 58 -8h250q36 0 52 7l4 -115h-22q-11 45 -26 67q-27 15 -72 15h-13v-286q0 -6 3 -8.5t14 -4.5l33 -8v-27h-203zM483 260v30l38 5q8 1 10 1.5t5 3t3 6.5q4 26 4 58v205
q0 7 -3.5 9t-13.5 5l-30 8v29h144l120 -228l136 228h123v-29l-31 -8q-10 -3 -10 -9v-268q0 -5 2 -6.5t8 -3.5q4 -1 7 -2l27 -7v-27h-192v27l27 7l6 2l4.5 1.5t3 1.5t2 1.5t1 2t0.5 3.5v199l-149 -244h-4l-138 266v-163q0 -17 3 -56q1 -13 16 -14l39 -4v-30h-158z" />
    <glyph glyph-name="partialdiff" unicode="&#x2202;" horiz-adv-x="563" 
d="M202 -9q-178 0 -178 171q0 123 79 221t195 98q76 0 100 -52q-2 108 -51 170t-133 62q-52 0 -90 -21l-3 45q15 8 53 18t84 10q127 0 204 -81t77 -211q0 -73 -23 -148t-64.5 -138.5t-107 -103.5t-142.5 -40zM211 30q35 0 67 38.5t54 97t36.5 114t21.5 103.5q-7 10 -12 15
t-19 11t-34 6q-53 0 -93 -52.5t-57 -115t-17 -114.5q0 -56 11 -79.5t42 -23.5z" />
    <glyph glyph-name="product" unicode="&#x220f;" horiz-adv-x="783" 
d="M27 0v36l42 12q24 7 26 11q1 3 1 9v485q0 10 -3.5 12t-22.5 8l-43 11v36h729v-36l-41 -12q-4 -1 -9 -2.5t-7 -2t-4.5 -1.5t-3.5 -2t-2 -2.5t-1 -3.5v-5v-485q0 -9 3.5 -12t18.5 -7q2 -1 4 -1l42 -12v-36h-302v36l43 12q24 7 26 11q1 3 1 9v498h-264v-498q0 -9 3.5 -12
t18.5 -7q2 -1 4 -1l43 -12v-36h-302z" />
    <glyph glyph-name="summation" unicode="&#x2211;" horiz-adv-x="579" 
d="M11 0v15l234 252l-194 336v17h389q51 0 87 10l11 -187h-27q-20 82 -54 126q-28 10 -135 10h-70l136 -240l-223 -233h142q103 0 139 15q3 3 12.5 14t14.5 16t13.5 16.5t14 19.5t11 19.5t9.5 22.5h27l-36 -229h-501z" />
    <glyph glyph-name="minus" unicode="&#x2212;" 
d="M36 196v89h456v-89h-456z" />
    <glyph glyph-name="radical" unicode="&#x221a;" horiz-adv-x="549" 
d="M240 -11l-176 402l-61 -26l-14 29l168 71l139 -320l265 603h38l-330 -759h-29z" />
    <glyph glyph-name="infinity" unicode="&#x221e;" horiz-adv-x="700" 
d="M507 127q-110 0 -152 111q-59 -104 -169 -104q-83 0 -126 56.5t-43 131.5q0 93 50 137.5t120 44.5q93 0 146 -115q23 52 69 81.5t105 29.5q64 0 106.5 -29.5t58 -70t15.5 -90.5q0 -86 -49 -134.5t-131 -48.5zM181 219q29 0 51.5 10t36.5 28t24.5 39t20.5 45q3 8 4 11
q-48 54 -131 54q-57 0 -94.5 -22.5t-37.5 -63.5q0 -37 36 -69t90 -32zM508 211q54 0 97 31t43 68q0 40 -36 68.5t-94 28.5q-59 0 -89.5 -36.5t-54.5 -102.5q24 -30 53 -43.5t81 -13.5z" />
    <glyph glyph-name="integral" unicode="&#x222b;" horiz-adv-x="500" 
d="M78 -238q-37 0 -64.5 16.5t-27.5 50.5q0 65 57 65q33 0 47.5 -26t-2.5 -75q63 0 76.5 45.5t13.5 192.5v6v404q0 74 22.5 129t59 83.5t75.5 41.5t80 13q39 0 69 -16.5t30 -51.5q0 -33 -16 -49t-39 -16q-31 0 -47.5 27t0.5 74q-45 0 -63.5 -35.5t-18.5 -127.5v-446
q0 -305 -252 -305z" />
    <glyph glyph-name="approxequal" unicode="&#x2248;" horiz-adv-x="609" 
d="M408 436q-43 0 -100 30l-16 9q-17 9 -24 12t-20.5 7.5t-23.5 4.5q-28 0 -49 -16.5t-26 -37.5h-25q8 38 44.5 78t83.5 40q42 0 102 -35q45 -26 78 -26q27 0 49.5 17.5t26.5 38.5h23q-11 -55 -44.5 -88.5t-78.5 -33.5zM367 240q-44 0 -101 30l-16 9q-17 9 -24 12t-20.5 7.5
t-23.5 4.5q-28 0 -49 -16.5t-25 -37.5h-25q7 38 44 78t84 40q41 0 101 -35q45 -26 78 -26q27 0 49.5 17.5t27.5 38.5h23q-12 -56 -45 -89t-78 -33z" />
    <glyph glyph-name="notequal" unicode="&#x2260;" 
d="M95 -40l-35 24l80 117h-105v83h163l79 114h-242v83h301l93 135l35 -26l-75 -109h102v-83h-161l-79 -114h240v-83h-298z" />
    <glyph glyph-name="lessequal" unicode="&#x2264;" 
d="M466 28l-453 213l454 214l31 -71l-260 -123l-59 -22l58 -21l260 -123zM35 -145v84h455v-84h-455z" />
    <glyph glyph-name="greaterequal" unicode="&#x2265;" 
d="M53 28l-31 67l259 123l59 21l-59 22l-260 123l31 71l454 -214zM35 -145v84h455v-84h-455z" />
    <glyph glyph-name="lozenge" unicode="&#x25ca;" horiz-adv-x="494" 
d="M248 -6l-223 327l223 318l221 -318zM248 103l138 218l-138 208l-139 -208z" />
    <glyph glyph-name="eth.sc" horiz-adv-x="648" 
d="M-22 0v37l41 9q16 3 21.5 6t7.5 13l39 156h-71l15 60h71l38 151q4 5 0.5 9t-5 4.5t-10.5 2.5q-4 1 -7 2l-34 9v37h286q115 0 181.5 -51.5t66.5 -138.5q0 -129 -91.5 -217.5t-239.5 -88.5h-309zM242 40h16q53 0 96 27.5t68 70t38.5 88.5t13.5 88q0 142 -119 142h-12
q-37 0 -56 -8l-42 -167h77l-15 -60h-77l-44 -173q22 -8 56 -8z" />
    <glyph glyph-name="lslash.sc" horiz-adv-x="517" 
d="M-22 0v37l41 9q16 3 21.5 6t7.5 13l30 119l-84 -40l16 62l83 40l47 186q1 3 1 5t-0.5 3.5t-1.5 2.5t-3.5 2t-4 1.5t-6 1.5t-7.5 2l-34 9v37h288v-37l-39 -8q-3 -1 -12 -2.5t-13.5 -2.5t-11 -3t-9.5 -4.5t-4 -6.5l-28 -108l103 49l-16 -63l-102 -49l-55 -215q27 -6 60 -6
h14q68 0 112 26q25 22 75 124h41l-55 -190h-454z" />
    <glyph glyph-name="scaron.sc" horiz-adv-x="474" 
d="M-3 -10l41 184h37q-4 -65 7 -112q33 -37 99 -37q45 0 69 29.5t24 69.5q0 30 -14.5 45.5t-48.5 32.5l-45 23q-93 47 -93 137q0 71 68 108.5t162 37.5q85 0 126 -22l25 18h24l-31 -165h-33q0 46 -17 99q-30 37 -93 37q-42 0 -63.5 -21t-21.5 -60q0 -29 11.5 -45t39.5 -30
l43 -22q55 -28 81 -61.5t26 -83.5q0 -68 -61 -115t-167 -47q-96 0 -144 24l-25 -24h-26zM289 573l-81 175h42l90 -80h2l150 80h42l-189 -175h-56z" />
    <glyph glyph-name="yacute.sc" horiz-adv-x="536" 
d="M77 0v37l41 8q45 9 47 20l36 142l-99 226q-7 14 -15 18l-31 8v37h245v-37l-33 -5q-25 -4 -16 -21l76 -165l126 163q15 18 -4 21l-43 6v38h180v-36l-33 -6q-17 -3 -32 -21l-174 -211l-40 -157q-1 -4 1.5 -7t8.5 -5l10.5 -3.5t13.5 -3.5t11 -2l33 -7v-37h-309zM346 573
l54 148q6 17 21.5 30t33.5 13q19 0 33.5 -13t14.5 -32q0 -33 -27 -56l-101 -90h-29z" />
    <glyph glyph-name="thorn.sc" horiz-adv-x="508" 
d="M-22 0v37l41 9q16 3 21.5 6t7.5 13l92 367q4 5 0.5 9t-5 4.5t-10.5 2.5q-4 1 -7 2l-34 9v37h268v-37l-39 -9q-3 -1 -8.5 -2t-7.5 -1.5t-5 -2t-4 -3t-2.5 -3.5t-2.5 -6l-7 -27h69q181 0 181 -124q0 -74 -68 -127t-173 -53q-39 0 -83 7l-11 -43q-2 -9 3.5 -13t18.5 -6
l59 -9v-37h-294zM210 140h10q158 0 158 141q0 84 -64 84h-8q-25 0 -41 -7h-1z" />
    <glyph glyph-name="zcaron.sc" horiz-adv-x="507" 
d="M-8 0v17l348 434h-58q-74 0 -100 -8q-38 -36 -74 -114h-36l42 175q34 -8 77 -8h324v-16l-344 -434h69q62 0 104 12q20 14 53.5 53t49.5 64h35l-67 -175h-423zM305 573l-81 175h42l90 -80h2l150 80h42l-189 -175h-56z" />
    <glyph glyph-name="onesuperior.sc" horiz-adv-x="418" 
d="M80 271l8 30l83 9q12 2 15 12l91 297h-4l-104 -26l6 36q161 58 209 88h43l-117 -395q-3 -10 9 -12l65 -9l-8 -30h-296z" />
    <glyph glyph-name="threesuperior.sc" horiz-adv-x="418" 
d="M214 266q-27 0 -57.5 6t-57.5 23.5t-27 42.5q0 19 10.5 31t28.5 12q41 0 53 -35l13 -38q17 -11 44 -11q54 0 80.5 31.5t26.5 79.5q0 37 -20.5 54.5t-64.5 17.5q-19 0 -46 -8l12 44q64 6 105 35.5t41 75.5q0 24 -16 37.5t-42 13.5q-81 0 -99 -77h-35q11 60 55 91.5
t113 31.5q61 0 97.5 -24t36.5 -63q0 -41 -36.5 -73t-86.5 -43q44 -9 75 -37.5t31 -63.5q0 -50 -35.5 -86t-87.5 -52t-111 -16z" />
    <glyph glyph-name="twosuperior.sc" horiz-adv-x="418" 
d="M60 271l6 24l150 116q53 40 99 89q44 47 44 101q0 64 -66 64q-52 0 -76 -27.5t-35 -80.5h-34q6 74 52 117t129 43q64 0 106.5 -30t42.5 -75q0 -67 -65 -124q-56 -47 -136 -93l-87 -50h154q13 0 31 13t28 23.5t30 33.5h33q-12 -19 -37.5 -73.5t-28.5 -70.5h-340z" />
    <glyph glyph-name="minus.sc" 
d="M36 196v89h456v-89h-456z" />
    <glyph glyph-name="multiply.sc" 
d="M84 5l-57 55l172 183l-172 184l58 56l170 -181l170 180l58 -57l-172 -182l172 -183l-57 -55l-171 181z" />
    <glyph glyph-name="exclam.sc" horiz-adv-x="296" 
d="M118 177q13 66 21 307q31 24 80 24q25 0 43.5 -6t24.5 -12l6 -6q-117 -244 -138 -307h-37zM104 -10q-22 0 -36 12t-14 33q0 34 23.5 56t55.5 22q49 0 49 -46q0 -31 -21 -54t-57 -23z" />
    <glyph glyph-name="quotedbl.sc" horiz-adv-x="394" 
d="M286 445q5 26 4 76t-8 85q36 24 80 24q17 0 32 -6t22 -12l7 -6q-25 -27 -56 -78.5t-44 -82.5h-37zM122 445q5 26 4 76t-8 85q36 24 80 24q17 0 32 -6t22 -12l7 -6q-25 -27 -56 -78.5t-44 -82.5h-37z" />
    <glyph glyph-name="numbersign.sc" horiz-adv-x="745" 
d="M174 -122l-83 14l74 219h-122l20 61h122l53 156h-139l21 61h139l73 220l81 -15l-67 -205h116l72 219l81 -15l-68 -204h132l-21 -61h-132l-52 -156h156l-20 -61h-156l-79 -233l-81 14l74 219h-116zM272 172h116l52 156h-114z" />
    <glyph glyph-name="dollar.sc" 
d="M150 -63l17 56q-63 6 -91 21l-25 -24h-26l41 184h37q-4 -65 7 -112q24 -27 68 -35l54 178l-38 20q-103 55 -103 137q0 69 70 106.5t163 39.5l18 58h48l-18 -60q56 -5 85 -20l25 18h24l-31 -165h-33q0 46 -17 99q-20 25 -64 34l-49 -161l29 -14q55 -27 81 -61t26 -84
q0 -77 -67 -119.5t-161 -42.5h-6l-16 -53h-48zM271 334l43 140q-35 -5 -56 -26t-21 -54q0 -36 34 -60zM225 26q38 6 57.5 33.5t19.5 64.5q0 38 -29 58z" />
    <glyph glyph-name="percent.sc" horiz-adv-x="721" 
d="M168 307q-58 0 -90.5 32.5t-32.5 91.5q0 79 63 139t147 60q59 0 91.5 -35t32.5 -86q0 -83 -63 -142.5t-148 -59.5zM110 -17l-44 29l558 623l39 -33zM465 -9q-58 0 -90.5 32.5t-32.5 91.5q0 79 63 139t147 60q59 0 91.5 -35t32.5 -86q0 -83 -63 -142.5t-148 -59.5z
M181 352q53 0 85.5 46.5t32.5 106.5q0 78 -57 78q-51 0 -85.5 -46t-34.5 -105q0 -80 59 -80zM478 36q53 0 85.5 46.5t32.5 106.5q0 78 -57 78q-51 0 -85.5 -46t-34.5 -105q0 -80 59 -80z" />
    <glyph glyph-name="ampersand.sc" horiz-adv-x="718" 
d="M211 -12q-91 0 -137.5 34.5t-46.5 97.5q0 21 6 38.5t19 30.5t24.5 22.5t31 18t30 12.5t31 10.5t23.5 7.5q-36 55 -36 127q0 50 48.5 85.5t140.5 35.5q143 0 143 -96q0 -36 -29.5 -63.5t-53 -37.5t-77.5 -27q-7 -3 -11 -4q13 -27 42 -65q32 -43 66 -78q14 17 29.5 51.5
t27 59t36.5 44t60 19.5q26 0 44.5 -13t18.5 -35q0 -26 -18 -42t-45 -16q-30 0 -45 20q-14 -6 -25 -21t-27 -41.5t-33 -47.5q66 -61 99 -61q46 1 65.5 21t27.5 61h28q-16 -148 -149 -148q-58 0 -89.5 11.5t-66.5 41.5q-54 -53 -152 -53zM303 304q43 27 60 51.5t17 68.5
q0 49 -41 49q-26 0 -42.5 -20t-16.5 -57q0 -45 23 -92zM249 40q50 0 87 22q-48 50 -76 90q-41 60 -52 81q-54 -30 -54 -101q0 -40 29 -66t66 -26z" />
    <glyph glyph-name="quotesingle.sc" horiz-adv-x="231" 
d="M113 445q5 26 4 76t-8 85q36 24 80 24q17 0 32 -6t22 -12l7 -6q-25 -27 -56 -78.5t-44 -82.5h-37z" />
    <glyph glyph-name="parenleft.sc" horiz-adv-x="310" 
d="M173 -152q-100 0 -144 111t-2 285l17 70q42 171 139.5 272.5t199.5 101.5l-9 -33q-58 0 -123.5 -96t-104.5 -255l-15 -61q-39 -165 -22.5 -263.5t73.5 -98.5z" />
    <glyph glyph-name="parenright.sc" horiz-adv-x="310" 
d="M-74 -152l8 33q58 0 125.5 101t105.5 260l15 62q38 165 21.5 258t-74.5 93l8 33q102 0 148.5 -101.5t3.5 -272.5l-18 -72q-44 -174 -143.5 -284t-199.5 -110z" />
    <glyph glyph-name="asterisk.sc" horiz-adv-x="469" 
d="M335 193l-72 107l-106 -76l-13 11l57 116l-119 54l3 17l131 9l-15 129l17 7l73 -108l104 76l14 -11l-57 -119l119 -50l-4 -18l-130 -9l15 -129z" />
    <glyph glyph-name="plus.sc" 
d="M220 -48v247h-184v82h184v212h88v-212h184v-82h-184v-247h-88z" />
    <glyph glyph-name="hyphen.sc" horiz-adv-x="284" 
d="M38 226l26 97h202l-29 -97h-199z" />
    <glyph glyph-name="slash.sc" horiz-adv-x="300" 
d="M-8 -75l248 594h65l-248 -594h-65z" />
    <glyph glyph-name="zero.sc" 
d="M207 -10q-92 0 -137 49t-45 140q0 131 83 230t212 99q91 0 136.5 -47t45.5 -131q0 -87 -34.5 -163.5t-103 -126.5t-157.5 -50zM213 20q41 0 75 68.5t50.5 153t16.5 151.5q0 20 -1 32.5t-5 26t-13 20t-23 6.5q-35 0 -63 -40.5t-44.5 -100.5t-25 -120.5t-8.5 -108.5
q0 -44 8 -66t33 -22z" />
    <glyph glyph-name="one.sc" 
d="M43 0v36l103 11q21 2 25 17l85 342h-12l-146 -30v32q220 65 278 100h48l-110 -444q-4 -15 15 -17l80 -11v-36h-366z" />
    <glyph glyph-name="two.sc" 
d="M-10 0l5 23l152 105q86 60 128.5 115.5t42.5 123.5q0 74 -75 74q-102 0 -125 -97q-1 -4 -3 -16h-28q0 14 3 32q16 74 66.5 111t146.5 37q78 0 126.5 -34t48.5 -99q0 -74 -71 -135t-199 -124l-77 -38h217q24 0 34 10l69 70h32q-29 -44 -69 -158h-424z" />
    <glyph glyph-name="three.sc" 
d="M190 -10q-79 0 -128.5 19.5t-49.5 61.5q0 24 15 35.5t37 11.5q28 0 43.5 -11t26.5 -37l18 -42q18 -9 44 -9q35 0 69.5 33t34.5 90q0 45 -20.5 68t-67.5 22q-23 0 -57 -8l9 36q77 7 129 40t52 86q0 31 -21 51t-60 20q-47 0 -84 -21.5t-47 -69.5h-32q8 69 66.5 105.5
t147.5 36.5q84 0 124 -29.5t40 -75.5q0 -45 -42.5 -82t-98.5 -50q56 -12 90 -41.5t34 -73.5q0 -53 -41.5 -92t-102 -56.5t-128.5 -17.5z" />
    <glyph glyph-name="four.sc" 
d="M135 0v36l77 9q21 3 25 22l14 57h-243l5 21l321 329q24 0 71.5 11.5t58.5 18.5h25l-83 -333h64l-11 -47h-65l-13 -57q-3 -12 -0.5 -16.5t13.5 -6.5l41 -7v-37h-300zM94 171h169l60 242z" />
    <glyph glyph-name="five.sc" 
d="M191 -10q-47 0 -85.5 6t-68 25t-29.5 49q0 22 15 34.5t34 12.5q28 0 41 -9t23 -28l29 -53q19 -12 48 -12q58 0 91 43.5t33 100.5q0 50 -24.5 80.5t-72.5 30.5q-64 0 -107 -24h-23l81 250h324l-35 -88h-273l-38 -118q51 24 99 24q218 0 218 -141q0 -89 -81 -136t-199 -47z
" />
    <glyph glyph-name="six.sc" 
d="M245 -10q-213 0 -213 181q0 63 23 121.5t69 107.5t124 78.5t178 29.5q39 0 76 -12.5t49 -25.5l-12 -37q-41 33 -107 33q-85 0 -144 -53t-92 -130q46 32 112 32q85 0 137 -36.5t52 -112.5q0 -82 -69.5 -129t-182.5 -47zM249 18q39 0 67 36.5t28 102.5q0 117 -88 117
q-34 0 -71 -27q-13 -52 -13 -103q0 -54 20.5 -90t56.5 -36z" />
    <glyph glyph-name="seven.sc" 
d="M57 0l378 407h-334l34 89h410l-3 -13l-374 -483h-111z" />
    <glyph glyph-name="eight.sc" 
d="M201 -10q-193 0 -193 120q0 52 46.5 85.5t115.5 47.5q-44 25 -66 53.5t-22 69.5q0 66 74 103t175 37q88 0 138.5 -30t50.5 -75t-50 -83t-110 -50q53 -22 82 -51.5t29 -74.5q0 -78 -75.5 -115t-194.5 -37zM327 282q72 46 72 111q0 80 -71 80q-37 0 -69.5 -20t-32.5 -57
q0 -11 2.5 -21.5t5.5 -18t11 -16t12 -13t16 -12.5l16.5 -11t19 -11.5t18.5 -10.5zM213 18q40 0 74.5 25.5t34.5 68.5q0 37 -33.5 64t-88.5 52q-75 -44 -75 -118q0 -44 23 -68t65 -24z" />
    <glyph glyph-name="nine.sc" 
d="M153 -10q-39 0 -81.5 12.5t-54.5 25.5l13 37q41 -33 107 -33q49 0 86 16t59.5 45.5t35.5 56.5t24 65q-44 -32 -111 -32q-82 0 -136 38.5t-54 114.5q0 72 65.5 122t182.5 50q95 0 158 -53.5t63 -150.5q0 -66 -19.5 -121t-60.5 -99t-112 -69t-165 -25zM283 224q30 0 68 27
v1q7 26 7 81q0 147 -83 147q-34 0 -57.5 -37t-23.5 -92q0 -57 22.5 -92t66.5 -35z" />
    <glyph glyph-name="less.sc" 
d="M467 28l-453 213l454 214l31 -71l-260 -123l-59 -22l58 -21l260 -123z" />
    <glyph glyph-name="equal.sc" 
d="M35 297v84h456v-84h-456zM35 101v84h456v-84h-456z" />
    <glyph glyph-name="greater.sc" 
d="M53 28l-31 67l259 123l59 21l-59 22l-260 123l31 71l454 -214z" />
    <glyph glyph-name="question.sc" horiz-adv-x="390" 
d="M121 160q7 33 25.5 58t39.5 41.5t41 34t33.5 45.5t13.5 65q0 76 -65 76q-28 0 -44 -6q22 -22 22 -44t-15.5 -37t-42.5 -15q-23 0 -37.5 12.5t-14.5 33.5q0 28 27 47.5t63 28t74 8.5q72 0 123.5 -26.5t51.5 -77.5q0 -37 -23 -65t-57.5 -46t-70 -34.5t-66.5 -41.5t-42 -57
h-36zM102 -10q-22 0 -36 12t-14 33q0 34 23.5 56t55.5 22q49 0 49 -46q0 -31 -21 -54t-57 -23z" />
    <glyph glyph-name="at.sc" horiz-adv-x="1015" 
d="M446 -193q-185 0 -293.5 98.5t-108.5 270.5q0 97 40 187t108 158.5t167 109.5t210 41q183 0 292.5 -114t109.5 -284q0 -126 -71 -226t-170 -100q-138 0 -159 123l-10 58h-173l-40 -64q-12 -19 5 -22l40 -6v-37h-185v36l39 6q20 4 33 24l295 442h68l73 -440q11 -68 49 -68
q52 0 84 92t32 182q0 162 -79.5 260.5t-236.5 98.5q-175 0 -301.5 -132t-126.5 -321q0 -160 78.5 -246.5t234.5 -86.5q114 0 194 40l11 -24q-102 -56 -209 -56zM418 180h135l-27 170z" />
    <glyph glyph-name="bracketleft.sc" horiz-adv-x="321" 
d="M-45 -168l214 856h226l-17 -66l-129 12l-186 -747l136 13l-17 -68h-227z" />
    <glyph glyph-name="backslash.sc" horiz-adv-x="300" 
d="M140 -75l-41 594h62l40 -594h-61z" />
    <glyph glyph-name="bracketright.sc" horiz-adv-x="321" 
d="M-74 -168l17 68l130 -13l186 747l-135 -12l17 66h226l-214 -856h-227z" />
    <glyph glyph-name="grave.sc" horiz-adv-x="643" 
d="M349 573l-101 90q-27 23 -27 56q0 19 14.5 32t33.5 13q18 0 33.5 -12.5t21.5 -30.5l54 -148h-29z" />
    <glyph glyph-name="a.sc" horiz-adv-x="544" 
d="M-59 0v36l39 6q20 4 33 24l295 442h68l73 -440q2 -15 15 -24q5 -3 31 -8v-36h-256v37l43 4q26 3 23 25l-11 63h-173l-40 -64q-12 -19 5 -22l40 -6v-37h-185zM151 180h135l-27 170z" />
    <glyph glyph-name="b.sc" horiz-adv-x="573" 
d="M-22 0v37l41 9q16 3 21.5 6t7.5 13l92 367q4 5 0.5 9t-5 4.5t-10.5 2.5q-4 1 -7 2l-34 9v37h307q77 0 120 -26.5t43 -71.5q0 -97 -151 -139q114 -18 114 -100q0 -77 -65 -118t-163 -41h-311zM245 279h32q64 0 96.5 30t32.5 85q0 62 -65 62h-8q-29 0 -46 -7zM228 40h16
q63 0 91.5 37t28.5 84q0 71 -102 71h-29l-46 -185q26 -7 41 -7z" />
    <glyph glyph-name="c.sc" horiz-adv-x="574" 
d="M253 -10q-102 0 -162 51t-60 142q0 143 96.5 234t244.5 91q82 0 135 -25l22 21h28l-36 -180h-36q0 65 -21 107q-13 19 -30 28.5t-53 9.5q-61 0 -108.5 -48t-69.5 -111t-22 -124q0 -154 102 -154q14 0 24 1t19.5 4.5t13 4.5t14.5 7.5t14 8.5q17 12 44.5 48t41.5 63h35
l-47 -148q-82 -31 -189 -31z" />
    <glyph glyph-name="d.sc" horiz-adv-x="648" 
d="M-22 0v37l41 9q16 3 21.5 6t7.5 13l92 367q4 5 0.5 9t-5 4.5t-10.5 2.5q-4 1 -7 2l-34 9v37h286q115 0 181.5 -51.5t66.5 -138.5q0 -129 -91.5 -217.5t-239.5 -88.5h-309zM242 40h16q53 0 96 27.5t68 70t38.5 88.5t13.5 88q0 142 -119 142h-12q-37 0 -56 -8l-101 -400
q22 -8 56 -8z" />
    <glyph glyph-name="e.sc" horiz-adv-x="551" 
d="M-22 0v37l41 9q16 3 21.5 6t7.5 13l92 367q4 5 0.5 9t-5 4.5t-10.5 2.5q-4 1 -7 2l-34 9v37h377q47 0 79 9l-26 -162h-34q-3 62 -20 89q-35 24 -117 24h-7q-16 0 -48 -5l-42 -168h91q37 19 56 66h30l-47 -187h-30q2 53 -22 70h-91l-48 -186q27 -6 60 -6h20q68 0 112 26
q48 42 75 94h35l-55 -160h-454z" />
    <glyph glyph-name="f.sc" 
d="M-22 0v37l41 9q16 3 21.5 6t7.5 13l92 367q4 5 0.5 9t-5 4.5t-10.5 2.5q-4 1 -7 2l-34 9v37h377q47 0 79 9l-26 -162h-34q-3 62 -20 89q-35 24 -117 24h-7q-16 0 -48 -5l-45 -180h86q37 19 56 66h30l-47 -187h-30q2 53 -22 70h-86l-39 -155q-1 -3 0 -5.5t4 -4.5t6.5 -3.5
t9 -3t9.5 -2t10 -1.5t9 -2l33 -6v-37h-294z" />
    <glyph glyph-name="g.sc" horiz-adv-x="624" 
d="M276 -10q-120 0 -183 55t-63 160q0 136 99.5 219.5t260.5 83.5q44 0 86.5 -7.5t60.5 -17.5l22 21h28l-43 -179h-36q0 70 -27 115q-27 29 -103 29q-86 0 -142 -78t-56 -187q0 -175 111 -175q36 0 66 11l34 138q2 8 -1.5 10.5t-16.5 6.5l-50 13v34h270v-37l-22 -5
q-30 -7 -34 -15q0 -2 -1 -4l-35 -134l4 -22q-79 -35 -229 -35z" />
    <glyph glyph-name="h.sc" horiz-adv-x="696" 
d="M-22 0v37l41 9q16 3 21.5 6t7.5 13l92 367q4 5 0.5 9t-5 4.5t-10.5 2.5q-4 1 -7 2l-34 9v37h268v-37l-39 -9q-3 -1 -8.5 -2t-7.5 -1.5t-5 -2t-4.5 -3t-2.5 -4t-2 -5.5l-37 -147h222l37 147q4 5 0.5 9t-5 4.5t-10.5 2.5q-4 1 -7 2l-34 9v37h268v-37l-39 -9q-3 -1 -8.5 -2
t-7.5 -1.5t-5 -2t-4.5 -3t-2.5 -4t-2 -5.5l-92 -367q-3 -12 16 -17q4 -1 6 -2l33 -9v-37h-268v37l40 9l16 4t8.5 4.5t5.5 10.5l41 164h-222l-41 -164q-3 -12 16 -17q4 -1 6 -2l33 -9v-37h-268z" />
    <glyph glyph-name="i.sc" horiz-adv-x="332" 
d="M-16 0v37l41 9q16 3 21.5 6t7.5 13l92 367q4 5 0.5 9t-5 4.5t-10.5 2.5q-4 1 -7 2l-34 9v37h268v-37l-39 -9q-3 -1 -8.5 -2t-7.5 -1.5t-5 -2t-4.5 -3t-2.5 -4t-2 -5.5l-92 -367q-2 -8 1 -11t15 -6q4 -1 6 -2l33 -9v-37h-268z" />
    <glyph glyph-name="j.sc" horiz-adv-x="320" 
d="M-51 -192q-114 0 -114 66q0 21 15.5 34.5t36.5 13.5q33 0 44.5 -25.5t-6.5 -56.5q34 0 60.5 39.5t38.5 87.5l116 465q4 5 0.5 9t-5 4.5t-10.5 2.5q-4 1 -7 2l-34 9v37h268v-37l-39 -9q-2 -1 -6.5 -2t-6 -1.5t-4.5 -1t-4.5 -1.5l-3 -2t-2.5 -2.5t-1.5 -3.5t-1.5 -4
l-117 -466q-20 -78 -77 -118t-140 -40z" />
    <glyph glyph-name="k.sc" horiz-adv-x="611" 
d="M381 0q-13 11 -34.5 46t-32.5 60l-57 128q-6 14 -21 17v20q35 4 63 29l154 136q3 3 4.5 6.5t-0.5 6.5t-8 4l-30 6v37h214v-37l-40 -6q-30 -4 -54 -22l-169 -128l88 -174q35 -67 59 -83l34 -9v-37h-170zM-22 0v37l41 9q16 3 21.5 6t7.5 13l92 367q4 5 0.5 9t-5 4.5
t-10.5 2.5q-4 1 -7 2l-34 9v37h268v-37l-39 -9q-3 -1 -8.5 -2t-7.5 -1.5t-5 -2t-4.5 -3t-2.5 -4t-2 -5.5l-92 -367q-3 -12 16 -17q4 -1 6 -2l33 -9v-37h-268z" />
    <glyph glyph-name="l.sc" horiz-adv-x="517" 
d="M-22 0v37l41 9q16 3 21.5 6t7.5 13l92 367q4 5 0.5 9t-5 4.5t-10.5 2.5q-4 1 -7 2l-34 9v37h288v-37l-39 -8q-3 -1 -12 -2.5t-13.5 -2.5t-11 -3t-9.5 -4.5t-4 -6.5l-98 -386q27 -6 60 -6h14q68 0 112 26q25 22 75 124h41l-55 -190h-454z" />
    <glyph glyph-name="m.sc" horiz-adv-x="789" 
d="M-32 0v37l43 10q24 6 33 27q11 25 27 83l69 275q2 8 -1.5 11t-15.5 6q-3 1 -5 1l-34 9v37h207l79 -311l265 311h175v-37l-39 -9q-3 -1 -8.5 -2t-7.5 -1.5t-5 -2t-4.5 -3t-2.5 -4t-2 -5.5l-92 -367q-3 -12 16 -17q4 -1 6 -2l33 -9v-37h-268v37l41 9q26 5 29 19l67 268
l-283 -332h-5l-95 363l-52 -206q-11 -42 -17 -82q-4 -26 9 -28l64 -11v-37h-226z" />
    <glyph glyph-name="n.sc" horiz-adv-x="618" 
d="M406 -10l-217 372l-51 -204q-11 -42 -17 -82q-4 -25 9 -27l75 -12v-37h-237v37l43 10q24 6 33 27q11 25 27 83l69 275q1 8 -2 11t-15 6q-3 1 -5 1l-34 9v37h190l172 -297l40 162q9 37 13 63q4 21 -10 23l-61 12v37h220v-37l-55 -10q-16 -3 -23 -23q-5 -16 -17 -62
l-93 -374h-54z" />
    <glyph glyph-name="o.sc" horiz-adv-x="643" 
d="M276 -10q-122 0 -184 54.5t-62 147.5q0 141 100 228.5t238 87.5q123 0 184 -51.5t61 -144.5q0 -144 -97.5 -233t-239.5 -89zM276 29q83 0 135.5 87.5t52.5 195.5q0 82 -19.5 119.5t-76.5 37.5q-60 0 -104.5 -46.5t-64 -108t-19.5 -122.5q0 -79 21 -121t75 -42z" />
    <glyph glyph-name="p.sc" horiz-adv-x="530" 
d="M-22 0v37l41 9q16 3 21.5 6t7.5 13l92 367q4 5 0.5 9t-5 4.5t-10.5 2.5q-4 1 -7 2l-34 9v37h283q181 0 181 -124q0 -74 -68 -127t-173 -53q-38 0 -82 7l-34 -134q-3 -10 2.5 -13.5t19.5 -5.5l59 -9v-37h-294zM233 231h9q158 0 158 141q0 84 -64 84h-8q-25 0 -41 -7z" />
    <glyph glyph-name="q.sc" horiz-adv-x="643" 
d="M376 -193q-33 20 -73 76t-59 108q-106 7 -159.5 60.5t-53.5 140.5q0 141 100 228.5t238 87.5q123 0 184 -51.5t61 -144.5q0 -121 -71.5 -205t-183.5 -108q16 -39 53.5 -82.5t70.5 -62.5l60 -10v-37h-167zM277 29q83 0 135.5 87.5t52.5 195.5q0 82 -19.5 119.5t-76.5 37.5
q-60 0 -104.5 -46.5t-64 -108t-19.5 -122.5q0 -79 21 -121t75 -42z" />
    <glyph glyph-name="r.sc" horiz-adv-x="596" 
d="M-22 0v37l41 9q16 3 21.5 6t7.5 13l92 367q4 5 0.5 9t-5 4.5t-10.5 2.5q-4 1 -7 2l-34 9v37h308q181 0 181 -112q0 -61 -53 -102.5t-121 -54.5q19 -12 42 -62l29 -65q14 -31 42 -52l52 -11v-37h-195q-25 17 -55 89l-47 115h-41l-35 -139q-2 -9 2 -12t17 -6q2 -1 3 -1
l38 -9v-37h-273zM237 251h32q76 0 121.5 36t45.5 88q0 34 -20.5 57.5t-61.5 23.5h-20q-32 0 -47 -8z" />
    <glyph glyph-name="s.sc" horiz-adv-x="474" 
d="M-3 -10l41 184h37q-4 -65 7 -112q33 -37 99 -37q45 0 69 29.5t24 69.5q0 30 -14.5 45.5t-48.5 32.5l-45 23q-93 47 -93 137q0 71 68 108.5t162 37.5q85 0 126 -22l25 18h24l-31 -165h-33q0 46 -17 99q-30 37 -93 37q-42 0 -63.5 -21t-21.5 -60q0 -29 11.5 -45t39.5 -30
l43 -22q55 -28 81 -61.5t26 -83.5q0 -68 -61 -115t-167 -47q-96 0 -144 24l-25 -24h-26z" />
    <glyph glyph-name="t.sc" horiz-adv-x="541" 
d="M68 0v37l41 8q40 8 43 20l98 391h-32q-51 0 -79 -19q-24 -23 -69 -108h-34l50 177q28 -10 79 -10h343q51 0 74 10l-37 -177h-35q2 67 -16 107q-16 20 -71 20h-30l-98 -391q-1 -4 1.5 -6.5t8 -5t10 -3.5t12.5 -2.5t11 -2.5l33 -8v-37h-303z" />
    <glyph glyph-name="u.sc" horiz-adv-x="634" 
d="M260 -10q-100 0 -155 51.5t-32 144.5l61 246q2 8 -1.5 11t-15.5 6q-3 1 -5 1l-34 9v37h260v-37l-31 -7q-17 -4 -22.5 -7.5t-7.5 -12.5l-61 -242q-8 -37 -8.5 -69.5t21 -55t63.5 -22.5q66 0 111 44.5t61 109.5l59 235q2 8 -1.5 11t-15.5 6q-3 1 -5 1l-37 9v37h187v-37
l-33 -8q-2 -1 -6.5 -1.5t-6 -1l-4.5 -1.5t-4.5 -2.5t-3.5 -3t-3 -4t-2 -5.5l-61 -239q-52 -203 -267 -203z" />
    <glyph glyph-name="v.sc" horiz-adv-x="544" 
d="M176 -9l-85 444q-1 3 -1.5 5.5t-1.5 4t-2.5 3t-2.5 2t-3.5 1.5t-4 1.5l-4.5 1.5t-5 1l-13 4v37h244v-37l-40 -7l-12.5 -2.5t-7.5 -2.5t-6 -5.5t0 -8.5l54 -284l179 280q13 19 -11 23l-39 7v37h183v-37l-21 -4q-25 -4 -35 -19l-308 -445h-57z" />
    <glyph glyph-name="w.sc" horiz-adv-x="824" 
d="M146 -9l-55 444q0 4 -1.5 7t-2.5 4.5t-4 3t-4.5 2t-6.5 2t-6 1.5l-13 4v37h241v-37l-37 -6q-11 -2 -15.5 -3.5t-8 -5.5t-2.5 -11l31 -277l152 237l-8 42q-1 3 -1.5 5.5t-1.5 4t-2.5 3t-2.5 2t-3.5 1.5t-4 1.5l-4.5 1.5t-5 1l-13 4v37h237v-37l-33 -6q-11 -2 -15.5 -3.5
t-8 -5.5t-2.5 -11l45 -284l148 280q10 20 -11 23l-39 7v37h183v-37l-21 -4q-26 -4 -35 -19l-278 -445h-57l-53 322l-225 -322h-57z" />
    <glyph glyph-name="x.sc" horiz-adv-x="561" 
d="M-41 0v36l40 8q24 5 43 22l178 168l-112 203q-5 9 -19 14l-26 9v36h238v-37l-42 -5q-15 -2 -7 -19l62 -112l102 101q22 22 8 25l-40 10v37h195v-36l-39 -8q-26 -5 -42 -19l-164 -147l124 -224q10 -18 25 -20l32 -6v-36h-253v37l46 6q15 2 7 19l-74 134l-116 -122
q-22 -23 -10 -26l41 -11v-37h-197z" />
    <glyph glyph-name="y.sc" horiz-adv-x="536" 
d="M77 0v37l41 8q45 9 47 20l36 142l-99 226q-7 14 -15 18l-31 8v37h245v-37l-33 -5q-25 -4 -16 -21l76 -165l126 163q15 18 -4 21l-43 6v38h180v-36l-33 -6q-17 -3 -32 -21l-174 -211l-40 -157q-1 -4 1.5 -7t8.5 -5l10.5 -3.5t13.5 -3.5t11 -2l33 -7v-37h-309z" />
    <glyph glyph-name="z.sc" horiz-adv-x="507" 
d="M-8 0v17l348 434h-58q-74 0 -100 -8q-38 -36 -74 -114h-36l42 175q34 -8 77 -8h324v-16l-344 -434h69q62 0 104 12q20 14 53.5 53t49.5 64h35l-67 -175h-423z" />
    <glyph glyph-name="braceleft.sc" horiz-adv-x="500" 
d="M296 -250q-117 0 -165.5 38t-24.5 135l50 202q29 117 -97 117l10 43q128 0 160 132l40 161q23 92 88 132.5t178 40.5l-8 -32q-53 0 -73.5 -27.5t-40.5 -105.5l-39 -157q-14 -57 -74.5 -103.5t-127.5 -54.5q68 -10 105 -47t21 -101l-51 -205q-20 -73 -8.5 -103t66.5 -30z
" />
    <glyph glyph-name="braceright.sc" horiz-adv-x="511" 
d="M-50 -250l9 35q54 0 79 28.5t44 104.5l51 205q16 64 71.5 100.5t129.5 47.5q-63 7 -101 54t-24 104l39 157q21 72 13.5 102.5t-60.5 30.5l8 32q113 0 158 -40.5t22 -132.5l-40 -161q-32 -132 94 -132l-10 -43q-128 0 -157 -117l-50 -202q-24 -97 -91.5 -135t-184.5 -38z
" />
    <glyph glyph-name="aacute.sc" horiz-adv-x="544" 
d="M-59 0v36l39 6q20 4 33 24l295 442h68l73 -440q2 -15 15 -24q5 -3 31 -8v-36h-256v37l43 4q26 3 23 25l-11 63h-173l-40 -64q-12 -19 5 -22l40 -6v-37h-185zM151 180h135l-27 170zM330 573l54 148q6 17 21.5 30t33.5 13q19 0 33.5 -13t14.5 -32q0 -33 -27 -56l-101 -90
h-29z" />
    <glyph glyph-name="agrave.sc" horiz-adv-x="544" 
d="M-59 0v36l39 6q20 4 33 24l295 442h68l73 -440q2 -15 15 -24q5 -3 31 -8v-36h-256v37l43 4q26 3 23 25l-11 63h-173l-40 -64q-12 -19 5 -22l40 -6v-37h-185zM151 180h135l-27 170zM330 573l-101 90q-27 23 -27 56q0 19 14.5 32t33.5 13q18 0 33.5 -12.5t21.5 -30.5
l54 -148h-29z" />
    <glyph glyph-name="acircumflex.sc" horiz-adv-x="544" 
d="M-59 0v36l39 6q20 4 33 24l295 442h68l73 -440q2 -15 15 -24q5 -3 31 -8v-36h-256v37l43 4q26 3 23 25l-11 63h-173l-40 -64q-12 -19 5 -22l40 -6v-37h-185zM151 180h135l-27 170zM186 573l189 175h56l81 -175h-42l-90 79h-2l-150 -79h-42z" />
    <glyph glyph-name="adieresis.sc" horiz-adv-x="544" 
d="M-59 0v36l39 6q20 4 33 24l295 442h68l73 -440q2 -15 15 -24q5 -3 31 -8v-36h-256v37l43 4q26 3 23 25l-11 63h-173l-40 -64q-12 -19 5 -22l40 -6v-37h-185zM151 180h135l-27 170zM246 573q-22 0 -36 14.5t-14 35.5q0 28 20.5 49t48.5 21q23 0 37 -14.5t14 -36.5
q0 -27 -21 -48t-49 -21zM449 572q-22 0 -36 14.5t-14 35.5q0 28 20.5 49t48.5 21q22 0 36.5 -14t14.5 -37q0 -27 -21 -48t-49 -21z" />
    <glyph glyph-name="atilde.sc" horiz-adv-x="544" 
d="M-59 0v36l39 6q20 4 33 24l295 442h68l73 -440q2 -15 15 -24q5 -3 31 -8v-36h-256v37l43 4q26 3 23 25l-11 63h-173l-40 -64q-12 -19 5 -22l40 -6v-37h-185zM151 180h135l-27 170zM416 564q-39 0 -82 32l-6 5q-6 5 -7 5.5t-6.5 4.5t-7.5 4.5t-7 3t-8.5 3t-9 1.5t-10.5 1
q-48 0 -62 -51h-24q11 49 41 83.5t78 34.5q11 0 21 -2t15.5 -3.5t14.5 -7t10.5 -7t11.5 -9.5l9 -8q26 -21 57 -21q26 0 42 15.5t21 37.5h22q-26 -122 -113 -122z" />
    <glyph glyph-name="aring.sc" horiz-adv-x="544" 
d="M-59 0v36l39 6q20 4 33 24l295 442h68l73 -440q2 -15 15 -24q5 -3 31 -8v-36h-256v37l43 4q26 3 23 25l-11 63h-173l-40 -64q-12 -19 5 -22l40 -6v-37h-185zM151 180h135l-27 170zM358 573q-37 0 -61 17t-24 53q0 49 37.5 78.5t82.5 29.5q39 0 62 -17.5t23 -52.5
q0 -51 -36.5 -79.5t-83.5 -28.5zM362 593q31 0 46.5 24.5t15.5 60.5q0 52 -35 52q-30 0 -46 -23.5t-16 -59.5q0 -54 35 -54z" />
    <glyph glyph-name="ccedilla.sc" horiz-adv-x="574" 
d="M253 -10q-102 0 -162 51t-60 142q0 143 96.5 234t244.5 91q82 0 135 -25l22 21h28l-36 -180h-36q0 65 -21 107q-13 19 -30 28.5t-53 9.5q-61 0 -108.5 -48t-69.5 -111t-22 -124q0 -154 102 -154q14 0 24 1t19.5 4.5t13 4.5t14.5 7.5t14 8.5q17 12 44.5 48t41.5 63h35
l-47 -148q-82 -31 -189 -31zM154 -252q-48 0 -84 24l32 44q18 -44 50 -44q58 0 58 56q0 16 -14 37.5t-14 38.5q0 26 21.5 45t46.5 19l8 -4q-20 -13 -20 -32q0 -10 10 -21t22 -19.5t22 -24.5t10 -35q0 -84 -148 -84z" />
    <glyph glyph-name="eacute.sc" horiz-adv-x="551" 
d="M-22 0v37l41 9q16 3 21.5 6t7.5 13l92 367q4 5 0.5 9t-5 4.5t-10.5 2.5q-4 1 -7 2l-34 9v37h377q47 0 79 9l-26 -162h-34q-3 62 -20 89q-35 24 -117 24h-7q-16 0 -48 -5l-42 -168h91q37 19 56 66h30l-47 -187h-30q2 53 -22 70h-91l-48 -186q27 -6 60 -6h20q68 0 112 26
q48 42 75 94h35l-55 -160h-454zM313 573l54 148q6 17 21.5 30t33.5 13q19 0 33.5 -13t14.5 -32q0 -33 -27 -56l-101 -90h-29z" />
    <glyph glyph-name="egrave.sc" horiz-adv-x="551" 
d="M-22 0v37l41 9q16 3 21.5 6t7.5 13l92 367q4 5 0.5 9t-5 4.5t-10.5 2.5q-4 1 -7 2l-34 9v37h377q47 0 79 9l-26 -162h-34q-3 62 -20 89q-35 24 -117 24h-7q-16 0 -48 -5l-42 -168h91q37 19 56 66h30l-47 -187h-30q2 53 -22 70h-91l-48 -186q27 -6 60 -6h20q68 0 112 26
q48 42 75 94h35l-55 -160h-454zM303 573l-101 90q-27 23 -27 56q0 19 14.5 32t33.5 13q18 0 33.5 -12.5t21.5 -30.5l54 -148h-29z" />
    <glyph glyph-name="ecircumflex.sc" horiz-adv-x="551" 
d="M-22 0v37l41 9q16 3 21.5 6t7.5 13l92 367q4 5 0.5 9t-5 4.5t-10.5 2.5q-4 1 -7 2l-34 9v37h377q47 0 79 9l-26 -162h-34q-3 62 -20 89q-35 24 -117 24h-7q-16 0 -48 -5l-42 -168h91q37 19 56 66h30l-47 -187h-30q2 53 -22 70h-91l-48 -186q27 -6 60 -6h20q68 0 112 26
q48 42 75 94h35l-55 -160h-454zM189 573l189 175h56l81 -175h-42l-90 79h-2l-150 -79h-42z" />
    <glyph glyph-name="edieresis.sc" horiz-adv-x="551" 
d="M-22 0v37l41 9q16 3 21.5 6t7.5 13l92 367q4 5 0.5 9t-5 4.5t-10.5 2.5q-4 1 -7 2l-34 9v37h377q47 0 79 9l-26 -162h-34q-3 62 -20 89q-35 24 -117 24h-7q-16 0 -48 -5l-42 -168h91q37 19 56 66h30l-47 -187h-30q2 53 -22 70h-91l-48 -186q27 -6 60 -6h20q68 0 112 26
q48 42 75 94h35l-55 -160h-454zM239 573q-22 0 -36 14.5t-14 35.5q0 28 20.5 49t48.5 21q22 0 36.5 -14.5t14.5 -36.5q0 -27 -21 -48t-49 -21zM442 572q-22 0 -36 14.5t-14 35.5q0 28 20.5 49t48.5 21q23 0 37 -14t14 -37q0 -27 -21 -48t-49 -21z" />
    <glyph glyph-name="iacute.sc" horiz-adv-x="332" 
d="M-16 0v37l41 9q16 3 21.5 6t7.5 13l92 367q4 5 0.5 9t-5 4.5t-10.5 2.5q-4 1 -7 2l-34 9v37h268v-37l-39 -9q-3 -1 -8.5 -2t-7.5 -1.5t-5 -2t-4.5 -3t-2.5 -4t-2 -5.5l-92 -367q-2 -8 1 -11t15 -6q4 -1 6 -2l33 -9v-37h-268zM224 573l54 148q6 17 21.5 30t33.5 13
q19 0 33.5 -13t14.5 -32q0 -33 -27 -56l-101 -90h-29z" />
    <glyph glyph-name="igrave.sc" horiz-adv-x="332" 
d="M-16 0v37l41 9q16 3 21.5 6t7.5 13l92 367q4 5 0.5 9t-5 4.5t-10.5 2.5q-4 1 -7 2l-34 9v37h268v-37l-39 -9q-3 -1 -8.5 -2t-7.5 -1.5t-5 -2t-4.5 -3t-2.5 -4t-2 -5.5l-92 -367q-2 -8 1 -11t15 -6q4 -1 6 -2l33 -9v-37h-268zM194 573l-101 90q-27 23 -27 56q0 19 14.5 32
t33.5 13q18 0 33.5 -12.5t21.5 -30.5l54 -148h-29z" />
    <glyph glyph-name="icircumflex.sc" horiz-adv-x="332" 
d="M-16 0v37l41 9q16 3 21.5 6t7.5 13l92 367q4 5 0.5 9t-5 4.5t-10.5 2.5q-4 1 -7 2l-34 9v37h268v-37l-39 -9q-3 -1 -8.5 -2t-7.5 -1.5t-5 -2t-4.5 -3t-2.5 -4t-2 -5.5l-92 -367q-2 -8 1 -11t15 -6q4 -1 6 -2l33 -9v-37h-268zM80 573l189 175h56l81 -175h-42l-90 79h-2
l-150 -79h-42z" />
    <glyph glyph-name="idieresis.sc" horiz-adv-x="332" 
d="M-16 0v37l41 9q16 3 21.5 6t7.5 13l92 367q4 5 0.5 9t-5 4.5t-10.5 2.5q-4 1 -7 2l-34 9v37h268v-37l-39 -9q-3 -1 -8.5 -2t-7.5 -1.5t-5 -2t-4.5 -3t-2.5 -4t-2 -5.5l-92 -367q-2 -8 1 -11t15 -6q4 -1 6 -2l33 -9v-37h-268zM140 573q-22 0 -36 14.5t-14 35.5
q0 28 20.5 49t48.5 21q23 0 37 -14.5t14 -36.5q0 -27 -21 -48t-49 -21zM343 572q-22 0 -36 14.5t-14 35.5q0 28 20.5 49t48.5 21q22 0 36.5 -14t14.5 -37q0 -27 -21 -48t-49 -21z" />
    <glyph glyph-name="ntilde.sc" horiz-adv-x="618" 
d="M406 -10l-217 372l-51 -204q-11 -42 -17 -82q-4 -25 9 -27l75 -12v-37h-237v37l43 10q24 6 33 27q11 25 27 83l69 275q1 8 -2 11t-15 6q-3 1 -5 1l-34 9v37h190l172 -297l40 162q9 37 13 63q4 21 -10 23l-61 12v37h220v-37l-55 -10q-16 -3 -23 -23q-5 -16 -17 -62
l-93 -374h-54zM443 564q-39 0 -82 32l-6 5q-6 5 -7 5.5t-6.5 4.5t-7.5 4.5t-7 3t-8.5 3t-9 1.5t-10.5 1q-48 0 -62 -51h-24q11 49 41 83.5t78 34.5q11 0 21 -2t15.5 -3.5t14.5 -7t10.5 -7t10.5 -9.5l10 -8q26 -21 57 -21q26 0 42 15.5t21 37.5h22q-26 -122 -113 -122z" />
    <glyph glyph-name="oacute.sc" horiz-adv-x="643" 
d="M276 -10q-122 0 -184 54.5t-62 147.5q0 141 100 228.5t238 87.5q123 0 184 -51.5t61 -144.5q0 -144 -97.5 -233t-239.5 -89zM276 29q83 0 135.5 87.5t52.5 195.5q0 82 -19.5 119.5t-76.5 37.5q-60 0 -104.5 -46.5t-64 -108t-19.5 -122.5q0 -79 21 -121t75 -42zM359 573
l54 148q6 17 21.5 30t33.5 13q19 0 33.5 -13t14.5 -32q0 -33 -27 -56l-101 -90h-29z" />
    <glyph glyph-name="ograve.sc" horiz-adv-x="643" 
d="M276 -10q-122 0 -184 54.5t-62 147.5q0 141 100 228.5t238 87.5q123 0 184 -51.5t61 -144.5q0 -144 -97.5 -233t-239.5 -89zM276 29q83 0 135.5 87.5t52.5 195.5q0 82 -19.5 119.5t-76.5 37.5q-60 0 -104.5 -46.5t-64 -108t-19.5 -122.5q0 -79 21 -121t75 -42zM349 573
l-101 90q-27 23 -27 56q0 19 14.5 32t33.5 13q18 0 33.5 -12.5t21.5 -30.5l54 -148h-29z" />
    <glyph glyph-name="ocircumflex.sc" horiz-adv-x="643" 
d="M276 -10q-122 0 -184 54.5t-62 147.5q0 141 100 228.5t238 87.5q123 0 184 -51.5t61 -144.5q0 -144 -97.5 -233t-239.5 -89zM276 29q83 0 135.5 87.5t52.5 195.5q0 82 -19.5 119.5t-76.5 37.5q-60 0 -104.5 -46.5t-64 -108t-19.5 -122.5q0 -79 21 -121t75 -42zM225 573
l189 175h56l81 -175h-42l-90 79h-2l-150 -79h-42z" />
    <glyph glyph-name="odieresis.sc" horiz-adv-x="643" 
d="M276 -10q-122 0 -184 54.5t-62 147.5q0 141 100 228.5t238 87.5q123 0 184 -51.5t61 -144.5q0 -144 -97.5 -233t-239.5 -89zM276 29q83 0 135.5 87.5t52.5 195.5q0 82 -19.5 119.5t-76.5 37.5q-60 0 -104.5 -46.5t-64 -108t-19.5 -122.5q0 -79 21 -121t75 -42zM285 573
q-22 0 -36 14.5t-14 35.5q0 28 20.5 49t48.5 21q22 0 36.5 -14.5t14.5 -36.5q0 -27 -21 -48t-49 -21zM488 572q-22 0 -36 14.5t-14 35.5q0 28 20.5 49t48.5 21q23 0 37 -14t14 -37q0 -27 -21 -48t-49 -21z" />
    <glyph glyph-name="otilde.sc" horiz-adv-x="643" 
d="M276 -10q-122 0 -184 54.5t-62 147.5q0 141 100 228.5t238 87.5q123 0 184 -51.5t61 -144.5q0 -144 -97.5 -233t-239.5 -89zM276 29q83 0 135.5 87.5t52.5 195.5q0 82 -19.5 119.5t-76.5 37.5q-60 0 -104.5 -46.5t-64 -108t-19.5 -122.5q0 -79 21 -121t75 -42zM455 564
q-39 0 -82 32l-6 5q-6 5 -7 5.5t-6.5 4.5t-7.5 4.5t-7 3t-8.5 3t-9 1.5t-10.5 1q-48 0 -62 -51h-24q11 49 41 83.5t78 34.5q11 0 21 -2t15.5 -3.5t14.5 -7t10.5 -7t10.5 -9.5l10 -8q26 -21 57 -21q26 0 42 15.5t21 37.5h22q-26 -122 -113 -122z" />
    <glyph glyph-name="uacute.sc" horiz-adv-x="634" 
d="M260 -10q-100 0 -155 51.5t-32 144.5l61 246q2 8 -1.5 11t-15.5 6q-3 1 -5 1l-34 9v37h260v-37l-31 -7q-17 -4 -22.5 -7.5t-7.5 -12.5l-61 -242q-8 -37 -8.5 -69.5t21 -55t63.5 -22.5q66 0 111 44.5t61 109.5l59 235q2 8 -1.5 11t-15.5 6q-3 1 -5 1l-37 9v37h187v-37
l-33 -8q-2 -1 -6.5 -1.5t-6 -1l-4.5 -1.5t-4.5 -2.5t-3.5 -3t-3 -4t-2 -5.5l-61 -239q-52 -203 -267 -203zM395 573l54 148q6 17 21.5 30t33.5 13q19 0 33.5 -13t14.5 -32q0 -33 -27 -56l-101 -90h-29z" />
    <glyph glyph-name="ugrave.sc" horiz-adv-x="634" 
d="M260 -10q-100 0 -155 51.5t-32 144.5l61 246q2 8 -1.5 11t-15.5 6q-3 1 -5 1l-34 9v37h260v-37l-31 -7q-17 -4 -22.5 -7.5t-7.5 -12.5l-61 -242q-8 -37 -8.5 -69.5t21 -55t63.5 -22.5q66 0 111 44.5t61 109.5l59 235q2 8 -1.5 11t-15.5 6q-3 1 -5 1l-37 9v37h187v-37
l-33 -8q-2 -1 -6.5 -1.5t-6 -1l-4.5 -1.5t-4.5 -2.5t-3.5 -3t-3 -4t-2 -5.5l-61 -239q-52 -203 -267 -203zM365 573l-101 90q-27 23 -27 56q0 19 14.5 32t33.5 13q18 0 33.5 -12.5t21.5 -30.5l54 -148h-29z" />
    <glyph glyph-name="ucircumflex.sc" horiz-adv-x="634" 
d="M260 -10q-100 0 -155 51.5t-32 144.5l61 246q2 8 -1.5 11t-15.5 6q-3 1 -5 1l-34 9v37h260v-37l-31 -7q-17 -4 -22.5 -7.5t-7.5 -12.5l-61 -242q-8 -37 -8.5 -69.5t21 -55t63.5 -22.5q66 0 111 44.5t61 109.5l59 235q2 8 -1.5 11t-15.5 6q-3 1 -5 1l-37 9v37h187v-37
l-33 -8q-2 -1 -6.5 -1.5t-6 -1l-4.5 -1.5t-4.5 -2.5t-3.5 -3t-3 -4t-2 -5.5l-61 -239q-52 -203 -267 -203zM231 573l189 175h56l81 -175h-42l-90 79h-2l-150 -79h-42z" />
    <glyph glyph-name="udieresis.sc" horiz-adv-x="634" 
d="M260 -10q-100 0 -155 51.5t-32 144.5l61 246q2 8 -1.5 11t-15.5 6q-3 1 -5 1l-34 9v37h260v-37l-31 -7q-17 -4 -22.5 -7.5t-7.5 -12.5l-61 -242q-8 -37 -8.5 -69.5t21 -55t63.5 -22.5q66 0 111 44.5t61 109.5l59 235q2 8 -1.5 11t-15.5 6q-3 1 -5 1l-37 9v37h187v-37
l-33 -8q-2 -1 -6.5 -1.5t-6 -1l-4.5 -1.5t-4.5 -2.5t-3.5 -3t-3 -4t-2 -5.5l-61 -239q-52 -203 -267 -203zM301 573q-22 0 -36 14.5t-14 35.5q0 28 20.5 49t48.5 21q22 0 36.5 -14.5t14.5 -36.5q0 -27 -21 -48t-49 -21zM504 572q-22 0 -36 14.5t-14 35.5q0 28 20.5 49
t48.5 21q23 0 37 -14t14 -37q0 -27 -21 -48t-49 -21z" />
    <glyph glyph-name="dagger.sc" horiz-adv-x="448" 
d="M57 -232l117 470h-151l23 91h151l45 179h98l-45 -179h149l-23 -91h-149l-117 -470h-98z" />
    <glyph glyph-name="degree.sc" horiz-adv-x="433" 
d="M266 343q-76 0 -124.5 51t-48.5 123t49.5 122t123.5 50q72 0 122.5 -50t50.5 -122q0 -74 -50.5 -124t-122.5 -50zM266 392q39 0 64 33t25 90t-25 90.5t-64 33.5t-64.5 -33.5t-25.5 -90.5t25.5 -90t64.5 -33z" />
    <glyph glyph-name="cent.sc" 
d="M174 -91l22 73q-181 19 -181 201q0 72 40 143t121 123.5t183 60.5l19 63h48l-19 -61q52 -2 105 -30l25 22h19l-45 -171h-33q0 84 -13 109q-27 32 -69 35l-36 -115l-70 -232l-36 -115h8q20 0 36.5 4t23.5 7.5t19.5 11.5t15.5 10q12 10 26.5 29.5t35.5 52t25 38.5h31
l-62 -152q-21 -12 -70.5 -24.5t-94.5 -12.5h-5l-21 -70h-48zM211 29l136 444q-54 -14 -96.5 -71.5t-62.5 -121t-20 -116.5q0 -104 43 -135z" />
    <glyph glyph-name="sterling.sc" 
d="M331 -32q-44 0 -128 16t-157 16q-32 0 -46 -6v18l44 74q62 0 70 81l5 58h-84l30 60h59l3 36q7 89 75 138t165 49q57 0 97.5 -26t40.5 -58q0 -30 -16 -46.5t-44 -16.5q-38 0 -51 36t15 61q-14 18 -43 18q-37 0 -60.5 -25.5t-31.5 -54.5t-9 -61l-2 -50h147v-56h-152l-1 -19
q-3 -52 -39 -80t-98 -45q69 0 144 -13t98 -13q52 0 72.5 20.5t20.5 68.5l30 1q0 -84 -37.5 -132.5t-116.5 -48.5z" />
    <glyph glyph-name="section.sc" horiz-adv-x="544" 
d="M160 -242q-64 0 -111 32.5t-47 73.5q0 27 17 45t44 18q29 0 46.5 -15t17.5 -38q0 -26 -29 -50q25 -33 69 -33q27 0 51 22.5t24 61.5q0 38 -59 91l-76 69q-26 24 -39 38t-25.5 44.5t-12.5 69.5q0 65 55 110.5t132 57.5q-31 29 -46.5 53.5t-15.5 59.5q0 70 59.5 115.5
t163.5 45.5q77 0 127.5 -28t50.5 -78q0 -27 -17 -45t-44 -18q-29 0 -46.5 15t-17.5 38q0 26 29 50q-20 33 -79 33q-27 0 -51 -22.5t-24 -61.5q0 -18 11 -36.5t18.5 -26.5t29.5 -28l76 -69q21 -19 30 -28.5t22.5 -29t19 -42t5.5 -52.5q0 -65 -53.5 -109t-131.5 -56
q21 -22 31.5 -35t19.5 -35t9 -46q0 -71 -58.5 -116t-174.5 -45zM317 47l12 14q44 51 44 104q0 47 -54 96l-77 70q-1 2 -4.5 5t-5.5 4l-13 -14q-44 -47 -44 -104q0 -47 54 -96l77 -70z" />
    <glyph glyph-name="paragraph.sc" horiz-adv-x="540" 
d="M130 -272l118 474h-16q-37 0 -72.5 11t-67.5 36.5t-42.5 67.5t1.5 103q15 60 49.5 102t81 62t89.5 28t90 8h266l-21 -84h-40l-134 -536h-86l134 536h-61l-202 -808h-87z" />
    <glyph glyph-name="germandbls.sc" horiz-adv-x="592" 
d="M-89 -248q-55 0 -88 23.5t-33 55.5q0 22 15 40t38 18q49 0 68 -52l16 -44q31 0 48.5 33.5t35.5 125.5l105 526q23 118 98.5 178.5t187.5 60.5q77 0 128.5 -29.5t51.5 -78.5q0 -29 -11 -51.5t-21 -32t-33.5 -25.5t-30.5 -21q-40 -30 -40 -73q0 -30 6 -48.5t25 -42.5
l40 -50q59 -73 59 -123q0 -78 -57.5 -115t-153.5 -37q-61 0 -98 27.5t-37 70.5q0 72 59 72q55 0 55 -50q0 -33 -27 -62q13 -24 47 -24q30 0 45.5 22.5t15.5 53.5q0 46 -38 92l-41 53q-40 52 -40 97q0 39 20 65t59 50.5t48 32.5q22 21 28.5 43.5t6.5 66.5q0 32 -16.5 58
t-57.5 26q-53 0 -77 -55q-14 -31 -37 -142l-92 -439q-31 -149 -92.5 -222.5t-184.5 -73.5z" />
    <glyph glyph-name="registered.sc" horiz-adv-x="728" 
d="M364 -17q-136 0 -233 96t-97 232t97 232.5t233 96.5t233 -96.5t97 -232.5t-97 -232t-233 -96zM364 34q116 0 193 81.5t77 195.5q0 115 -77 196.5t-193 81.5t-193 -81.5t-77 -196.5t77 -196t193 -81zM191 140v25l25 7q15 8 16 11v255q0 7 -12 10q-3 1 -4 1l-25 6v27h198
q63 0 102 -22.5t39 -67.5q0 -38 -29 -61.5t-71 -30.5q24 -13 54 -63l23 -38q8 -14 31 -29l23 -5v-25h-114q-15 10 -46 61l-52 81h-20v-95q0 -13 12 -15l26 -5v-27h-176zM329 313h17q91 0 91 78q0 29 -20 48t-51 19h-7q-9 0 -30 -6v-139z" />
    <glyph glyph-name="copyright.sc" horiz-adv-x="728" 
d="M364 -17q-136 0 -233 96t-97 232t97 232.5t233 96.5t233 -96.5t97 -232.5t-97 -232t-233 -96zM364 34q116 0 193 81.5t77 195.5q0 115 -77 196.5t-193 81.5t-193 -81.5t-77 -196.5t77 -196t193 -81zM377 133q-92 0 -144.5 52t-52.5 126q0 83 58.5 131t151.5 48
q44 0 92 -20l12 15h11l6 -119h-19q-21 56 -36 75q-34 25 -68 25q-107 0 -107 -151q0 -76 28.5 -116t73.5 -40q40 0 69 21q21 21 40 72h19l-17 -100q-46 -19 -117 -19z" />
    <glyph glyph-name="trademark.sc" horiz-adv-x="1064" 
d="M156 260v27l32 8q12 3 15 5t3 8v286h-7q-53 0 -79 -14q-16 -21 -27 -68h-20l5 116q21 -8 58 -8h250q36 0 52 7l4 -115h-22q-11 45 -26 67q-27 15 -72 15h-13v-286q0 -6 3 -8.5t14 -4.5l33 -8v-27h-203zM483 260v30l38 5q8 1 10 1.5t5 3t3 6.5q4 26 4 58v205q0 7 -3.5 9
t-13.5 5l-30 8v29h144l120 -228l136 228h123v-29l-31 -8q-10 -3 -10 -9v-268q0 -5 2 -6.5t8 -3.5q4 -1 7 -2l27 -7v-27h-192v27l27 7l6 2l4.5 1.5t3 1.5t2 1.5t1 2t0.5 3.5v199l-149 -244h-4l-138 266v-163q0 -17 3 -56q1 -13 16 -14l39 -4v-30h-158z" />
    <glyph glyph-name="acute.sc" horiz-adv-x="643" 
d="M349 573l54 148q6 17 21.5 30t33.5 13q19 0 33.5 -13t14.5 -32q0 -33 -27 -56l-101 -90h-29z" />
    <glyph glyph-name="dieresis.sc" horiz-adv-x="643" 
d="M275 573q-22 0 -36 14.5t-14 35.5q0 28 20.5 49t48.5 21q22 0 36.5 -14.5t14.5 -36.5q0 -27 -21 -48t-49 -21zM478 572q-22 0 -36 14.5t-14 35.5q0 28 20.5 49t48.5 21q23 0 37 -14t14 -37q0 -27 -21 -48t-49 -21z" />
    <glyph glyph-name="notequal.sc" 
d="M95 -40l-35 24l80 117h-105v83h163l79 114h-242v83h301l93 135l35 -26l-75 -109h102v-83h-161l-79 -114h240v-83h-298z" />
    <glyph glyph-name="infinity.sc" horiz-adv-x="700" 
d="M507 127q-110 0 -152 111q-59 -104 -169 -104q-83 0 -126 56.5t-43 131.5q0 93 50 137.5t120 44.5q93 0 146 -115q23 52 69 81.5t105 29.5q64 0 106.5 -29.5t58 -70t15.5 -90.5q0 -86 -49 -134.5t-131 -48.5zM181 219q29 0 51.5 10t36.5 28t24.5 39t20.5 45q3 8 4 11
q-48 54 -131 54q-57 0 -94.5 -22.5t-37.5 -63.5q0 -37 36 -69t90 -32zM508 211q54 0 97 31t43 68q0 40 -36 68.5t-94 28.5q-59 0 -89.5 -36.5t-54.5 -102.5q24 -30 53 -43.5t81 -13.5z" />
    <glyph glyph-name="plusminus.sc" 
d="M219 -15v215h-184v83h184v210h88v-210h184v-83h-184v-215h-88zM35 -145v83h456v-83h-456z" />
    <glyph glyph-name="lessequal.sc" 
d="M466 28l-453 213l454 214l31 -71l-260 -123l-59 -22l58 -21l260 -123zM35 -145v84h455v-84h-455z" />
    <glyph glyph-name="greaterequal.sc" 
d="M53 28l-31 67l259 123l59 21l-59 22l-260 123l31 71l454 -214zM35 -145v84h455v-84h-455z" />
    <glyph glyph-name="yen.sc" 
d="M69 0v37l41 8q45 9 47 20l11 43h-142v47h154l13 51h-133v47h115l-71 180q-7 14 -15 18l-31 8v37h245v-37l-33 -5q-23 -3 -16 -21l66 -165l116 163q12 19 -4 21l-43 6v38h180v-36l-33 -6q-17 -3 -32 -21l-140 -180h122v-47h-150l-13 -51h127v-47h-139l-11 -43
q-1 -4 1.5 -7t8.5 -5l10.5 -3.5t13.5 -3.5t11 -2l33 -7v-37h-309z" />
    <glyph glyph-name="ordfeminine.sc" horiz-adv-x="506" 
d="M56 267v26l28 4q12 2 24 18l214 321h47l53 -320q2 -11 10 -17q5 -3 23 -6v-26h-185v27l31 3q20 1 17 18l-8 45h-125l-28 -46q-9 -14 3 -16l29 -4v-27h-133zM32 156v45h399v-45h-399zM207 397h97l-19 122z" />
    <glyph glyph-name="ordmasculine.sc" horiz-adv-x="517" 
d="M264 259q-81 0 -127 40.5t-46 106.5q0 94 71.5 162t167.5 68q81 0 127 -39t46 -104q0 -96 -70 -165t-169 -69zM52 156v45h388v-45h-388zM264 287q60 0 97.5 64t37.5 142q0 55 -14.5 85t-54.5 30q-63 0 -99 -65t-36 -137q0 -119 69 -119z" />
    <glyph glyph-name="ae.sc" horiz-adv-x="802" 
d="M-59 0v36l39 6q16 3 33 24l269 357q17 21 -5 25l-51 11v37h486q48 0 79 9l-26 -162h-34q-3 62 -20 89q-35 24 -117 24h-7q-16 0 -48 -5l-42 -168h91q37 19 56 66h30l-47 -187h-30q2 53 -22 70h-91l-48 -186q27 -6 60 -6h20q68 0 112 26q48 42 75 94h35l-55 -160h-454v37
l41 9q26 5 29 19l16 64h-187l-47 -64q-13 -18 5 -22l40 -6v-37h-185zM166 180h162l68 273h-31z" />
    <glyph glyph-name="oslash.sc" horiz-adv-x="632" 
d="M91 -75l54 88q-55 25 -85 71t-30 108q0 131 99 223.5t233 92.5q46 0 82 -9l41 66h48l-49 -78q118 -48 118 -175q0 -132 -97 -227t-235 -95q-49 0 -85 10l-46 -75h-48zM190 86l226 367q-21 16 -54 16q-60 0 -104.5 -46.5t-64 -108t-19.5 -122.5q0 -66 16 -106zM270 29
q83 0 135.5 87.5t52.5 195.5q0 69 -16 106l-227 -369q22 -20 55 -20z" />
    <glyph glyph-name="questiondown.sc" horiz-adv-x="390" 
d="M265 385q-49 0 -49 46q0 31 21 54t57 23q22 0 36 -12t14 -33q0 -34 -23.5 -56t-55.5 -22zM155 -10q-72 0 -123.5 26.5t-51.5 77.5q0 37 23 65t57.5 46t70 34.5t66.5 41.5t42 57h36q-7 -33 -25.5 -58t-39.5 -41.5t-41 -34t-33.5 -45.5t-13.5 -65q0 -76 65 -76q28 0 44 6
q-22 22 -22 44t15.5 37t42.5 15q23 0 37.5 -12.5t14.5 -33.5q0 -28 -27 -47.5t-63 -28t-74 -8.5z" />
    <glyph glyph-name="exclamdown.sc" horiz-adv-x="296" 
d="M178 385q-49 0 -49 46q0 31 21 54t57 23q22 0 36 -12t14 -33q0 -34 -23.5 -56t-55.5 -22zM92 -10q-25 0 -43.5 6t-24.5 12l-6 6q117 244 138 307h37q-13 -66 -21 -307q-31 -24 -80 -24z" />
    <glyph glyph-name="logicalnot.sc" 
d="M405 42v158h-366v87h452v-245h-86z" />
    <glyph glyph-name="florin.sc" 
d="M50 -238q-38 0 -69 17.5t-31 51.5q0 31 18.5 46t46.5 15q31 0 46 -25t-1 -74q60 0 79 45t32 179l29 285h-113l33 64h86l11 105q7 65 34 113.5t65.5 74t78 37.5t80.5 12q39 0 73 -18t34 -53q0 -30 -18 -45t-45 -15q-26 0 -44.5 27t-2.5 72q-45 0 -68.5 -34t-31.5 -109
l-17 -167h133v-64h-139l-26 -265q-14 -136 -89 -205.5t-184 -69.5z" />
    <glyph glyph-name="approxequal.sc" horiz-adv-x="609" 
d="M408 436q-43 0 -100 30l-16 9q-17 9 -24 12t-20.5 7.5t-23.5 4.5q-28 0 -49 -16.5t-26 -37.5h-25q8 38 44.5 78t83.5 40q42 0 102 -35q45 -26 78 -26q27 0 49.5 17.5t26.5 38.5h23q-11 -55 -44.5 -88.5t-78.5 -33.5zM367 240q-44 0 -101 30l-16 9q-17 9 -24 12t-20.5 7.5
t-23.5 4.5q-28 0 -49 -16.5t-25 -37.5h-25q7 38 44 78t84 40q41 0 101 -35q45 -26 78 -26q27 0 49.5 17.5t27.5 38.5h23q-12 -56 -45 -89t-78 -33z" />
    <glyph glyph-name="guillemotleft.sc" horiz-adv-x="389" 
d="M306 102l-128 149l12 46l202 149l-11 -42l-102 -129v-2l38 -129zM132 102l-128 149l12 46l202 149l-11 -42l-102 -129v-2l38 -129z" />
    <glyph glyph-name="guillemotright.sc" horiz-adv-x="389" 
d="M171 102l11 42l102 129v2l-38 129l11 42l128 -149l-12 -46zM-3 102l11 42l102 129v2l-38 129l11 42l128 -149l-12 -46z" />
    <glyph glyph-name="oe.sc" horiz-adv-x="912" 
d="M270 -10q-112 0 -176 55.5t-64 146.5q0 131 99 223.5t233 92.5q83 0 148 -40l7 28h305q48 0 79 9l-26 -162h-34q-3 62 -20 89q-35 24 -117 24h-7q-16 0 -48 -5l-42 -168h91q37 19 56 66h30l-47 -187h-30q2 53 -22 70h-91l-48 -186q27 -6 60 -6h20q68 0 112 26
q48 42 75 94h35l-55 -160h-400l5 21q-64 -31 -128 -31zM270 29q83 0 135.5 87.5t52.5 195.5q0 75 -20.5 116t-75.5 41q-60 0 -104.5 -46.5t-64 -108t-19.5 -122.5q0 -163 96 -163z" />
    <glyph glyph-name="endash.sc" horiz-adv-x="488" 
d="M28 255v68h431v-68h-431z" />
    <glyph glyph-name="emdash.sc" horiz-adv-x="977" 
d="M28 255v68h922v-68h-922z" />
    <glyph glyph-name="quotedblleft.sc" horiz-adv-x="470" 
d="M343 195q-71 0 -71 80q0 45 18.5 88.5t46 73t49 48t36.5 26.5h65q-35 -19 -78 -66t-43 -94q28 -4 42 -17.5t14 -48.5t-24.5 -62.5t-54.5 -27.5zM138 195q-71 0 -71 80q0 45 18.5 88.5t46 73t49 48t36.5 26.5h65q-35 -19 -78 -66t-43 -94q28 -4 42 -17.5t14 -48.5
t-24.5 -62.5t-54.5 -27.5z" />
    <glyph glyph-name="quotedblright.sc" horiz-adv-x="470" 
d="M246 192q35 19 78 66t43 94q-28 4 -42 17.5t-14 48.5t24.5 62.5t54.5 27.5q71 0 71 -80q0 -45 -18.5 -88.5t-46 -73t-49 -48t-36.5 -26.5h-65zM41 192q35 19 78 66t43 94q-28 4 -42 17.5t-14 48.5t24.5 62.5t54.5 27.5q71 0 71 -80q0 -45 -18.5 -88.5t-46 -73t-49 -48
t-36.5 -26.5h-65z" />
    <glyph glyph-name="quoteleft.sc" horiz-adv-x="265" 
d="M134 195q-71 0 -71 80q0 45 18.5 88.5t46 73t49 48t36.5 26.5h65q-35 -19 -78 -66t-43 -94q28 -4 42 -17.5t14 -48.5t-24.5 -62.5t-54.5 -27.5z" />
    <glyph glyph-name="quoteright.sc" horiz-adv-x="265" 
d="M41 192q35 19 78 66t43 94q-28 4 -42 17.5t-14 48.5t24.5 62.5t54.5 27.5q71 0 71 -80q0 -45 -18.5 -88.5t-46 -73t-49 -48t-36.5 -26.5h-65z" />
    <glyph glyph-name="divide.sc" 
d="M265 343q-31 0 -52.5 20t-21.5 49t21.5 48.5t52.5 19.5q32 0 53 -19.5t21 -48.5t-21 -49t-53 -20zM36 201v84h456v-84h-456zM265 1q-32 0 -53 20t-21 50q0 28 21.5 48t52.5 20q32 0 53 -20t21 -48q0 -30 -21 -50t-53 -20z" />
    <glyph glyph-name="ydieresis.sc" horiz-adv-x="536" 
d="M77 0v37l41 8q45 9 47 20l36 142l-99 226q-7 14 -15 18l-31 8v37h245v-37l-33 -5q-25 -4 -16 -21l76 -165l126 163q15 18 -4 21l-43 6v38h180v-36l-33 -6q-17 -3 -32 -21l-174 -211l-40 -157q-1 -4 1.5 -7t8.5 -5l10.5 -3.5t13.5 -3.5t11 -2l33 -7v-37h-309zM262 573
q-22 0 -36 14.5t-14 35.5q0 28 20.5 49t48.5 21q23 0 37 -14.5t14 -36.5q0 -27 -21 -48t-49 -21zM465 572q-22 0 -36 14.5t-14 35.5q0 28 20.5 49t48.5 21q22 0 36.5 -14t14.5 -37q0 -27 -21 -48t-49 -21z" />
    <glyph glyph-name="Euro.sc" 
d="M257 -10q-95 0 -149 49.5t-54 142.5h-49l26 46h29q7 36 20 62h-51l27 47h46v0v0q48 81 129.5 126t178.5 45q67 0 98 -38.5t14 -98.5h-40q10 40 -3.5 70t-59.5 30q-55 0 -100 -37.5t-69 -96.5h155l-28 -47h-145q-11 -24 -18 -62h139l-27 -46h-121q-1 -8 -1 -25
q0 -126 83 -126t123 90h39q-20 -56 -68 -93.5t-124 -37.5z" />
    <glyph glyph-name="guilsinglleft.sc" horiz-adv-x="215" 
d="M132 102l-128 149l12 46l202 149l-11 -42l-102 -129v-2l38 -129z" />
    <glyph glyph-name="guilsinglright.sc" horiz-adv-x="215" 
d="M-3 102l11 42l102 129v2l-38 129l11 42l128 -149l-12 -46z" />
    <glyph glyph-name="daggerdbl.sc" horiz-adv-x="448" 
d="M57 -232l50 199h-152l23 91h151l45 180h-151l23 91h151l45 179h98l-45 -179h149l-23 -91h-149l-45 -180h149l-23 -91h-149l-49 -199h-98z" />
    <glyph glyph-name="perthousand.sc" horiz-adv-x="1080" 
d="M168 307q-58 0 -90.5 32.5t-32.5 91.5q0 79 63 139t147 60q59 0 91.5 -35t32.5 -86q0 -83 -63 -142.5t-148 -59.5zM110 -17l-44 29l558 623l39 -33zM824 -9q-58 0 -90.5 32.5t-32.5 91.5q0 79 63 139t147 60q59 0 91.5 -35t32.5 -86q0 -83 -63 -142.5t-148 -59.5zM465 -9
q-58 0 -90.5 32.5t-32.5 91.5q0 79 63 139t147 60q59 0 91.5 -35t32.5 -86q0 -83 -63 -142.5t-148 -59.5zM181 352q53 0 85.5 46.5t32.5 106.5q0 78 -57 78q-51 0 -85.5 -46t-34.5 -105q0 -80 59 -80zM837 36q53 0 85.5 46.5t32.5 106.5q0 78 -57 78q-51 0 -85.5 -46
t-34.5 -105q0 -80 59 -80zM478 36q53 0 85.5 46.5t32.5 106.5q0 78 -57 78q-51 0 -85.5 -46t-34.5 -105q0 -80 59 -80z" />
    <glyph glyph-name="dotlessi.sc" horiz-adv-x="332" 
d="M-16 0v37l41 9q16 3 21.5 6t7.5 13l92 367q4 5 0.5 9t-5 4.5t-10.5 2.5q-4 1 -7 2l-34 9v37h268v-37l-39 -9q-3 -1 -8.5 -2t-7.5 -1.5t-5 -2t-4.5 -3t-2.5 -4t-2 -5.5l-92 -367q-2 -8 1 -11t15 -6q4 -1 6 -2l33 -9v-37h-268z" />
    <glyph glyph-name="circumflex.sc" horiz-adv-x="643" 
d="M225 573l189 175h56l81 -175h-42l-90 79h-2l-150 -79h-42z" />
    <glyph glyph-name="tilde.sc" horiz-adv-x="643" 
d="M455 564q-39 0 -82 32l-6 5q-6 5 -7 5.5t-6.5 4.5t-7.5 4.5t-7 3t-8.5 3t-9 1.5t-10.5 1q-48 0 -62 -51h-24q11 49 41 83.5t78 34.5q11 0 21 -2t15.5 -3.5t14.5 -7t10.5 -7t10.5 -9.5l10 -8q26 -21 57 -21q26 0 42 15.5t21 37.5h22q-26 -122 -113 -122z" />
    <glyph glyph-name="macron.sc" horiz-adv-x="643" 
d="M282 573l16 62h228l-16 -62h-228z" />
    <glyph glyph-name="breve.sc" horiz-adv-x="643" 
d="M402 573q-76 0 -104.5 45.5t-14.5 100.5h34q-9 -35 16 -51t88 -16q64 0 96.5 16t41.5 51h34q-14 -56 -64.5 -101t-126.5 -45z" />
    <glyph glyph-name="dotaccent.sc" horiz-adv-x="643" 
d="M404 573q-27 0 -43.5 17.5t-16.5 43.5q0 32 24 56.5t55 24.5q27 0 44 -17.5t17 -44.5q0 -31 -24.5 -55.5t-55.5 -24.5z" />
    <glyph glyph-name="ring.sc" horiz-adv-x="643" 
d="M397 573q-37 0 -61 17t-24 53q0 49 37.5 78.5t82.5 29.5q39 0 62 -17.5t23 -52.5q0 -51 -36.5 -79.5t-83.5 -28.5zM401 593q31 0 46.5 24.5t15.5 60.5q0 52 -35 52q-30 0 -46 -23.5t-16 -59.5q0 -54 35 -54z" />
    <glyph glyph-name="cedilla.sc" horiz-adv-x="232" 
d="M84 -252q-48 0 -84 24l32 44q18 -44 50 -44q58 0 58 56q0 16 -14 37.5t-14 38.5q0 26 21.5 45t46.5 19l8 -4q-20 -13 -20 -32q0 -10 10 -21t22 -19.5t22 -24.5t10 -35q0 -84 -148 -84z" />
    <glyph glyph-name="hungarumlaut.sc" horiz-adv-x="643" 
d="M459 573l116 148q1 1 5.5 7l6 8t6 7t7 7t6.5 5.5t7.5 5t8 2.5t9.5 1q20 0 34.5 -13t14.5 -33t-33 -43l-160 -102h-28zM288 573l116 148q2 2 6.5 8t6.5 9t6.5 8t8 7.5t8 5.5t9.5 4t10 1q20 0 34.5 -13t14.5 -33t-33 -43l-159 -102h-28z" />
    <glyph glyph-name="ogonek.sc" horiz-adv-x="208" 
d="M128 -252q-128 0 -128 76q0 31 18 57.5t46 43.5t49.5 27t42.5 16h28q-96 -58 -96 -140q0 -32 17.5 -44t38.5 -12q24 0 64 24l-12 -36q-20 -12 -68 -12z" />
    <glyph glyph-name="caron.sc" horiz-adv-x="643" 
d="M373 573l-81 175h42l90 -80h2l150 80h42l-189 -175h-56z" />
    <glyph glyph-name="zero.oldstyle" 
d="M210 -10q-91 0 -144.5 46.5t-53.5 143.5q0 141 89 234.5t219 93.5q91 0 144 -45.5t53 -143.5q0 -145 -85 -237t-222 -92zM218 27q45 0 80.5 48.5t53.5 123t18 157.5q0 115 -58 115q-70 0 -111.5 -97t-41.5 -232q0 -115 59 -115z" />
    <glyph glyph-name="one.oldstyle" 
d="M41 0v35l102 12q21 3 26 22l77 310h-12l-146 -37v40q227 81 287 125h56l-109 -438q-4 -19 14 -22l81 -12v-35h-376z" />
    <glyph glyph-name="two.oldstyle" 
d="M-7 0l4 23l177 137q84 65 109 108.5t25 100.5q0 36 -21.5 53t-48.5 17q-96 0 -117 -97q0 -2 -0.5 -5t-1.5 -7t-1 -6h-33q0 10 4 34q13 62 61 106t128 44q72 0 118.5 -33.5t46.5 -95.5q0 -70 -43 -118.5t-168 -120.5l-97 -56h214q35 0 62 27l53 52h26q-12 -17 -35.5 -75.5
t-32.5 -87.5h-429z" />
    <glyph glyph-name="three.oldstyle" 
d="M126 -191q-77 0 -125 26t-48 76q0 25 17.5 41.5t38.5 16.5q28 0 43 -13.5t24 -45.5l15 -53q18 -11 43 -11q51 0 97 48.5t46 142.5q0 54 -23.5 87.5t-68.5 32.5q-24 0 -57 -11l11 46q81 9 135.5 53t54.5 117q0 35 -20 58.5t-56 23.5q-47 0 -86 -27t-52 -87h-32
q13 87 72 132.5t147 45.5q81 0 122 -37t41 -92q0 -59 -44.5 -103.5t-116.5 -65.5q57 -6 96.5 -49.5t39.5 -106.5q0 -61 -28 -109.5t-74 -77t-100.5 -43.5t-111.5 -15z" />
    <glyph glyph-name="four.oldstyle" 
d="M187 -191l48 191h-282l6 26l390 445q24 0 71.5 14t58.5 23h26l-113 -449h74l-14 -59h-74l-48 -191h-143zM42 59h207l85 335z" />
    <glyph glyph-name="five.oldstyle" 
d="M139 -190q-70 0 -121.5 26t-51.5 75q0 28 15.5 43t35.5 15q59 0 71 -46l17 -66q17 -15 43 -15q64 0 104.5 63t40.5 156q0 70 -20.5 102t-64.5 32q-69 0 -114 -30h-23l86 332h347l-42 -110h-288l-42 -162q42 25 106 25q97 0 151 -47t54 -135q0 -84 -45 -144.5t-112.5 -87
t-146.5 -26.5z" />
    <glyph glyph-name="six.oldstyle" 
d="M230 -13q-201 0 -201 208q0 95 26 177.5t76.5 145.5t131.5 99.5t184 36.5q90 0 133 -48l-15 -46q-41 41 -115 41q-87 0 -152 -68t-96 -164q48 40 119 40q77 0 126 -40t49 -119q0 -124 -74 -193.5t-192 -69.5zM236 22q45 0 75.5 62.5t30.5 158.5q0 114 -81 114
q-33 0 -73 -33q-21 -84 -21 -155q0 -70 15 -108.5t54 -38.5z" />
    <glyph glyph-name="seven.oldstyle" 
d="M-14 -191l426 578h-364l41 111h440l-4 -16l-428 -673h-111z" />
    <glyph glyph-name="eight.oldstyle" 
d="M200 -13q-88 0 -136.5 38t-48.5 109q0 70 49 115.5t123 64.5q-40 29 -60 62.5t-20 81.5q0 88 79 141.5t180 53.5q88 0 135 -39t47 -96q0 -58 -53.5 -107.5t-115.5 -65.5q103 -55 103 -143q0 -106 -80.5 -160.5t-201.5 -54.5zM347 363q80 59 80 149q0 100 -66 100
q-45 0 -76.5 -30t-31.5 -82q0 -18 4.5 -34.5t8 -26t17.5 -23.5l17.5 -17.5t24 -18.5t22.5 -17zM214 22q47 0 81.5 38t34.5 97q0 71 -114 138q-84 -61 -84 -158q0 -53 21.5 -84t60.5 -31z" />
    <glyph glyph-name="nine.oldstyle" 
d="M93 -191q-44 0 -86 15t-58 31l14 43q16 -15 50.5 -27.5t75.5 -12.5q175 0 241 243q-59 -46 -135 -46q-74 0 -121 44t-47 129q0 124 77 202t203 78q78 0 136.5 -50t58.5 -147q0 -259 -111 -380.5t-298 -121.5zM251 114q44 0 89 29q19 89 19 201q0 130 -60 130
q-54 0 -89 -71.5t-35 -168.5q0 -120 76 -120z" />
    </font>
</defs>
</svg>
