<?xml version="1.0" standalone="no"?>
<!DOCTYPE svg PUBLIC "-//W3C//DTD SVG 1.1//EN" "http://www.w3.org/Graphics/SVG/1.1/DTD/svg11.dtd" >
<svg>
<metadata>
Created by FontForge 20120731 at Wed Jun 15 23:29:16 2016
 By ,,,
Copyright (c) OurType, 2002. All rights reserved.
</metadata>
<defs>
<font id="Arnhem-Normal" horiz-adv-x="528" >
  <font-face 
    font-family="Arnhem Rg"
    font-weight="400"
    font-stretch="normal"
    units-per-em="1000"
    panose-1="2 0 6 3 8 0 0 2 0 4"
    ascent="800"
    descent="-200"
    x-height="456"
    cap-height="620"
    bbox="-324 -272 1059 873"
    underline-thickness="20"
    underline-position="-113"
    unicode-range="U+0020-FB02"
  />
<missing-glyph horiz-adv-x="500" 
 />
    <glyph glyph-name="fi" unicode="fi" horiz-adv-x="602" 
d="M34 0v24l34 9q29 7 31 12q1 3 1 8v360h-69l17 45h53v13q0 103 66.5 169t173.5 66q62 0 109.5 -25.5t47.5 -69.5q0 -26 -16.5 -40.5t-39.5 -14.5q-17 0 -33 12t-21.5 34.5t14.5 54.5q-18 20 -56 20q-69 0 -106 -50.5t-37 -135.5v-33h166l112 23h30v-428q0 -10 4 -12t27 -8
l34 -9v-24h-234v24l34 9q3 1 7.5 2t6.5 1.5t5 1.5l4.5 1.5l3 1t2 1.5t1.5 2t1.5 2.5t0.5 3v3.5v330q0 18 -4 24t-17 6h-184v-353q0 -10 5.5 -13.5t25.5 -8.5l56 -14v-24h-256z" />
    <glyph glyph-name="fl" unicode="fl" horiz-adv-x="591" 
d="M34 0v24l34 9q29 7 31 12q1 3 1 8v360h-69l17 45h53v19q0 61 20 107t53 72t71.5 38.5t80.5 12.5q48 0 84 -19l67 19h30q-8 -56 -8 -145v-509q0 -10 4 -12t27 -8l34 -9v-24h-230v24l31 9l8 2t6.5 1.5t5 1.5t4 1.5l3 1t2.5 1.5t1.5 2t1 2.5t0.5 3v3.5v520q0 47 -22 74
t-57 27q-52 0 -83.5 -43t-31.5 -114v-59h105v-45h-105v-353q0 -10 5.5 -13.5t25.5 -8.5l56 -14v-24h-256z" />
    <glyph glyph-name=".notdef" horiz-adv-x="500" 
 />
    <glyph glyph-name=".null" horiz-adv-x="0" 
 />
    <glyph glyph-name="nonmarkingreturn" horiz-adv-x="333" 
 />
    <glyph glyph-name="space" unicode=" " horiz-adv-x="200" 
 />
    <glyph glyph-name="space" unicode="&#xa0;" horiz-adv-x="200" 
 />
    <glyph glyph-name="exclam" unicode="!" horiz-adv-x="267" 
d="M119 185q0 44 -13.5 171t-34.5 256q29 24 62 24q17 0 33.5 -6t25.5 -12l8 -6q-22 -124 -35 -250.5t-13 -176.5h-33zM135 -13q-27 0 -46 18.5t-19 45.5q0 26 18.5 44.5t46.5 18.5q27 0 45 -18.5t18 -44.5q0 -27 -18 -45.5t-45 -18.5z" />
    <glyph glyph-name="quotedbl" unicode="&#x22;" horiz-adv-x="394" 
d="M270 444q-2 27 -17 80.5t-30 87.5q23 24 56 24q17 0 32 -6t22 -12l7 -6q-14 -32 -28.5 -85t-18.5 -83h-23zM101 444q-2 27 -17 80.5t-30 87.5q23 24 56 24q17 0 32 -6t22 -12l7 -6q-14 -32 -28.5 -85t-18.5 -83h-23z" />
    <glyph glyph-name="numbersign" unicode="#" horiz-adv-x="745" 
d="M176 -122l-51 14l79 237h-138l15 43h138l53 156h-155l15 43h155l79 238l49 -15l-73 -223h148l78 237l49 -15l-74 -222h148l-15 -43h-148l-52 -156h172l-15 -43h-172l-84 -251l-49 14l79 237h-148zM274 172h148l52 156h-146z" />
    <glyph glyph-name="dollar" unicode="$" 
d="M253 -91v79q-96 0 -154 31l-18 -31h-17h-5v4q0 2 0.5 8t0.5 9q0 18 -5 208h30q20 -103 37 -137q44 -58 120 -58h11v257l-46 19q-136 57 -136 173q0 70 52 115.5t130 50.5v58h27v-58q72 -3 125 -35l21 30h21l6 -195h-27q-13 69 -43 114q-49 49 -103 53v-231l65 -29
q126 -57 126 -172q0 -78 -53.5 -126.5t-137.5 -56.5v-80h-27zM253 385v218q-41 -5 -66.5 -33t-25.5 -72q0 -39 18.5 -64.5t61.5 -43.5zM280 26q44 10 69 41.5t25 77.5t-24.5 74t-69.5 48v-241z" />
    <glyph glyph-name="percent" unicode="%" horiz-adv-x="721" 
d="M177 307q-65 0 -111.5 47t-46.5 115t46 114.5t112 46.5t112 -46.5t46 -114.5t-46.5 -115t-111.5 -47zM177 -12l-38 28l413 617l35 -30zM545 -10q-65 0 -111.5 47t-46.5 115t46 114.5t112 46.5t112 -46.5t46 -114.5t-46.5 -115t-111.5 -47zM177 348q44 0 71.5 33t27.5 86
q0 54 -27.5 87t-71.5 33t-72 -33t-28 -87q0 -52 28.5 -85.5t71.5 -33.5zM545 31q44 0 71.5 33t27.5 86q0 54 -27.5 87t-71.5 33t-72 -33t-28 -87q0 -52 28.5 -85.5t71.5 -33.5z" />
    <glyph glyph-name="ampersand" unicode="&#x26;" horiz-adv-x="584" 
d="M203 -10q-91 0 -139.5 47t-48.5 119q0 104 130 164l-46 53q-47 55 -47 111q0 78 53 115t119 37q76 0 118 -39t42 -94q0 -100 -135 -170l159 -172q29 57 29 143q0 9 -4 11.5t-22 7.5l-32 8v26h176v-26l-50 -11q-10 -2 -13.5 -6.5t-3.5 -16.5q0 -104 -51 -168l55 -60
q25 -32 82 -49v-20q-88 -1 -121.5 6.5t-64.5 41.5l-11 12q-79 -70 -174 -70zM224 360q76 51 76 143q0 97 -79 97q-35 0 -56.5 -27t-21.5 -78q0 -44 42 -91zM236 51q67 0 112 42l-175 197q-60 -49 -60 -111t34.5 -95t88.5 -33z" />
    <glyph glyph-name="quotesingle" unicode="'" horiz-adv-x="231" 
d="M104 444q-2 27 -17 80.5t-30 87.5q23 24 56 24q17 0 32 -6t22 -12l7 -6q-14 -32 -28.5 -85t-18.5 -83h-23z" />
    <glyph glyph-name="parenleft" unicode="(" horiz-adv-x="310" 
d="M278 -152q-100 0 -168 100t-68 273v89q0 173 68 275.5t168 102.5v-29q-71 0 -113.5 -94t-42.5 -257v-78q0 -164 42.5 -258.5t113.5 -94.5v-29z" />
    <glyph glyph-name="parenright" unicode=")" horiz-adv-x="310" 
d="M31 -152v29q71 0 114 99t43 263v62q0 164 -43 261t-114 97v29q101 0 169 -102t68 -275v-72q0 -175 -68.5 -283t-168.5 -108z" />
    <glyph glyph-name="asterisk" unicode="*" horiz-adv-x="469" 
d="M293 283l-70 125l-108 -94l-13 11l72 123l-134 47l3 17l142 -2l-26 140l17 7l70 -126l107 94l14 -11l-72 -123l134 -46l-4 -18l-141 2l26 -140z" />
    <glyph glyph-name="plus" unicode="+" 
d="M235 -33v251h-200v47h200v228h56v-228h200v-47h-200v-251h-56z" />
    <glyph glyph-name="comma" unicode="," horiz-adv-x="265" 
d="M60 -184q31 28 54.5 74.5t23.5 97.5q-32 0 -51.5 18.5t-19.5 49.5q0 29 20.5 49t48.5 20q33 0 53.5 -23t20.5 -68q0 -73 -32 -131.5t-66 -86.5h-52z" />
    <glyph glyph-name="hyphen" unicode="-" horiz-adv-x="284" 
d="M28 253v70h228v-70h-228z" />
    <glyph glyph-name="hyphen" unicode="&#xad;" horiz-adv-x="284" 
d="M28 253v70h228v-70h-228z" />
    <glyph glyph-name="period" unicode="." horiz-adv-x="265" 
d="M135 -10q-29 0 -49 20t-20 49q0 28 20 48t49 20q28 0 48 -20t20 -48q0 -29 -20 -49t-48 -20z" />
    <glyph glyph-name="slash" unicode="/" horiz-adv-x="308" 
d="M19 -75l219 764h51l-219 -764h-51z" />
    <glyph glyph-name="zero" unicode="0" 
d="M265 -12q-105 0 -163.5 85.5t-58.5 234.5q0 143 59 232.5t163 89.5q106 0 163.5 -85t57.5 -236q0 -144 -58 -232.5t-163 -88.5zM265 25q34 0 56.5 20.5t33.5 62t15 88t4 113.5q0 58 -3.5 101t-14 88.5t-33.5 69.5t-58 24q-34 0 -56.5 -20.5t-33.5 -62.5t-15 -87.5
t-4 -112.5q0 -135 24 -209.5t85 -74.5z" />
    <glyph glyph-name="one" unicode="1" 
d="M89 0v30l107 14q18 2 23 8.5t5 24.5v447h-12l-131 -50l-8 30q175 81 224 125h32v-552q0 -19 6 -25.5t23 -8.5l97 -13v-30h-366z" />
    <glyph glyph-name="two" unicode="2" 
d="M51 0v29l160 169q35 37 55.5 62.5t43 76.5t22.5 104q0 63 -29.5 97t-79.5 34q-56 0 -92 -37t-36 -99q0 -19 1 -29h-26q-4 17 -4 40q0 73 49 127.5t139 54.5q85 0 135 -45t50 -128q0 -29 -10.5 -59.5t-21 -51t-37 -51t-36 -40.5t-43.5 -41l-34 -31l-113 -107h234
q20 0 28 13l61 98h24q-9 -32 -19 -76t-17 -77l-7 -33h-397z" />
    <glyph glyph-name="three" unicode="3" 
d="M227 -13q-33 0 -69.5 9t-68 31.5t-31.5 53.5q0 25 13 40.5t38 15.5q24 0 40 -17.5t18 -43.5l3 -39q25 -19 57 -19q129 0 129 154q0 58 -36 91.5t-92 33.5q-29 0 -50 -10v35q53 6 91 27q71 38 75 130q2 48 -27.5 73t-71.5 25q-54 0 -90 -29t-36 -88h-26q0 72 47.5 121
t126.5 49q80 0 126.5 -37t46.5 -103q0 -52 -36 -93.5t-90 -58.5q150 -31 150 -164q0 -89 -64 -138t-173 -49z" />
    <glyph glyph-name="four" unicode="4" 
d="M198 0v30l73 10q11 2 14.5 5.5t3.5 13.5v103h-266v26l262 413q18 2 50 12t41 17h18v-424h80v-44h-80v-104q0 -9 3 -13t14 -6l54 -9v-30h-267zM82 206h207v336z" />
    <glyph glyph-name="five" unicode="5" 
d="M229 -13q-33 0 -67 7.5t-64 31t-30 58.5q0 23 15 37t34 14q54 0 60 -61l4 -39q23 -16 49 -16q63 0 95 48.5t32 119.5q0 77 -36.5 117t-98.5 40q-54 0 -100 -37h-21q23 156 21 313h330l-30 -88h-262q0 -27 -3.5 -70.5t-6.5 -73.5l-4 -31q49 29 106 29q108 0 160.5 -53.5
t52.5 -136.5q0 -88 -66.5 -148.5t-169.5 -60.5z" />
    <glyph glyph-name="six" unicode="6" 
d="M274 -13q-43 0 -79.5 14t-69 44.5t-51.5 88t-19 136.5q0 172 85 266t208 94q64 0 115 -30v-34q-35 20 -98 20q-78 0 -133.5 -66t-69.5 -197q52 67 136 67q86 0 139 -49.5t53 -140.5t-58.5 -152t-157.5 -61zM281 20q51 0 79 48.5t28 121.5q0 72 -31 112t-87 40
q-63 0 -111 -58q0 -4 -0.5 -12t-0.5 -12q0 -240 123 -240z" />
    <glyph glyph-name="seven" unicode="7" 
d="M113 0l295 532h-353l14 88h415v-16l-279 -604h-92z" />
    <glyph glyph-name="eight" unicode="8" 
d="M262 -13q-93 0 -147.5 42t-54.5 117q0 114 136 163q-22 10 -37.5 19.5t-36.5 28.5t-32.5 48.5t-11.5 67.5q0 77 59 117.5t139 40.5q99 0 145.5 -47t46.5 -112q0 -104 -132 -146q59 -18 98 -63.5t39 -106.5q0 -60 -33.5 -100t-78.5 -54.5t-99 -14.5zM303 337
q39 25 56.5 54.5t17.5 80.5q0 56 -26 91.5t-78 35.5q-43 0 -70.5 -31.5t-27.5 -89.5q0 -28 7.5 -49t16.5 -33.5t30 -25t33 -17.5t41 -16zM262 20q48 0 77 32t29 93q0 34 -11.5 60t-35 43t-45.5 26.5t-56 20.5q-35 -26 -49.5 -59t-14.5 -91q0 -57 30 -91t76 -34z" />
    <glyph glyph-name="nine" unicode="9" 
d="M165 -14q-57 0 -95 24v31q32 -13 83 -13q100 0 156 72t69 184q-52 -63 -133 -63q-86 0 -142 53.5t-56 144.5q0 94 58 152.5t154 58.5q112 0 169 -75.5t57 -205.5q0 -158 -84 -260.5t-236 -102.5zM277 272q36 0 68 19q19 10 36 29v25q0 49 -4 86.5t-16 78.5t-38 63.5
t-65 22.5q-53 0 -82 -46.5t-29 -123.5q0 -69 33.5 -111.5t96.5 -42.5z" />
    <glyph glyph-name="colon" unicode=":" horiz-adv-x="265" 
d="M135 294q-29 0 -49 20t-20 48q0 29 20 48.5t49 19.5t48.5 -20t19.5 -48t-20 -48t-48 -20zM135 -10q-29 0 -49 20t-20 49q0 28 20 48t49 20q28 0 48 -20t20 -48q0 -29 -20 -49t-48 -20z" />
    <glyph glyph-name="semicolon" unicode=";" horiz-adv-x="265" 
d="M135 293q-29 0 -49 20t-20 49q0 28 20 48t49 20q28 0 48 -20t20 -48q0 -29 -20 -49t-48 -20zM60 -184q31 28 54.5 74.5t23.5 97.5q-32 0 -51.5 18.5t-19.5 49.5q0 29 20.5 49t48.5 20q33 0 53.5 -23t20.5 -68q0 -73 -32 -131.5t-66 -86.5h-52z" />
    <glyph glyph-name="semicolon" unicode="&#x37e;" horiz-adv-x="265" 
d="M135 293q-29 0 -49 20t-20 49q0 28 20 48t49 20q28 0 48 -20t20 -48q0 -29 -20 -49t-48 -20zM60 -184q31 28 54.5 74.5t23.5 97.5q-32 0 -51.5 18.5t-19.5 49.5q0 29 20.5 49t48.5 20q33 0 53.5 -23t20.5 -68q0 -73 -32 -131.5t-66 -86.5h-52z" />
    <glyph glyph-name="less" unicode="&#x3c;" 
d="M468 28l-454 213l454 214l20 -41l-313 -153l-59 -22l58 -21l314 -150z" />
    <glyph glyph-name="equal" unicode="=" 
d="M35 315v48h456v-48h-456zM35 119v48h456v-48h-456z" />
    <glyph glyph-name="greater" unicode="&#x3e;" 
d="M52 27l-20 41l315 151l57 20l-60 22l-312 153l20 41l454 -214z" />
    <glyph glyph-name="question" unicode="?" horiz-adv-x="460" 
d="M153 195q-2 22 1.5 41t7 30.5t16.5 25t16.5 17t21.5 16t19 13.5q39 28 57 61.5t18 87.5q0 56 -26.5 82.5t-82.5 26.5q-32 0 -64 -23q12 -33 12 -50q0 -22 -14 -38t-39 -16q-41 0 -41 44q0 37 53 74l20 14q21 14 54 24.5t61 10.5q74 0 118.5 -36t44.5 -104
q0 -33 -9.5 -59.5t-32.5 -50t-40 -36t-53 -36.5q-10 -7 -15 -10q-24 -16 -34 -30t-10 -34q0 -16 12 -45h-71zM182 -13q-27 0 -45.5 19t-18.5 45t18.5 44.5t45.5 18.5q28 0 46 -18t18 -45t-18.5 -45.5t-45.5 -18.5z" />
    <glyph glyph-name="at" unicode="@" horiz-adv-x="942" 
d="M471 -184q-188 0 -307.5 119.5t-119.5 293.5q0 119 60 213t157 144t210 50q117 0 211.5 -44.5t154.5 -139.5t60 -227q0 -105 -64.5 -185t-165.5 -80q-121 0 -136 106q-49 -78 -138 -78q-62 0 -96 31t-34 87q0 31 16 55.5t46.5 41t57.5 26.5t66 20l81 21v55q0 112 -96 112
q-42 0 -71 -20l14 -24q11 -20 11 -37q0 -23 -14 -39.5t-41 -16.5q-50 0 -50 54q0 42 59 80l26 17q44 30 106 30q158 0 158 -144v-221q0 -31 0.5 -44t4.5 -30.5t12 -23.5t23 -10.5t38 -4.5q52 0 89.5 66t37.5 156q0 173 -98.5 272.5t-267.5 99.5q-166 0 -265 -105.5
t-99 -262.5q0 -160 102.5 -267.5t261.5 -107.5q112 0 188 44l14 -22q-95 -60 -202 -60zM436 44q58 0 94 54v140l-69 -22q-20 -7 -34.5 -13t-31.5 -17.5t-26 -28t-9 -37.5q0 -36 20 -56t56 -20z" />
    <glyph glyph-name="A" unicode="A" horiz-adv-x="604" 
d="M-14 0v29l45 11q18 4 25 23l216 573h56l215 -574q6 -17 25 -23l35 -10v-29h-252v29l53 11q24 6 16 26l-43 116h-221l-41 -120q-6 -17 14 -22l52 -11v-29h-195zM170 226h191l-98 268z" />
    <glyph glyph-name="B" unicode="B" horiz-adv-x="626" 
d="M38 0v29l55 11q18 4 22.5 7.5t4.5 13.5v497q0 10 -4.5 13.5t-21.5 7.5l-56 12v29h298q103 0 159 -40t56 -113q0 -51 -38.5 -89t-92.5 -54q70 -15 114 -56t44 -101q0 -46 -19.5 -80t-53 -52t-71.5 -26.5t-81 -8.5h-315zM236 336h58q73 0 109 30t36 99q0 121 -131 121h-17
q-31 0 -55 -8v-242zM299 34h25q135 0 135 136q0 64 -46.5 98.5t-122.5 34.5h-54v-261q30 -8 63 -8z" />
    <glyph glyph-name="C" unicode="C" horiz-adv-x="666" 
d="M372 -12q-156 0 -244 94t-88 229q0 142 98.5 233.5t248.5 91.5q97 0 166 -31l19 25h21l11 -215h-27q-21 102 -50 141q-52 48 -137 48q-60 0 -104.5 -24.5t-69 -66.5t-36.5 -91t-12 -105q0 -130 58.5 -212t149.5 -82q74 0 134 42q15 15 36 62.5t31 83.5h28l-34 -186
q-80 -37 -199 -37z" />
    <glyph glyph-name="D" unicode="D" horiz-adv-x="715" 
d="M38 0v29l55 12q19 4 23 7t4 13v497q0 10 -4.5 13.5t-21.5 7.5l-56 12v29h301q145 0 242.5 -80.5t97.5 -221.5q0 -135 -87 -226.5t-229 -91.5h-325zM316 33h20q100 0 160 75.5t60 205.5q0 56 -11.5 103t-37.5 87t-73 62.5t-112 22.5h-21q-37 0 -65 -13v-532q31 -11 80 -11
z" />
    <glyph glyph-name="E" unicode="E" horiz-adv-x="606" 
d="M38 0v29l55 12q19 4 23 7t4 13v497q0 10 -4.5 13.5t-21.5 7.5l-56 12v29h398q47 0 80 11l18 -199h-27q-22 86 -50 122q-18 12 -58.5 21t-84.5 9h-9q-37 0 -69 -6v-235h111q20 12 36.5 40t20.5 53h20v-229h-20q-15 67 -57 96h-111v-261q51 -7 84 -7h23q33 0 71.5 8
t57.5 23q36 43 61 129h27l-29 -195h-493z" />
    <glyph glyph-name="F" unicode="F" horiz-adv-x="558" 
d="M46 0v29l55 12q19 4 23 7t4 13v497q0 10 -4 13t-22 7l-64 13v29h370q71 0 106 11l18 -199h-27q-20 83 -50 122q-18 12 -56 21t-77 9h-10q-33 0 -69 -9v-243h119q16 12 31.5 40.5t18.5 51.5h23v-236h-23q-7 28 -21.5 60t-28.5 45h-119v-230q0 -10 3.5 -12.5t15.5 -4.5
q4 -1 6 -1l81 -16v-29h-303z" />
    <glyph glyph-name="G" unicode="G" horiz-adv-x="696" 
d="M358 -10q-147 0 -234.5 95.5t-87.5 236.5q0 137 100 225.5t261 88.5q101 0 170 -33l19 26h21l11 -216h-27q-7 35 -22.5 79.5t-29.5 63.5q-50 46 -145 46q-108 0 -169 -76.5t-61 -197.5q0 -142 60.5 -223.5t152.5 -81.5q36 0 69.5 11t51.5 29v177q0 11 -4 14.5t-19 7.5
l-68 18v28h246v-24l-18 -7q-16 -8 -20 -13t-4 -19v-184l5 -19q-38 -21 -109.5 -36.5t-148.5 -15.5z" />
    <glyph glyph-name="H" unicode="H" horiz-adv-x="783" 
d="M38 0v29l55 12q19 4 23 7t4 13v497q0 10 -4 13t-22 7l-56 13v29h274v-29l-49 -12q-18 -5 -22.5 -8t-4.5 -13v-213h311v213q0 11 -4.5 14.5t-21.5 7.5l-50 11v29h274v-29l-55 -12q-18 -4 -22.5 -7.5t-4.5 -13.5v-497q0 -10 4.5 -13t21.5 -7l56 -13v-28h-274v28l49 12
q19 5 23 8t4 13v237h-311v-237q0 -10 4.5 -13.5t21.5 -7.5l50 -11v-29h-274z" />
    <glyph glyph-name="I" unicode="I" horiz-adv-x="356" 
d="M38 0v29l55 12q19 4 23 7t4 13v497q0 10 -4 13t-22 7l-56 13v29h280v-29l-55 -13q-18 -4 -22.5 -7t-4.5 -13v-497q0 -10 4 -13t22 -7l56 -12v-29h-280z" />
    <glyph glyph-name="J" unicode="J" horiz-adv-x="356" 
d="M29 -202q-36 0 -62.5 16.5t-26.5 48.5q0 24 17 40.5t40 16.5q34 0 46.5 -29t-1.5 -63q35 6 56.5 38t21.5 118v574q0 10 -4.5 13.5t-21.5 6.5l-62 12v30h286v-30l-55 -12q-18 -4 -22.5 -7t-4.5 -13v-547q0 -109 -59.5 -161t-147.5 -52z" />
    <glyph glyph-name="K" unicode="K" horiz-adv-x="663" 
d="M487 0q-40 32 -111 132l-120 172q-3 4 -7.5 6t-8.5 3l-5 1v7q26 11 34 21l202 213q21 21 -11 27l-43 9v29h221v-29l-37 -8q-35 -8 -60 -32l-194 -190l146 -199q67 -92 117 -120l46 -13v-29h-169zM38 0v29l55 12q19 4 23 7t4 13v497q0 10 -4 13t-22 7l-56 13v29h280v-29
l-55 -12q-18 -4 -22.5 -7.5t-4.5 -13.5v-497q0 -10 4 -13t22 -7l56 -12v-29h-280z" />
    <glyph glyph-name="L" unicode="L" horiz-adv-x="569" 
d="M39 0v29l54 12q19 4 23 7t4 13v497q0 10 -4 13t-22 7l-56 13v29h291v-29l-67 -13q-17 -3 -21.5 -6.5t-4.5 -13.5v-476q0 -47 77 -47h11q83 0 128 31q31 39 54 97l20 52h27l-46 -215h-468z" />
    <glyph glyph-name="M" unicode="M" horiz-adv-x="895" 
d="M27 0v29l68 10q17 2 21 28q0 6 1.5 22t2.5 35t1 39v394v5t-1 4l-1.5 3t-2 2t-2.5 1.5t-4 1.5t-5 1.5t-6.5 1.5t-7.5 2l-52 12v30h190l217 -453l224 452h186v-28l-56 -14q-16 -4 -20 -7.5t-4 -12.5v-497q0 -10 4 -13t22 -7l55 -12v-29h-272v29l47 11q18 4 22.5 7.5
t4.5 13.5v438l-245 -498h-6l-236 486v-323q0 -43 5 -95q0 -27 17 -29l71 -11v-29h-238z" />
    <glyph glyph-name="N" unicode="N" horiz-adv-x="725" 
d="M580 -12l-417 521v-343q0 -48 6 -105q3 -18 18 -20l81 -12v-29h-238v29l60 10q15 2 18 20q0 6 2 26t3 41.5t1 38.5v392q0 11 -4.5 14t-24.5 8l-49 11v30h174l355 -444v276q0 59 -6 103q-2 22 -19 24l-81 12v29h238v-29l-59 -10q-20 -3 -20 -23q0 -6 -1.5 -24.5t-2.5 -39
t-1 -40.5v-466h-33z" />
    <glyph glyph-name="O" unicode="O" horiz-adv-x="722" 
d="M360 -13q-141 0 -232.5 99t-91.5 232q0 132 91 225t233 93t233.5 -93t91.5 -225q0 -134 -92 -232.5t-233 -98.5zM360 24q69 0 115 45.5t64.5 109.5t18.5 139q0 55 -11 103.5t-33 89.5t-61.5 65t-92.5 24q-52 0 -91 -24t-61.5 -65t-33.5 -89.5t-11 -103.5q0 -76 18 -139.5
t64.5 -109t114.5 -45.5z" />
    <glyph glyph-name="P" unicode="P" horiz-adv-x="581" 
d="M38 0v29l55 12q19 4 23 7t4 13v497q0 10 -4.5 13.5t-21.5 7.5l-56 13v28h286q103 0 171 -42.5t68 -126.5q0 -90 -58 -144.5t-166 -54.5q-57 0 -103 8v-198q0 -11 4 -15t19 -6l77 -12v-29h-298zM236 286h38q91 0 132.5 39.5t41.5 122.5q0 138 -144 138h-12q-32 0 -56 -8
v-292z" />
    <glyph glyph-name="Q" unicode="Q" horiz-adv-x="722" 
d="M506 -202q-63 44 -154 189q-137 2 -226.5 100.5t-89.5 230.5t91 225t233 93t233.5 -93t91.5 -225q0 -124 -68.5 -207.5t-173.5 -113.5q80 -110 151 -156q1 -1 15 -4t30 -6.5t21 -5.5v-27h-154zM360 24q69 0 115 45.5t64.5 109.5t18.5 139q0 55 -11 103.5t-33 89.5
t-61.5 65t-92.5 24q-52 0 -91 -24t-61.5 -65t-33.5 -89.5t-11 -103.5q0 -76 18 -139.5t64.5 -109t114.5 -45.5z" />
    <glyph glyph-name="R" unicode="R" horiz-adv-x="649" 
d="M38 0v29l55 12q19 4 23 7t4 13v497q0 10 -4.5 13.5t-21.5 7.5l-56 13v28h289q106 0 171.5 -42t65.5 -121q0 -59 -47.5 -106t-113.5 -61q28 -18 71 -85l58 -93q29 -47 62 -68l55 -15v-29h-160q-30 19 -84 111l-93 158h-76v-207q0 -11 4 -14.5t20 -6.5l57 -12v-29h-279z
M236 307h59q76 0 114 38t38 109q0 132 -139 132h-17q-17 0 -55 -10v-269z" />
    <glyph glyph-name="S" unicode="S" horiz-adv-x="519" 
d="M49 -12q1 14 -4 229h31q18 -95 40 -138q45 -57 114 -57q60 0 94 33.5t34 88.5q0 49 -25 76.5t-72 47.5l-63 26q-71 29 -107 71t-36 105q0 74 61.5 120t150.5 46q74 0 134 -34l21 29h21l6 -196h-29q-14 72 -43 116q-52 52 -111 52q-44 0 -73.5 -27.5t-29.5 -74.5
q0 -39 19.5 -64.5t62.5 -45.5l91 -43q28 -13 48 -26t42.5 -33.5t34.5 -50t12 -65.5q0 -86 -65 -135.5t-167 -49.5q-91 0 -153 30l-17 -30h-22z" />
    <glyph glyph-name="T" unicode="T" horiz-adv-x="605" 
d="M153 0v29l64 13q19 4 23 6.5t4 12.5v524h-35q-87 0 -124 -24q-28 -41 -48 -127h-27l7 199q32 -13 92 -13h397q56 0 82 12l7 -199h-28q-16 76 -48 127q-42 25 -114 25h-45v-524q0 -10 4 -12.5t22 -6.5l66 -13v-29h-299z" />
    <glyph glyph-name="U" unicode="U" horiz-adv-x="702" 
d="M360 -13q-117 0 -187 62.5t-70 182.5v326q0 10 -4 14.5t-18 7.5l-48 11v29h267v-29l-59 -12q-14 -3 -18 -7t-4 -15v-325q0 -94 41.5 -145t113.5 -51q89 0 132.5 56.5t43.5 148.5v317q0 9 -4 13t-19 7l-63 13v29h207v-29l-44 -11q-15 -4 -19 -8t-4 -14v-317
q0 -120 -64.5 -187t-179.5 -67z" />
    <glyph glyph-name="V" unicode="V" horiz-adv-x="612" 
d="M270 -11l-223 568q-3 8 -8 12.5t-9 6.5t-13 5l-27 9v30h249v-30l-52 -11q-15 -3 -18.5 -7.5t0.5 -17.5l165 -426l167 429q5 10 1 14.5t-21 8.5l-47 11v29h188v-29l-32 -10q-1 0 -4 -1l-4.5 -1.5t-4 -1.5t-4 -2t-3.5 -3t-3.5 -4t-3.5 -5t-3 -6l-242 -568h-48z" />
    <glyph glyph-name="W" unicode="W" horiz-adv-x="941" 
d="M242 -11l-197 569q-6 16 -31 24l-25 9v29h248v-29l-48 -11q-16 -4 -20 -7.5t-1 -12.5l140 -427l134 361l-26 64q-6 17 -29 24l-28 9v29h240v-29l-45 -11q-23 -6 -16 -25l151 -419l142 419q4 12 -0.5 16.5t-25.5 9.5l-48 10v29h195v-29l-32 -10q-10 -3 -13 -4t-8.5 -6
t-8.5 -14l-217 -568h-46l-158 433l-180 -433h-47z" />
    <glyph glyph-name="X" unicode="X" horiz-adv-x="621" 
d="M-1 0v29l38 11q23 4 37 22l182 238l-192 258q-13 18 -31 24l-24 9v29h252v-29l-43 -8q-32 -5 -18 -25l130 -182l121 176q6 10 3 15t-19 11l-50 14v28h212v-28l-42 -11q-21 -5 -35 -23l-164 -217l196 -266q22 -31 42 -37l28 -8v-30h-256v30l47 10q14 3 16.5 8.5t-6.5 17.5
l-141 197l-134 -191q-14 -20 17 -29l45 -14v-29h-211z" />
    <glyph glyph-name="Y" unicode="Y" horiz-adv-x="604" 
d="M156 0v29l67 14q16 3 21.5 7t5.5 13v194l-195 299q-12 18 -28 24l-28 10v30h249v-30l-46 -11q-15 -4 -18 -6t2 -14l156 -240l139 237q6 13 1.5 17.5t-25.5 8.5l-44 9v29h193v-29l-29 -8q-24 -6 -35 -25l-177 -282v-213q0 -10 4 -13t22 -7l68 -14v-29h-303z" />
    <glyph glyph-name="Z" unicode="Z" horiz-adv-x="563" 
d="M34 0v19l358 560h-128q-107 0 -135 -10q-34 -44 -54 -126h-27l11 187q36 -10 87 -10h389v-17l-356 -560h132q103 0 139 15q20 22 42 60t33 70h27l-33 -188h-485z" />
    <glyph glyph-name="bracketleft" unicode="[" horiz-adv-x="321" 
d="M62 -168v856h225v-53l-154 12v-773l156 13v-55h-227z" />
    <glyph glyph-name="backslash" unicode="\" horiz-adv-x="308" 
d="M238 -75l-219 764h51l219 -764h-51z" />
    <glyph glyph-name="bracketright" unicode="]" horiz-adv-x="320" 
d="M33 -168v53l154 -12v773l-155 -12v54h226v-856h-225z" />
    <glyph glyph-name="asciicircum" unicode="^" horiz-adv-x="488" 
d="M72 504l161 205h22l161 -205h-31l-140 122h-2l-140 -122h-31z" />
    <glyph glyph-name="underscore" unicode="_" horiz-adv-x="500" 
d="M0 -128v49h500v-49h-500z" />
    <glyph glyph-name="grave" unicode="`" horiz-adv-x="549" 
d="M258 544l-102 102q-26 26 -26 53q0 14 10.5 24t24.5 10q17 0 32 -13.5t22 -29.5l63 -146h-24z" />
    <glyph glyph-name="a" unicode="a" horiz-adv-x="502" 
d="M168 -12q-62 0 -96 31t-34 87q0 31 16 55.5t46.5 41t57.5 26.5t66 20l81 21v55q0 112 -96 112q-42 0 -71 -20l14 -24q11 -20 11 -37q0 -23 -14 -39.5t-41 -16.5q-50 0 -50 54q0 42 59 80l26 17q44 30 106 30q158 0 158 -144v-213q0 -52 7 -77q22 -10 71 -10v-20
q-46 -29 -98 -29q-39 0 -57 19.5t-24 58.5q-49 -78 -138 -78zM211 44q58 0 94 54v140l-69 -22q-20 -7 -34.5 -13t-31.5 -17.5t-26 -28t-9 -37.5q0 -36 20 -56t56 -20z" />
    <glyph glyph-name="b" unicode="b" horiz-adv-x="582" 
d="M90 -17q6 39 6 138v472q0 30 -5 37.5t-29 17.5l-30 13v21l144 25h30q-8 -56 -8 -145v-170q53 89 147 89q88 0 139 -63t51 -171q0 -112 -63 -185.5t-166 -73.5q-92 0 -129 46l-67 -51h-20zM282 32q65 -1 103.5 54t38.5 151q0 86 -33.5 134t-98.5 48q-60 0 -94 -51v-239
q0 -43 23 -70t61 -27z" />
    <glyph glyph-name="c" unicode="c" horiz-adv-x="471" 
d="M248 -12q-94 0 -150 69.5t-56 177.5q0 104 65 175t166 71q69 0 115 -43q41 -37 41 -77q0 -28 -16 -44.5t-39 -16.5t-39.5 16t-16.5 39q0 20 13 39l13 21q-25 30 -71 30q-59 0 -93 -57t-34 -133q0 -90 41.5 -144.5t112.5 -54.5t115 61l11 -11q-54 -118 -178 -118z" />
    <glyph glyph-name="d" unicode="d" horiz-adv-x="581" 
d="M382 -17v85q-50 -80 -139 -80q-90 0 -143 67.5t-53 177.5q0 104 65.5 176t165.5 72q70 0 104 -46v168q0 27 -6 34.5t-37 16.5l-36 10v20l159 23h30q-7 -55 -7 -144v-502q0 -11 4.5 -14.5t22.5 -8.5l41 -10v-21zM302 51q47 0 80 44v317q-44 25 -82 25q-65 0 -104 -54.5
t-39 -142.5q0 -93 39 -141t106 -48z" />
    <glyph glyph-name="e" unicode="e" horiz-adv-x="491" 
d="M253 -12q-96 0 -153 69t-58 177q0 107 62 177t163 70q76 0 126 -43t50 -117q0 -15 -6 -54l-292 7v-19q1 -95 44.5 -147t118.5 -52q76 0 123 62l10 -10q-58 -120 -188 -120zM148 303l191 9q5 12 5 29q0 105 -80 105q-50 0 -80 -41t-36 -102z" />
    <glyph glyph-name="f" unicode="f" horiz-adv-x="335" 
d="M36 0v24l34 9q29 7 31 12q1 3 1 8v355h-69l17 48h53v29q0 109 54.5 165.5t154.5 56.5q36 0 60.5 -16.5t24.5 -49.5q0 -25 -16 -39t-36 -14q-27 0 -46 21.5t-9 66.5q-36 0 -60.5 -34.5t-24.5 -108.5v-77h111v-48h-111v-348q0 -11 4.5 -15t23.5 -8l66 -13v-24h-263z" />
    <glyph glyph-name="g" unicode="g" horiz-adv-x="515" 
d="M184 -250q-73 0 -122 29.5t-49 79.5q0 34 27 61t56.5 39.5t64.5 21.5q-5 0 -11 3q-60 19 -60 72q0 24 16.5 44.5t33.5 31t45 23.5q-61 9 -100.5 50t-39.5 111q0 75 54 120t129 45q61 0 105 -29t64 -75q6 47 27.5 75.5t53.5 28.5q23 0 37.5 -13.5t14.5 -32.5
q0 -23 -14 -37.5t-37 -14.5q-26 0 -46 20l-11 11q-13 -16 -13 -80v-17q0 -73 -50 -120.5t-131 -47.5q-19 0 -40 -17t-21 -42q0 -31 40 -35l129 -11q61 -5 96.5 -32.5t35.5 -74.5q0 -84 -86 -135.5t-198 -51.5zM228 182q41 0 63.5 35.5t22.5 99.5q0 61 -22.5 95t-63.5 34
t-63.5 -33.5t-22.5 -95.5t23 -98.5t63 -36.5zM231 -207q63 0 105 28t42 86q0 54 -86 61l-108 8q-48 -25 -63 -46q-16 -22 -16 -52q0 -85 126 -85z" />
    <glyph glyph-name="h" unicode="h" horiz-adv-x="598" 
d="M31 0v24l34 9q3 1 7.5 2t6.5 1.5t5 1.5l4.5 1.5l3 1t2 1.5t1.5 2t1.5 2.5t0.5 3v3.5v549q0 21 -5 28.5t-23 15.5l-36 15v21l144 25h30q-7 -61 -7 -145v-184q52 103 153 103q70 0 110.5 -41.5t40.5 -122.5v-264q0 -10 4 -12t27 -8l34 -9v-24h-233v24l34 9q29 8 30 11
q2 2 2 9v238q0 66 -20 99t-74 33q-39 0 -66.5 -22.5t-41.5 -53.5v-294q0 -10 4 -12t27 -8l34 -9v-24h-234z" />
    <glyph glyph-name="i" unicode="i" horiz-adv-x="300" 
d="M157 582q-27 0 -45.5 18t-18.5 45q0 26 19 44.5t45 18.5t44.5 -18.5t18.5 -44.5q0 -27 -18.5 -45t-44.5 -18zM37 0v24l34 9q3 1 7.5 2t6.5 1.5t5 1.5l4.5 1.5l3 1t2 1.5t1.5 2t1.5 2.5t0.5 3v3.5v326q0 16 -7 23.5t-33 19.5l-25 11v20l138 28h30v-428q0 -10 4 -12t27 -8
l34 -9v-24h-234z" />
    <glyph glyph-name="j" unicode="j" horiz-adv-x="292" 
d="M146 582q-26 0 -45 18t-19 45q0 25 19 44t45 19t45 -18.5t19 -44.5q0 -27 -19 -45t-45 -18zM4 -242q-34 0 -58 17.5t-24 50.5q0 25 16.5 41.5t41.5 16.5q35 0 47.5 -30t-3.5 -64q72 10 72 139v447q0 17 -6.5 24.5t-33.5 20.5l-25 12v20l137 28h30v-519q0 -102 -52 -153
t-142 -51z" />
    <glyph glyph-name="k" unicode="k" horiz-adv-x="546" 
d="M32 0v24l34 9q3 1 7.5 2t6.5 1.5t5 1.5l4.5 1.5l3 1t2 1.5t1.5 2t1.5 2.5t0.5 3v3.5v549q0 21 -5.5 28.5t-23.5 15.5l-35 15v21l144 25h30q-8 -56 -8 -145v-508q0 -5 0.5 -7t3 -4t5 -2.5t9.5 -2.5t12 -4l32 -10v-24h-230zM417 0q-32 24 -80 92l-88 123q-2 3 -5 7
t-7.5 8.5l-6.5 6.5q-3 2 -22 9v9q23 4 51 22l112 117q17 18 -19 29l-34 10v23h209v-23l-42 -11q-18 -5 -41 -25l-128 -116l98 -135q64 -86 108 -116l30 -7v-23h-135z" />
    <glyph glyph-name="l" unicode="l" horiz-adv-x="295" 
d="M31 0v24l34 9q3 1 7.5 2t6.5 1.5t5 1.5l4.5 1.5l3 1t2 1.5t1.5 2t1.5 2.5t0.5 3v3.5v549q0 21 -5 28.5t-23 15.5l-36 15v21l144 25h30q-7 -61 -7 -145v-509q0 -10 4 -12t27 -8l34 -9v-24h-234z" />
    <glyph glyph-name="m" unicode="m" horiz-adv-x="904" 
d="M38 0v24l34 9q3 1 7.5 2t6.5 1.5t5 1.5l4.5 1.5l3 1t2 1.5t1.5 2t1.5 2.5t0.5 3v3.5v326q0 16 -7 23.5t-33 19.5q-19 10 -25 11v20l138 28h30v-103q51 103 153 103q114 0 142 -107h6q22 45 61.5 74t92.5 29q75 0 111.5 -44t36.5 -120v-260q0 -10 4 -12t27 -8l34 -9v-24
h-232v24l34 9q3 1 7.5 2t6.5 1.5t5 1.5l4.5 1.5l3 1t2 1.5t1.5 2t1.5 2.5t0.5 3v3.5v234q0 39 -5.5 65t-27 46.5t-60.5 20.5q-36 0 -65 -26t-42 -56v-22v-262q0 -10 4 -12t27 -8l34 -9v-24h-233v24l34 9q29 8 30 11q2 2 2 9v238q0 62 -18 97t-74 35q-71 0 -108 -76v-293
q0 -9 3.5 -12t17.5 -7l42 -10v-25h-232z" />
    <glyph glyph-name="n" unicode="n" horiz-adv-x="606" 
d="M38 0v24l34 9q3 1 7.5 2t6.5 1.5t5 1.5l4.5 1.5l3 1t2 1.5t1.5 2t1.5 2.5t0.5 3v3.5v326q0 16 -7 23.5t-33 19.5l-25 11v20l138 28h30v-103q51 103 153 103q75 0 113.5 -44t38.5 -120v-264q0 -10 4 -12t27 -8l34 -9v-24h-233v24l34 9q29 8 30 11q2 2 2 9v238
q0 61 -19.5 96.5t-74.5 35.5q-39 0 -67 -22.5t-42 -53.5v-294q0 -10 4 -12t27 -8l34 -9v-24h-234z" />
    <glyph glyph-name="o" unicode="o" horiz-adv-x="549" 
d="M275 -12q-106 0 -171 68.5t-65 178.5q0 105 66 175.5t170 70.5q106 0 170.5 -67.5t64.5 -177.5q0 -105 -65.5 -176.5t-169.5 -71.5zM275 21q56 0 89.5 57.5t33.5 158.5q0 85 -32.5 146.5t-90.5 61.5q-56 0 -89.5 -55.5t-33.5 -153.5q0 -86 32.5 -150.5t90.5 -64.5z" />
    <glyph glyph-name="p" unicode="p" horiz-adv-x="579" 
d="M29 -238v24l34 9q16 4 21 6t8 5.5t3 10.5v562q0 15 -7 22.5t-34 20.5l-24 11v20l137 28h30v-89q50 89 146 89q89 0 139 -63.5t50 -173.5q0 -111 -63 -183.5t-164 -72.5q-33 0 -62.5 13t-45.5 34v-216q0 -9 4.5 -12t20.5 -7q4 -1 6 -1l57 -13v-24h-256zM279 32
q66 0 104.5 54.5t38.5 150.5q0 86 -33 134t-98 48q-58 0 -94 -54v-306q43 -27 82 -27z" />
    <glyph glyph-name="q" unicode="q" horiz-adv-x="577" 
d="M291 -238v24l59 13q21 5 26 8t5 12v249q-52 -80 -140 -80q-90 0 -142 67.5t-52 177.5q0 104 65 176t165 72q69 0 104 -46l76 46h26v-666q0 -9 5 -12t21 -7q4 -1 6 -1l34 -9v-24h-258zM301 51q47 0 80 44v317q-47 25 -82 25q-65 0 -103.5 -54t-38.5 -143q0 -93 38.5 -141
t105.5 -48z" />
    <glyph glyph-name="r" unicode="r" horiz-adv-x="386" 
d="M38 0v24l34 9q3 1 7.5 2t6.5 1.5t5 1.5l4.5 1.5l3 1t2 1.5t1.5 2t1.5 2.5t0.5 3v3.5v326q0 16 -7 23.5t-33 19.5l-25 11v20l138 28h30v-109q16 47 50 78t72 31q23 0 41 -14.5t18 -34.5t-11.5 -38t-22.5 -26l-12 -8q-22 36 -53 36q-25 0 -49.5 -16.5t-32.5 -35.5v-287
q0 -10 5 -13t26 -8l63 -12v-24h-263z" />
    <glyph glyph-name="s" unicode="s" horiz-adv-x="441" 
d="M61 -12l-5 176h28q19 -65 45 -106q39 -36 77 -36q39 0 63 21.5t24 56.5q0 58 -56 80l-77 30q-41 16 -69 48.5t-28 79.5q0 66 51 104.5t124 38.5q55 0 97 -26l14 26h24v-152h-28q-5 39 -27 83q-30 39 -74 39q-34 0 -58.5 -22t-24.5 -55q0 -62 50 -84l86 -37
q98 -43 98 -121q0 -70 -50 -107t-126 -37q-78 0 -120 28l-14 -28h-24z" />
    <glyph glyph-name="t" unicode="t" horiz-adv-x="339" 
d="M206 -12q-60 0 -92.5 31.5t-32.5 89.5v301h-53v34q51 21 64 30q25 33 53 117h38v-135h130v-46h-130v-277q0 -49 18 -69t62 -20q37 0 71 32l10 -12q-46 -76 -138 -76z" />
    <glyph glyph-name="u" unicode="u" horiz-adv-x="581" 
d="M238 -12q-75 0 -114 44t-39 125v237v4t-0.5 3.5t-1.5 3t-1.5 2.5t-2.5 2t-3 2t-4 2t-4.5 2t-6 2.5l-7.5 2.5l-30 12v23l146 13h24q-6 -75 -6 -122v-160q0 -69 18.5 -103.5t71.5 -34.5q70 0 105 74v251q0 20 -5 25t-27 14l-39 16v20l150 20h30q-7 -55 -7 -144v-252
q0 -11 5 -15t22 -11l35 -14v-20l-164 -24v104q-14 -39 -51 -71.5t-94 -32.5z" />
    <glyph glyph-name="v" unicode="v" horiz-adv-x="433" 
d="M185 -9l-161 406q-8 23 -24 29l-17 7v23h201v-23l-34 -10q-16 -4 -19.5 -9.5t0.5 -15.5l107 -276l101 270q5 12 0 19t-27 13l-35 9v23h167v-23l-14 -5q-22 -8 -29 -25l-169 -404z" />
    <glyph glyph-name="w" unicode="w" horiz-adv-x="703" 
d="M171 -9l-148 406q-9 25 -25 30l-16 6v23h198v-23l-32 -10q-26 -8 -19 -25l96 -275l103 240l-14 36q-2 9 -4 13t-7 8t-13 6l-27 7v23h206v-23l-33 -10q-24 -7 -18 -27l91 -273l103 271q5 12 0 18t-28 12l-35 9v23h166v-23l-14 -5q-22 -8 -29 -25l-169 -403l-46 -9
l-109 317l-133 -309z" />
    <glyph glyph-name="x" unicode="x" horiz-adv-x="458" 
d="M0 0v23l29 9q15 4 20.5 9t17.5 20l117 159l-126 185q-10 15 -34 23l-16 5v23h156q-4 -21 -3.5 -26t8.5 -17l84 -128l64 104q11 20 7 26.5t-25 10.5l-36 7v23h181v-23l-30 -9q-24 -8 -40 -29l-103 -136l140 -208q11 -16 34 -23l16 -5v-23h-153q4 21 3.5 26t-8.5 17
l-99 149l-76 -125q-11 -21 -7 -27t25 -10l35 -7v-23h-181z" />
    <glyph glyph-name="y" unicode="y" horiz-adv-x="428" 
d="M54 -239q-35 0 -58 18.5t-23 50.5q0 25 15.5 41t39.5 16q29 0 44 -25.5t1 -61.5q42 0 84 106l35 89l-166 404q-10 24 -24 28l-19 6v23h204v-23l-34 -10q-26 -7 -19 -25l109 -283l105 279q6 14 0 19t-29 11l-36 9v23h158v-23l-18 -7q-11 -5 -16 -11t-13 -26l-187 -468
q-31 -77 -64.5 -118.5t-88.5 -41.5z" />
    <glyph glyph-name="z" unicode="z" horiz-adv-x="449" 
d="M27 0v20l261 402h-137q-25 0 -35 -18l-56 -99h-23l7 113l-6 38h369v-20l-258 -396h145q14 0 24 15l73 113h24q-7 -33 -12 -75t-6 -67l-1 -26h-369z" />
    <glyph glyph-name="braceleft" unicode="{" horiz-adv-x="500" 
d="M412 -253q-105 0 -148.5 43t-43.5 130v209q0 61 -44 89t-106 28v29q62 0 106 32t44 100v168q0 89 38.5 131t143.5 42v-25q-56 0 -80 -30.5t-24 -102.5v-164q0 -61 -33.5 -106t-95.5 -52q65 -9 97 -45t32 -103v-212q0 -71 28 -102t86 -31v-28z" />
    <glyph glyph-name="bar" unicode="|" horiz-adv-x="366" 
d="M144 -254v1002h77v-1001z" />
    <glyph glyph-name="braceright" unicode="}" horiz-adv-x="500" 
d="M88 -253v28q58 0 86.5 31t28.5 102v212q0 67 31.5 102.5t97.5 45.5q-61 6 -95 51.5t-34 106.5v164q0 72 -24.5 102.5t-80.5 30.5v25q105 0 144 -42t39 -131v-168q0 -68 43.5 -100t105.5 -32v-29q-61 0 -105 -28t-44 -89v-209q0 -87 -44 -130t-149 -43z" />
    <glyph glyph-name="asciitilde" unicode="~" horiz-adv-x="609" 
d="M381 525q-31 0 -88 36q-4 2 -16 10.5t-17.5 12t-16.5 7t-21 3.5q-27 0 -39.5 -18.5t-12.5 -41.5h-25q0 40 23.5 79t69.5 39q16 0 30.5 -4.5t21.5 -9t20.5 -14.5t17.5 -13q2 -1 7.5 -5t8 -5.5l7.5 -4.5t9 -4.5t9 -3.5t11 -2.5t12 -0.5q25 0 39 19.5t14 42.5h23
q0 -122 -87 -122z" />
    <glyph glyph-name="exclamdown" unicode="&#xa1;" horiz-adv-x="267" 
d="M135 510q-27 0 -45 18.5t-18 44.5q0 27 18 45.5t45 18.5t46 -18.5t19 -45.5q0 -26 -18.5 -44.5t-46.5 -18.5zM137 -12q-17 0 -33.5 6t-25.5 12l-8 6q22 124 35 250.5t13 176.5h33q0 -44 13.5 -171t34.5 -256q-29 -24 -62 -24z" />
    <glyph glyph-name="cent" unicode="&#xa2;" 
d="M287 -91v77h-2q-130 0 -196.5 73.5t-66.5 189.5t74.5 188t190.5 76v60h27v-60q60 -2 127 -30l16 21h19l8 -173h-29q-14 68 -43 107q-45 41 -98 44v-460q32 5 83 36q14 13 32.5 48.5t25.5 62.5h30l-30 -148q-74 -30 -141 -34v-78h-27zM287 20v461q-74 -6 -112 -72.5
t-38 -154.5q0 -101 42 -167t108 -67z" />
    <glyph glyph-name="sterling" unicode="&#xa3;" 
d="M331 -32q-44 0 -128 16t-157 16q-32 0 -46 -6v18l44 51q32 0 55 26t27 76l11 127h-82l21 42h65l8 88q8 93 68.5 151t151.5 58q54 0 90.5 -22t36.5 -54q0 -25 -14 -40t-38 -15q-35 0 -45.5 34.5t13.5 51.5q-13 13 -44 13q-56 0 -81 -39t-33 -118l-11 -108h138v-42h-141
l-6 -64q-7 -73 -46 -113.5t-79 -52.5q69 0 149.5 -13t103.5 -13q52 0 75 24.5t23 78.5h25q0 -171 -154 -171z" />
    <glyph glyph-name="yen" unicode="&#xa5;" 
d="M118 0v29l67 14q16 3 21.5 7t5.5 13v55h-167v38h167v92h-167v37h149l-157 271q-12 18 -28 24l-28 10v30h249v-30l-46 -11q-15 -4 -18 -6t2 -14l136 -240l119 237q6 13 1.5 17.5t-25.5 8.5l-44 9v29h193v-29l-29 -8q-24 -6 -35 -25l-151 -273h144v-37h-150v-92h150v-38
h-150v-55q0 -10 4 -13t22 -7l68 -14v-29h-303z" />
    <glyph glyph-name="brokenbar" unicode="&#xa6;" horiz-adv-x="366" 
d="M144 398v352h78v-352h-78zM144 -252v391h78v-391h-78z" />
    <glyph glyph-name="section" unicode="&#xa7;" horiz-adv-x="519" 
d="M238 -238q-68 0 -116 27.5t-48 70.5q0 24 16.5 39.5t37.5 15.5q19 0 34 -10t22 -32.5t-14 -59.5q29 -18 67 -18q39 0 65.5 27t26.5 69q0 33 -15 53t-60 50l-69 46q-33 22 -53.5 39.5t-39.5 48.5t-19 65q0 56 36 94t89 58l-5 3q-80 48 -80 132q0 72 58.5 110.5t127.5 38.5
q71 0 120.5 -29.5t49.5 -73.5q0 -25 -16 -40t-37 -15q-19 0 -34.5 10t-22 33t14.5 59q-32 23 -74 23t-70.5 -24t-28.5 -71q0 -33 17.5 -53.5t64.5 -50.5l68 -43q27 -17 41 -27.5t34 -30.5t29 -44t9 -54q0 -55 -35 -95t-88 -60l3 -2l3 -3q69 -58 69 -127q0 -66 -53.5 -107.5
t-124.5 -41.5zM320 57l14 10q43 31 43 105q0 49 -39 76l-117 82q-27 -18 -43.5 -48.5t-16.5 -63.5q0 -14 4.5 -26t9 -20.5t16.5 -19.5t18.5 -15.5t23.5 -17t23 -16.5z" />
    <glyph glyph-name="dieresis" unicode="&#xa8;" horiz-adv-x="549" 
d="M370 544q-21 0 -36 15t-15 36q0 22 15 36.5t36 14.5q22 0 37 -14.5t15 -36.5q0 -21 -15 -36t-37 -15zM182 544q-22 0 -37 15t-15 36q0 22 15 36.5t37 14.5q21 0 36 -14.5t15 -36.5q0 -21 -15 -36t-36 -15z" />
    <glyph glyph-name="copyright" unicode="&#xa9;" horiz-adv-x="728" 
d="M364 -17q-136 0 -233 96t-97 232t97 232.5t233 96.5t233 -96.5t97 -232.5t-97 -232t-233 -96zM364 27q118 0 197 83.5t79 200.5t-79 201t-197 84q-119 0 -197.5 -84t-78.5 -201t78.5 -200.5t197.5 -83.5zM378 133q-99 0 -153.5 51.5t-54.5 126.5q0 79 61 129t156 50
q54 0 95 -16l13 12h16l7 -124h-20q-15 62 -32 81q-27 22 -77 22q-132 0 -132 -150q0 -72 33 -113.5t90 -41.5q43 0 75 19q21 18 42 82h22l-22 -107q-53 -21 -119 -21z" />
    <glyph glyph-name="ordfeminine" unicode="&#xaa;" horiz-adv-x="484" 
d="M183 271q-46 0 -75.5 24.5t-29.5 67.5q0 82 153 102l63 8v46q0 43 -17.5 62.5t-58.5 19.5q-34 0 -59 -16q10 -19 10 -35q0 -17 -11.5 -30t-31.5 -13q-15 0 -24 9.5t-9 24.5q0 6 1.5 12t3.5 10.5t7 10t7.5 8.5t9 8t9 6.5t10.5 6.5t9 6t19 11q36 16 73 16q62 0 92.5 -24.5
t30.5 -83.5v-158q0 -40 5 -54q18 -6 62 -6v-17q-42 -22 -76 -22q-54 0 -62 54q-51 -54 -111 -54zM80 157v44h334v-44h-334zM217 316q46 0 77 31v101l-52 -9q-91 -15 -91 -70q0 -53 66 -53z" />
    <glyph glyph-name="guillemotleft" unicode="&#xab;" horiz-adv-x="389" 
d="M349 102l-165 159v26l165 159v-33l-86 -138v-2l86 -138v-33zM175 102l-165 159v26l165 159v-33l-86 -138v-2l86 -138v-33z" />
    <glyph glyph-name="logicalnot" unicode="&#xac;" 
d="M437 42v176h-398v51h452v-227h-54z" />
    <glyph glyph-name="registered" unicode="&#xae;" horiz-adv-x="728" 
d="M364 -17q-136 0 -233 96t-97 232t97 232.5t233 96.5t233 -96.5t97 -232.5t-97 -232t-233 -96zM364 27q118 0 197 83.5t79 200.5t-79 201t-197 84q-119 0 -197.5 -84t-78.5 -201t78.5 -200.5t197.5 -83.5zM182 145v21l35 7q12 2 14.5 3.5t2.5 7.5v264q0 6 -2 7.5t-14 3.5
l-36 8v20h177q67 0 106 -23t39 -67q0 -33 -28.5 -60t-69.5 -35q12 -7 41 -44l37 -46q22 -28 39 -38l37 -8v-21h-103q-18 10 -54 61l-59 83h-36v-105q0 -6 2.5 -7.5t12.5 -3.5l36 -7v-21h-177zM308 308h33q47 0 67 20.5t20 60.5q0 33 -15.5 50.5t-56.5 17.5h-11q-12 0 -37 -5
v-144z" />
    <glyph glyph-name="macron" unicode="&#xaf;" horiz-adv-x="549" 
d="M160 544v40h228v-40h-228z" />
    <glyph glyph-name="macron" unicode="&#x2c9;" horiz-adv-x="549" 
d="M160 544v40h228v-40h-228z" />
    <glyph glyph-name="degree" unicode="&#xb0;" horiz-adv-x="433" 
d="M216 344q-73 0 -123 50t-50 123t50 122.5t123 49.5t123 -49.5t50 -122.5t-50 -123t-123 -50zM216 383q51 0 85 38.5t34 93.5q0 56 -34 94.5t-85 38.5t-86 -38.5t-35 -94.5q0 -55 35 -93.5t86 -38.5z" />
    <glyph glyph-name="plusminus" unicode="&#xb1;" 
d="M235 -33v251h-200v47h200v228h56v-228h200v-47h-200v-251h-56zM35 -145v48h456v-48h-456z" />
    <glyph glyph-name="twosuperior" unicode="&#xb2;" horiz-adv-x="390" 
d="M25 272v24l128 117q20 18 33.5 32t30 36.5t25 48.5t8.5 55q-1 44 -24 66t-63 22q-42 0 -70.5 -24t-28.5 -67q0 -16 1 -23h-26q-4 18 -4 30q0 52 39.5 91t113.5 39q70 0 111.5 -32t41.5 -91q0 -18 -4.5 -35t-16 -34.5t-19 -29t-27 -29.5t-25.5 -24t-28.5 -24t-23.5 -19
l-87 -71h176q16 0 23 10l51 68h23q-7 -22 -15.5 -55t-14 -56t-6.5 -25h-322z" />
    <glyph glyph-name="threesuperior" unicode="&#xb3;" horiz-adv-x="390" 
d="M169 262q-45 0 -90 17.5t-45 49.5q0 19 11 31t32 12q41 0 47 -47l3 -23q22 -13 42 -13q104 0 104 105q0 40 -28.5 62.5t-74.5 22.5q-25 0 -41 -7v30q46 4 74 18q57 26 60 92q1 32 -22.5 48t-56.5 16q-44 0 -71 -20t-27 -62h-25q0 51 38.5 87.5t102.5 36.5q65 0 104 -26
t39 -73q0 -35 -28 -65.5t-62 -41.5q110 -23 110 -117q0 -63 -53.5 -98t-142.5 -35z" />
    <glyph glyph-name="acute" unicode="&#xb4;" horiz-adv-x="549" 
d="M271 544l63 146q7 16 22 29.5t32 13.5q14 0 24.5 -10t10.5 -24q0 -27 -26 -53l-102 -102h-24z" />
    <glyph glyph-name="mu" unicode="&#xb5;" horiz-adv-x="596" 
d="M127 -238q-50 0 -50 64q0 57 8 140t8 118q0 59 -4 202.5t-4 169.5h103v-270q0 -138 90 -138q70 0 105 74v334h102v-364q0 -46 37 -46q36 0 66 37l11 -15q-38 -76 -126 -76q-37 0 -63.5 23.5t-26.5 76.5q-36 -101 -122 -101q-71 0 -90 42q0 -4 3.5 -40.5t6 -79.5t2.5 -88
q0 -25 -14.5 -44t-41.5 -19z" />
    <glyph glyph-name="mu" unicode="&#x3bc;" horiz-adv-x="596" 
d="M127 -238q-50 0 -50 64q0 57 8 140t8 118q0 59 -4 202.5t-4 169.5h103v-270q0 -138 90 -138q70 0 105 74v334h102v-364q0 -46 37 -46q36 0 66 37l11 -15q-38 -76 -126 -76q-37 0 -63.5 23.5t-26.5 76.5q-36 -101 -122 -101q-71 0 -90 42q0 -4 3.5 -40.5t6 -79.5t2.5 -88
q0 -25 -14.5 -44t-41.5 -19z" />
    <glyph glyph-name="paragraph" unicode="&#xb6;" horiz-adv-x="540" 
d="M284 -272v474h-32q-37 0 -76 11.5t-76 35.5t-60.5 68.5t-23.5 102.5q0 49 17 85.5t42.5 58t61.5 34.5t69 17.5t70 4.5h266v-48h-72v-572h-54v572h-77v-844h-55z" />
    <glyph glyph-name="periodcentered" unicode="&#xb7;" horiz-adv-x="265" 
d="M135 234q-29 0 -49 20t-20 48q0 29 20 48.5t49 19.5t48.5 -20t19.5 -48t-20 -48t-48 -20z" />
    <glyph glyph-name="periodcentered" unicode="&#x2219;" horiz-adv-x="265" 
d="M135 234q-29 0 -49 20t-20 48q0 29 20 48.5t49 19.5t48.5 -20t19.5 -48t-20 -48t-48 -20z" />
    <glyph glyph-name="cedilla" unicode="&#xb8;" horiz-adv-x="188" 
d="M52 -252q-47 0 -76 20l16 32q6 -13 23 -22.5t37 -9.5q52 0 52 48q0 23 -26 47t-26 53q0 36 40 52l8 -4q-16 -16 -16 -32q0 -13 12.5 -23.5t27.5 -18t27.5 -25t12.5 -41.5q0 -76 -112 -76z" />
    <glyph glyph-name="onesuperior" unicode="&#xb9;" horiz-adv-x="390" 
d="M53 271v27l85 10q15 1 19 6t4 17v307h-8l-106 -35l-7 26q140 60 181 88h30v-386q0 -13 5 -17.5t19 -6.5l77 -9v-27h-299z" />
    <glyph glyph-name="ordmasculine" unicode="&#xba;" horiz-adv-x="515" 
d="M260 271q-81 0 -133 51t-52 132q0 77 52.5 129.5t132.5 52.5q81 0 133 -50.5t52 -131.5q0 -77 -52.5 -130t-132.5 -53zM90 157v44h334v-44h-334zM260 300q49 0 77.5 41.5t28.5 113.5q0 59 -28 104t-78 45q-49 0 -78 -40t-29 -110q0 -60 28.5 -107t78.5 -47z" />
    <glyph glyph-name="guillemotright" unicode="&#xbb;" horiz-adv-x="389" 
d="M214 102v33l86 138v2l-86 138v33l165 -159v-26zM40 102v33l86 138v2l-86 138v33l165 -159v-26z" />
    <glyph glyph-name="onequarter" unicode="&#xbc;" horiz-adv-x="976" 
d="M53 271v27l85 10q15 1 19 6t4 17v307h-8l-106 -35l-7 26q140 60 181 88h30v-386q0 -13 5 -17.5t19 -6.5l77 -9v-27h-299zM86 -145l599 724h57l-599 -724h-57zM514 -237v25l57 7q15 1 15 14v67h-213v23l212 291q15 2 40.5 8.5t32.5 10.5h18v-297h63v-36h-63v-68
q0 -7 2.5 -9.5t11.5 -3.5l42 -7v-25h-218zM427 -88h159v225z" />
    <glyph glyph-name="onehalf" unicode="&#xbd;" horiz-adv-x="976" 
d="M53 271v27l85 10q15 1 19 6t4 17v307h-8l-106 -35l-7 26q140 60 181 88h30v-386q0 -13 5 -17.5t19 -6.5l77 -9v-27h-299zM86 -145l599 724h57l-599 -724h-57zM419 -237v24l128 117q20 18 33.5 32t30 36.5t25 48.5t8.5 55q-1 44 -24 66t-63 22q-42 0 -70.5 -24t-28.5 -67
q0 -16 1 -23h-26q-4 18 -4 30q0 52 39.5 91t113.5 39q70 0 111.5 -32t41.5 -91q0 -18 -4.5 -35t-16 -34.5t-19 -29t-27 -29.5t-25.5 -24t-28.5 -24t-23.5 -19l-87 -71h176q16 0 23 10l51 68h23q-7 -22 -15.5 -55t-14 -56t-6.5 -25h-322z" />
    <glyph glyph-name="threequarters" unicode="&#xbe;" horiz-adv-x="976" 
d="M169 262q-45 0 -90 17.5t-45 49.5q0 19 11 31t32 12q41 0 47 -47l3 -23q22 -13 42 -13q104 0 104 105q0 40 -28.5 62.5t-74.5 22.5q-25 0 -41 -7v30q46 4 74 18q57 26 60 92q1 32 -22.5 48t-56.5 16q-44 0 -71 -20t-27 -62h-25q0 51 38.5 87.5t102.5 36.5q65 0 104 -26
t39 -73q0 -35 -28 -65.5t-62 -41.5q110 -23 110 -117q0 -63 -53.5 -98t-142.5 -35zM86 -145l599 724h57l-599 -724h-57zM514 -237v25l57 7q15 1 15 14v67h-213v23l212 291q15 2 40.5 8.5t32.5 10.5h18v-297h63v-36h-63v-68q0 -7 2.5 -9.5t11.5 -3.5l42 -7v-25h-218zM427 -88
h159v225z" />
    <glyph glyph-name="questiondown" unicode="&#xbf;" horiz-adv-x="460" 
d="M277 509q-27 0 -45.5 18.5t-18.5 44.5q0 27 18.5 45.5t45.5 18.5t45.5 -19t18.5 -45t-18.5 -44.5t-45.5 -18.5zM216 -13q-74 0 -118.5 36t-44.5 104q0 33 9.5 59.5t32.5 50t40 36t53 36.5q10 7 15 10q24 16 34 30t10 34q0 16 -12 45h71q2 -19 0.5 -35t-7 -29t-10 -22
t-15 -19t-15.5 -14t-18 -13t-16 -11q-38 -28 -57 -62t-19 -87q0 -56 26.5 -82.5t82.5 -26.5q32 0 64 23q-12 33 -12 50q0 22 14 38t39 16q41 0 41 -44q0 -37 -53 -74l-20 -14q-21 -14 -54 -24.5t-61 -10.5z" />
    <glyph glyph-name="Agrave" unicode="&#xc0;" horiz-adv-x="604" 
d="M-14 0v29l45 11q18 4 25 23l216 573h56l215 -574q6 -17 25 -23l35 -10v-29h-252v29l53 11q24 6 16 26l-43 116h-221l-41 -120q-6 -17 14 -22l52 -11v-29h-195zM170 226h191l-98 268zM286 684l-102 102q-26 26 -26 53q0 14 10.5 24t24.5 10q17 0 32 -13.5t22 -29.5
l63 -146h-24z" />
    <glyph glyph-name="Aacute" unicode="&#xc1;" horiz-adv-x="604" 
d="M-14 0v29l45 11q18 4 25 23l216 573h56l215 -574q6 -17 25 -23l35 -10v-29h-252v29l53 11q24 6 16 26l-43 116h-221l-41 -120q-6 -17 14 -22l52 -11v-29h-195zM170 226h191l-98 268zM299 684l63 146q7 16 22 29.5t32 13.5q14 0 24.5 -10t10.5 -24q0 -27 -26 -53
l-102 -102h-24z" />
    <glyph glyph-name="Acircumflex" unicode="&#xc2;" horiz-adv-x="604" 
d="M-14 0v29l45 11q18 4 25 23l216 573h56l215 -574q6 -17 25 -23l35 -10v-29h-252v29l53 11q24 6 16 26l-43 116h-221l-41 -120q-6 -17 14 -22l52 -11v-29h-195zM170 226h191l-98 268zM137 684l150 175h30l150 -175h-34l-130 98h-2l-130 -98h-34z" />
    <glyph glyph-name="Atilde" unicode="&#xc3;" horiz-adv-x="604" 
d="M-14 0v29l45 11q18 4 25 23l216 573h56l215 -574q6 -17 25 -23l35 -10v-29h-252v29l53 11q24 6 16 26l-43 116h-221l-41 -120q-6 -17 14 -22l52 -11v-29h-195zM170 226h191l-98 268zM379 675q-31 0 -88 36q-4 2 -16 10.5t-17.5 12t-16.5 7t-21 3.5q-27 0 -39.5 -18.5
t-12.5 -41.5h-25q0 40 23.5 79t69.5 39q16 0 30.5 -4.5t21.5 -9t20.5 -14.5t17.5 -13q2 -1 7.5 -5t8 -5.5l7.5 -4.5t9 -4.5t9 -3.5t11 -2.5t12 -0.5q25 0 39 19.5t14 42.5h23q0 -122 -87 -122z" />
    <glyph glyph-name="Adieresis" unicode="&#xc4;" horiz-adv-x="604" 
d="M-14 0v29l45 11q18 4 25 23l216 573h56l215 -574q6 -17 25 -23l35 -10v-29h-252v29l53 11q24 6 16 26l-43 116h-221l-41 -120q-6 -17 14 -22l52 -11v-29h-195zM170 226h191l-98 268zM398 684q-21 0 -36 15t-15 36q0 22 15 36.5t36 14.5q22 0 37 -14.5t15 -36.5
q0 -21 -15 -36t-37 -15zM210 684q-22 0 -37 15t-15 36q0 22 15 36.5t37 14.5q21 0 36 -14.5t15 -36.5q0 -21 -15 -36t-36 -15z" />
    <glyph glyph-name="Aring" unicode="&#xc5;" horiz-adv-x="604" 
d="M-14 0v29l45 11q18 4 25 23l216 573h56l215 -574q6 -17 25 -23l35 -10v-29h-252v29l53 11q24 6 16 26l-43 116h-221l-41 -120q-6 -17 14 -22l52 -11v-29h-195zM170 226h191l-98 268zM297 684q-44 0 -69.5 25.5t-25.5 63.5t26 63.5t69 25.5q44 0 70 -25.5t26 -63.5
t-26 -63.5t-70 -25.5zM297 704q55 0 55 69q0 33 -15.5 50.5t-39.5 17.5q-55 0 -55 -68q0 -33 15.5 -51t39.5 -18z" />
    <glyph glyph-name="AE" unicode="&#xc6;" horiz-adv-x="864" 
d="M-14 0v29l64 15l312 576h336q47 0 80 11l18 -199h-27q-23 86 -50 122q-47 30 -137 30h-9q-37 0 -68 -6v-235h105q20 12 36 40t20 53h20v-229h-20q-15 68 -56 96h-105v-261q51 -7 83 -7h17q33 0 71.5 8t57.5 23q16 18 34 56t27 73h27l-29 -195h-486v29l81 16v164h-193
l-84 -165l73 -15v-29h-198zM215 245h173v327z" />
    <glyph glyph-name="Ccedilla" unicode="&#xc7;" horiz-adv-x="666" 
d="M372 -12q-156 0 -244 94t-88 229q0 142 98.5 233.5t248.5 91.5q97 0 166 -31l19 25h21l11 -215h-27q-21 102 -50 141q-52 48 -137 48q-60 0 -104.5 -24.5t-69 -66.5t-36.5 -91t-12 -105q0 -130 58.5 -212t149.5 -82q74 0 134 42q15 15 36 62.5t31 83.5h28l-34 -186
q-80 -37 -199 -37zM331 -252q-47 0 -76 20l16 32q6 -13 23 -22.5t37 -9.5q52 0 52 48q0 23 -26 47t-26 53q0 36 40 52l8 -4q-16 -16 -16 -32q0 -13 12.5 -23.5t27.5 -18t27.5 -25t12.5 -41.5q0 -76 -112 -76z" />
    <glyph glyph-name="Egrave" unicode="&#xc8;" horiz-adv-x="606" 
d="M38 0v29l55 12q19 4 23 7t4 13v497q0 10 -4.5 13.5t-21.5 7.5l-56 12v29h398q47 0 80 11l18 -199h-27q-22 86 -50 122q-18 12 -58.5 21t-84.5 9h-9q-37 0 -69 -6v-235h111q20 12 36.5 40t20.5 53h20v-229h-20q-15 67 -57 96h-111v-261q51 -7 84 -7h23q33 0 71.5 8
t57.5 23q36 43 61 129h27l-29 -195h-493zM287 684l-102 102q-26 26 -26 53q0 14 10.5 24t24.5 10q17 0 32 -13.5t22 -29.5l63 -146h-24z" />
    <glyph glyph-name="Eacute" unicode="&#xc9;" horiz-adv-x="606" 
d="M38 0v29l55 12q19 4 23 7t4 13v497q0 10 -4.5 13.5t-21.5 7.5l-56 12v29h398q47 0 80 11l18 -199h-27q-22 86 -50 122q-18 12 -58.5 21t-84.5 9h-9q-37 0 -69 -6v-235h111q20 12 36.5 40t20.5 53h20v-229h-20q-15 67 -57 96h-111v-261q51 -7 84 -7h23q33 0 71.5 8
t57.5 23q36 43 61 129h27l-29 -195h-493zM300 684l63 146q7 16 22 29.5t32 13.5q14 0 24.5 -10t10.5 -24q0 -27 -26 -53l-102 -102h-24z" />
    <glyph glyph-name="Ecircumflex" unicode="&#xca;" horiz-adv-x="606" 
d="M38 0v29l55 12q19 4 23 7t4 13v497q0 10 -4.5 13.5t-21.5 7.5l-56 12v29h398q47 0 80 11l18 -199h-27q-22 86 -50 122q-18 12 -58.5 21t-84.5 9h-9q-37 0 -69 -6v-235h111q20 12 36.5 40t20.5 53h20v-229h-20q-15 67 -57 96h-111v-261q51 -7 84 -7h23q33 0 71.5 8
t57.5 23q36 43 61 129h27l-29 -195h-493zM138 684l150 175h30l150 -175h-34l-130 98h-2l-130 -98h-34z" />
    <glyph glyph-name="Edieresis" unicode="&#xcb;" horiz-adv-x="606" 
d="M38 0v29l55 12q19 4 23 7t4 13v497q0 10 -4.5 13.5t-21.5 7.5l-56 12v29h398q47 0 80 11l18 -199h-27q-22 86 -50 122q-18 12 -58.5 21t-84.5 9h-9q-37 0 -69 -6v-235h111q20 12 36.5 40t20.5 53h20v-229h-20q-15 67 -57 96h-111v-261q51 -7 84 -7h23q33 0 71.5 8
t57.5 23q36 43 61 129h27l-29 -195h-493zM399 684q-21 0 -36 15t-15 36q0 22 15 36.5t36 14.5q22 0 37 -14.5t15 -36.5q0 -21 -15 -36t-37 -15zM211 684q-22 0 -37 15t-15 36q0 22 15 36.5t37 14.5q21 0 36 -14.5t15 -36.5q0 -21 -15 -36t-36 -15z" />
    <glyph glyph-name="Igrave" unicode="&#xcc;" horiz-adv-x="356" 
d="M38 0v29l55 12q19 4 23 7t4 13v497q0 10 -4 13t-22 7l-56 13v29h280v-29l-55 -13q-18 -4 -22.5 -7t-4.5 -13v-497q0 -10 4 -13t22 -7l56 -12v-29h-280zM162 684l-102 102q-26 26 -26 53q0 14 10.5 24t24.5 10q17 0 32 -13.5t22 -29.5l63 -146h-24z" />
    <glyph glyph-name="Iacute" unicode="&#xcd;" horiz-adv-x="356" 
d="M38 0v29l55 12q19 4 23 7t4 13v497q0 10 -4 13t-22 7l-56 13v29h280v-29l-55 -13q-18 -4 -22.5 -7t-4.5 -13v-497q0 -10 4 -13t22 -7l56 -12v-29h-280zM175 684l63 146q7 16 22 29.5t32 13.5q14 0 24.5 -10t10.5 -24q0 -27 -26 -53l-102 -102h-24z" />
    <glyph glyph-name="Icircumflex" unicode="&#xce;" horiz-adv-x="356" 
d="M38 0v29l55 12q19 4 23 7t4 13v497q0 10 -4 13t-22 7l-56 13v29h280v-29l-55 -13q-18 -4 -22.5 -7t-4.5 -13v-497q0 -10 4 -13t22 -7l56 -12v-29h-280zM13 684l150 175h30l150 -175h-34l-130 98h-2l-130 -98h-34z" />
    <glyph glyph-name="Idieresis" unicode="&#xcf;" horiz-adv-x="356" 
d="M38 0v29l55 12q19 4 23 7t4 13v497q0 10 -4 13t-22 7l-56 13v29h280v-29l-55 -13q-18 -4 -22.5 -7t-4.5 -13v-497q0 -10 4 -13t22 -7l56 -12v-29h-280zM274 684q-21 0 -36 15t-15 36q0 22 15 36.5t36 14.5q22 0 37 -14.5t15 -36.5q0 -21 -15 -36t-37 -15zM86 684
q-22 0 -37 15t-15 36q0 22 15 36.5t37 14.5q21 0 36 -14.5t15 -36.5q0 -21 -15 -36t-36 -15z" />
    <glyph glyph-name="Eth" unicode="&#xd0;" horiz-adv-x="715" 
d="M38 0v29l55 12q19 4 23 7t4 13v238h-82v48h82v211q0 10 -4.5 13.5t-21.5 7.5l-56 12v29h301q145 0 242.5 -80.5t97.5 -221.5q0 -135 -87 -226.5t-229 -91.5h-325zM316 33h20q100 0 160 75.5t60 205.5q0 56 -11.5 103t-37.5 87t-73 62.5t-112 22.5h-21q-37 0 -65 -13v-229
h105v-48h-105v-255q31 -11 80 -11z" />
    <glyph glyph-name="Ntilde" unicode="&#xd1;" horiz-adv-x="725" 
d="M580 -12l-417 521v-343q0 -48 6 -105q3 -18 18 -20l81 -12v-29h-238v29l60 10q15 2 18 20q0 6 2 26t3 41.5t1 38.5v392q0 11 -4.5 14t-24.5 8l-49 11v30h174l355 -444v276q0 59 -6 103q-2 22 -19 24l-81 12v29h238v-29l-59 -10q-20 -3 -20 -23q0 -6 -1.5 -24.5t-2.5 -39
t-1 -40.5v-466h-33zM439 675q-31 0 -88 36q-4 2 -16 10.5t-17.5 12t-16.5 7t-21 3.5q-27 0 -39.5 -18.5t-12.5 -41.5h-25q0 40 23.5 79t69.5 39q16 0 30.5 -4.5t21.5 -9t20.5 -14.5t17.5 -13q2 -1 7.5 -5t8 -5.5l7.5 -4.5t9 -4.5t9 -3.5t11 -2.5t12 -0.5q25 0 39 19.5
t14 42.5h23q0 -122 -87 -122z" />
    <glyph glyph-name="Ograve" unicode="&#xd2;" horiz-adv-x="722" 
d="M360 -13q-141 0 -232.5 99t-91.5 232q0 132 91 225t233 93t233.5 -93t91.5 -225q0 -134 -92 -232.5t-233 -98.5zM360 24q69 0 115 45.5t64.5 109.5t18.5 139q0 55 -11 103.5t-33 89.5t-61.5 65t-92.5 24q-52 0 -91 -24t-61.5 -65t-33.5 -89.5t-11 -103.5q0 -76 18 -139.5
t64.5 -109t114.5 -45.5zM345 684l-102 102q-26 26 -26 53q0 14 10.5 24t24.5 10q17 0 32 -13.5t22 -29.5l63 -146h-24z" />
    <glyph glyph-name="Oacute" unicode="&#xd3;" horiz-adv-x="722" 
d="M360 -13q-141 0 -232.5 99t-91.5 232q0 132 91 225t233 93t233.5 -93t91.5 -225q0 -134 -92 -232.5t-233 -98.5zM360 24q69 0 115 45.5t64.5 109.5t18.5 139q0 55 -11 103.5t-33 89.5t-61.5 65t-92.5 24q-52 0 -91 -24t-61.5 -65t-33.5 -89.5t-11 -103.5q0 -76 18 -139.5
t64.5 -109t114.5 -45.5zM358 684l63 146q7 16 22 29.5t32 13.5q14 0 24.5 -10t10.5 -24q0 -27 -26 -53l-102 -102h-24z" />
    <glyph glyph-name="Ocircumflex" unicode="&#xd4;" horiz-adv-x="722" 
d="M360 -13q-141 0 -232.5 99t-91.5 232q0 132 91 225t233 93t233.5 -93t91.5 -225q0 -134 -92 -232.5t-233 -98.5zM360 24q69 0 115 45.5t64.5 109.5t18.5 139q0 55 -11 103.5t-33 89.5t-61.5 65t-92.5 24q-52 0 -91 -24t-61.5 -65t-33.5 -89.5t-11 -103.5q0 -76 18 -139.5
t64.5 -109t114.5 -45.5zM196 684l150 175h30l150 -175h-34l-130 98h-2l-130 -98h-34z" />
    <glyph glyph-name="Otilde" unicode="&#xd5;" horiz-adv-x="722" 
d="M360 -13q-141 0 -232.5 99t-91.5 232q0 132 91 225t233 93t233.5 -93t91.5 -225q0 -134 -92 -232.5t-233 -98.5zM360 24q69 0 115 45.5t64.5 109.5t18.5 139q0 55 -11 103.5t-33 89.5t-61.5 65t-92.5 24q-52 0 -91 -24t-61.5 -65t-33.5 -89.5t-11 -103.5q0 -76 18 -139.5
t64.5 -109t114.5 -45.5zM438 675q-31 0 -88 36q-4 2 -16 10.5t-17.5 12t-16.5 7t-21 3.5q-27 0 -39.5 -18.5t-12.5 -41.5h-25q0 40 23.5 79t69.5 39q16 0 30.5 -4.5t21.5 -9t20.5 -14.5t17.5 -13q2 -1 7.5 -5t8 -5.5l7.5 -4.5t9 -4.5t9 -3.5t11 -2.5t12 -0.5q25 0 39 19.5
t14 42.5h23q0 -122 -87 -122z" />
    <glyph glyph-name="Odieresis" unicode="&#xd6;" horiz-adv-x="722" 
d="M360 -13q-141 0 -232.5 99t-91.5 232q0 132 91 225t233 93t233.5 -93t91.5 -225q0 -134 -92 -232.5t-233 -98.5zM360 24q69 0 115 45.5t64.5 109.5t18.5 139q0 55 -11 103.5t-33 89.5t-61.5 65t-92.5 24q-52 0 -91 -24t-61.5 -65t-33.5 -89.5t-11 -103.5q0 -76 18 -139.5
t64.5 -109t114.5 -45.5zM457 684q-21 0 -36 15t-15 36q0 22 15 36.5t36 14.5q22 0 37 -14.5t15 -36.5q0 -21 -15 -36t-37 -15zM269 684q-22 0 -37 15t-15 36q0 22 15 36.5t37 14.5q21 0 36 -14.5t15 -36.5q0 -21 -15 -36t-36 -15z" />
    <glyph glyph-name="multiply" unicode="&#xd7;" 
d="M77 25l-28 28l178 190l-178 189l29 29l177 -188l177 188l29 -29l-178 -189l178 -190l-28 -28l-178 188z" />
    <glyph glyph-name="Oslash" unicode="&#xd8;" horiz-adv-x="722" 
d="M114 -75l70 114q-69 46 -108.5 120.5t-39.5 158.5q0 132 91 225t233 93q93 0 166 -42l47 75h36l-57 -91q63 -44 98 -112.5t35 -147.5q0 -134 -92 -232.5t-233 -98.5q-81 0 -150 36l-60 -98h-36zM220 98l273 442q-50 60 -133 60q-52 0 -91 -24t-61.5 -65t-33.5 -89.5
t-11 -103.5q0 -139 57 -220zM360 24q69 0 115 45.5t64.5 109.5t18.5 139q0 119 -46 195l-271 -440q49 -49 119 -49z" />
    <glyph glyph-name="Ugrave" unicode="&#xd9;" horiz-adv-x="702" 
d="M360 -13q-117 0 -187 62.5t-70 182.5v326q0 10 -4 14.5t-18 7.5l-48 11v29h267v-29l-59 -12q-14 -3 -18 -7t-4 -15v-325q0 -94 41.5 -145t113.5 -51q89 0 132.5 56.5t43.5 148.5v317q0 9 -4 13t-19 7l-63 13v29h207v-29l-44 -11q-15 -4 -19 -8t-4 -14v-317
q0 -120 -64.5 -187t-179.5 -67zM355 684l-102 102q-26 26 -26 53q0 14 10.5 24t24.5 10q17 0 32 -13.5t22 -29.5l63 -146h-24z" />
    <glyph glyph-name="Uacute" unicode="&#xda;" horiz-adv-x="702" 
d="M360 -13q-117 0 -187 62.5t-70 182.5v326q0 10 -4 14.5t-18 7.5l-48 11v29h267v-29l-59 -12q-14 -3 -18 -7t-4 -15v-325q0 -94 41.5 -145t113.5 -51q89 0 132.5 56.5t43.5 148.5v317q0 9 -4 13t-19 7l-63 13v29h207v-29l-44 -11q-15 -4 -19 -8t-4 -14v-317
q0 -120 -64.5 -187t-179.5 -67zM368 684l63 146q7 16 22 29.5t32 13.5q14 0 24.5 -10t10.5 -24q0 -27 -26 -53l-102 -102h-24z" />
    <glyph glyph-name="Ucircumflex" unicode="&#xdb;" horiz-adv-x="702" 
d="M360 -13q-117 0 -187 62.5t-70 182.5v326q0 10 -4 14.5t-18 7.5l-48 11v29h267v-29l-59 -12q-14 -3 -18 -7t-4 -15v-325q0 -94 41.5 -145t113.5 -51q89 0 132.5 56.5t43.5 148.5v317q0 9 -4 13t-19 7l-63 13v29h207v-29l-44 -11q-15 -4 -19 -8t-4 -14v-317
q0 -120 -64.5 -187t-179.5 -67zM206 684l150 175h30l150 -175h-34l-130 98h-2l-130 -98h-34z" />
    <glyph glyph-name="Udieresis" unicode="&#xdc;" horiz-adv-x="702" 
d="M360 -13q-117 0 -187 62.5t-70 182.5v326q0 10 -4 14.5t-18 7.5l-48 11v29h267v-29l-59 -12q-14 -3 -18 -7t-4 -15v-325q0 -94 41.5 -145t113.5 -51q89 0 132.5 56.5t43.5 148.5v317q0 9 -4 13t-19 7l-63 13v29h207v-29l-44 -11q-15 -4 -19 -8t-4 -14v-317
q0 -120 -64.5 -187t-179.5 -67zM474 684q-21 0 -36 15t-15 36q0 22 15 36.5t36 14.5q22 0 37 -14.5t15 -36.5q0 -21 -15 -36t-37 -15zM286 684q-22 0 -37 15t-15 36q0 22 15 36.5t37 14.5q21 0 36 -14.5t15 -36.5q0 -21 -15 -36t-36 -15z" />
    <glyph glyph-name="Yacute" unicode="&#xdd;" horiz-adv-x="604" 
d="M156 0v29l67 14q16 3 21.5 7t5.5 13v194l-195 299q-12 18 -28 24l-28 10v30h249v-30l-46 -11q-15 -4 -18 -6t2 -14l156 -240l139 237q6 13 1.5 17.5t-25.5 8.5l-44 9v29h193v-29l-29 -8q-24 -6 -35 -25l-177 -282v-213q0 -10 4 -13t22 -7l68 -14v-29h-303zM299 684
l63 146q7 16 22 29.5t32 13.5q14 0 24.5 -10t10.5 -24q0 -27 -26 -53l-102 -102h-24z" />
    <glyph glyph-name="Thorn" unicode="&#xde;" horiz-adv-x="581" 
d="M38 0v29l55 12q19 4 23 7t4 13v497q0 10 -4 13t-22 7l-56 13v29h280v-29l-55 -13q-18 -4 -22.5 -7t-4.5 -13v-64h88q239 0 239 -158q0 -90 -61.5 -140t-162.5 -50q-57 0 -103 8v-93q0 -10 4 -13t22 -7l56 -12v-29h-280zM236 181h38q174 0 174 152q0 67 -33.5 97
t-110.5 30h-12q-32 0 -56 -8v-271z" />
    <glyph glyph-name="germandbls" unicode="&#xdf;" horiz-adv-x="624" 
d="M433 -12q-66 0 -126 29l-12 128h25q15 -70 32 -91q37 -32 79 -32q35 0 54.5 23t19.5 60q0 34 -12.5 55t-39.5 38l-47 29q-28 17 -45 31t-31.5 39.5t-14.5 56.5q0 26 11.5 48t25 33.5t35 28t30.5 24.5q37 34 37 88q0 46 -33.5 73t-82.5 27q-58 0 -96.5 -42.5t-38.5 -120.5
v-450q0 -13 3.5 -18t17.5 -9l32 -10v-26h-222v24l34 9q3 1 7.5 2t6.5 1.5t5 1.5l4.5 1.5t3 1.5t2.5 2t2 2.5t1 3.5v4v360h-69l17 45h53v27q0 105 72 163.5t172 58.5q80 0 134 -34.5t54 -94.5q0 -34 -19.5 -54.5t-65.5 -49.5q-40 -25 -40 -81q0 -31 9.5 -50t35.5 -35l66 -42
q33 -21 57 -54.5t24 -77.5q0 -65 -45.5 -105.5t-121.5 -40.5z" />
    <glyph glyph-name="agrave" unicode="&#xe0;" horiz-adv-x="502" 
d="M168 -12q-62 0 -96 31t-34 87q0 31 16 55.5t46.5 41t57.5 26.5t66 20l81 21v55q0 112 -96 112q-42 0 -71 -20l14 -24q11 -20 11 -37q0 -23 -14 -39.5t-41 -16.5q-50 0 -50 54q0 42 59 80l26 17q44 30 106 30q158 0 158 -144v-213q0 -52 7 -77q22 -10 71 -10v-20
q-46 -29 -98 -29q-39 0 -57 19.5t-24 58.5q-49 -78 -138 -78zM211 44q58 0 94 54v140l-69 -22q-20 -7 -34.5 -13t-31.5 -17.5t-26 -28t-9 -37.5q0 -36 20 -56t56 -20zM235 544l-102 102q-26 26 -26 53q0 14 10.5 24t24.5 10q17 0 32 -13.5t22 -29.5l63 -146h-24z" />
    <glyph glyph-name="aacute" unicode="&#xe1;" horiz-adv-x="502" 
d="M168 -12q-62 0 -96 31t-34 87q0 31 16 55.5t46.5 41t57.5 26.5t66 20l81 21v55q0 112 -96 112q-42 0 -71 -20l14 -24q11 -20 11 -37q0 -23 -14 -39.5t-41 -16.5q-50 0 -50 54q0 42 59 80l26 17q44 30 106 30q158 0 158 -144v-213q0 -52 7 -77q22 -10 71 -10v-20
q-46 -29 -98 -29q-39 0 -57 19.5t-24 58.5q-49 -78 -138 -78zM211 44q58 0 94 54v140l-69 -22q-20 -7 -34.5 -13t-31.5 -17.5t-26 -28t-9 -37.5q0 -36 20 -56t56 -20zM248 544l63 146q7 16 22 29.5t32 13.5q14 0 24.5 -10t10.5 -24q0 -27 -26 -53l-102 -102h-24z" />
    <glyph glyph-name="acircumflex" unicode="&#xe2;" horiz-adv-x="502" 
d="M168 -12q-62 0 -96 31t-34 87q0 31 16 55.5t46.5 41t57.5 26.5t66 20l81 21v55q0 112 -96 112q-42 0 -71 -20l14 -24q11 -20 11 -37q0 -23 -14 -39.5t-41 -16.5q-50 0 -50 54q0 42 59 80l26 17q44 30 106 30q158 0 158 -144v-213q0 -52 7 -77q22 -10 71 -10v-20
q-46 -29 -98 -29q-39 0 -57 19.5t-24 58.5q-49 -78 -138 -78zM211 44q58 0 94 54v140l-69 -22q-20 -7 -34.5 -13t-31.5 -17.5t-26 -28t-9 -37.5q0 -36 20 -56t56 -20zM86 544l150 175h30l150 -175h-34l-130 98h-2l-130 -98h-34z" />
    <glyph glyph-name="atilde" unicode="&#xe3;" horiz-adv-x="502" 
d="M168 -12q-62 0 -96 31t-34 87q0 31 16 55.5t46.5 41t57.5 26.5t66 20l81 21v55q0 112 -96 112q-42 0 -71 -20l14 -24q11 -20 11 -37q0 -23 -14 -39.5t-41 -16.5q-50 0 -50 54q0 42 59 80l26 17q44 30 106 30q158 0 158 -144v-213q0 -52 7 -77q22 -10 71 -10v-20
q-46 -29 -98 -29q-39 0 -57 19.5t-24 58.5q-49 -78 -138 -78zM211 44q58 0 94 54v140l-69 -22q-20 -7 -34.5 -13t-31.5 -17.5t-26 -28t-9 -37.5q0 -36 20 -56t56 -20zM328 535q-31 0 -88 36q-4 2 -16 10.5t-17.5 12t-16.5 7t-21 3.5q-27 0 -39.5 -18.5t-12.5 -41.5h-25
q0 40 23.5 79t69.5 39q16 0 30.5 -4.5t21.5 -9t20.5 -14.5t17.5 -13q2 -1 7.5 -5t8 -5.5l7.5 -4.5t9 -4.5t9 -3.5t11 -2.5t12 -0.5q25 0 39 19.5t14 42.5h23q0 -122 -87 -122z" />
    <glyph glyph-name="adieresis" unicode="&#xe4;" horiz-adv-x="502" 
d="M168 -12q-62 0 -96 31t-34 87q0 31 16 55.5t46.5 41t57.5 26.5t66 20l81 21v55q0 112 -96 112q-42 0 -71 -20l14 -24q11 -20 11 -37q0 -23 -14 -39.5t-41 -16.5q-50 0 -50 54q0 42 59 80l26 17q44 30 106 30q158 0 158 -144v-213q0 -52 7 -77q22 -10 71 -10v-20
q-46 -29 -98 -29q-39 0 -57 19.5t-24 58.5q-49 -78 -138 -78zM211 44q58 0 94 54v140l-69 -22q-20 -7 -34.5 -13t-31.5 -17.5t-26 -28t-9 -37.5q0 -36 20 -56t56 -20zM347 544q-21 0 -36 15t-15 36q0 22 15 36.5t36 14.5q22 0 37 -14.5t15 -36.5q0 -21 -15 -36t-37 -15z
M159 544q-22 0 -37 15t-15 36q0 22 15 36.5t37 14.5q21 0 36 -14.5t15 -36.5q0 -21 -15 -36t-36 -15z" />
    <glyph glyph-name="aring" unicode="&#xe5;" horiz-adv-x="502" 
d="M168 -12q-62 0 -96 31t-34 87q0 31 16 55.5t46.5 41t57.5 26.5t66 20l81 21v55q0 112 -96 112q-42 0 -71 -20l14 -24q11 -20 11 -37q0 -23 -14 -39.5t-41 -16.5q-50 0 -50 54q0 42 59 80l26 17q44 30 106 30q158 0 158 -144v-213q0 -52 7 -77q22 -10 71 -10v-20
q-46 -29 -98 -29q-39 0 -57 19.5t-24 58.5q-49 -78 -138 -78zM211 44q58 0 94 54v140l-69 -22q-20 -7 -34.5 -13t-31.5 -17.5t-26 -28t-9 -37.5q0 -36 20 -56t56 -20zM251 544q-44 0 -69.5 25.5t-25.5 63.5t26 63.5t69 25.5q44 0 70 -25.5t26 -63.5t-26 -63.5t-70 -25.5z
M251 564q55 0 55 69q0 33 -15.5 50.5t-39.5 17.5q-55 0 -55 -68q0 -33 15.5 -51t39.5 -18z" />
    <glyph glyph-name="ae" unicode="&#xe6;" horiz-adv-x="754" 
d="M178 -12q-62 0 -98 31.5t-36 86.5q0 31 15.5 56t44 41.5t56 26.5t64.5 19l83 21v55q0 112 -98 112q-42 0 -71 -20l14 -24q11 -20 11 -37q0 -23 -14 -39.5t-41 -16.5q-50 0 -50 54q0 42 59 80l26 17q44 30 106 30q93 0 131 -57q60 57 150 57q72 0 124 -43.5t52 -116.5
q0 -15 -6 -54l-109 3l-183 4v-19q1 -95 44.5 -147t118.5 -52q76 0 123 62l10 -10q-58 -120 -188 -120q-106 0 -164 84q-58 -84 -174 -84zM411 303l191 9q5 12 5 29q0 105 -80 105q-50 0 -80 -41t-36 -102zM221 44q36 0 68.5 14.5t47.5 36.5q-11 25 -16 37t-10.5 40t-5.5 62
v3v1l-69 -22q-27 -9 -45 -18t-34 -30t-16 -48q0 -36 22 -56t58 -20z" />
    <glyph glyph-name="ccedilla" unicode="&#xe7;" horiz-adv-x="471" 
d="M248 -12q-94 0 -150 69.5t-56 177.5q0 104 65 175t166 71q69 0 115 -43q41 -37 41 -77q0 -28 -16 -44.5t-39 -16.5t-39.5 16t-16.5 39q0 20 13 39l13 21q-25 30 -71 30q-59 0 -93 -57t-34 -133q0 -90 41.5 -144.5t112.5 -54.5t115 61l11 -11q-54 -118 -178 -118z
M202 -252q-47 0 -76 20l16 32q6 -13 23 -22.5t37 -9.5q52 0 52 48q0 23 -26 47t-26 53q0 36 40 52l8 -4q-16 -16 -16 -32q0 -13 12.5 -23.5t27.5 -18t27.5 -25t12.5 -41.5q0 -76 -112 -76z" />
    <glyph glyph-name="egrave" unicode="&#xe8;" horiz-adv-x="491" 
d="M253 -12q-96 0 -153 69t-58 177q0 107 62 177t163 70q76 0 126 -43t50 -117q0 -15 -6 -54l-292 7v-19q1 -95 44.5 -147t118.5 -52q76 0 123 62l10 -10q-58 -120 -188 -120zM148 303l191 9q5 12 5 29q0 105 -80 105q-50 0 -80 -41t-36 -102zM239 544l-102 102
q-26 26 -26 53q0 14 10.5 24t24.5 10q17 0 32 -13.5t22 -29.5l63 -146h-24z" />
    <glyph glyph-name="eacute" unicode="&#xe9;" horiz-adv-x="491" 
d="M253 -12q-96 0 -153 69t-58 177q0 107 62 177t163 70q76 0 126 -43t50 -117q0 -15 -6 -54l-292 7v-19q1 -95 44.5 -147t118.5 -52q76 0 123 62l10 -10q-58 -120 -188 -120zM148 303l191 9q5 12 5 29q0 105 -80 105q-50 0 -80 -41t-36 -102zM262 544l63 146q7 16 22 29.5
t32 13.5q14 0 24.5 -10t10.5 -24q0 -27 -26 -53l-102 -102h-24z" />
    <glyph glyph-name="ecircumflex" unicode="&#xea;" horiz-adv-x="491" 
d="M253 -12q-96 0 -153 69t-58 177q0 107 62 177t163 70q76 0 126 -43t50 -117q0 -15 -6 -54l-292 7v-19q1 -95 44.5 -147t118.5 -52q76 0 123 62l10 -10q-58 -120 -188 -120zM148 303l191 9q5 12 5 29q0 105 -80 105q-50 0 -80 -41t-36 -102zM95 544l150 175h30l150 -175
h-34l-130 98h-2l-130 -98h-34z" />
    <glyph glyph-name="edieresis" unicode="&#xeb;" horiz-adv-x="491" 
d="M253 -12q-96 0 -153 69t-58 177q0 107 62 177t163 70q76 0 126 -43t50 -117q0 -15 -6 -54l-292 7v-19q1 -95 44.5 -147t118.5 -52q76 0 123 62l10 -10q-58 -120 -188 -120zM148 303l191 9q5 12 5 29q0 105 -80 105q-50 0 -80 -41t-36 -102zM341 544q-21 0 -36 15t-15 36
q0 22 15 36.5t36 14.5q22 0 37 -14.5t15 -36.5q0 -21 -15 -36t-37 -15zM153 544q-22 0 -37 15t-15 36q0 22 15 36.5t37 14.5q21 0 36 -14.5t15 -36.5q0 -21 -15 -36t-36 -15z" />
    <glyph glyph-name="igrave" unicode="&#xec;" horiz-adv-x="300" 
d="M37 0v24l34 9q3 1 7.5 2t6.5 1.5t5 1.5l4.5 1.5l3 1t2 1.5t1.5 2t1.5 2.5t0.5 3v3.5v326q0 16 -7 23.5t-33 19.5l-25 11v20l138 28h30v-428q0 -10 4 -12t27 -8l34 -9v-24h-234zM134 544l-102 102q-26 26 -26 53q0 14 10.5 24t24.5 10q17 0 32 -13.5t22 -29.5l63 -146h-24
z" />
    <glyph glyph-name="iacute" unicode="&#xed;" horiz-adv-x="300" 
d="M37 0v24l34 9q3 1 7.5 2t6.5 1.5t5 1.5l4.5 1.5l3 1t2 1.5t1.5 2t1.5 2.5t0.5 3v3.5v326q0 16 -7 23.5t-33 19.5l-25 11v20l138 28h30v-428q0 -10 4 -12t27 -8l34 -9v-24h-234zM147 544l63 146q7 16 22 29.5t32 13.5q14 0 24.5 -10t10.5 -24q0 -27 -26 -53l-102 -102h-24
z" />
    <glyph glyph-name="icircumflex" unicode="&#xee;" horiz-adv-x="300" 
d="M37 0v24l34 9q3 1 7.5 2t6.5 1.5t5 1.5l4.5 1.5l3 1t2 1.5t1.5 2t1.5 2.5t0.5 3v3.5v326q0 16 -7 23.5t-33 19.5l-25 11v20l138 28h30v-428q0 -10 4 -12t27 -8l34 -9v-24h-234zM-15 544l150 175h30l150 -175h-34l-130 98h-2l-130 -98h-34z" />
    <glyph glyph-name="idieresis" unicode="&#xef;" horiz-adv-x="300" 
d="M37 0v24l34 9q3 1 7.5 2t6.5 1.5t5 1.5l4.5 1.5l3 1t2 1.5t1.5 2t1.5 2.5t0.5 3v3.5v326q0 16 -7 23.5t-33 19.5l-25 11v20l138 28h30v-428q0 -10 4 -12t27 -8l34 -9v-24h-234zM246 544q-21 0 -36 15t-15 36q0 22 15 36.5t36 14.5q22 0 37 -14.5t15 -36.5q0 -21 -15 -36
t-37 -15zM58 544q-22 0 -37 15t-15 36q0 22 15 36.5t37 14.5q21 0 36 -14.5t15 -36.5q0 -21 -15 -36t-36 -15z" />
    <glyph glyph-name="eth" unicode="&#xf0;" horiz-adv-x="581" 
d="M382 -17v85q-50 -80 -139 -80q-90 0 -143 67.5t-53 177.5q0 104 65.5 176t165.5 72q70 0 104 -46v109h-142v48h142v11q0 30 -6 40.5t-36 18.5l-36 10v20l158 15h30q-5 -36 -7 -115h59v-48h-59v-483q0 -11 4.5 -14.5t22.5 -8.5l41 -10v-21zM302 51q47 0 80 44v317
q-44 25 -82 25q-65 0 -104 -54.5t-39 -142.5q0 -93 39 -141t106 -48z" />
    <glyph glyph-name="ntilde" unicode="&#xf1;" horiz-adv-x="606" 
d="M38 0v24l34 9q3 1 7.5 2t6.5 1.5t5 1.5l4.5 1.5l3 1t2 1.5t1.5 2t1.5 2.5t0.5 3v3.5v326q0 16 -7 23.5t-33 19.5l-25 11v20l138 28h30v-103q51 103 153 103q75 0 113.5 -44t38.5 -120v-264q0 -10 4 -12t27 -8l34 -9v-24h-233v24l34 9q29 8 30 11q2 2 2 9v238
q0 61 -19.5 96.5t-74.5 35.5q-39 0 -67 -22.5t-42 -53.5v-294q0 -10 4 -12t27 -8l34 -9v-24h-234zM380 535q-31 0 -88 36q-4 2 -16 10.5t-17.5 12t-16.5 7t-21 3.5q-27 0 -39.5 -18.5t-12.5 -41.5h-25q0 40 23.5 79t69.5 39q16 0 30.5 -4.5t21.5 -9t20.5 -14.5t17.5 -13
q2 -1 7.5 -5t8 -5.5l7.5 -4.5t9 -4.5t9 -3.5t11 -2.5t12 -0.5q25 0 39 19.5t14 42.5h23q0 -122 -87 -122z" />
    <glyph glyph-name="ograve" unicode="&#xf2;" horiz-adv-x="549" 
d="M275 -12q-106 0 -171 68.5t-65 178.5q0 105 66 175.5t170 70.5q106 0 170.5 -67.5t64.5 -177.5q0 -105 -65.5 -176.5t-169.5 -71.5zM275 21q56 0 89.5 57.5t33.5 158.5q0 85 -32.5 146.5t-90.5 61.5q-56 0 -89.5 -55.5t-33.5 -153.5q0 -86 32.5 -150.5t90.5 -64.5z
M258 544l-102 102q-26 26 -26 53q0 14 10.5 24t24.5 10q17 0 32 -13.5t22 -29.5l63 -146h-24z" />
    <glyph glyph-name="oacute" unicode="&#xf3;" horiz-adv-x="549" 
d="M275 -12q-106 0 -171 68.5t-65 178.5q0 105 66 175.5t170 70.5q106 0 170.5 -67.5t64.5 -177.5q0 -105 -65.5 -176.5t-169.5 -71.5zM275 21q56 0 89.5 57.5t33.5 158.5q0 85 -32.5 146.5t-90.5 61.5q-56 0 -89.5 -55.5t-33.5 -153.5q0 -86 32.5 -150.5t90.5 -64.5z
M271 544l63 146q7 16 22 29.5t32 13.5q14 0 24.5 -10t10.5 -24q0 -27 -26 -53l-102 -102h-24z" />
    <glyph glyph-name="ocircumflex" unicode="&#xf4;" horiz-adv-x="549" 
d="M275 -12q-106 0 -171 68.5t-65 178.5q0 105 66 175.5t170 70.5q106 0 170.5 -67.5t64.5 -177.5q0 -105 -65.5 -176.5t-169.5 -71.5zM275 21q56 0 89.5 57.5t33.5 158.5q0 85 -32.5 146.5t-90.5 61.5q-56 0 -89.5 -55.5t-33.5 -153.5q0 -86 32.5 -150.5t90.5 -64.5z
M109 544l150 175h30l150 -175h-34l-130 98h-2l-130 -98h-34z" />
    <glyph glyph-name="otilde" unicode="&#xf5;" horiz-adv-x="549" 
d="M275 -12q-106 0 -171 68.5t-65 178.5q0 105 66 175.5t170 70.5q106 0 170.5 -67.5t64.5 -177.5q0 -105 -65.5 -176.5t-169.5 -71.5zM275 21q56 0 89.5 57.5t33.5 158.5q0 85 -32.5 146.5t-90.5 61.5q-56 0 -89.5 -55.5t-33.5 -153.5q0 -86 32.5 -150.5t90.5 -64.5z
M351 535q-31 0 -88 36q-4 2 -16 10.5t-17.5 12t-16.5 7t-21 3.5q-27 0 -39.5 -18.5t-12.5 -41.5h-25q0 40 23.5 79t69.5 39q16 0 30.5 -4.5t21.5 -9t20.5 -14.5t17.5 -13q2 -1 7.5 -5t8 -5.5l7.5 -4.5t9 -4.5t9 -3.5t11 -2.5t12 -0.5q25 0 39 19.5t14 42.5h23
q0 -122 -87 -122z" />
    <glyph glyph-name="odieresis" unicode="&#xf6;" horiz-adv-x="549" 
d="M275 -12q-106 0 -171 68.5t-65 178.5q0 105 66 175.5t170 70.5q106 0 170.5 -67.5t64.5 -177.5q0 -105 -65.5 -176.5t-169.5 -71.5zM275 21q56 0 89.5 57.5t33.5 158.5q0 85 -32.5 146.5t-90.5 61.5q-56 0 -89.5 -55.5t-33.5 -153.5q0 -86 32.5 -150.5t90.5 -64.5z
M370 544q-21 0 -36 15t-15 36q0 22 15 36.5t36 14.5q22 0 37 -14.5t15 -36.5q0 -21 -15 -36t-37 -15zM182 544q-22 0 -37 15t-15 36q0 22 15 36.5t37 14.5q21 0 36 -14.5t15 -36.5q0 -21 -15 -36t-36 -15z" />
    <glyph glyph-name="divide" unicode="&#xf7;" 
d="M266 362q-26 0 -43 16.5t-17 41.5q0 23 17.5 39t42.5 16t42 -16t17 -39q0 -24 -17 -41t-42 -17zM35 219v48h456v-48h-456zM266 8q-25 0 -42.5 16t-17.5 39q0 25 17.5 41.5t42.5 16.5t42 -16.5t17 -41.5q0 -23 -17 -39t-42 -16z" />
    <glyph glyph-name="oslash" unicode="&#xf8;" horiz-adv-x="549" 
d="M63 -75l67 108q-91 69 -91 202q0 105 66 175.5t170 70.5q64 0 116 -27l46 75h35l-56 -90q94 -67 94 -203q0 -105 -65.5 -176.5t-169.5 -71.5q-68 0 -120 29l-57 -92h-35zM175 106l181 293q-32 46 -81 46q-56 0 -89.5 -55.5t-33.5 -153.5q0 -72 23 -130zM275 21
q56 0 89.5 57.5t33.5 158.5q0 78 -25 132l-182 -294q33 -54 84 -54z" />
    <glyph glyph-name="ugrave" unicode="&#xf9;" horiz-adv-x="581" 
d="M238 -12q-75 0 -114 44t-39 125v237v4t-0.5 3.5t-1.5 3t-1.5 2.5t-2.5 2t-3 2t-4 2t-4.5 2t-6 2.5l-7.5 2.5l-30 12v23l146 13h24q-6 -75 -6 -122v-160q0 -69 18.5 -103.5t71.5 -34.5q70 0 105 74v251q0 20 -5 25t-27 14l-39 16v20l150 20h30q-7 -55 -7 -144v-252
q0 -11 5 -15t22 -11l35 -14v-20l-164 -24v104q-14 -39 -51 -71.5t-94 -32.5zM274 544l-102 102q-26 26 -26 53q0 14 10.5 24t24.5 10q17 0 32 -13.5t22 -29.5l63 -146h-24z" />
    <glyph glyph-name="uacute" unicode="&#xfa;" horiz-adv-x="581" 
d="M238 -12q-75 0 -114 44t-39 125v237v4t-0.5 3.5t-1.5 3t-1.5 2.5t-2.5 2t-3 2t-4 2t-4.5 2t-6 2.5l-7.5 2.5l-30 12v23l146 13h24q-6 -75 -6 -122v-160q0 -69 18.5 -103.5t71.5 -34.5q70 0 105 74v251q0 20 -5 25t-27 14l-39 16v20l150 20h30q-7 -55 -7 -144v-252
q0 -11 5 -15t22 -11l35 -14v-20l-164 -24v104q-14 -39 -51 -71.5t-94 -32.5zM287 544l63 146q7 16 22 29.5t32 13.5q14 0 24.5 -10t10.5 -24q0 -27 -26 -53l-102 -102h-24z" />
    <glyph glyph-name="ucircumflex" unicode="&#xfb;" horiz-adv-x="581" 
d="M238 -12q-75 0 -114 44t-39 125v237v4t-0.5 3.5t-1.5 3t-1.5 2.5t-2.5 2t-3 2t-4 2t-4.5 2t-6 2.5l-7.5 2.5l-30 12v23l146 13h24q-6 -75 -6 -122v-160q0 -69 18.5 -103.5t71.5 -34.5q70 0 105 74v251q0 20 -5 25t-27 14l-39 16v20l150 20h30q-7 -55 -7 -144v-252
q0 -11 5 -15t22 -11l35 -14v-20l-164 -24v104q-14 -39 -51 -71.5t-94 -32.5zM125 544l150 175h30l150 -175h-34l-130 98h-2l-130 -98h-34z" />
    <glyph glyph-name="udieresis" unicode="&#xfc;" horiz-adv-x="581" 
d="M238 -12q-75 0 -114 44t-39 125v237v4t-0.5 3.5t-1.5 3t-1.5 2.5t-2.5 2t-3 2t-4 2t-4.5 2t-6 2.5l-7.5 2.5l-30 12v23l146 13h24q-6 -75 -6 -122v-160q0 -69 18.5 -103.5t71.5 -34.5q70 0 105 74v251q0 20 -5 25t-27 14l-39 16v20l150 20h30q-7 -55 -7 -144v-252
q0 -11 5 -15t22 -11l35 -14v-20l-164 -24v104q-14 -39 -51 -71.5t-94 -32.5zM386 544q-21 0 -36 15t-15 36q0 22 15 36.5t36 14.5q22 0 37 -14.5t15 -36.5q0 -21 -15 -36t-37 -15zM198 544q-22 0 -37 15t-15 36q0 22 15 36.5t37 14.5q21 0 36 -14.5t15 -36.5q0 -21 -15 -36
t-36 -15z" />
    <glyph glyph-name="yacute" unicode="&#xfd;" horiz-adv-x="428" 
d="M54 -239q-35 0 -58 18.5t-23 50.5q0 25 15.5 41t39.5 16q29 0 44 -25.5t1 -61.5q42 0 84 106l35 89l-166 404q-10 24 -24 28l-19 6v23h204v-23l-34 -10q-26 -7 -19 -25l109 -283l105 279q6 14 0 19t-29 11l-36 9v23h158v-23l-18 -7q-11 -5 -16 -11t-13 -26l-187 -468
q-31 -77 -64.5 -118.5t-88.5 -41.5zM221 544l63 146q7 16 22 29.5t32 13.5q14 0 24.5 -10t10.5 -24q0 -27 -26 -53l-102 -102h-24z" />
    <glyph glyph-name="thorn" unicode="&#xfe;" horiz-adv-x="579" 
d="M29 -238v24l34 9q16 4 21 6t8 5.5t3 10.5v785q0 21 -5 28.5t-23 15.5l-36 15v21l143 25h30q-7 -61 -7 -145v-170q50 89 146 89q89 0 139 -63.5t50 -173.5q0 -111 -63 -183.5t-164 -72.5q-33 0 -62.5 13t-45.5 34v-216q0 -9 4.5 -12t20.5 -7q4 -1 6 -1l57 -13v-24h-256z
M279 32q66 0 104.5 54.5t38.5 150.5q0 86 -33 134t-98 48q-58 0 -94 -54v-306q43 -27 82 -27z" />
    <glyph glyph-name="ydieresis" unicode="&#xff;" horiz-adv-x="428" 
d="M54 -239q-35 0 -58 18.5t-23 50.5q0 25 15.5 41t39.5 16q29 0 44 -25.5t1 -61.5q42 0 84 106l35 89l-166 404q-10 24 -24 28l-19 6v23h204v-23l-34 -10q-26 -7 -19 -25l109 -283l105 279q6 14 0 19t-29 11l-36 9v23h158v-23l-18 -7q-11 -5 -16 -11t-13 -26l-187 -468
q-31 -77 -64.5 -118.5t-88.5 -41.5zM330 544q-21 0 -36 15t-15 36q0 22 15 36.5t36 14.5q22 0 37 -14.5t15 -36.5q0 -21 -15 -36t-37 -15zM142 544q-22 0 -37 15t-15 36q0 22 15 36.5t37 14.5q21 0 36 -14.5t15 -36.5q0 -21 -15 -36t-36 -15z" />
    <glyph glyph-name="dotlessi" unicode="&#x131;" horiz-adv-x="300" 
d="M37 0v24l34 9q3 1 7.5 2t6.5 1.5t5 1.5l4.5 1.5l3 1t2 1.5t1.5 2t1.5 2.5t0.5 3v3.5v326q0 16 -7 23.5t-33 19.5l-25 11v20l138 28h30v-428q0 -10 4 -12t27 -8l34 -9v-24h-234z" />
    <glyph glyph-name="Lslash" unicode="&#x141;" horiz-adv-x="569" 
d="M39 0v29l54 12q19 4 23 7t4 13v191l-82 -48v51l82 48v255q0 10 -4 13t-22 7l-56 13v29h291v-29l-67 -13q-17 -3 -21.5 -6.5t-4.5 -13.5v-186l104 61v-52l-104 -61v-238q0 -47 77 -47h11q83 0 128 31q31 39 54 97l20 52h27l-46 -215h-468z" />
    <glyph glyph-name="lslash" unicode="&#x142;" horiz-adv-x="295" 
d="M31 0v24l34 9q3 1 7.5 2t6.5 1.5t5 1.5l4.5 1.5l3 1t2 1.5t1.5 2t1.5 2.5t0.5 3v3.5v217l-87 -51v51l87 51v281q0 21 -5 28.5t-23 15.5l-36 15v21l144 25h30q-7 -61 -7 -145v-180l105 62v-52l-105 -62v-277q0 -10 4 -12t27 -8l34 -9v-24h-234z" />
    <glyph glyph-name="OE" unicode="&#x152;" horiz-adv-x="1038" 
d="M360 -13q-141 0 -233 99t-92 232q0 132 91.5 225t233.5 93q126 0 210 -91v75h303q47 0 80 11l18 -199h-27q-23 86 -50 122q-18 12 -58 21t-85 9h-9q-36 0 -68 -6v-235h110q20 12 36.5 40t20.5 53h20v-229h-20q-15 67 -57 96h-110v-261q51 -7 83 -7h23q33 0 71.5 8
t57.5 23q35 40 61 129h27l-29 -195h-398v83q-83 -96 -210 -96zM360 24q66 0 112.5 45.5t65.5 109.5t20 139q0 74 -19.5 135.5t-65.5 104t-113 42.5q-52 0 -91.5 -24t-62 -65t-33.5 -89.5t-11 -103.5q0 -75 18.5 -139t64.5 -109.5t115 -45.5z" />
    <glyph glyph-name="oe" unicode="&#x153;" horiz-adv-x="849" 
d="M275 -12q-106 0 -171 68.5t-65 178.5q0 105 66 175.5t170 70.5q117 0 174 -86q63 86 176 86q76 0 126 -43t50 -117q0 -15 -5 -50q-1 -1 -1 -4l-171 4l-121 3v-19q1 -95 44.5 -147t118.5 -52q76 0 123 62l10 -10q-58 -120 -188 -120q-107 0 -166 86q-58 -86 -170 -86z
M506 303l191 9q5 12 5 29q0 105 -80 105q-50 0 -80 -41t-36 -102zM275 21q56 0 89.5 57.5t33.5 158.5q0 85 -32.5 146.5t-90.5 61.5q-56 0 -89.5 -55.5t-33.5 -153.5q0 -86 32.5 -150.5t90.5 -64.5z" />
    <glyph glyph-name="Scaron" unicode="&#x160;" horiz-adv-x="519" 
d="M49 -12q1 14 -4 229h31q18 -95 40 -138q45 -57 114 -57q60 0 94 33.5t34 88.5q0 49 -25 76.5t-72 47.5l-63 26q-71 29 -107 71t-36 105q0 74 61.5 120t150.5 46q74 0 134 -34l21 29h21l6 -196h-29q-14 72 -43 116q-52 52 -111 52q-44 0 -73.5 -27.5t-29.5 -74.5
q0 -39 19.5 -64.5t62.5 -45.5l91 -43q28 -13 48 -26t42.5 -33.5t34.5 -50t12 -65.5q0 -86 -65 -135.5t-167 -49.5q-91 0 -153 30l-17 -30h-22zM244 684l-150 175h34l130 -98h2l130 98h34l-150 -175h-30z" />
    <glyph glyph-name="scaron" unicode="&#x161;" horiz-adv-x="441" 
d="M61 -12l-5 176h28q19 -65 45 -106q39 -36 77 -36q39 0 63 21.5t24 56.5q0 58 -56 80l-77 30q-41 16 -69 48.5t-28 79.5q0 66 51 104.5t124 38.5q55 0 97 -26l14 26h24v-152h-28q-5 39 -27 83q-30 39 -74 39q-34 0 -58.5 -22t-24.5 -55q0 -62 50 -84l86 -37
q98 -43 98 -121q0 -70 -50 -107t-126 -37q-78 0 -120 28l-14 -28h-24zM215 544l-150 175h34l130 -98h2l130 98h34l-150 -175h-30z" />
    <glyph glyph-name="Ydieresis" unicode="&#x178;" horiz-adv-x="604" 
d="M156 0v29l67 14q16 3 21.5 7t5.5 13v194l-195 299q-12 18 -28 24l-28 10v30h249v-30l-46 -11q-15 -4 -18 -6t2 -14l156 -240l139 237q6 13 1.5 17.5t-25.5 8.5l-44 9v29h193v-29l-29 -8q-24 -6 -35 -25l-177 -282v-213q0 -10 4 -13t22 -7l68 -14v-29h-303zM408 684
q-21 0 -36 15t-15 36q0 22 15 36.5t36 14.5q22 0 37 -14.5t15 -36.5q0 -21 -15 -36t-37 -15zM220 684q-22 0 -37 15t-15 36q0 22 15 36.5t37 14.5q21 0 36 -14.5t15 -36.5q0 -21 -15 -36t-36 -15z" />
    <glyph glyph-name="Zcaron" unicode="&#x17d;" horiz-adv-x="563" 
d="M34 0v19l358 560h-128q-107 0 -135 -10q-34 -44 -54 -126h-27l11 187q36 -10 87 -10h389v-17l-356 -560h132q103 0 139 15q20 22 42 60t33 70h27l-33 -188h-485zM296 684l-150 175h34l130 -98h2l130 98h34l-150 -175h-30z" />
    <glyph glyph-name="zcaron" unicode="&#x17e;" horiz-adv-x="449" 
d="M27 0v20l261 402h-137q-25 0 -35 -18l-56 -99h-23l7 113l-6 38h369v-20l-258 -396h145q14 0 24 15l73 113h24q-7 -33 -12 -75t-6 -67l-1 -26h-369zM209 544l-150 175h34l130 -98h2l130 98h34l-150 -175h-30z" />
    <glyph glyph-name="florin" unicode="&#x192;" 
d="M49 -238q-37 0 -64.5 16.5t-27.5 50.5q0 25 17.5 39.5t39.5 14.5q28 0 45.5 -23t-0.5 -67q63 0 93 51t42 173l30 303h-106l24 46h87l11 105q7 66 30 114t57 73.5t70.5 37.5t76.5 12q39 0 69 -16.5t30 -51.5q0 -25 -17 -39.5t-38 -14.5q-27 0 -45 22.5t-2 67.5
q-48 0 -82.5 -36t-41.5 -107l-17 -167h133v-46h-138l-27 -283q-13 -139 -78 -207t-171 -68z" />
    <glyph glyph-name="circumflex" unicode="&#x2c6;" horiz-adv-x="549" 
d="M109 544l150 175h30l150 -175h-34l-130 98h-2l-130 -98h-34z" />
    <glyph glyph-name="caron" unicode="&#x2c7;" horiz-adv-x="549" 
d="M259 544l-150 175h34l130 -98h2l130 98h34l-150 -175h-30z" />
    <glyph glyph-name="breve" unicode="&#x2d8;" horiz-adv-x="549" 
d="M274 544q-77 0 -116 40.5t-39 94.5h34q0 -78 121 -78t121 78h34q0 -54 -39 -94.5t-116 -40.5z" />
    <glyph glyph-name="dotaccent" unicode="&#x2d9;" horiz-adv-x="549" 
d="M274 544q-25 0 -42.5 17t-17.5 42q0 24 17.5 41.5t42.5 17.5t42.5 -17.5t17.5 -41.5q0 -25 -18 -42t-42 -17z" />
    <glyph glyph-name="ring" unicode="&#x2da;" horiz-adv-x="549" 
d="M274 544q-44 0 -69.5 25.5t-25.5 63.5t26 63.5t69 25.5q44 0 70 -25.5t26 -63.5t-26 -63.5t-70 -25.5zM274 564q55 0 55 69q0 33 -15.5 50.5t-39.5 17.5q-55 0 -55 -68q0 -33 15.5 -51t39.5 -18z" />
    <glyph glyph-name="ogonek" unicode="&#x2db;" horiz-adv-x="184" 
d="M104 -252q-46 0 -75 18.5t-29 57.5q0 47 52.5 89t95.5 55h24q-112 -67 -112 -144q0 -52 60 -52q24 0 64 24l-12 -36q-20 -12 -68 -12z" />
    <glyph glyph-name="tilde" unicode="&#x2dc;" horiz-adv-x="549" 
d="M351 535q-31 0 -88 36q-4 2 -16 10.5t-17.5 12t-16.5 7t-21 3.5q-27 0 -39.5 -18.5t-12.5 -41.5h-25q0 40 23.5 79t69.5 39q16 0 30.5 -4.5t21.5 -9t20.5 -14.5t17.5 -13q2 -1 7.5 -5t8 -5.5l7.5 -4.5t9 -4.5t9 -3.5t11 -2.5t12 -0.5q25 0 39 19.5t14 42.5h23
q0 -122 -87 -122z" />
    <glyph glyph-name="hungarumlaut" unicode="&#x2dd;" horiz-adv-x="549" 
d="M337 544l123 146q1 1 8 10t10 12.5t10 9.5t13 8.5t13 2.5q14 0 24.5 -10t10.5 -24q0 -22 -33 -46l-155 -109h-24zM167 544l123 146q1 1 8 10t10 12.5t10 9.5t13 8.5t13 2.5q14 0 24.5 -10t10.5 -24q0 -22 -33 -46l-155 -109h-24z" />
    <glyph glyph-name="Delta" unicode="&#x394;" horiz-adv-x="612" 
d="M20 0l297 688l275 -688h-572zM80 35h415l-201 500z" />
    <glyph glyph-name="Delta" unicode="&#x2206;" horiz-adv-x="612" 
d="M20 0l297 688l275 -688h-572zM80 35h415l-201 500z" />
    <glyph glyph-name="Omega" unicode="&#x3a9;" horiz-adv-x="722" 
d="M49 0l-20 135h21q8 -25 14 -37.5t21 -23t37 -10.5h150v58q-99 8 -166 77.5t-67 169.5q0 84 47.5 146.5t119 91.5t154.5 29q84 0 156 -29t119.5 -91.5t47.5 -148.5q0 -100 -67.5 -168.5t-166.5 -76.5v-58h141q17 0 29 4.5t20.5 17.5t12 20.5t11.5 28.5h20l-20 -135h-246
v148q139 23 139 228q0 102 -50.5 161.5t-148.5 59.5q-91 0 -141 -63.5t-50 -159.5q0 -204 140 -226v-148h-257z" />
    <glyph glyph-name="Omega" unicode="&#x2126;" horiz-adv-x="722" 
d="M49 0l-20 135h21q8 -25 14 -37.5t21 -23t37 -10.5h150v58q-99 8 -166 77.5t-67 169.5q0 84 47.5 146.5t119 91.5t154.5 29q84 0 156 -29t119.5 -91.5t47.5 -148.5q0 -100 -67.5 -168.5t-166.5 -76.5v-58h141q17 0 29 4.5t20.5 17.5t12 20.5t11.5 28.5h20l-20 -135h-246
v148q139 23 139 228q0 102 -50.5 161.5t-148.5 59.5q-91 0 -141 -63.5t-50 -159.5q0 -204 140 -226v-148h-257z" />
    <glyph glyph-name="pi" unicode="&#x3c0;" horiz-adv-x="604" 
d="M35 0v24l46 10q16 3 19.5 5.5t3.5 11.5v353q0 9 -3.5 11.5t-18.5 5.5l-47 10v25h534v-25l-46 -10q-15 -3 -19 -5.5t-4 -11.5v-353q0 -9 4 -11.5t18 -5.5l47 -10v-24h-235v24l41 10q16 4 19.5 6t3.5 11v365h-191v-365q0 -9 3.5 -11.5t18.5 -5.5l42 -10v-24h-236z" />
    <glyph glyph-name="endash" unicode="&#x2013;" horiz-adv-x="488" 
d="M28 273v50h431v-50h-431z" />
    <glyph glyph-name="emdash" unicode="&#x2014;" horiz-adv-x="977" 
d="M28 273v50h922v-50h-922z" />
    <glyph glyph-name="quoteleft" unicode="&#x2018;" horiz-adv-x="265" 
d="M133 376q-27 0 -46.5 17.5t-19.5 57.5q0 97 87 179h49q-28 -24 -48.5 -60.5t-20.5 -67.5q26 0 44 -18t18 -44q0 -27 -18.5 -45.5t-44.5 -18.5z" />
    <glyph glyph-name="quoteright" unicode="&#x2019;" horiz-adv-x="265" 
d="M64 376q27 24 47.5 60.5t20.5 67.5q-26 0 -44 18t-18 44q0 27 19 45.5t45 18.5q27 0 46 -18t19 -58q0 -91 -87 -178h-48z" />
    <glyph glyph-name="quotesinglbase" unicode="&#x201a;" horiz-adv-x="265" 
d="M64 -141q27 24 47.5 61t20.5 67q-25 0 -43.5 18.5t-18.5 44.5q0 27 19 45.5t45 18.5q27 0 46 -18t19 -58q0 -92 -87 -179h-48z" />
    <glyph glyph-name="quotedblleft" unicode="&#x201c;" horiz-adv-x="447" 
d="M312 376q-27 0 -46.5 17.5t-19.5 57.5q0 97 87 179h48q-26 -25 -46.5 -61t-20.5 -67q26 0 44 -18t18 -44q0 -27 -19 -45.5t-45 -18.5zM128 376q-27 0 -46 17.5t-19 57.5q0 97 87 179h48q-27 -25 -47.5 -61t-20.5 -67q26 0 44 -18t18 -44q0 -27 -19 -45.5t-45 -18.5z" />
    <glyph glyph-name="quotedblright" unicode="&#x201d;" horiz-adv-x="447" 
d="M252 376q27 24 47.5 61t20.5 67q-26 0 -44 18.5t-18 44.5t19 44.5t45 18.5q27 0 46 -17.5t19 -57.5q0 -16 -2.5 -31.5t-7 -29t-9.5 -25.5t-12 -24t-12.5 -20t-13.5 -17.5t-12 -13.5t-10 -11l-7 -7h-49zM69 376q27 24 47 60.5t20 67.5q-25 0 -43 18.5t-18 44.5t18.5 44.5
t44.5 18.5q28 0 47 -17.5t19 -57.5q0 -92 -87 -179h-48z" />
    <glyph glyph-name="quotedblbase" unicode="&#x201e;" horiz-adv-x="447" 
d="M248 -139q27 25 47.5 61t20.5 67q-26 0 -44 18t-18 45q0 26 18.5 44.5t44.5 18.5q27 0 46.5 -17.5t19.5 -57.5q0 -93 -86 -179h-49zM64 -139q27 24 47.5 60.5t20.5 67.5q-25 0 -43 18t-18 45q0 26 18.5 44.5t44.5 18.5q27 0 46.5 -17.5t19.5 -57.5q0 -97 -87 -179h-49z
" />
    <glyph glyph-name="dagger" unicode="&#x2020;" horiz-adv-x="448" 
d="M198 -232v726h-173v47h173v207h52v-207h173v-47h-173v-726h-52z" />
    <glyph glyph-name="daggerdbl" unicode="&#x2021;" horiz-adv-x="448" 
d="M198 -232v352h-173v51h173v323h-173v47h173v207h52v-207h173v-47h-173v-323h173v-51h-173v-352h-52z" />
    <glyph glyph-name="bullet" unicode="&#x2022;" horiz-adv-x="393" 
d="M197 200q-49 0 -83 34t-34 82q0 49 34 83t83 34q48 0 82 -34t34 -83q0 -48 -34 -82t-82 -34z" />
    <glyph glyph-name="ellipsis" unicode="&#x2026;" horiz-adv-x="813" 
d="M680 -13q-27 0 -46 19t-19 45t19 44.5t46 18.5t45.5 -18.5t18.5 -44.5t-18.5 -45t-45.5 -19zM407 -13q-27 0 -45.5 19t-18.5 45t18.5 44.5t45.5 18.5t45.5 -18t18.5 -45t-18.5 -45.5t-45.5 -18.5zM135 -13q-27 0 -46 18.5t-19 45.5q0 26 18.5 44.5t46.5 18.5
q27 0 45 -18.5t18 -44.5q0 -27 -18 -45.5t-45 -18.5z" />
    <glyph glyph-name="perthousand" unicode="&#x2030;" horiz-adv-x="1079" 
d="M177 307q-65 0 -111.5 47t-46.5 115t46 114.5t112 46.5t112 -46.5t46 -114.5t-46.5 -115t-111.5 -47zM177 -12l-38 28l413 617l35 -30zM901 -10q-65 0 -111.5 47t-46.5 115t46 114.5t112 46.5t112 -46.5t46 -114.5t-46.5 -115t-111.5 -47zM545 -10q-65 0 -111.5 47
t-46.5 115t46 114.5t112 46.5t112 -46.5t46 -114.5t-46.5 -115t-111.5 -47zM177 348q44 0 71.5 33t27.5 86q0 54 -27.5 87t-71.5 33t-72 -33t-28 -87q0 -52 28.5 -85.5t71.5 -33.5zM901 31q44 0 71.5 33t27.5 86q0 54 -27.5 87t-71.5 33t-72 -33t-28 -87q0 -52 28.5 -85.5
t71.5 -33.5zM545 31q44 0 71.5 33t27.5 86q0 54 -27.5 87t-71.5 33t-72 -33t-28 -87q0 -52 28.5 -85.5t71.5 -33.5z" />
    <glyph glyph-name="guilsinglleft" unicode="&#x2039;" horiz-adv-x="215" 
d="M175 102l-165 159v26l165 159v-33l-86 -138v-2l86 -138v-33z" />
    <glyph glyph-name="guilsinglright" unicode="&#x203a;" horiz-adv-x="215" 
d="M40 102v33l86 138v2l-86 138v33l165 -159v-26z" />
    <glyph glyph-name="fraction" unicode="&#x2044;" horiz-adv-x="10" 
d="M-324 -145l599 724h57l-599 -724h-57z" />
    <glyph glyph-name="fraction" unicode="&#x2215;" horiz-adv-x="10" 
d="M-324 -145l599 724h57l-599 -724h-57z" />
    <glyph glyph-name="Euro" unicode="&#x20ac;" 
d="M335 -11q-123 0 -183 65.5t-79 184.5h-90l20 41h65q-1 10 -1 31q0 30 5 63h-62l20 42h51q61 220 262 220q79 0 120.5 -45t44.5 -126h-36q-8 66 -34.5 100.5t-92.5 34.5t-98 -49t-45 -135h221l-22 -42h-203q-3 -54 -3 -57q0 -25 1 -37h172l-22 -41h-147q15 -212 139 -212
q62 0 92.5 30.5t43.5 94.5h39q0 -14 -3.5 -30.5t-14.5 -41.5t-29 -44t-52 -33t-79 -14z" />
    <glyph glyph-name="trademark" unicode="&#x2122;" horiz-adv-x="1064" 
d="M141 260v22l41 8q12 2 14.5 3.5t2.5 7.5v294h-22q-51 0 -77 -14q-20 -26 -30 -69h-19l5 116q21 -8 58 -8h250q35 0 51 7l5 -115h-20q-9 37 -30 68q-27 15 -70 15h-28v-294q0 -6 2 -7.5t14 -3.5l42 -8v-22h-189zM467 260v22l43 6q11 1 13 16q3 36 3 56v218q0 7 -3 9t-16 4
l-33 7v23h120l137 -263l141 262h117v-21l-35 -8q-10 -2 -12.5 -4t-2.5 -8v-278q0 -6 2.5 -8t13.5 -4l35 -7v-22h-172v22l30 7q11 2 14 4t3 8v249l-154 -289h-4l-149 282v-182q0 -20 3 -56q0 -15 11 -16l45 -7v-22h-150z" />
    <glyph glyph-name="partialdiff" unicode="&#x2202;" horiz-adv-x="579" 
d="M257 -9q-97 0 -153.5 66.5t-56.5 183.5q0 107 55.5 168.5t142.5 61.5q92 0 134 -63q-5 47 -18 85t-26.5 62.5t-38 43t-42 28t-49.5 17t-49 9.5t-51 5v39q77 0 135.5 -12t95 -34.5t57 -43t37.5 -47.5q34 -54 45 -124.5t11 -174.5q0 -112 -62.5 -191t-166.5 -79zM256 25
q125 0 125 270v75q-47 50 -104 50q-62 0 -96 -56.5t-34 -129.5q0 -55 8.5 -99t34.5 -77t66 -33z" />
    <glyph glyph-name="product" unicode="&#x220f;" horiz-adv-x="783" 
d="M38 0v29l55 12q19 4 23 7t4 13v497q0 10 -4 13t-22 7l-56 13v29h707v-29l-55 -12q-18 -4 -22.5 -7.5t-4.5 -13.5v-497q0 -10 4.5 -13t21.5 -7l56 -13v-28h-274v28l49 12q19 5 23 8t4 13v512h-311v-512q0 -10 4.5 -13.5t21.5 -7.5l50 -11v-29h-274z" />
    <glyph glyph-name="summation" unicode="&#x2211;" horiz-adv-x="579" 
d="M11 0v15l277 282l-237 306v17h389q51 0 87 10l11 -187h-27q-20 82 -54 126q-28 10 -135 10h-116l182 -240l-246 -255h165q103 0 139 15q20 22 42 60t33 70h27l-36 -229h-501z" />
    <glyph glyph-name="minus" unicode="&#x2212;" 
d="M36 214v53h456v-53h-456z" />
    <glyph glyph-name="radical" unicode="&#x221a;" horiz-adv-x="549" 
d="M248 -11l-150 414l-95 -38l-14 29l168 71l122 -360l282 644h38l-330 -760h-21z" />
    <glyph glyph-name="infinity" unicode="&#x221e;" horiz-adv-x="700" 
d="M507 140q-62 0 -96.5 30.5t-58.5 91.5q-12 -24 -22 -39.5t-29.5 -35t-48.5 -30t-66 -10.5q-76 0 -115.5 52t-39.5 123q0 87 46 128t110 41q102 0 148 -129q21 59 65 92t107 33q87 0 126.5 -51t39.5 -126q0 -81 -45 -125.5t-121 -44.5zM181 206q16 0 29.5 2t25 8t20 10
t17.5 16t13.5 16.5t12.5 21t10 20.5t10.5 24.5t9.5 23.5q-28 38 -58 54.5t-84 16.5q-58 0 -96 -24.5t-38 -74.5q0 -44 34 -79t94 -35zM508 198q59 0 100.5 34t41.5 78q0 47 -35 78.5t-97 31.5q-36 0 -63 -12t-45 -36.5t-28 -45.5t-22 -55q33 -39 62 -56t86 -17z" />
    <glyph glyph-name="integral" unicode="&#x222b;" horiz-adv-x="500" 
d="M78 -238q-37 0 -64.5 16.5t-27.5 50.5q0 25 17.5 39.5t39.5 14.5q28 0 45.5 -23t-0.5 -67q67 0 90 53t23 191v404q0 75 19 129.5t51 83t67.5 41.5t76.5 13q39 0 69 -16.5t30 -51.5q0 -25 -17 -39.5t-38 -14.5q-27 0 -45 22.5t-2 67.5q-105 0 -105 -163v-446
q0 -165 -57 -235t-172 -70z" />
    <glyph glyph-name="approxequal" unicode="&#x2248;" horiz-adv-x="609" 
d="M401 436q-40 0 -108 36q-63 33 -91 33q-27 0 -44.5 -19t-17.5 -41h-25q0 38 28 78t75 40q16 0 33.5 -5t27 -9.5t28 -15t21.5 -11.5q50 -26 84 -26q26 0 44.5 20.5t18.5 41.5h23q0 -55 -26 -88.5t-71 -33.5zM401 240q-40 0 -108 36q-63 33 -91 33q-27 0 -44.5 -19
t-17.5 -41h-25q0 38 28 78t75 40q16 0 33.5 -5t27 -9.5t28 -15t21.5 -11.5q50 -26 84 -26q26 0 44.5 20.5t18.5 41.5h23q0 -55 -26 -88.5t-71 -33.5z" />
    <glyph glyph-name="notequal" unicode="&#x2260;" 
d="M87 -40l-24 16l102 150h-133v48h168l95 140h-263v48h299l101 146l24 -18l-88 -128h120v-48h-156l-95 -140h251v-48h-286z" />
    <glyph glyph-name="lessequal" unicode="&#x2264;" 
d="M476 27l-454 214l454 214l20 -41l-312 -153l-60 -22l57 -20l315 -151zM32 -148v43h463v-43h-463z" />
    <glyph glyph-name="greaterequal" unicode="&#x2265;" 
d="M52 27l-20 41l315 151l57 20l-60 22l-312 153l20 41l454 -214zM33 -148v43h463v-43h-463z" />
    <glyph glyph-name="lozenge" unicode="&#x25ca;" horiz-adv-x="494" 
d="M248 -6l-223 327l223 318l221 -318zM248 67l172 254l-172 246l-173 -246z" />
    <glyph glyph-name="eth.sc" horiz-adv-x="650" 
d="M39 0v27l51 11q19 4 23 7t4 13v168h-78v48h78v163q0 10 -4.5 13t-21.5 7l-52 12v27h275q127 0 213.5 -64.5t86.5 -176.5q0 -109 -77.5 -182t-201.5 -73h-296zM287 31h19q89 0 142.5 59t53.5 162q0 94 -49 154t-160 60h-19q-30 0 -52 -10v-182h84v-48h-84v-186
q27 -9 65 -9z" />
    <glyph glyph-name="lslash.sc" horiz-adv-x="520" 
d="M39 0v27l51 11q19 4 23 7t4 13v124l-80 -47v51l80 47v204q0 10 -4.5 13t-21.5 7l-52 12v27h279v-27l-70 -16q-17 -4 -21.5 -7.5t-4.5 -12.5v-138l91 54v-52q-91 -53 -91 -54v-203q26 -7 75 -7h12q24 0 58 8t49 18q25 29 56 133h31l-29 -192h-435z" />
    <glyph glyph-name="scaron.sc" horiz-adv-x="474" 
d="M50 -10q1 11 -4 184h33q12 -69 34 -106q41 -45 99 -45q53 0 82 24.5t29 67.5q0 39 -21 59.5t-64 37.5l-55 21q-127 48 -127 141q0 60 54.5 97t132.5 37q65 0 117 -27l19 23h21l6 -157h-32q-11 52 -39 91q-40 38 -93 38q-39 0 -63.5 -20.5t-24.5 -57.5q0 -31 15.5 -48
t53.5 -34l82 -35q121 -51 121 -142q0 -71 -56 -110t-148 -39q-81 0 -135 24l-15 -24h-22zM220 573l-150 175h34l130 -98h2l130 98h34l-150 -175h-30z" />
    <glyph glyph-name="yacute.sc" horiz-adv-x="542" 
d="M126 0v27l69 15q19 4 23 7t4 13v144l-163 228q-13 18 -29 24l-31 8v30h230v-30l-36 -9q-16 -4 -19 -7.5t5 -16.5l123 -173l115 175q6 13 1.5 16.5t-26.5 8.5l-33 7v29h185v-29l-31 -7q-23 -5 -38 -27l-148 -212v-159q0 -10 4 -13t22 -7l70 -15v-27h-297zM270 573l63 146
q7 16 22 29.5t32 13.5q14 0 24.5 -10t10.5 -24q0 -27 -26 -53l-102 -102h-24z" />
    <glyph glyph-name="thorn.sc" horiz-adv-x="530" 
d="M39 0v27l52 11q18 4 22 7t4 13v379q0 10 -4.5 13t-21.5 7l-52 12v27h261v-27l-51 -12q-18 -4 -22.5 -7t-4.5 -13v-36h78q92 0 151.5 -34t59.5 -101q0 -73 -51.5 -117.5t-145.5 -44.5q-46 0 -92 7v-53q0 -10 3.5 -13t19.5 -6l66 -12v-27h-272zM222 136h31q80 0 117 31
t37 96q0 106 -129 106h-12q-18 0 -44 -7v-226z" />
    <glyph glyph-name="zcaron.sc" horiz-adv-x="507" 
d="M34 0v15l315 443h-113q-89 0 -114 -8q-25 -29 -47 -110h-29l10 164q32 -8 77 -8h348v-14l-313 -443h116q87 0 118 12q16 16 35.5 51t29.5 63h29l-29 -165h-433zM256 573l-150 175h34l130 -98h2l130 98h34l-150 -175h-30z" />
    <glyph glyph-name="onesuperior.sc" horiz-adv-x="390" 
d="M53 271v27l85 10q15 1 19 6t4 17v307h-8l-106 -35l-7 26q140 60 181 88h30v-386q0 -13 5 -17.5t19 -6.5l77 -9v-27h-299z" />
    <glyph glyph-name="threesuperior.sc" horiz-adv-x="390" 
d="M169 262q-45 0 -90 17.5t-45 49.5q0 19 11 31t32 12q41 0 47 -47l3 -23q22 -13 42 -13q104 0 104 105q0 40 -28.5 62.5t-74.5 22.5q-25 0 -41 -7v30q46 4 74 18q57 26 60 92q1 32 -22.5 48t-56.5 16q-44 0 -71 -20t-27 -62h-25q0 51 38.5 87.5t102.5 36.5q65 0 104 -26
t39 -73q0 -35 -28 -65.5t-62 -41.5q110 -23 110 -117q0 -63 -53.5 -98t-142.5 -35z" />
    <glyph glyph-name="twosuperior.sc" horiz-adv-x="390" 
d="M25 272v24l128 117q20 18 33.5 32t30 36.5t25 48.5t8.5 55q-1 44 -24 66t-63 22q-42 0 -70.5 -24t-28.5 -67q0 -16 1 -23h-26q-4 18 -4 30q0 52 39.5 91t113.5 39q70 0 111.5 -32t41.5 -91q0 -18 -4.5 -35t-16 -34.5t-19 -29t-27 -29.5t-25.5 -24t-28.5 -24t-23.5 -19
l-87 -71h176q16 0 23 10l51 68h23q-7 -22 -15.5 -55t-14 -56t-6.5 -25h-322z" />
    <glyph glyph-name="minus.sc" 
d="M36 214v53h456v-53h-456z" />
    <glyph glyph-name="multiply.sc" 
d="M77 25l-28 28l178 190l-178 189l29 29l177 -188l177 188l29 -29l-178 -189l178 -190l-28 -28l-178 188z" />
    <glyph glyph-name="exclam.sc" horiz-adv-x="267" 
d="M119 177q0 49 -17.5 152t-30.5 155q29 24 62 24q17 0 32.5 -6t22.5 -12l7 -6q-13 -52 -30.5 -155t-17.5 -152h-28zM135 -10q-28 0 -45 16t-17 42t17 41.5t45 15.5q27 0 43 -15.5t16 -41.5t-16 -42t-43 -16z" />
    <glyph glyph-name="quotedbl.sc" horiz-adv-x="394" 
d="M270 445q-2 27 -17 80.5t-30 87.5q23 24 56 24q17 0 32 -6t22 -12l7 -6q-14 -32 -28.5 -85t-18.5 -83h-23zM101 445q-2 27 -17 80.5t-30 87.5q23 24 56 24q17 0 32 -6t22 -12l7 -6q-14 -32 -28.5 -85t-18.5 -83h-23z" />
    <glyph glyph-name="numbersign.sc" horiz-adv-x="745" 
d="M176 -122l-51 14l79 237h-138l15 43h138l53 156h-155l15 43h155l79 238l49 -15l-73 -223h148l78 237l49 -15l-74 -222h148l-15 -43h-148l-52 -156h172l-15 -43h-172l-84 -251l-49 14l79 237h-148zM274 172h148l52 156h-146z" />
    <glyph glyph-name="dollar.sc" 
d="M253 -91v81h-1q-81 0 -135 24l-15 -24h-22q1 11 -4 184h33q12 -69 34 -106q41 -45 99 -45h11v195l-40 15q-127 48 -127 141q0 56 48 92t119 41v66h27v-65q58 -1 110 -27l19 23h21l6 -157h-32q-11 52 -39 91q-38 36 -85 38v-172l55 -23q121 -51 121 -142q0 -65 -48 -103.5
t-128 -44.5v-82h-27zM253 316v159q-31 -5 -50 -25t-19 -52q0 -31 15.5 -48t53.5 -34zM280 27q73 17 73 88q0 36 -18.5 56.5t-54.5 35.5v0v0v0v-1v0v-1v0v-1v-1v0v-1v-1v-1v-1v-1v-1v-1v-1v-1v-1v-1v-1v-1v-1v-1v-1v-1v-1v-1v-1v-1v-1v-1v-1v-1v-1v-1v-1v-1v-1v-1v-1v-1v-2
v-1v-1v-1v-1v-1v-1v-2v-1v-1v-1v-2v-1v-1v-1v-2v-1v-1v-1v-2v-1v-1v-2v-1v-2v-1v-1v-2v-1v-1v-2v-1v-2v-1v-2v-1v-2v-1v-2v-1v-2v-1v-2v-1v-2v-1v-2v-1v-2v-1v-2v-2v-1v-2v-1v-2v-2v-1v-2v-1v-2v-2v-1v-2v-2v-2v-1v-2v-2v-1v-2v-2v-2v-1v-2v-2v-2v-1v-2v-2v-2v-2v-1v-2v-2
v-2v-2v-1v-10z" />
    <glyph glyph-name="percent.sc" horiz-adv-x="721" 
d="M177 307q-65 0 -111.5 47t-46.5 115t46 114.5t112 46.5t112 -46.5t46 -114.5t-46.5 -115t-111.5 -47zM177 -12l-38 28l413 617l35 -30zM545 -10q-65 0 -111.5 47t-46.5 115t46 114.5t112 46.5t112 -46.5t46 -114.5t-46.5 -115t-111.5 -47zM177 348q44 0 71.5 33t27.5 86
q0 54 -27.5 87t-71.5 33t-72 -33t-28 -87q0 -52 28.5 -85.5t71.5 -33.5zM545 31q44 0 71.5 33t27.5 86q0 54 -27.5 87t-71.5 33t-72 -33t-28 -87q0 -52 28.5 -85.5t71.5 -33.5z" />
    <glyph glyph-name="ampersand.sc" horiz-adv-x="534" 
d="M192 -10q-82 0 -125.5 37.5t-43.5 95.5q0 83 117 131l-42 43q-42 43 -42 89q0 62 47.5 92t107.5 30q68 0 106 -31.5t38 -75.5q0 -82 -122 -136l143 -138q26 46 26 117q0 7 -3.5 9t-19.5 6l-29 6v21h159v-21l-45 -9q-10 -2 -13 -5t-3 -13q0 -86 -46 -136l50 -48
q10 -12 32.5 -24t41.5 -16v-14q-71 -5 -104 2.5t-64 34.5l-10 9q-72 -56 -156 -56zM211 286q68 41 68 115q0 72 -71 72q-32 0 -51 -19.5t-19 -59.5q0 -32 38 -72zM222 39q59 0 100 34l-157 157q-54 -38 -54 -88t31 -76.5t80 -26.5z" />
    <glyph glyph-name="quotesingle.sc" horiz-adv-x="231" 
d="M104 445q-2 27 -17 80.5t-30 87.5q23 24 56 24q17 0 32 -6t22 -12l7 -6q-14 -32 -28.5 -85t-18.5 -83h-23z" />
    <glyph glyph-name="parenleft.sc" horiz-adv-x="310" 
d="M278 -152q-100 0 -168 100t-68 273v89q0 173 68 275.5t168 102.5v-29q-71 0 -113.5 -94t-42.5 -257v-78q0 -164 42.5 -258.5t113.5 -94.5v-29z" />
    <glyph glyph-name="parenright.sc" horiz-adv-x="310" 
d="M31 -152v29q71 0 114 99t43 263v62q0 164 -43 261t-114 97v29q101 0 169 -102t68 -275v-72q0 -175 -68.5 -283t-168.5 -108z" />
    <glyph glyph-name="asterisk.sc" horiz-adv-x="469" 
d="M293 194l-70 125l-108 -94l-13 11l72 123l-134 47l3 17l142 -2l-26 140l17 7l70 -126l107 94l14 -11l-72 -123l134 -46l-4 -18l-141 2l26 -140z" />
    <glyph glyph-name="plus.sc" 
d="M235 -33v251h-200v47h200v228h56v-228h200v-47h-200v-251h-56z" />
    <glyph glyph-name="hyphen.sc" horiz-adv-x="284" 
d="M28 253v70h228v-70h-228z" />
    <glyph glyph-name="slash.sc" horiz-adv-x="300" 
d="M15 -75l219 594h51l-219 -594h-51z" />
    <glyph glyph-name="zero.sc" 
d="M265 -10q-105 0 -163.5 68.5t-58.5 189.5q0 116 59 188t163 72q106 0 163.5 -68.5t57.5 -190.5q0 -116 -58 -187.5t-163 -71.5zM265 27q63 0 86 56.5t23 165.5q0 46 -4 81t-14.5 69.5t-33.5 53t-57 18.5q-64 0 -86.5 -56.5t-22.5 -165.5q0 -222 109 -222z" />
    <glyph glyph-name="one.sc" 
d="M89 0v30l107 11q18 1 23 6.5t5 20.5v349h-12l-131 -40l-8 30q175 65 224 101h32v-440q0 -15 6 -21t23 -7l97 -10v-30h-366z" />
    <glyph glyph-name="two.sc" 
d="M55 0v23l156 137q28 24 42.5 38t36 40.5t32 55.5t10.5 62q0 97 -109 97q-57 0 -90.5 -26t-33.5 -75q0 -25 1 -33h-26q-4 15 -4 42q0 60 47 103.5t137 43.5q85 0 135 -37t50 -103q0 -28 -11 -54.5t-34.5 -51.5t-41 -40.5t-51.5 -41t-44 -33.5l-89 -72h210q20 0 28 11
l61 79h24q-9 -26 -19 -65.5t-17 -69t-7 -30.5h-393z" />
    <glyph glyph-name="three.sc" 
d="M227 -10q-26 0 -52 3.5t-53.5 11.5t-44.5 24.5t-17 40.5q0 51 52 51q24 0 38.5 -14t16.5 -37l3 -31q24 -16 57 -16q66 0 97.5 27t31.5 90q0 47 -35.5 71.5t-92.5 24.5q-31 0 -50 -8v38q57 7 91 22q23 10 36 18.5t25.5 29t13.5 50.5q2 38 -26.5 54.5t-72.5 16.5
q-54 0 -90 -23.5t-36 -71.5h-26q0 59 48 102.5t126 43.5q80 0 126.5 -30t46.5 -84q0 -42 -35.5 -74t-90.5 -46q150 -24 150 -132q0 -72 -64 -112t-173 -40z" />
    <glyph glyph-name="four.sc" 
d="M198 0v30l73 8q11 2 14.5 4.5t3.5 11.5v69h-266v27l262 335q18 1 50 9.5t41 13.5h18v-343h80v-42h-80v-70q0 -8 3 -11t14 -4l54 -8v-30h-267zM82 165h207v272z" />
    <glyph glyph-name="five.sc" 
d="M229 -10q-33 0 -66.5 6t-63 25t-29.5 48q0 52 52 52q49 0 55 -53l3 -29q27 -16 50 -16q64 0 95.5 36t31.5 93q0 62 -36 93t-99 31q-56 0 -100 -30h-21q23 128 21 257h330l-30 -77h-262q0 -22 -3.5 -55t-6.5 -55l-4 -23q49 23 106 23q108 0 160.5 -44.5t52.5 -112.5
q0 -71 -66.5 -120t-169.5 -49z" />
    <glyph glyph-name="six.sc" 
d="M270 -10q-43 0 -79.5 11t-69 36t-51.5 71.5t-19 110.5q0 139 85 214t208 75q64 0 115 -24v-33q-37 16 -98 16q-80 0 -135 -48t-68 -153q52 54 136 54q85 0 138.5 -42t53.5 -116t-58.5 -123t-157.5 -49zM277 24q52 0 79.5 36t27.5 94t-30.5 88.5t-87.5 30.5
q-64 0 -111 -47q0 -3 -0.5 -7.5t-0.5 -7.5q0 -187 123 -187z" />
    <glyph glyph-name="seven.sc" 
d="M113 0l291 426h-349l14 77h415v-13l-279 -490h-92z" />
    <glyph glyph-name="eight.sc" 
d="M262 -10q-94 0 -148 31.5t-54 91.5q0 92 136 131q-25 9 -38 15.5t-35.5 22t-33.5 40t-11 57.5q0 58 57 93.5t141 35.5q100 0 146 -35.5t46 -87.5q0 -32 -26.5 -59t-53 -39t-52.5 -19q134 -40 134 -139q0 -65 -63.5 -102t-144.5 -37zM303 277q38 20 56 44t18 60
q0 45 -26 70.5t-78 25.5q-44 0 -71 -23t-27 -68q0 -25 9 -43t31 -30.5t37.5 -18.5t50.5 -17zM262 21q48 0 77 24.5t29 71.5q0 48 -39.5 73.5t-108.5 42.5q-35 -21 -49.5 -45.5t-14.5 -70.5t29.5 -71t76.5 -25z" />
    <glyph glyph-name="nine.sc" 
d="M161 -10q-55 0 -95 19v33q30 -11 83 -11q101 0 156.5 53.5t68.5 142.5q-53 -51 -133 -51q-86 0 -142 43.5t-56 117.5q0 76 58 123.5t154 47.5q112 0 169 -61.5t57 -166.5q0 -128 -83.5 -209t-236.5 -81zM273 223q62 0 104 39v15q0 39 -4 69t-16 62t-38 49.5t-65 17.5
q-54 0 -82.5 -35.5t-28.5 -97.5q0 -54 33 -86.5t97 -32.5z" />
    <glyph glyph-name="less.sc" 
d="M468 28l-454 213l454 214l20 -41l-313 -153l-59 -22l58 -21l314 -150z" />
    <glyph glyph-name="equal.sc" 
d="M35 315v48h456v-48h-456zM35 119v48h456v-48h-456z" />
    <glyph glyph-name="greater.sc" 
d="M52 27l-20 41l315 151l57 20l-60 22l-312 153l20 41l454 -214z" />
    <glyph glyph-name="question.sc" horiz-adv-x="423" 
d="M154 153q1 27 15.5 52.5t24.5 34.5t32 28q60 49 60 123q0 34 -26 58t-65 24q-41 0 -72 -22q22 -25 22 -54q0 -17 -14 -29.5t-34 -12.5q-18 0 -31.5 14t-13.5 35q0 37 52 67l19 11q45 26 108 26q74 0 116 -30.5t42 -91.5q0 -18 -7 -35.5t-15 -28.5t-26.5 -26t-27 -21
t-32 -20t-27.5 -17q-30 -19 -33 -21v-64h-67zM190 -10q-28 0 -45 16t-17 42t17 41.5t45 15.5q27 0 43 -15.5t16 -41.5t-16 -42t-43 -16z" />
    <glyph glyph-name="at.sc" horiz-adv-x="899" 
d="M433 -187q-192 0 -306.5 119t-114.5 310q0 186 125 304.5t310 118.5q192 0 316 -114t124 -309q0 -123 -52.5 -206.5t-146.5 -83.5q-36 0 -64 20.5t-43 54.5l-50 117h-193l-32 -83q-8 -20 14 -25l46 -9v-27h-186v27l46 10q15 4 24 24l186 447h54l185 -448q12 -29 24 -44.5
t31 -15.5q27 0 47 28t30 69t15 78.5t5 66.5q0 166 -106 275t-274 109q-167 0 -269.5 -108.5t-102.5 -275.5q0 -166 97 -278.5t261 -112.5q120 0 198 46l15 -27q-88 -57 -213 -57zM351 184h164l-84 209z" />
    <glyph glyph-name="bracketleft.sc" horiz-adv-x="321" 
d="M62 -168v856h225v-53l-154 12v-773l156 13v-55h-227z" />
    <glyph glyph-name="backslash.sc" horiz-adv-x="300" 
d="M234 -75l-219 594h51l219 -594h-51z" />
    <glyph glyph-name="bracketright.sc" horiz-adv-x="321" 
d="M33 -168v53l154 -12v773l-155 -12v54h226v-856h-225z" />
    <glyph glyph-name="grave.sc" horiz-adv-x="645" 
d="M308 573l-102 102q-26 26 -26 53q0 14 10.5 24t24.5 10q17 0 32 -13.5t22 -29.5l63 -146h-24z" />
    <glyph glyph-name="a.sc" horiz-adv-x="544" 
d="M-14 0v27l46 10q15 4 24 24l186 447h54l185 -448q9 -19 25 -23l37 -10v-27h-235v27l46 10q25 6 16 27l-33 80h-193l-32 -83q-8 -20 14 -25l46 -9v-27h-186zM157 184h164l-84 209z" />
    <glyph glyph-name="b.sc" horiz-adv-x="577" 
d="M39 0v27l51 11q19 4 23 7t4 13v379q0 10 -4.5 13t-21.5 7l-52 12v27h274q91 0 140.5 -31t49.5 -91q0 -42 -34.5 -71t-84.5 -44q63 -12 103 -44t40 -82q0 -71 -55.5 -102t-142.5 -31h-290zM221 272h51q129 0 129 99q0 93 -119 93h-18q-20 0 -43 -7v-185zM273 32h26
q120 0 120 104q0 51 -41.5 77.5t-108.5 26.5h-48v-201q30 -7 52 -7z" />
    <glyph glyph-name="c.sc" horiz-adv-x="594" 
d="M328 -10q-140 0 -214 72t-74 187q0 119 83 189t218 70q88 0 148 -25l16 21h19l8 -173h-29q-14 68 -43 107q-43 39 -116 39q-93 0 -141 -65t-48 -158q0 -101 50.5 -165.5t126.5 -64.5q59 0 113 34q14 13 32.5 48.5t25.5 62.5h30l-30 -148q-75 -31 -175 -31z" />
    <glyph glyph-name="d.sc" horiz-adv-x="650" 
d="M39 0v27l51 11q19 4 23 7t4 13v379q0 10 -4.5 13t-21.5 7l-52 12v27h275q127 0 213.5 -64.5t86.5 -176.5q0 -109 -77.5 -182t-201.5 -73h-296zM287 31h19q89 0 142.5 59t53.5 162q0 94 -49 154t-160 60h-19q-30 0 -52 -10v-416q27 -9 65 -9z" />
    <glyph glyph-name="e.sc" horiz-adv-x="551" 
d="M39 0v27l51 11q19 4 23 7t4 13v379q0 10 -4.5 13t-21.5 7l-52 12v27h355q43 0 72 9l15 -159h-25q-19 64 -43 92q-41 24 -127 24h-7q-27 0 -57 -5v-181h94q18 10 31.5 31.5t16.5 41.5h19v-187h-19q-12 55 -48 77h-94v-200q57 -6 70 -6h20q78 0 115 25q32 35 52 102h25
l-25 -160h-440z" />
    <glyph glyph-name="f.sc" horiz-adv-x="507" 
d="M39 0v27l51 11q19 4 23 7t4 13v379q0 10 -4 13t-21 7l-53 12v27h335q64 0 95 9l16 -159h-29q-18 60 -42 92q-41 24 -116 24h-17q-38 0 -59 -5v-189h93q14 10 27 31.5t16 39.5h22v-189h-22q-16 60 -43 81h-93v-171q0 -10 4.5 -13.5t22.5 -6.5l74 -14v-26h-284z" />
    <glyph glyph-name="g.sc" horiz-adv-x="624" 
d="M319 -8q-129 0 -206 75t-77 191q0 113 87.5 181.5t230.5 68.5q86 0 146 -25l16 21h24l8 -173h-27q-5 26 -19 59t-26 49q-44 36 -125 36q-93 0 -146 -58.5t-53 -154.5q0 -111 54.5 -174.5t129.5 -63.5q68 0 105 32v127q0 7 -4 10t-18 7l-61 15v27h222v-24l-15 -6
q-15 -6 -18.5 -10t-3.5 -15v-138l4 -15q-33 -16 -97 -29t-131 -13z" />
    <glyph glyph-name="h.sc" horiz-adv-x="715" 
d="M39 0v27l51 11q19 4 23 7t4 13v379q0 10 -4.5 13t-21.5 7l-52 12v27h256v-27l-46 -12q-13 -3 -17.5 -5t-7 -5t-2.5 -10v-159h272v159q0 9 -4 12t-22 8l-48 12v27h256v-27l-51 -12q-18 -4 -22.5 -7t-4.5 -13v-379q0 -10 4 -13t22 -7l52 -11v-27h-256v27l47 11q14 4 18 5
t6.5 4.5t2.5 10.5v178h-272v-178q0 -10 4 -13t22 -7l47 -11v-27h-256z" />
    <glyph glyph-name="i.sc" horiz-adv-x="334" 
d="M39 0v27l51 11q19 4 23 7t4 13v379q0 10 -4.5 13t-21.5 7l-52 12v27h256v-27l-46 -12q-13 -3 -17.5 -5t-7 -5t-2.5 -10v-379q0 -10 4 -13t22 -7l47 -11v-27h-256z" />
    <glyph glyph-name="j.sc" horiz-adv-x="332" 
d="M29 -192q-33 0 -55 15t-22 43q0 19 14.5 31.5t34.5 12.5q30 0 42 -24.5t-1 -48.5q68 11 68 130v470q0 10 -4 13t-21 7l-53 12v27h261v-27l-51 -12q-18 -4 -22.5 -7t-4.5 -13v-448q0 -90 -52.5 -135.5t-133.5 -45.5z" />
    <glyph glyph-name="k.sc" horiz-adv-x="611" 
d="M446 0q-38 28 -99 106l-107 137q-2 3 -6.5 5t-8.5 2l-4 1v6q21 8 30 17l175 165q17 17 -10 22l-38 7v28h208v-27l-37 -7q-37 -7 -54 -22l-171 -153l129 -158q58 -71 98 -91l51 -12v-26h-156zM39 0v27l51 11q19 4 23 7t4 13v379q0 10 -4.5 13t-21.5 7l-52 12v27h262v-27
l-52 -12q-18 -4 -22.5 -7t-4.5 -13v-379q0 -10 4.5 -13t21.5 -7l53 -11v-27h-262z" />
    <glyph glyph-name="l.sc" horiz-adv-x="520" 
d="M39 0v27l51 11q19 4 23 7t4 13v379q0 10 -4.5 13t-21.5 7l-52 12v27h279v-27l-70 -16q-17 -4 -21.5 -7.5t-4.5 -12.5v-393q26 -7 75 -7h12q24 0 58 8t49 18q25 29 56 133h31l-29 -192h-435z" />
    <glyph glyph-name="m.sc" horiz-adv-x="817" 
d="M28 0v27l64 10q19 3 19 28q5 47 5 92v279q0 9 -4 12t-21 7l-50 12v29h178l187 -356l192 356h179v-27l-53 -13q-16 -4 -20 -7t-4 -12v-378q0 -10 4 -13t22 -7l53 -12v-27h-258v27l48 12q11 3 14.5 4t7 3t4 4.5t0.5 8.5v343l-216 -401h-5l-209 389v-232q0 -20 1 -37.5
t2.5 -33t1.5 -20.5q0 -27 17 -29l66 -11v-27h-225z" />
    <glyph glyph-name="n.sc" horiz-adv-x="666" 
d="M512 -10l-355 402v-233q0 -44 6 -101q3 -16 18 -19l76 -12v-27h-226v27l55 10q14 2 17 19q6 60 6 102v276q0 12 -4.5 15t-24.5 8l-44 11v28h163l312 -350v215q0 31 -4 73q-2 21 -17 23l-77 12v27h224v-27l-55 -10q-18 -3 -18 -22q-5 -50 -5 -73v-374h-47z" />
    <glyph glyph-name="o.sc" horiz-adv-x="645" 
d="M322 -10q-125 0 -205.5 77t-80.5 187q0 109 80 181.5t206 72.5q127 0 206 -72.5t79 -181.5q0 -110 -79.5 -187t-205.5 -77zM322 25q59 0 98.5 35.5t55.5 85t16 108.5q0 91 -41.5 155t-128.5 64q-86 0 -128 -64t-42 -155q0 -58 16 -107.5t55.5 -85.5t98.5 -36z" />
    <glyph glyph-name="p.sc" horiz-adv-x="530" 
d="M39 0v27l52 11q18 4 22 7t4 13v379q0 10 -4.5 13t-21.5 7l-52 12v27h261q92 0 151.5 -34t59.5 -101q0 -73 -51.5 -117.5t-145.5 -44.5q-46 0 -92 7v-148q0 -10 3.5 -13t19.5 -6l66 -12v-27h-272zM222 231h31q80 0 117 31t37 96q0 106 -129 106h-12q-18 0 -44 -7v-226z
" />
    <glyph glyph-name="q.sc" horiz-adv-x="645" 
d="M462 -183q-53 32 -151 173q-125 1 -200 74t-75 190q0 109 79 181.5t207 72.5q129 0 207 -71.5t78 -182.5q0 -107 -59 -171t-147 -85q83 -105 138 -140q1 -1 14 -3.5t28 -5.5t19 -4v-28h-138zM322 25q58 0 98 36t56 86t16 107q0 91 -42 155t-128 64q-59 0 -99 -34
t-55.5 -81t-15.5 -104q0 -91 43 -160t127 -69z" />
    <glyph glyph-name="r.sc" horiz-adv-x="596" 
d="M39 0v27l51 11q19 4 23 7t4 13v379q0 10 -4.5 13t-21.5 7l-52 12v27h268q95 0 152 -31.5t57 -98.5q0 -47 -38 -84t-97 -52q29 -17 61 -65l48 -74q21 -32 55 -53l51 -11v-27h-146q-25 14 -74 89l-82 123h-72v-154q0 -10 4.5 -13t22.5 -7l51 -11v-27h-261zM222 248h54
q133 0 133 115q0 101 -123 101h-20q-7 0 -44 -8v-208z" />
    <glyph glyph-name="s.sc" horiz-adv-x="474" 
d="M50 -10q1 11 -4 184h33q12 -69 34 -106q41 -45 99 -45q53 0 82 24.5t29 67.5q0 39 -21 59.5t-64 37.5l-55 21q-127 48 -127 141q0 60 54.5 97t132.5 37q65 0 117 -27l19 23h21l6 -157h-32q-11 52 -39 91q-40 38 -93 38q-39 0 -63.5 -20.5t-24.5 -57.5q0 -31 15.5 -48
t53.5 -34l82 -35q121 -51 121 -142q0 -71 -56 -110t-148 -39q-81 0 -135 24l-15 -24h-22z" />
    <glyph glyph-name="t.sc" horiz-adv-x="541" 
d="M125 0v27l66 16q23 6 25 11q1 2 1 8v401h-32q-74 0 -106 -19q-18 -23 -42 -115h-27l6 177q30 -10 81 -10h355q50 0 72 10l7 -177h-28q-19 80 -42 114q-37 20 -98 20h-41v-401q0 -9 4 -12t22 -7l68 -16v-27h-291z" />
    <glyph glyph-name="u.sc" horiz-adv-x="642" 
d="M331 -10q-104 0 -167 50t-63 146v251q0 10 -3.5 13t-17.5 7l-47 12v27h251v-27l-54 -12q-15 -3 -19.5 -6.5t-4.5 -13.5v-247q0 -73 36.5 -114.5t99.5 -41.5q78 0 115.5 45.5t37.5 117.5v241q0 10 -4 13t-19 6l-58 12v27h197v-27l-40 -11q-11 -3 -15 -5t-6 -5t-2 -10v-245
q0 -96 -58 -149.5t-159 -53.5z" />
    <glyph glyph-name="v.sc" horiz-adv-x="552" 
d="M246 -9l-195 444q-7 17 -31 24l-30 9v28h237v-29l-47 -9q-16 -3 -20 -8t0 -17l142 -326l139 328q4 10 0 15t-21 9l-41 8v29h183v-28l-33 -9q-23 -6 -30 -23l-207 -445h-46z" />
    <glyph glyph-name="w.sc" horiz-adv-x="838" 
d="M217 -9l-168 443q-6 17 -32 26l-28 9v27h233v-28l-40 -8q-16 -3 -21.5 -7.5t-1.5 -13.5l117 -329l117 287l-18 38q-6 17 -31 25l-29 9v27h225v-28l-39 -9q-14 -4 -17.5 -9.5t1.5 -15.5l126 -321l120 320q4 12 -0.5 16.5t-25.5 9.5l-43 9v28h187v-28l-29 -9
q-24 -8 -31 -25l-186 -443h-45l-139 344l-155 -344h-47z" />
    <glyph glyph-name="x.sc" horiz-adv-x="561" 
d="M-1 0v26l41 11q22 6 39 25l152 179l-161 195q-16 19 -32 24l-30 9v27h240v-28l-37 -7q-17 -4 -22 -7.5t1 -14.5l107 -135l98 130q7 12 4 15t-22 8l-43 12v27h207v-26l-44 -11q-23 -6 -38 -23l-138 -165l171 -208q18 -22 40 -28l30 -8v-27h-239v28l33 6q34 6 20 24
l-120 149l-109 -142q-8 -11 -5 -15.5t20 -9.5l38 -12v-28h-201z" />
    <glyph glyph-name="y.sc" horiz-adv-x="542" 
d="M126 0v27l69 15q19 4 23 7t4 13v144l-163 228q-13 18 -29 24l-31 8v30h230v-30l-36 -9q-16 -4 -19 -7.5t5 -16.5l123 -173l115 175q6 13 1.5 16.5t-26.5 8.5l-33 7v29h185v-29l-31 -7q-23 -5 -38 -27l-148 -212v-159q0 -10 4 -13t22 -7l70 -15v-27h-297z" />
    <glyph glyph-name="z.sc" horiz-adv-x="507" 
d="M34 0v15l315 443h-113q-89 0 -114 -8q-25 -29 -47 -110h-29l10 164q32 -8 77 -8h348v-14l-313 -443h116q87 0 118 12q16 16 35.5 51t29.5 63h29l-29 -165h-433z" />
    <glyph glyph-name="braceleft.sc" horiz-adv-x="500" 
d="M412 -253q-105 0 -148.5 43t-43.5 130v209q0 61 -44 89t-106 28v29q62 0 106 32t44 100v168q0 89 38.5 131t143.5 42v-25q-56 0 -80 -30.5t-24 -102.5v-164q0 -61 -33.5 -106t-95.5 -52q65 -9 97 -45t32 -103v-212q0 -71 28 -102t86 -31v-28z" />
    <glyph glyph-name="braceright.sc" horiz-adv-x="500" 
d="M88 -253v28q58 0 86.5 31t28.5 102v212q0 67 31.5 102.5t97.5 45.5q-61 6 -95 51.5t-34 106.5v164q0 72 -24.5 102.5t-80.5 30.5v25q105 0 144 -42t39 -131v-168q0 -68 43.5 -100t105.5 -32v-29q-61 0 -105 -28t-44 -89v-209q0 -87 -44 -130t-149 -43z" />
    <glyph glyph-name="aacute.sc" horiz-adv-x="544" 
d="M-14 0v27l46 10q15 4 24 24l186 447h54l185 -448q9 -19 25 -23l37 -10v-27h-235v27l46 10q25 6 16 27l-33 80h-193l-32 -83q-8 -20 14 -25l46 -9v-27h-186zM157 184h164l-84 209zM261 573l63 146q7 16 22 29.5t32 13.5q14 0 24.5 -10t10.5 -24q0 -27 -26 -53l-102 -102
h-24z" />
    <glyph glyph-name="agrave.sc" horiz-adv-x="544" 
d="M-14 0v27l46 10q15 4 24 24l186 447h54l185 -448q9 -19 25 -23l37 -10v-27h-235v27l46 10q25 6 16 27l-33 80h-193l-32 -83q-8 -20 14 -25l46 -9v-27h-186zM157 184h164l-84 209zM248 573l-102 102q-26 26 -26 53q0 14 10.5 24t24.5 10q17 0 32 -13.5t22 -29.5l63 -146
h-24z" />
    <glyph glyph-name="acircumflex.sc" horiz-adv-x="544" 
d="M-14 0v27l46 10q15 4 24 24l186 447h54l185 -448q9 -19 25 -23l37 -10v-27h-235v27l46 10q25 6 16 27l-33 80h-193l-32 -83q-8 -20 14 -25l46 -9v-27h-186zM157 184h164l-84 209zM99 573l150 175h30l150 -175h-34l-130 98h-2l-130 -98h-34z" />
    <glyph glyph-name="adieresis.sc" horiz-adv-x="544" 
d="M-14 0v27l46 10q15 4 24 24l186 447h54l185 -448q9 -19 25 -23l37 -10v-27h-235v27l46 10q25 6 16 27l-33 80h-193l-32 -83q-8 -20 14 -25l46 -9v-27h-186zM157 184h164l-84 209zM360 573q-21 0 -36 15t-15 36q0 22 15 36.5t36 14.5q22 0 37 -14.5t15 -36.5
q0 -21 -15 -36t-37 -15zM172 573q-22 0 -37 15t-15 36q0 22 15 36.5t37 14.5q21 0 36 -14.5t15 -36.5q0 -21 -15 -36t-36 -15z" />
    <glyph glyph-name="atilde.sc" horiz-adv-x="544" 
d="M-14 0v27l46 10q15 4 24 24l186 447h54l185 -448q9 -19 25 -23l37 -10v-27h-235v27l46 10q25 6 16 27l-33 80h-193l-32 -83q-8 -20 14 -25l46 -9v-27h-186zM157 184h164l-84 209zM341 564q-31 0 -88 36q-4 2 -16 10.5t-17.5 12t-16.5 7t-21 3.5q-27 0 -39.5 -18.5
t-12.5 -41.5h-25q0 40 23.5 79t69.5 39q16 0 30.5 -4.5t21.5 -9t20.5 -14.5t17.5 -13q2 -1 7.5 -5t8 -5.5l7.5 -4.5t9 -4.5t9 -3.5t11 -2.5t12 -0.5q25 0 39 19.5t14 42.5h23q0 -122 -87 -122z" />
    <glyph glyph-name="aring.sc" horiz-adv-x="544" 
d="M-14 0v27l46 10q15 4 24 24l186 447h54l185 -448q9 -19 25 -23l37 -10v-27h-235v27l46 10q25 6 16 27l-33 80h-193l-32 -83q-8 -20 14 -25l46 -9v-27h-186zM157 184h164l-84 209zM269 573q-44 0 -69.5 25.5t-25.5 63.5t26 63.5t69 25.5q44 0 70 -25.5t26 -63.5t-26 -63.5
t-70 -25.5zM269 593q55 0 55 69q0 33 -15.5 50.5t-39.5 17.5q-55 0 -55 -68q0 -33 15.5 -51t39.5 -18z" />
    <glyph glyph-name="ccedilla.sc" horiz-adv-x="594" 
d="M328 -10q-140 0 -214 72t-74 187q0 119 83 189t218 70q88 0 148 -25l16 21h19l8 -173h-29q-14 68 -43 107q-43 39 -116 39q-93 0 -141 -65t-48 -158q0 -101 50.5 -165.5t126.5 -64.5q59 0 113 34q14 13 32.5 48.5t25.5 62.5h30l-30 -148q-75 -31 -175 -31zM278 -252
q-47 0 -76 20l16 32q6 -13 23 -22.5t37 -9.5q52 0 52 48q0 23 -26 47t-26 53q0 36 40 52l8 -4q-16 -16 -16 -32q0 -13 12.5 -23.5t27.5 -18t27.5 -25t12.5 -41.5q0 -76 -112 -76z" />
    <glyph glyph-name="eacute.sc" horiz-adv-x="551" 
d="M39 0v27l51 11q19 4 23 7t4 13v379q0 10 -4.5 13t-21.5 7l-52 12v27h355q43 0 72 9l15 -159h-25q-19 64 -43 92q-41 24 -127 24h-7q-27 0 -57 -5v-181h94q18 10 31.5 31.5t16.5 41.5h19v-187h-19q-12 55 -48 77h-94v-200q57 -6 70 -6h20q78 0 115 25q32 35 52 102h25
l-25 -160h-440zM264 573l63 146q7 16 22 29.5t32 13.5q14 0 24.5 -10t10.5 -24q0 -27 -26 -53l-102 -102h-24z" />
    <glyph glyph-name="egrave.sc" horiz-adv-x="551" 
d="M39 0v27l51 11q19 4 23 7t4 13v379q0 10 -4.5 13t-21.5 7l-52 12v27h355q43 0 72 9l15 -159h-25q-19 64 -43 92q-41 24 -127 24h-7q-27 0 -57 -5v-181h94q18 10 31.5 31.5t16.5 41.5h19v-187h-19q-12 55 -48 77h-94v-200q57 -6 70 -6h20q78 0 115 25q32 35 52 102h25
l-25 -160h-440zM261 573l-102 102q-26 26 -26 53q0 14 10.5 24t24.5 10q17 0 32 -13.5t22 -29.5l63 -146h-24z" />
    <glyph glyph-name="ecircumflex.sc" horiz-adv-x="551" 
d="M39 0v27l51 11q19 4 23 7t4 13v379q0 10 -4.5 13t-21.5 7l-52 12v27h355q43 0 72 9l15 -159h-25q-19 64 -43 92q-41 24 -127 24h-7q-27 0 -57 -5v-181h94q18 10 31.5 31.5t16.5 41.5h19v-187h-19q-12 55 -48 77h-94v-200q57 -6 70 -6h20q78 0 115 25q32 35 52 102h25
l-25 -160h-440zM112 573l150 175h30l150 -175h-34l-130 98h-2l-130 -98h-34z" />
    <glyph glyph-name="edieresis.sc" horiz-adv-x="551" 
d="M39 0v27l51 11q19 4 23 7t4 13v379q0 10 -4.5 13t-21.5 7l-52 12v27h355q43 0 72 9l15 -159h-25q-19 64 -43 92q-41 24 -127 24h-7q-27 0 -57 -5v-181h94q18 10 31.5 31.5t16.5 41.5h19v-187h-19q-12 55 -48 77h-94v-200q57 -6 70 -6h20q78 0 115 25q32 35 52 102h25
l-25 -160h-440zM373 573q-21 0 -36 15t-15 36q0 22 15 36.5t36 14.5q22 0 37 -14.5t15 -36.5q0 -21 -15 -36t-37 -15zM185 573q-22 0 -37 15t-15 36q0 22 15 36.5t37 14.5q21 0 36 -14.5t15 -36.5q0 -21 -15 -36t-36 -15z" />
    <glyph glyph-name="iacute.sc" horiz-adv-x="334" 
d="M39 0v27l51 11q19 4 23 7t4 13v379q0 10 -4.5 13t-21.5 7l-52 12v27h256v-27l-46 -12q-13 -3 -17.5 -5t-7 -5t-2.5 -10v-379q0 -10 4 -13t22 -7l47 -11v-27h-256zM156 573l63 146q7 16 22 29.5t32 13.5q14 0 24.5 -10t10.5 -24q0 -27 -26 -53l-102 -102h-24z" />
    <glyph glyph-name="igrave.sc" horiz-adv-x="334" 
d="M39 0v27l51 11q19 4 23 7t4 13v379q0 10 -4.5 13t-21.5 7l-52 12v27h256v-27l-46 -12q-13 -3 -17.5 -5t-7 -5t-2.5 -10v-379q0 -10 4 -13t22 -7l47 -11v-27h-256zM153 573l-102 102q-26 26 -26 53q0 14 10.5 24t24.5 10q17 0 32 -13.5t22 -29.5l63 -146h-24z" />
    <glyph glyph-name="icircumflex.sc" horiz-adv-x="334" 
d="M39 0v27l51 11q19 4 23 7t4 13v379q0 10 -4.5 13t-21.5 7l-52 12v27h256v-27l-46 -12q-13 -3 -17.5 -5t-7 -5t-2.5 -10v-379q0 -10 4 -13t22 -7l47 -11v-27h-256zM2 573l150 175h30l150 -175h-34l-130 98h-2l-130 -98h-34z" />
    <glyph glyph-name="idieresis.sc" horiz-adv-x="334" 
d="M39 0v27l51 11q19 4 23 7t4 13v379q0 10 -4.5 13t-21.5 7l-52 12v27h256v-27l-46 -12q-13 -3 -17.5 -5t-7 -5t-2.5 -10v-379q0 -10 4 -13t22 -7l47 -11v-27h-256zM257 573q-21 0 -36 15t-15 36q0 22 15 36.5t36 14.5q22 0 37 -14.5t15 -36.5q0 -21 -15 -36t-37 -15z
M69 573q-22 0 -37 15t-15 36q0 22 15 36.5t37 14.5q21 0 36 -14.5t15 -36.5q0 -21 -15 -36t-36 -15z" />
    <glyph glyph-name="ntilde.sc" horiz-adv-x="666" 
d="M512 -10l-355 402v-233q0 -44 6 -101q3 -16 18 -19l76 -12v-27h-226v27l55 10q14 2 17 19q6 60 6 102v276q0 12 -4.5 15t-24.5 8l-44 11v28h163l312 -350v215q0 31 -4 73q-2 21 -17 23l-77 12v27h224v-27l-55 -10q-18 -3 -18 -22q-5 -50 -5 -73v-374h-47zM402 564
q-31 0 -88 36q-4 2 -16 10.5t-17.5 12t-16.5 7t-21 3.5q-27 0 -39.5 -18.5t-12.5 -41.5h-25q0 40 23.5 79t69.5 39q16 0 30.5 -4.5t21.5 -9t20.5 -14.5t17.5 -13q2 -1 7.5 -5t8 -5.5l7.5 -4.5t9 -4.5t9 -3.5t11 -2.5t12 -0.5q25 0 39 19.5t14 42.5h23q0 -122 -87 -122z" />
    <glyph glyph-name="oacute.sc" horiz-adv-x="645" 
d="M322 -10q-125 0 -205.5 77t-80.5 187q0 109 80 181.5t206 72.5q127 0 206 -72.5t79 -181.5q0 -110 -79.5 -187t-205.5 -77zM322 25q59 0 98.5 35.5t55.5 85t16 108.5q0 91 -41.5 155t-128.5 64q-86 0 -128 -64t-42 -155q0 -58 16 -107.5t55.5 -85.5t98.5 -36zM311 573
l63 146q7 16 22 29.5t32 13.5q14 0 24.5 -10t10.5 -24q0 -27 -26 -53l-102 -102h-24z" />
    <glyph glyph-name="ograve.sc" horiz-adv-x="645" 
d="M322 -10q-125 0 -205.5 77t-80.5 187q0 109 80 181.5t206 72.5q127 0 206 -72.5t79 -181.5q0 -110 -79.5 -187t-205.5 -77zM322 25q59 0 98.5 35.5t55.5 85t16 108.5q0 91 -41.5 155t-128.5 64q-86 0 -128 -64t-42 -155q0 -58 16 -107.5t55.5 -85.5t98.5 -36zM308 573
l-102 102q-26 26 -26 53q0 14 10.5 24t24.5 10q17 0 32 -13.5t22 -29.5l63 -146h-24z" />
    <glyph glyph-name="ocircumflex.sc" horiz-adv-x="645" 
d="M322 -10q-125 0 -205.5 77t-80.5 187q0 109 80 181.5t206 72.5q127 0 206 -72.5t79 -181.5q0 -110 -79.5 -187t-205.5 -77zM322 25q59 0 98.5 35.5t55.5 85t16 108.5q0 91 -41.5 155t-128.5 64q-86 0 -128 -64t-42 -155q0 -58 16 -107.5t55.5 -85.5t98.5 -36zM149 573
l150 175h30l150 -175h-34l-130 98h-2l-130 -98h-34z" />
    <glyph glyph-name="odieresis.sc" horiz-adv-x="645" 
d="M322 -10q-125 0 -205.5 77t-80.5 187q0 109 80 181.5t206 72.5q127 0 206 -72.5t79 -181.5q0 -110 -79.5 -187t-205.5 -77zM322 25q59 0 98.5 35.5t55.5 85t16 108.5q0 91 -41.5 155t-128.5 64q-86 0 -128 -64t-42 -155q0 -58 16 -107.5t55.5 -85.5t98.5 -36zM410 573
q-21 0 -36 15t-15 36q0 22 15 36.5t36 14.5q22 0 37 -14.5t15 -36.5q0 -21 -15 -36t-37 -15zM222 573q-22 0 -37 15t-15 36q0 22 15 36.5t37 14.5q21 0 36 -14.5t15 -36.5q0 -21 -15 -36t-36 -15z" />
    <glyph glyph-name="otilde.sc" horiz-adv-x="645" 
d="M322 -10q-125 0 -205.5 77t-80.5 187q0 109 80 181.5t206 72.5q127 0 206 -72.5t79 -181.5q0 -110 -79.5 -187t-205.5 -77zM322 25q59 0 98.5 35.5t55.5 85t16 108.5q0 91 -41.5 155t-128.5 64q-86 0 -128 -64t-42 -155q0 -58 16 -107.5t55.5 -85.5t98.5 -36zM391 564
q-31 0 -88 36q-4 2 -16 10.5t-17.5 12t-16.5 7t-21 3.5q-27 0 -39.5 -18.5t-12.5 -41.5h-25q0 40 23.5 79t69.5 39q16 0 30.5 -4.5t21.5 -9t20.5 -14.5t17.5 -13q2 -1 7.5 -5t8 -5.5l7.5 -4.5t9 -4.5t9 -3.5t11 -2.5t12 -0.5q25 0 39 19.5t14 42.5h23q0 -122 -87 -122z" />
    <glyph glyph-name="uacute.sc" horiz-adv-x="642" 
d="M331 -10q-104 0 -167 50t-63 146v251q0 10 -3.5 13t-17.5 7l-47 12v27h251v-27l-54 -12q-15 -3 -19.5 -6.5t-4.5 -13.5v-247q0 -73 36.5 -114.5t99.5 -41.5q78 0 115.5 45.5t37.5 117.5v241q0 10 -4 13t-19 6l-58 12v27h197v-27l-40 -11q-11 -3 -15 -5t-6 -5t-2 -10v-245
q0 -96 -58 -149.5t-159 -53.5zM340 573l63 146q7 16 22 29.5t32 13.5q14 0 24.5 -10t10.5 -24q0 -27 -26 -53l-102 -102h-24z" />
    <glyph glyph-name="ugrave.sc" horiz-adv-x="642" 
d="M331 -10q-104 0 -167 50t-63 146v251q0 10 -3.5 13t-17.5 7l-47 12v27h251v-27l-54 -12q-15 -3 -19.5 -6.5t-4.5 -13.5v-247q0 -73 36.5 -114.5t99.5 -41.5q78 0 115.5 45.5t37.5 117.5v241q0 10 -4 13t-19 6l-58 12v27h197v-27l-40 -11q-11 -3 -15 -5t-6 -5t-2 -10v-245
q0 -96 -58 -149.5t-159 -53.5zM327 573l-102 102q-26 26 -26 53q0 14 10.5 24t24.5 10q17 0 32 -13.5t22 -29.5l63 -146h-24z" />
    <glyph glyph-name="ucircumflex.sc" horiz-adv-x="642" 
d="M331 -10q-104 0 -167 50t-63 146v251q0 10 -3.5 13t-17.5 7l-47 12v27h251v-27l-54 -12q-15 -3 -19.5 -6.5t-4.5 -13.5v-247q0 -73 36.5 -114.5t99.5 -41.5q78 0 115.5 45.5t37.5 117.5v241q0 10 -4 13t-19 6l-58 12v27h197v-27l-40 -11q-11 -3 -15 -5t-6 -5t-2 -10v-245
q0 -96 -58 -149.5t-159 -53.5zM178 573l150 175h30l150 -175h-34l-130 98h-2l-130 -98h-34z" />
    <glyph glyph-name="udieresis.sc" horiz-adv-x="642" 
d="M331 -10q-104 0 -167 50t-63 146v251q0 10 -3.5 13t-17.5 7l-47 12v27h251v-27l-54 -12q-15 -3 -19.5 -6.5t-4.5 -13.5v-247q0 -73 36.5 -114.5t99.5 -41.5q78 0 115.5 45.5t37.5 117.5v241q0 10 -4 13t-19 6l-58 12v27h197v-27l-40 -11q-11 -3 -15 -5t-6 -5t-2 -10v-245
q0 -96 -58 -149.5t-159 -53.5zM439 573q-21 0 -36 15t-15 36q0 22 15 36.5t36 14.5q22 0 37 -14.5t15 -36.5q0 -21 -15 -36t-37 -15zM251 573q-22 0 -37 15t-15 36q0 22 15 36.5t37 14.5q21 0 36 -14.5t15 -36.5q0 -21 -15 -36t-36 -15z" />
    <glyph glyph-name="dagger.sc" horiz-adv-x="448" 
d="M198 -232v494h-173v47h173v199h52v-199h173v-47h-173v-494h-52z" />
    <glyph glyph-name="degree.sc" horiz-adv-x="433" 
d="M216 344q-73 0 -123 50t-50 123t50 122.5t123 49.5t123 -49.5t50 -122.5t-50 -123t-123 -50zM216 383q51 0 85 38.5t34 93.5q0 56 -34 94.5t-85 38.5t-86 -38.5t-35 -94.5q0 -55 35 -93.5t86 -38.5z" />
    <glyph glyph-name="cent.sc" 
d="M287 -91v77h-2q-130 0 -196.5 73.5t-66.5 189.5t74.5 188t190.5 76v60h27v-60q60 -2 127 -30l16 21h19l8 -173h-29q-14 68 -43 107q-45 41 -98 44v-460q32 5 83 36q14 13 32.5 48.5t25.5 62.5h30l-30 -148q-74 -30 -141 -34v-78h-27zM287 20v461q-74 -6 -112 -72.5
t-38 -154.5q0 -101 42 -167t108 -67z" />
    <glyph glyph-name="sterling.sc" 
d="M331 -32q-44 0 -128 16t-157 16q-32 0 -46 -6v18l44 51q32 0 55 26t27 76l6 64h-82l21 42h64l4 38q8 92 67.5 145.5t151.5 53.5q54 0 90.5 -22t36.5 -54q0 -25 -14 -40t-38 -15q-35 0 -45.5 34.5t13.5 51.5q-13 13 -44 13q-57 0 -81.5 -35t-32.5 -112l-5 -58h138v-42
h-142l-2 -14q-8 -57 -43 -98t-80 -55q69 0 149.5 -13t103.5 -13q52 0 75 24.5t23 78.5h25q0 -171 -154 -171z" />
    <glyph glyph-name="section.sc" horiz-adv-x="519" 
d="M238 -238q-68 0 -116 27.5t-48 70.5q0 24 16.5 39.5t37.5 15.5q19 0 34 -10t22 -32.5t-14 -59.5q29 -18 67 -18q39 0 65.5 27t26.5 69q0 33 -15 53t-60 50l-69 46q-33 22 -53.5 39.5t-39.5 48.5t-19 65q0 56 36 94t89 58l-5 3q-80 48 -80 132q0 72 58.5 110.5t127.5 38.5
q71 0 120.5 -29.5t49.5 -73.5q0 -25 -16 -40t-37 -15q-19 0 -34.5 10t-22 33t14.5 59q-32 23 -74 23t-70.5 -24t-28.5 -71q0 -33 17.5 -53.5t64.5 -50.5l68 -43q27 -17 41 -27.5t34 -30.5t29 -44t9 -54q0 -55 -35 -95t-88 -60l3 -2l3 -3q69 -58 69 -127q0 -66 -53.5 -107.5
t-124.5 -41.5zM320 57l14 10q43 31 43 105q0 49 -39 76l-117 82q-27 -18 -43.5 -48.5t-16.5 -63.5q0 -14 4.5 -26t9 -20.5t16.5 -19.5t18.5 -15.5t23.5 -17t23 -16.5z" />
    <glyph glyph-name="paragraph.sc" horiz-adv-x="540" 
d="M284 -272v474h-32q-37 0 -76 11.5t-76 35.5t-60.5 68.5t-23.5 102.5q0 49 17 85.5t42.5 58t61.5 34.5t69 17.5t70 4.5h266v-48h-72v-572h-54v572h-77v-844h-55z" />
    <glyph glyph-name="germandbls.sc" horiz-adv-x="624" 
d="M433 -12q-66 0 -126 29l-12 128h25q15 -70 32 -91q37 -32 79 -32q35 0 54.5 23t19.5 60q0 34 -12.5 55t-39.5 38l-47 29q-28 17 -45 31t-31.5 39.5t-14.5 56.5q0 26 11.5 48t25 33.5t35 28t30.5 24.5q37 34 37 88q0 46 -33.5 73t-82.5 27q-58 0 -96.5 -42.5t-38.5 -120.5
v-440q0 -22 21 -32l32 -15v0v-26h-222v24l34 9q3 1 7.5 2t7 1.5t5.5 1.5t4 1.5l3 1.5t2.5 2t1.5 2.5t1 3.5v4v360h-69l17 45h53v27q0 105 72 163.5t172 58.5q80 0 134 -34.5t54 -94.5q0 -23 -14 -43.5t-28.5 -31.5t-42.5 -29q-40 -25 -40 -81q0 -31 9.5 -50t35.5 -35l66 -42
q33 -21 57 -54.5t24 -77.5q0 -65 -45.5 -105.5t-121.5 -40.5z" />
    <glyph glyph-name="registered.sc" horiz-adv-x="728" 
d="M364 -17q-136 0 -233 96t-97 232t97 232.5t233 96.5t233 -96.5t97 -232.5t-97 -232t-233 -96zM364 27q118 0 197 83.5t79 200.5t-79 201t-197 84q-119 0 -197.5 -84t-78.5 -201t78.5 -200.5t197.5 -83.5zM182 145v21l35 7q12 2 14.5 3.5t2.5 7.5v264q0 6 -2 7.5t-14 3.5
l-36 8v20h177q67 0 106 -23t39 -67q0 -33 -28.5 -60t-69.5 -35q12 -7 41 -44l37 -46q22 -28 39 -38l37 -8v-21h-103q-18 10 -54 61l-59 83h-36v-105q0 -6 2 -7.5t13 -3.5l36 -7v-21h-177zM308 308h33q47 0 67 20.5t20 60.5q0 33 -15.5 50.5t-56.5 17.5h-11q-12 0 -37 -5
v-144z" />
    <glyph glyph-name="copyright.sc" horiz-adv-x="728" 
d="M364 -17q-136 0 -233 96t-97 232t97 232.5t233 96.5t233 -96.5t97 -232.5t-97 -232t-233 -96zM364 27q118 0 197 83.5t79 200.5t-79 201t-197 84q-119 0 -197.5 -84t-78.5 -201t78.5 -200.5t197.5 -83.5zM378 133q-99 0 -153.5 51.5t-54.5 126.5q0 79 61 129t156 50
q54 0 95 -16l13 12h16l7 -124h-20q-15 62 -32 81q-27 22 -77 22q-132 0 -132 -150q0 -72 33 -113.5t90 -41.5q43 0 75 19q21 18 42 82h22l-22 -107q-53 -21 -119 -21z" />
    <glyph glyph-name="trademark.sc" horiz-adv-x="1064" 
d="M141 260v22l41 8q12 2 14.5 3.5t2.5 7.5v294h-22q-51 0 -77 -14q-20 -26 -30 -69h-19l5 116q21 -8 58 -8h250q35 0 51 7l5 -115h-20q-9 37 -30 68q-27 15 -70 15h-28v-294q0 -6 2 -7.5t14 -3.5l42 -8v-22h-189zM467 260v22l43 6q11 1 13 16q3 36 3 56v218q0 7 -3 9t-16 4
l-33 7v23h120l137 -263l141 262h117v-21l-35 -8q-10 -2 -12.5 -4t-2.5 -8v-278q0 -6 2.5 -8t13.5 -4l35 -7v-22h-172v22l30 7q11 2 14 4t3 8v249l-154 -289h-4l-149 282v-182q0 -20 3 -56q0 -15 11 -16l45 -7v-22h-150z" />
    <glyph glyph-name="acute.sc" horiz-adv-x="645" 
d="M311 573l63 146q7 16 22 29.5t32 13.5q14 0 24.5 -10t10.5 -24q0 -27 -26 -53l-102 -102h-24z" />
    <glyph glyph-name="dieresis.sc" horiz-adv-x="645" 
d="M410 573q-21 0 -36 15t-15 36q0 22 15 36.5t36 14.5q22 0 37 -14.5t15 -36.5q0 -21 -15 -36t-37 -15zM222 573q-22 0 -37 15t-15 36q0 22 15 36.5t37 14.5q21 0 36 -14.5t15 -36.5q0 -21 -15 -36t-36 -15z" />
    <glyph glyph-name="notequal.sc" 
d="M87 -40l-24 16l102 150h-133v48h168l95 140h-263v48h299l101 146l24 -18l-88 -128h120v-48h-156l-95 -140h251v-48h-286z" />
    <glyph glyph-name="infinity.sc" horiz-adv-x="700" 
d="M507 140q-62 0 -96.5 30.5t-58.5 91.5q-12 -24 -22 -39.5t-29.5 -35t-48.5 -30t-66 -10.5q-76 0 -115.5 52t-39.5 123q0 87 46 128t110 41q102 0 148 -129q21 59 65 92t107 33q87 0 126.5 -51t39.5 -126q0 -81 -45 -125.5t-121 -44.5zM181 206q16 0 29.5 2t25 8t20 10
t17.5 16t13.5 16.5t12.5 21t10 20.5t10.5 24.5t9.5 23.5q-28 38 -58 54.5t-84 16.5q-58 0 -96 -24.5t-38 -74.5q0 -44 34 -79t94 -35zM508 198q59 0 100.5 34t41.5 78q0 47 -35 78.5t-97 31.5q-36 0 -63 -12t-45 -36.5t-28 -45.5t-22 -55q33 -39 62 -56t86 -17z" />
    <glyph glyph-name="plusminus.sc" 
d="M235 -33v251h-200v47h200v228h56v-228h200v-47h-200v-251h-56zM35 -145v48h456v-48h-456z" />
    <glyph glyph-name="lessequal.sc" 
d="M476 27l-454 214l454 214l20 -41l-312 -153l-60 -22l57 -20l315 -151zM32 -148v43h463v-43h-463z" />
    <glyph glyph-name="greaterequal.sc" 
d="M52 27l-20 41l315 151l57 20l-60 22l-312 153l20 41l454 -214zM33 -148v43h463v-43h-463z" />
    <glyph glyph-name="yen.sc" 
d="M121 0v27l69 15q19 4 23 7t4 13v45h-162v38h162v62h-162v37v0v0h1v0h1v0h1h1h1h1h1h1h1h1h1h1h1h1h1h1h1h1h1h1h1h1h1h1h1h1h1h1h1h1h1h2h1h1h1h1h2h1h1h1h2h1h1h2h1h1h2h1h1h2h1h2h1h2h1h2h1h2h1h2h1h2h1h2h1h2h2h1h2h1h2h2h1h2h2h1h2h2h1h2h2h2h1h2h2h2h1h2h2h2h2h2h1
h10l-127 190q-13 18 -29 24l-31 8v30h230v-30l-36 -9q-16 -4 -19 -7.5t5 -16.5l113 -173l105 175q6 13 2 16.5t-27 8.5l-33 7v29h185v-29l-31 -7q-23 -5 -38 -27l-123 -189h140v-37h-155v-62h155v-38h-155v-45q0 -10 4 -13t22 -7l70 -15v-27h-297z" />
    <glyph glyph-name="ordfeminine.sc" horiz-adv-x="497" 
d="M46 267v19l33 8q12 2 18 17l135 325h38l135 -325q5 -13 18 -17l26 -8v-19h-169v19l33 8q18 5 12 19l-25 60h-139l-24 -62q-5 -15 10 -18l33 -7v-19h-134zM46 167v34h403v-34h-403zM170 402h118l-60 151z" />
    <glyph glyph-name="ordmasculine.sc" horiz-adv-x="503" 
d="M252 259q-90 0 -148 56.5t-58 135.5t57.5 132t148.5 53t148 -53t57 -132q0 -80 -57 -136t-148 -56zM46 167v34h411v-34h-411zM252 285q62 0 92 49t30 117q0 66 -29.5 112.5t-92.5 46.5t-93 -46.5t-30 -112.5q0 -67 30.5 -116.5t92.5 -49.5z" />
    <glyph glyph-name="ae.sc" horiz-adv-x="773" 
d="M-13 0v27l37 8q14 3 20.5 8t13.5 16l273 437h44h241q43 0 72 9l15 -159h-25q-19 64 -43 92q-41 24 -127 24h-7q-27 0 -57 -5v-181h94q18 10 31.5 31.5t16.5 41.5h19v-187h-19q-12 55 -48 77h-94v-200q57 -6 70 -6h20q78 0 115 25q32 35 52 102h25l-25 -160h-440v27l51 11
q19 4 23 7t4 13v86h-176l-46 -83q-8 -21 11 -25l46 -9v-27h-187zM187 184h152v245z" />
    <glyph glyph-name="oslash.sc" horiz-adv-x="645" 
d="M83 -75l77 109q-59 36 -91.5 94t-32.5 126q0 109 80 181.5t206 72.5q84 0 152 -35l41 58h38l-53 -74q51 -35 79 -88t28 -115q0 -110 -79.5 -187t-205.5 -77q-72 0 -135 29l-68 -94h-36zM198 87l241 337q-44 49 -117 49q-86 0 -128 -64t-42 -155q0 -102 46 -167zM322 25
q59 0 98.5 35.5t55.5 85t16 108.5q0 86 -34 144l-239 -334q42 -39 103 -39z" />
    <glyph glyph-name="questiondown.sc" horiz-adv-x="423" 
d="M233 393q-27 0 -43 15.5t-16 41.5t16 42t43 16q28 0 45 -16t17 -42t-17 -41.5t-45 -15.5zM192 -10q-74 0 -116 30.5t-42 91.5q0 18 7 35.5t15 28.5t26.5 26t27 21t32 20t27.5 17q30 19 33 21v64h67q-1 -27 -15 -52t-25.5 -35.5t-31.5 -27.5q-60 -49 -60 -123
q0 -34 26 -58t65 -24q41 0 72 22q-22 25 -22 54q0 17 14 29.5t34 12.5q18 0 31.5 -14t13.5 -35q0 -37 -52 -67l-19 -11q-46 -26 -108 -26z" />
    <glyph glyph-name="exclamdown.sc" horiz-adv-x="267" 
d="M132 393q-27 0 -43 15.5t-16 41.5t16 42t43 16q28 0 45 -16t17 -42t-17 -41.5t-45 -15.5zM134 -10q-17 0 -32.5 6t-22.5 12l-7 6q13 52 30.5 155t17.5 152h28q0 -49 17.5 -152t30.5 -155q-29 -24 -62 -24z" />
    <glyph glyph-name="logicalnot.sc" 
d="M437 42v176h-398v51h452v-227h-54z" />
    <glyph glyph-name="florin.sc" 
d="M49 -238q-37 0 -64.5 16.5t-27.5 50.5q0 25 17.5 39.5t39.5 14.5q28 0 45.5 -23t-0.5 -67q63 0 93 51t42 173l30 303h-106l24 46h87l11 105q7 66 30 114t57 73.5t70.5 37.5t76.5 12q39 0 69 -16.5t30 -51.5q0 -25 -17 -39.5t-38 -14.5q-27 0 -45 22.5t-2 67.5
q-48 0 -82.5 -36t-41.5 -107l-17 -167h133v-46h-138l-27 -283q-13 -139 -78 -207t-171 -68z" />
    <glyph glyph-name="approxequal.sc" horiz-adv-x="609" 
d="M401 436q-40 0 -108 36q-63 33 -91 33q-27 0 -44.5 -19t-17.5 -41h-25q0 38 28 78t75 40q16 0 33.5 -5t27 -9.5t28 -15t21.5 -11.5q50 -26 84 -26q26 0 44.5 20.5t18.5 41.5h23q0 -55 -26 -88.5t-71 -33.5zM401 240q-40 0 -108 36q-63 33 -91 33q-27 0 -44.5 -19
t-17.5 -41h-25q0 38 28 78t75 40q16 0 33.5 -5t27 -9.5t28 -15t21.5 -11.5q50 -26 84 -26q26 0 44.5 20.5t18.5 41.5h23q0 -55 -26 -88.5t-71 -33.5z" />
    <glyph glyph-name="guillemotleft.sc" horiz-adv-x="389" 
d="M349 102l-165 159v26l165 159v-33l-86 -138v-2l86 -138v-33zM175 102l-165 159v26l165 159v-33l-86 -138v-2l86 -138v-33z" />
    <glyph glyph-name="guillemotright.sc" horiz-adv-x="389" 
d="M214 102v33l86 138v2l-86 138v33l165 -159v-26zM40 102v33l86 138v2l-86 138v33l165 -159v-26z" />
    <glyph glyph-name="oe.sc" horiz-adv-x="926" 
d="M322 -10q-125 0 -205.5 77t-80.5 187q0 109 80 181.5t206 72.5q97 0 170 -46v34h277q43 0 72 9l15 -159h-25q-19 64 -43 92q-41 24 -127 24h-7q-27 0 -57 -5v-181h94q18 10 31.5 31.5t16.5 41.5h19v-187h-19q-12 55 -48 77h-94v-200q57 -6 70 -6h20q78 0 115 25
q32 35 52 102h25l-25 -160h-362v39q-73 -49 -170 -49zM322 25q59 0 98.5 35.5t55.5 85t16 108.5q0 91 -41.5 155t-128.5 64q-86 0 -128 -64t-42 -155q0 -58 16 -107.5t55.5 -85.5t98.5 -36z" />
    <glyph glyph-name="endash.sc" horiz-adv-x="488" 
d="M28 273v50h431v-50h-431z" />
    <glyph glyph-name="emdash.sc" horiz-adv-x="977" 
d="M28 273v50h922v-50h-922z" />
    <glyph glyph-name="quotedblleft.sc" horiz-adv-x="447" 
d="M312 274q-27 0 -46.5 17.5t-19.5 57.5q0 23 5.5 45t13 36.5t19 29.5t19.5 22t18.5 16t11.5 10h48q-21 -20 -32.5 -32.5t-23 -34t-11.5 -41.5q26 0 44 -18t18 -44q0 -27 -19 -45.5t-45 -18.5zM128 274q-27 0 -46 17.5t-19 57.5q0 23 5.5 45t13 36.5t19 29.5t19.5 22
t18.5 16t11.5 10h48q-21 -19 -33.5 -32t-23.5 -34t-11 -42q26 0 44 -18t18 -44q0 -27 -19 -45.5t-45 -18.5z" />
    <glyph glyph-name="quotedblright.sc" horiz-adv-x="447" 
d="M252 274q68 62 68 108q-26 0 -44 18.5t-18 44.5t19 44.5t45 18.5q27 0 46 -17.5t19 -57.5q0 -28 -7 -52t-19.5 -42t-22.5 -29.5t-22.5 -22.5t-14.5 -13h-49zM69 274q67 61 67 108q-25 0 -43 18.5t-18 44.5t18.5 44.5t44.5 18.5q28 0 47 -17.5t19 -57.5q0 -28 -7 -52
t-19.5 -42.5t-22.5 -29.5t-23.5 -22.5t-14.5 -12.5h-48z" />
    <glyph glyph-name="quoteleft.sc" horiz-adv-x="265" 
d="M133 274q-27 0 -46.5 17.5t-19.5 57.5q0 23 5.5 45t13 36.5t19 29.5t19.5 22t18.5 16t11.5 10h49q-69 -61 -69 -108q26 0 44 -18t18 -44q0 -27 -18.5 -45.5t-44.5 -18.5z" />
    <glyph glyph-name="quoteright.sc" horiz-adv-x="265" 
d="M64 274q68 60 68 108q-26 0 -44 18t-18 44q0 27 19 45.5t45 18.5q27 0 46 -18t19 -58q0 -27 -7 -51.5t-19.5 -42.5t-22.5 -29t-23.5 -22.5t-14.5 -12.5h-48z" />
    <glyph glyph-name="divide.sc" 
d="M266 362q-26 0 -43 16.5t-17 41.5q0 23 17.5 39t42.5 16t42 -16t17 -39q0 -24 -17 -41t-42 -17zM35 219v48h456v-48h-456zM266 8q-25 0 -42.5 16t-17.5 39q0 25 17.5 41.5t42.5 16.5t42 -16.5t17 -41.5q0 -23 -17 -39t-42 -16z" />
    <glyph glyph-name="ydieresis.sc" horiz-adv-x="542" 
d="M126 0v27l69 15q19 4 23 7t4 13v144l-163 228q-13 18 -29 24l-31 8v30h230v-30l-36 -9q-16 -4 -19 -7.5t5 -16.5l123 -173l115 175q6 13 1.5 16.5t-26.5 8.5l-33 7v29h185v-29l-31 -7q-23 -5 -38 -27l-148 -212v-159q0 -10 4 -13t22 -7l70 -15v-27h-297zM382 573
q-21 0 -36 15t-15 36q0 22 15 36.5t36 14.5q22 0 37 -14.5t15 -36.5q0 -21 -15 -36t-37 -15zM194 573q-22 0 -37 15t-15 36q0 22 15 36.5t37 14.5q21 0 36 -14.5t15 -36.5q0 -21 -15 -36t-36 -15z" />
    <glyph glyph-name="Euro.sc" 
d="M319 -11q-201 0 -239 192h-81l21 41h55q-1 8 -1 25q0 21 4 42h-56l21 42h43q25 82 87 129.5t153 47.5q68 0 109.5 -37t43.5 -100h-31q-12 106 -120 106q-62 0 -91.5 -36.5t-41.5 -109.5h186l-23 -42h-166q-3 -21 -3 -37q0 -20 1 -30h144l-22 -41h-119q16 -157 129 -157
q108 0 128 96h33q0 -14 -7.5 -33t-24 -42.5t-51 -39.5t-81.5 -16z" />
    <glyph glyph-name="guilsinglleft.sc" horiz-adv-x="215" 
d="M175 102l-165 159v26l165 159v-33l-86 -138v-2l86 -138v-33z" />
    <glyph glyph-name="guilsinglright.sc" horiz-adv-x="215" 
d="M40 102v33l86 138v2l-86 138v33l165 -159v-26z" />
    <glyph glyph-name="daggerdbl.sc" horiz-adv-x="448" 
d="M198 -232v223h-173v47h173v224h-173v47h173v199h52v-199h173v-47h-173v-224h173v-47h-173v-223h-52z" />
    <glyph glyph-name="perthousand.sc" horiz-adv-x="1079" 
d="M177 307q-65 0 -111.5 47t-46.5 115t46 114.5t112 46.5t112 -46.5t46 -114.5t-46.5 -115t-111.5 -47zM177 -12l-38 28l413 617l35 -30zM901 -10q-65 0 -111.5 47t-46.5 115t46 114.5t112 46.5t112 -46.5t46 -114.5t-46.5 -115t-111.5 -47zM545 -10q-65 0 -111.5 47
t-46.5 115t46 114.5t112 46.5t112 -46.5t46 -114.5t-46.5 -115t-111.5 -47zM177 348q44 0 71.5 33t27.5 86q0 54 -27.5 87t-71.5 33t-72 -33t-28 -87q0 -52 28.5 -85.5t71.5 -33.5zM901 31q44 0 71.5 33t27.5 86q0 54 -27.5 87t-71.5 33t-72 -33t-28 -87q0 -52 28.5 -85.5
t71.5 -33.5zM545 31q44 0 71.5 33t27.5 86q0 54 -27.5 87t-71.5 33t-72 -33t-28 -87q0 -52 28.5 -85.5t71.5 -33.5z" />
    <glyph glyph-name="dotlessi.sc" horiz-adv-x="334" 
d="M39 0v27l51 11q19 4 23 7t4 13v379q0 10 -4.5 13t-21.5 7l-52 12v27h256v-27l-46 -12q-13 -3 -17.5 -5t-7 -5t-2.5 -10v-379q0 -10 4 -13t22 -7l47 -11v-27h-256z" />
    <glyph glyph-name="circumflex.sc" horiz-adv-x="645" 
d="M149 573l150 175h30l150 -175h-34l-130 98h-2l-130 -98h-34z" />
    <glyph glyph-name="tilde.sc" horiz-adv-x="645" 
d="M391 564q-31 0 -88 36q-4 2 -16 10.5t-17.5 12t-16.5 7t-21 3.5q-27 0 -39.5 -18.5t-12.5 -41.5h-25q0 40 23.5 79t69.5 39q16 0 30.5 -4.5t21.5 -9t20.5 -14.5t17.5 -13q2 -1 7.5 -5t8 -5.5l7.5 -4.5t9 -4.5t9 -3.5t11 -2.5t12 -0.5q25 0 39 19.5t14 42.5h23
q0 -122 -87 -122z" />
    <glyph glyph-name="macron.sc" horiz-adv-x="645" 
d="M210 573v40h228v-40h-228z" />
    <glyph glyph-name="breve.sc" horiz-adv-x="645" 
d="M319 573q-77 0 -116 40.5t-39 94.5h34q0 -78 121 -78t121 78h34q0 -54 -39 -94.5t-116 -40.5z" />
    <glyph glyph-name="dotaccent.sc" horiz-adv-x="645" 
d="M318 573q-25 0 -42.5 17t-17.5 42q0 24 17.5 41.5t42.5 17.5t42.5 -17.5t17.5 -41.5q0 -25 -18 -42t-42 -17z" />
    <glyph glyph-name="ring.sc" horiz-adv-x="645" 
d="M319 573q-44 0 -69.5 25.5t-25.5 63.5t26 63.5t69 25.5q44 0 70 -25.5t26 -63.5t-26 -63.5t-70 -25.5zM319 593q55 0 55 69q0 33 -15.5 50.5t-39.5 17.5q-55 0 -55 -68q0 -33 15.5 -51t39.5 -18z" />
    <glyph glyph-name="cedilla.sc" horiz-adv-x="188" 
d="M52 -252q-47 0 -76 20l16 32q6 -13 23 -22.5t37 -9.5q52 0 52 48q0 23 -26 47t-26 53q0 36 40 52l8 -4q-16 -16 -16 -32q0 -13 12.5 -23.5t27.5 -18t27.5 -25t12.5 -41.5q0 -76 -112 -76z" />
    <glyph glyph-name="hungarumlaut.sc" horiz-adv-x="645" 
d="M397 573l123 146q1 1 8 10t10 12.5t10 9.5t13 8.5t13 2.5q14 0 24.5 -10t10.5 -24q0 -22 -33 -46l-155 -109h-24zM227 573l123 146q1 1 8 10t10 12.5t10 9.5t13 8.5t13 2.5q14 0 24.5 -10t10.5 -24q0 -22 -33 -46l-155 -109h-24z" />
    <glyph glyph-name="ogonek.sc" horiz-adv-x="184" 
d="M104 -252q-46 0 -75 18.5t-29 57.5q0 47 52.5 89t95.5 55h24q-112 -67 -112 -144q0 -52 60 -52q24 0 64 24l-12 -36q-20 -12 -68 -12z" />
    <glyph glyph-name="caron.sc" horiz-adv-x="645" 
d="M305 573l-150 175h34l130 -98h2l130 98h34l-150 -175h-30z" />
    <glyph glyph-name="zero.oldstyle" 
d="M265 -10q-106 0 -169.5 70.5t-63.5 188.5q0 113 63.5 186t169.5 73q109 0 170 -69.5t61 -188.5q0 -113 -63 -186.5t-168 -73.5zM265 27q58 0 88 57.5t30 165.5q0 102 -30 161.5t-88 59.5q-57 0 -88.5 -57.5t-31.5 -163.5q0 -110 31.5 -166.5t88.5 -56.5z" />
    <glyph glyph-name="one.oldstyle" 
d="M103 0v30l107 14q18 2 23 8.5t5 24.5v326h-12l-131 -50l-8 30q175 81 224 125h32v-431q0 -19 6 -25.5t23 -8.5l97 -13v-30h-366z" />
    <glyph glyph-name="two.oldstyle" 
d="M68 0v23l116 107q57 53 88.5 105t31.5 120q0 97 -94 97q-38 0 -67 -28t-29 -82q0 -12 1 -18h-27q-4 15 -4 34q0 61 46 105.5t131 44.5q72 0 114 -38.5t42 -106.5q0 -125 -177 -245l-64 -43h203q18 0 27 10l63 78h22q-10 -21 -27 -82t-17 -81h-379z" />
    <glyph glyph-name="three.oldstyle" 
d="M220 -191q-33 0 -69.5 9t-68 31.5t-31.5 53.5q0 25 13 40.5t38 15.5q24 0 40 -17.5t18 -43.5l3 -39q25 -19 57 -19q62 0 95.5 48.5t33.5 128.5q0 70 -35 105t-93 35q-29 0 -50 -10v36q55 6 91 26q75 40 75 129q0 52 -28 84.5t-75 32.5q-51 0 -86.5 -29t-35.5 -88h-26
q0 72 47.5 121t126.5 49t126 -41.5t47 -109.5q0 -52 -37.5 -97t-90.5 -65q152 -29 152 -161q0 -93 -66.5 -159t-170.5 -66z" />
    <glyph glyph-name="four.oldstyle" 
d="M310 -191v191h-281v57l277 422q18 2 50 12t41 17h18v-433h104l-16 -75h-88v-191h-105zM88 75h222v345z" />
    <glyph glyph-name="five.oldstyle" 
d="M236 -193q-34 0 -70 7.5t-69 31t-33 58.5q0 23 15 37t34 14q56 0 60 -61l3 -39q23 -16 61 -16q62 0 94.5 56.5t32.5 130.5q0 79 -37 128t-98 49q-63 0 -109 -37h-21q0 3 5.5 35t9.5 61t9 70t8 83.5t2 80.5h328l-25 -88h-266q0 -78 -25 -192q49 29 114 29q107 0 160 -60.5
t53 -149.5q0 -87 -65 -157.5t-171 -70.5z" />
    <glyph glyph-name="six.oldstyle" 
d="M277 -13q-43 0 -79.5 14t-69 44.5t-51.5 88t-19 136.5q0 174 86 279t207 105q70 0 115 -30v-34q-38 20 -98 20q-75 0 -132 -76.5t-71 -206.5q52 67 136 67q85 0 138.5 -51.5t53.5 -142.5t-58.5 -152t-157.5 -61zM284 20q51 0 79 48.5t28 121.5t-31 114.5t-87 41.5
q-63 0 -111 -58q0 -4 -0.5 -14t-0.5 -14q0 -240 123 -240z" />
    <glyph glyph-name="seven.oldstyle" 
d="M93 -192l324 600h-362l21 88h415v-16l-211 -460q-77 -170 -77 -212h-110z" />
    <glyph glyph-name="eight.oldstyle" 
d="M259 -13q-92 0 -147 46t-55 122q0 62 38.5 103t97.5 62q-118 52 -118 165q0 78 60 122t138 44q97 0 144.5 -47.5t47.5 -104.5q0 -36 -11.5 -64t-33 -47t-41 -30t-46.5 -21q59 -18 98 -63.5t39 -106.5q0 -60 -33 -102.5t-79.5 -60t-98.5 -17.5zM300 348q39 26 56.5 56
t17.5 91q0 52 -26.5 88t-77.5 36q-41 0 -69.5 -34t-28.5 -84q0 -38 8.5 -64t27 -41.5t36.5 -24.5t47 -20zM259 20q47 0 76.5 37t29.5 99q0 34 -11.5 60t-35 43t-45.5 26.5t-56 20.5q-35 -26 -49.5 -59t-14.5 -91t30.5 -97t75.5 -39z" />
    <glyph glyph-name="nine.oldstyle" 
d="M163 -191q-28 0 -64.5 8.5t-54.5 23.5v31q39 -21 107 -21q67 0 117.5 52t74.5 119t33 143q-52 -63 -133 -63q-87 0 -142.5 52t-55.5 143q0 94 58 152.5t154 58.5q112 0 169 -75.5t57 -205.5q0 -77 -21 -150.5t-59.5 -133.5t-101 -97t-138.5 -37zM275 153q61 0 104 48v22
q0 49 -4 86.5t-16 78.5t-38 63.5t-65 22.5q-53 0 -82 -46.5t-29 -123.5q0 -68 33 -109.5t97 -41.5z" />
    </font>
</defs>
</svg>
